<?xml version="1.0" encoding="utf-8" standalone="no"?>
<!DOCTYPE svg PUBLIC "-//W3C//DTD SVG 1.1//EN"
  "http://www.w3.org/Graphics/SVG/1.1/DTD/svg11.dtd">
<svg xmlns:xlink="http://www.w3.org/1999/xlink" width="432pt" height="288pt" viewBox="0 0 432 288" xmlns="http://www.w3.org/2000/svg" version="1.1">
 <metadata>
  <rdf:RDF xmlns:dc="http://purl.org/dc/elements/1.1/" xmlns:cc="http://creativecommons.org/ns#" xmlns:rdf="http://www.w3.org/1999/02/22-rdf-syntax-ns#">
   <cc:Work>
    <dc:type rdf:resource="http://purl.org/dc/dcmitype/StillImage"/>
    <dc:date>2026-05-26T09:45:50.145962</dc:date>
    <dc:format>image/svg+xml</dc:format>
    <dc:creator>
     <cc:Agent>
      <dc:title>Matplotlib v3.5.1, https://matplotlib.org/</dc:title>
     </cc:Agent>
    </dc:creator>
   </cc:Work>
  </rdf:RDF>
 </metadata>
 <defs>
  <style type="text/css">*{stroke-linejoin: round; stroke-linecap: butt}</style>
 </defs>
 <g id="figure_1">
  <g id="patch_1">
   <path d="M 0 288 
L 432 288 
L 432 0 
L 0 0 
z
" style="fill: #ffffff"/>
  </g>
  <g id="axes_1">
   <g id="patch_2">
    <path d="M 52.61625 117.241875 
L 409.86 117.241875 
L 409.86 12.96 
L 52.61625 12.96 
z
" style="fill: #ffffff"/>
   </g>
   <g id="matplotlib.axis_1">
    <g id="xtick_1">
     <g id="line2d_1">
      <path d="M 69.627857 117.241875 
L 69.627857 12.96 
" clip-path="url(#p0385d69ab3)" style="fill: none; stroke: #cccccc; stroke-linecap: round"/>
     </g>
    </g>
    <g id="xtick_2">
     <g id="line2d_2">
      <path d="M 137.674286 117.241875 
L 137.674286 12.96 
" clip-path="url(#p0385d69ab3)" style="fill: none; stroke: #cccccc; stroke-linecap: round"/>
     </g>
    </g>
    <g id="xtick_3">
     <g id="line2d_3">
      <path d="M 205.720714 117.241875 
L 205.720714 12.96 
" clip-path="url(#p0385d69ab3)" style="fill: none; stroke: #cccccc; stroke-linecap: round"/>
     </g>
    </g>
    <g id="xtick_4">
     <g id="line2d_4">
      <path d="M 273.767143 117.241875 
L 273.767143 12.96 
" clip-path="url(#p0385d69ab3)" style="fill: none; stroke: #cccccc; stroke-linecap: round"/>
     </g>
    </g>
    <g id="xtick_5">
     <g id="line2d_5">
      <path d="M 341.813571 117.241875 
L 341.813571 12.96 
" clip-path="url(#p0385d69ab3)" style="fill: none; stroke: #cccccc; stroke-linecap: round"/>
     </g>
    </g>
    <g id="xtick_6">
     <g id="line2d_6">
      <path d="M 409.86 117.241875 
L 409.86 12.96 
" clip-path="url(#p0385d69ab3)" style="fill: none; stroke: #cccccc; stroke-linecap: round"/>
     </g>
    </g>
   </g>
   <g id="matplotlib.axis_2">
    <g id="ytick_1">
     <g id="line2d_7">
      <path d="M 52.61625 117.241875 
L 409.86 117.241875 
" clip-path="url(#p0385d69ab3)" style="fill: none; stroke: #cccccc; stroke-linecap: round"/>
     </g>
     <g id="text_1">
      <text style="fill: #262626; font: 11px 'sans-serif'; text-anchor: end" x="43.11625" y="121.178672" transform="rotate(-0, 43.11625, 121.178672)">0.0</text>
     </g>
    </g>
    <g id="ytick_2">
     <g id="line2d_8">
      <path d="M 52.61625 67.583839 
L 409.86 67.583839 
" clip-path="url(#p0385d69ab3)" style="fill: none; stroke: #cccccc; stroke-linecap: round"/>
     </g>
     <g id="text_2">
      <text style="fill: #262626; font: 11px 'sans-serif'; text-anchor: end" x="43.11625" y="71.520636" transform="rotate(-0, 43.11625, 71.520636)">0.5</text>
     </g>
    </g>
    <g id="ytick_3">
     <g id="line2d_9">
      <path d="M 52.61625 17.925804 
L 409.86 17.925804 
" clip-path="url(#p0385d69ab3)" style="fill: none; stroke: #cccccc; stroke-linecap: round"/>
     </g>
     <g id="text_3">
      <text style="fill: #262626; font: 11px 'sans-serif'; text-anchor: end" x="43.11625" y="21.8626" transform="rotate(-0, 43.11625, 21.8626)">1.0</text>
     </g>
    </g>
    <g id="text_4">
     <text style="fill: #262626; font: 12px 'sans-serif'; text-anchor: middle" x="21.300625" y="65.100938" transform="rotate(-90, 21.300625, 65.100938)">Density</text>
    </g>
   </g>
   <g id="line2d_10">
    <path d="M 70.308321 109.24609 
L 73.710643 109.24609 
L 73.710643 100.408643 
L 77.112964 100.408643 
L 77.112964 91.992026 
L 80.515286 91.992026 
L 80.515286 84.417072 
L 83.917607 84.417072 
L 83.917607 77.683779 
L 87.319929 77.683779 
L 87.319929 71.792147 
L 90.72225 71.792147 
L 90.72225 66.321347 
L 94.124571 66.321347 
L 94.124571 63.796362 
L 97.526893 63.796362 
L 97.526893 61.271377 
L 100.929214 61.271377 
L 100.929214 59.167223 
L 104.331536 59.167223 
L 104.331536 56.221407 
L 107.733857 56.221407 
L 107.733857 55.379746 
L 111.136179 55.379746 
L 111.136179 53.275592 
L 114.5385 53.275592 
L 114.5385 51.171438 
L 117.940821 51.171438 
L 117.940821 49.488114 
L 121.343143 49.488114 
L 121.343143 47.38396 
L 124.745464 47.38396 
L 124.745464 46.542299 
L 128.147786 46.542299 
L 128.147786 44.858975 
L 131.550107 44.858975 
L 131.550107 43.596483 
L 134.952429 43.596483 
L 134.952429 41.91316 
L 138.35475 41.91316 
L 138.35475 40.229837 
L 148.561714 40.229837 
L 148.561714 38.967344 
L 151.964036 38.967344 
L 151.964036 38.546513 
L 155.366357 38.546513 
L 155.366357 37.704852 
L 162.171 37.704852 
L 162.171 37.284021 
L 165.573321 37.284021 
L 165.573321 36.442359 
L 168.975643 36.442359 
L 168.975643 35.179867 
L 172.377964 35.179867 
L 172.377964 34.338205 
L 182.584929 34.338205 
L 182.584929 33.917374 
L 185.98725 33.917374 
L 185.98725 33.496544 
L 189.389571 33.496544 
L 189.389571 33.075713 
L 192.791893 33.075713 
L 192.791893 32.234051 
L 196.194214 32.234051 
L 196.194214 31.39239 
L 199.596536 31.39239 
L 199.596536 30.971559 
L 202.998857 30.971559 
L 202.998857 30.550728 
L 209.8035 30.550728 
L 209.8035 29.709066 
L 213.205821 29.709066 
L 213.205821 29.288235 
L 216.608143 29.288235 
L 216.608143 28.446574 
L 226.815107 28.446574 
L 226.815107 28.025743 
L 230.217429 28.025743 
L 230.217429 27.184081 
L 274.447607 27.184081 
L 274.447607 26.763251 
L 277.849929 26.763251 
L 277.849929 26.34242 
L 281.25225 26.34242 
L 281.25225 25.921589 
L 284.654571 25.921589 
L 284.654571 25.500758 
L 288.056893 25.500758 
L 288.056893 25.079927 
L 298.263857 25.079927 
L 298.263857 24.238266 
L 301.666179 24.238266 
L 301.666179 23.817435 
L 322.080107 23.817435 
L 322.080107 23.396604 
L 339.091714 23.396604 
L 339.091714 22.554942 
L 342.494036 22.554942 
L 342.494036 22.134112 
L 352.701 22.134112 
L 352.701 21.713281 
L 356.103321 21.713281 
L 356.103321 21.29245 
L 369.712607 21.29245 
L 369.712607 20.871619 
L 379.919571 20.871619 
L 379.919571 20.450788 
L 393.528857 20.450788 
L 393.528857 20.029958 
L 433 20.029958 
L 433 20.029958 
" clip-path="url(#p0385d69ab3)" style="fill: none; stroke: #852d90; stroke-width: 1.5; stroke-linecap: round"/>
   </g>
   <g id="line2d_11">
    <path d="M 70.308321 98.414184 
L 73.710643 98.414184 
L 73.710643 83.352031 
L 77.112964 83.352031 
L 77.112964 73.467493 
L 80.515286 73.467493 
L 80.515286 66.877801 
L 83.917607 66.877801 
L 83.917607 59.346724 
L 87.319929 59.346724 
L 87.319929 52.757032 
L 90.72225 52.757032 
L 90.72225 48.991494 
L 94.124571 48.991494 
L 94.124571 45.225956 
L 97.526893 45.225956 
L 97.526893 44.755264 
L 100.929214 44.755264 
L 100.929214 43.343187 
L 104.331536 43.343187 
L 104.331536 39.577649 
L 107.733857 39.577649 
L 107.733857 37.694879 
L 111.136179 37.694879 
L 111.136179 35.81211 
L 114.5385 35.81211 
L 114.5385 35.341418 
L 117.940821 35.341418 
L 117.940821 33.458649 
L 121.343143 33.458649 
L 121.343143 32.987957 
L 124.745464 32.987957 
L 124.745464 31.105187 
L 128.147786 31.105187 
L 128.147786 30.634495 
L 131.550107 30.634495 
L 131.550107 29.693111 
L 148.561714 29.693111 
L 148.561714 27.810341 
L 155.366357 27.810341 
L 155.366357 27.339649 
L 158.768679 27.339649 
L 158.768679 25.927572 
L 162.171 25.927572 
L 162.171 24.986188 
L 168.975643 24.986188 
L 168.975643 24.515496 
L 179.182607 24.515496 
L 179.182607 24.044803 
L 185.98725 24.044803 
L 185.98725 23.574111 
L 189.389571 23.574111 
L 189.389571 22.632726 
L 202.998857 22.632726 
L 202.998857 22.162034 
L 216.608143 22.162034 
L 216.608143 20.279265 
L 240.424393 20.279265 
L 240.424393 19.808573 
L 247.229036 19.808573 
L 247.229036 19.33788 
L 254.033679 19.33788 
L 254.033679 18.867188 
L 277.849929 18.867188 
L 277.849929 18.396496 
L 288.056893 18.396496 
L 288.056893 17.925804 
L 433 17.925804 
L 433 17.925804 
" clip-path="url(#p0385d69ab3)" style="fill: none; stroke: #8c74b5; stroke-width: 1.5; stroke-linecap: round"/>
   </g>
   <g id="line2d_12">
    <path d="M 70.308321 117.241875 
L 73.710643 117.241875 
L 73.710643 113.931339 
L 77.112964 113.931339 
L 77.112964 103.999732 
L 80.515286 103.999732 
L 80.515286 100.689196 
L 83.917607 100.689196 
L 83.917607 80.825982 
L 87.319929 80.825982 
L 87.319929 77.515446 
L 90.72225 77.515446 
L 90.72225 70.894375 
L 107.733857 70.894375 
L 107.733857 64.273304 
L 111.136179 64.273304 
L 111.136179 60.962768 
L 114.5385 60.962768 
L 114.5385 57.652232 
L 117.940821 57.652232 
L 117.940821 54.341696 
L 121.343143 54.341696 
L 121.343143 51.031161 
L 124.745464 51.031161 
L 124.745464 44.410089 
L 138.35475 44.410089 
L 138.35475 37.789018 
L 145.159393 37.789018 
L 145.159393 34.478482 
L 165.573321 34.478482 
L 165.573321 31.167946 
L 213.205821 31.167946 
L 213.205821 27.857411 
L 250.631357 27.857411 
L 250.631357 24.546875 
L 315.275464 24.546875 
L 315.275464 21.236339 
L 433 21.236339 
L 433 21.236339 
" clip-path="url(#p0385d69ab3)" style="fill: none; stroke: #9ab4d6; stroke-width: 1.5; stroke-linecap: round"/>
   </g>
   <g id="line2d_13">
    <path d="M 70.308321 115.935085 
L 73.710643 115.935085 
L 73.710643 113.321504 
L 77.112964 113.321504 
L 77.112964 109.401133 
L 80.515286 109.401133 
L 80.515286 101.56039 
L 83.917607 101.56039 
L 83.917607 96.333228 
L 87.319929 96.333228 
L 87.319929 93.719648 
L 90.72225 93.719648 
L 90.72225 87.185695 
L 94.124571 87.185695 
L 94.124571 81.958534 
L 97.526893 81.958534 
L 97.526893 80.651743 
L 100.929214 80.651743 
L 100.929214 79.344953 
L 104.331536 79.344953 
L 104.331536 75.424582 
L 107.733857 75.424582 
L 107.733857 74.117791 
L 111.136179 74.117791 
L 111.136179 72.811001 
L 114.5385 72.811001 
L 114.5385 71.504211 
L 121.343143 71.504211 
L 121.343143 68.89063 
L 124.745464 68.89063 
L 124.745464 67.583839 
L 131.550107 67.583839 
L 131.550107 64.970258 
L 134.952429 64.970258 
L 134.952429 62.356678 
L 138.35475 62.356678 
L 138.35475 61.049887 
L 141.757071 61.049887 
L 141.757071 58.436306 
L 145.159393 58.436306 
L 145.159393 57.129516 
L 148.561714 57.129516 
L 148.561714 54.515935 
L 151.964036 54.515935 
L 151.964036 53.209145 
L 162.171 53.209145 
L 162.171 50.595564 
L 165.573321 50.595564 
L 165.573321 47.981983 
L 168.975643 47.981983 
L 168.975643 44.061612 
L 172.377964 44.061612 
L 172.377964 42.754821 
L 175.780286 42.754821 
L 175.780286 40.141241 
L 182.584929 40.141241 
L 182.584929 37.52766 
L 192.791893 37.52766 
L 192.791893 36.220869 
L 199.596536 36.220869 
L 199.596536 34.914079 
L 206.401179 34.914079 
L 206.401179 33.607289 
L 213.205821 33.607289 
L 213.205821 32.300498 
L 233.61975 32.300498 
L 233.61975 29.686917 
L 250.631357 29.686917 
L 250.631357 28.380127 
L 260.838321 28.380127 
L 260.838321 27.073336 
L 288.056893 27.073336 
L 288.056893 25.766546 
L 298.263857 25.766546 
L 298.263857 24.459756 
L 427.552071 24.459756 
L 427.552071 23.152965 
L 433 23.152965 
L 433 23.152965 
" clip-path="url(#p0385d69ab3)" style="fill: none; stroke: #ccddec; stroke-width: 1.5; stroke-linecap: round"/>
   </g>
   <g id="line2d_14">
    <path d="M 69.627857 117.241875 
L 73.718825 111.735786 
L 77.809792 106.569353 
L 81.90076 101.720815 
L 86.673556 96.438899 
L 91.446351 91.531972 
L 96.219147 86.972238 
L 100.991942 82.733991 
L 105.764738 78.793453 
L 110.537534 75.128637 
L 115.310329 71.719203 
L 120.764953 68.111355 
L 126.219576 64.786709 
L 131.6742 61.721631 
L 137.128823 58.894502 
L 143.265275 55.973842 
L 149.401726 53.303716 
L 155.538178 50.860931 
L 162.356457 48.387899 
L 169.174737 46.143747 
L 176.674844 43.911915 
L 184.856779 41.728841 
L 193.038715 39.777856 
L 201.902478 37.894307 
L 211.448069 36.099413 
L 221.675488 34.40874 
L 232.584735 32.832491 
L 244.857638 31.296578 
L 257.812369 29.90367 
L 272.130756 28.58948 
L 287.812798 27.371578 
L 305.540325 26.218325 
L 325.995163 25.119088 
L 349.177313 24.103296 
L 375.768603 23.163701 
L 407.132688 22.282413 
L 409.86 22.215049 
L 409.86 22.215049 
" clip-path="url(#p0385d69ab3)" style="fill: none; stroke-dasharray: 1.85,0.8; stroke-dashoffset: 0; stroke: #000000; stroke-width: 0.5"/>
   </g>
   <g id="line2d_15">
    <path d="M 69.627857 117.241875 
L 73.036997 110.073627 
L 76.446137 103.492025 
L 79.855276 97.447351 
L 83.264416 91.894139 
L 86.673556 86.790807 
L 90.082695 82.099328 
L 93.491835 77.784925 
L 96.900975 73.815789 
L 100.310115 70.162831 
L 103.719254 66.799442 
L 107.128394 63.701285 
L 111.219362 60.302398 
L 115.310329 57.218602 
L 119.401297 54.418548 
L 123.492265 51.874064 
L 128.26506 49.194877 
L 133.037856 46.79336 
L 137.810651 44.637872 
L 143.265275 42.44003 
L 148.719898 40.490617 
L 154.85635 38.555174 
L 160.992801 36.855287 
L 167.811081 35.202653 
L 175.311188 33.627789 
L 183.493123 32.151965 
L 192.356887 30.787752 
L 201.902478 29.54015 
L 212.811725 28.339024 
L 225.084628 27.212216 
L 239.403015 26.126986 
L 255.766885 25.112129 
L 275.539896 24.118207 
L 298.722046 23.182342 
L 326.676991 22.28324 
L 360.08656 21.437703 
L 399.632581 20.663359 
L 409.86 20.494171 
L 409.86 20.494171 
" clip-path="url(#p0385d69ab3)" style="fill: none; stroke-dasharray: 1.85,0.8; stroke-dashoffset: 0; stroke: #000000; stroke-width: 0.5"/>
   </g>
   <g id="line2d_16">
    <path d="M 69.627857 117.241875 
L 71.673341 105.829381 
L 73.718825 96.108116 
L 75.764309 87.80892 
L 77.809792 80.706169 
L 79.855276 74.610715 
L 81.90076 69.363957 
L 83.946244 64.83289 
L 85.991728 60.905953 
L 88.037212 57.489545 
L 90.082695 54.505117 
L 92.128179 51.886731 
L 94.173663 49.579016 
L 96.219147 47.535455 
L 98.946459 45.154958 
L 101.67377 43.099345 
L 104.401082 41.308279 
L 107.810222 39.369302 
L 111.219362 37.696502 
L 115.310329 35.963994 
L 119.401297 34.465841 
L 124.174092 32.947263 
L 129.628716 31.445615 
L 135.765167 29.986011 
L 142.583447 28.58568 
L 150.765382 27.146275 
L 159.629145 25.822702 
L 169.174737 24.618296 
L 180.083984 23.470093 
L 192.356887 22.414544 
L 205.993445 21.476714 
L 220.99366 20.670141 
L 238.721187 19.949841 
L 259.176025 19.350328 
L 283.721831 18.860382 
L 314.404088 18.477626 
L 355.995593 18.195967 
L 409.86 18.032937 
L 409.86 18.032937 
" clip-path="url(#p0385d69ab3)" style="fill: none; stroke-dasharray: 1.85,0.8; stroke-dashoffset: 0; stroke: #000000; stroke-width: 0.5"/>
   </g>
   <g id="line2d_17">
    <path d="M 69.627857 117.241875 
L 72.355169 109.335951 
L 75.082481 102.253373 
L 77.809792 95.903091 
L 80.537104 90.204235 
L 83.264416 85.084974 
L 85.991728 80.481502 
L 88.71904 76.337144 
L 91.446351 72.601553 
L 94.173663 69.230003 
L 96.900975 66.182757 
L 99.628287 63.424514 
L 103.037426 60.335672 
L 106.446566 57.595948 
L 109.855706 55.159017 
L 113.264845 52.984902 
L 117.355813 50.674645 
L 121.446781 48.64264 
L 125.537748 46.84632 
L 130.310544 45.001197 
L 135.08334 43.381577 
L 140.537963 41.757957 
L 146.674415 40.167094 
L 153.492694 38.632871 
L 160.992801 37.167899 
L 169.856565 35.668277 
L 180.083984 34.173984 
L 191.675059 32.708658 
L 205.311618 31.21567 
L 220.99366 29.730524 
L 238.721187 28.280687 
L 258.494197 26.89004 
L 280.312691 25.580228 
L 304.176669 24.369884 
L 330.767959 23.247033 
L 360.08656 22.235073 
L 392.814301 21.33124 
L 409.86 20.938339 
L 409.86 20.938339 
" clip-path="url(#p0385d69ab3)" style="fill: none; stroke-dasharray: 1.85,0.8; stroke-dashoffset: 0; stroke: #000000; stroke-width: 0.5"/>
   </g>
   <g id="patch_3">
    <path d="M 52.61625 117.241875 
L 52.61625 12.96 
" style="fill: none; stroke: #cccccc; stroke-width: 1.25; stroke-linejoin: miter; stroke-linecap: square"/>
   </g>
   <g id="patch_4">
    <path d="M 409.86 117.241875 
L 409.86 12.96 
" style="fill: none; stroke: #cccccc; stroke-width: 1.25; stroke-linejoin: miter; stroke-linecap: square"/>
   </g>
   <g id="patch_5">
    <path d="M 52.61625 117.241875 
L 409.86 117.241875 
" style="fill: none; stroke: #cccccc; stroke-width: 1.25; stroke-linejoin: miter; stroke-linecap: square"/>
   </g>
   <g id="patch_6">
    <path d="M 52.61625 12.96 
L 409.86 12.96 
" style="fill: none; stroke: #cccccc; stroke-width: 1.25; stroke-linejoin: miter; stroke-linecap: square"/>
   </g>
   <g id="legend_1">
    <g id="patch_7">
     <path d="M 311.421266 112.243875 
L 402.8628 112.243875 
Q 404.862 112.243875 404.862 110.244675 
L 404.862 54.474804 
Q 404.862 52.475604 402.8628 52.475604 
L 311.421266 52.475604 
Q 309.422066 52.475604 309.422066 54.474804 
L 309.422066 110.244675 
Q 309.422066 112.243875 311.421266 112.243875 
z
" style="fill: #ffffff; opacity: 0.8; stroke: #cccccc; stroke-linejoin: miter"/>
    </g>
    <g id="line2d_18">
     <path d="M 313.420466 60.160029 
L 323.416466 60.160029 
L 333.412466 60.160029 
" style="fill: none; stroke: #ccddec; stroke-width: 1.5; stroke-linecap: round"/>
    </g>
    <g id="text_5">
     <text style="fill: #262626; font: 9.996px 'sans-serif'; text-anchor: start" x="341.409266" y="63.658629" transform="rotate(-0, 341.409266, 63.658629)">01_Native</text>
    </g>
    <g id="line2d_19">
     <path d="M 313.420466 74.42151 
L 323.416466 74.42151 
L 333.412466 74.42151 
" style="fill: none; stroke: #9ab4d6; stroke-width: 1.5; stroke-linecap: round"/>
    </g>
    <g id="text_6">
     <text style="fill: #262626; font: 9.996px 'sans-serif'; text-anchor: start" x="341.409266" y="77.92011" transform="rotate(-0, 341.409266, 77.92011)">02_Misfolded</text>
    </g>
    <g id="line2d_20">
     <path d="M 313.420466 88.59084 
L 323.416466 88.59084 
L 333.412466 88.59084 
" style="fill: none; stroke: #8c74b5; stroke-width: 1.5; stroke-linecap: round"/>
    </g>
    <g id="text_7">
     <text style="fill: #262626; font: 9.996px 'sans-serif'; text-anchor: start" x="341.409266" y="92.08944" transform="rotate(-0, 341.409266, 92.08944)">03_A8A2</text>
    </g>
    <g id="line2d_21">
     <path d="M 313.420466 102.76017 
L 323.416466 102.76017 
L 333.412466 102.76017 
" style="fill: none; stroke: #852d90; stroke-width: 1.5; stroke-linecap: round"/>
    </g>
    <g id="text_8">
     <text style="fill: #262626; font: 9.996px 'sans-serif'; text-anchor: start" x="341.409266" y="106.25877" transform="rotate(-0, 341.409266, 106.25877)">04_A8B1</text>
    </g>
   </g>
  </g>
  <g id="axes_2">
   <g id="patch_8">
    <path d="M 52.61625 240.60375 
L 409.86 240.60375 
L 409.86 136.321875 
L 52.61625 136.321875 
z
" style="fill: #ffffff"/>
   </g>
   <g id="matplotlib.axis_3">
    <g id="xtick_7">
     <g id="line2d_22">
      <path d="M 69.627857 240.60375 
L 69.627857 136.321875 
" clip-path="url(#p395db3370e)" style="fill: none; stroke: #cccccc; stroke-linecap: round"/>
     </g>
     <g id="text_9">
      <text style="fill: #262626; font: 11px 'sans-serif'; text-anchor: middle" x="69.627857" y="257.977344" transform="rotate(-0, 69.627857, 257.977344)">0</text>
     </g>
    </g>
    <g id="xtick_8">
     <g id="line2d_23">
      <path d="M 137.674286 240.60375 
L 137.674286 136.321875 
" clip-path="url(#p395db3370e)" style="fill: none; stroke: #cccccc; stroke-linecap: round"/>
     </g>
     <g id="text_10">
      <text style="fill: #262626; font: 11px 'sans-serif'; text-anchor: middle" x="137.674286" y="257.977344" transform="rotate(-0, 137.674286, 257.977344)">20</text>
     </g>
    </g>
    <g id="xtick_9">
     <g id="line2d_24">
      <path d="M 205.720714 240.60375 
L 205.720714 136.321875 
" clip-path="url(#p395db3370e)" style="fill: none; stroke: #cccccc; stroke-linecap: round"/>
     </g>
     <g id="text_11">
      <text style="fill: #262626; font: 11px 'sans-serif'; text-anchor: middle" x="205.720714" y="257.977344" transform="rotate(-0, 205.720714, 257.977344)">40</text>
     </g>
    </g>
    <g id="xtick_10">
     <g id="line2d_25">
      <path d="M 273.767143 240.60375 
L 273.767143 136.321875 
" clip-path="url(#p395db3370e)" style="fill: none; stroke: #cccccc; stroke-linecap: round"/>
     </g>
     <g id="text_12">
      <text style="fill: #262626; font: 11px 'sans-serif'; text-anchor: middle" x="273.767143" y="257.977344" transform="rotate(-0, 273.767143, 257.977344)">60</text>
     </g>
    </g>
    <g id="xtick_11">
     <g id="line2d_26">
      <path d="M 341.813571 240.60375 
L 341.813571 136.321875 
" clip-path="url(#p395db3370e)" style="fill: none; stroke: #cccccc; stroke-linecap: round"/>
     </g>
     <g id="text_13">
      <text style="fill: #262626; font: 11px 'sans-serif'; text-anchor: middle" x="341.813571" y="257.977344" transform="rotate(-0, 341.813571, 257.977344)">80</text>
     </g>
    </g>
    <g id="xtick_12">
     <g id="line2d_27">
      <path d="M 409.86 240.60375 
L 409.86 136.321875 
" clip-path="url(#p395db3370e)" style="fill: none; stroke: #cccccc; stroke-linecap: round"/>
     </g>
     <g id="text_14">
      <text style="fill: #262626; font: 11px 'sans-serif'; text-anchor: middle" x="409.86" y="257.977344" transform="rotate(-0, 409.86, 257.977344)">100</text>
     </g>
    </g>
    <g id="text_15">
     <text style="fill: #262626; font: 12px 'sans-serif'; text-anchor: middle" x="231.238125" y="272.899219" transform="rotate(-0, 231.238125, 272.899219)">Residence time (s)</text>
    </g>
   </g>
   <g id="matplotlib.axis_4">
    <g id="ytick_4">
     <g id="line2d_28">
      <path d="M 52.61625 240.60375 
L 409.86 240.60375 
" clip-path="url(#p395db3370e)" style="fill: none; stroke: #cccccc; stroke-linecap: round"/>
     </g>
     <g id="text_16">
      <text style="fill: #262626; font: 11px 'sans-serif'; text-anchor: end" x="43.11625" y="244.540547" transform="rotate(-0, 43.11625, 244.540547)">0.0</text>
     </g>
    </g>
    <g id="ytick_5">
     <g id="line2d_29">
      <path d="M 52.61625 190.945714 
L 409.86 190.945714 
" clip-path="url(#p395db3370e)" style="fill: none; stroke: #cccccc; stroke-linecap: round"/>
     </g>
     <g id="text_17">
      <text style="fill: #262626; font: 11px 'sans-serif'; text-anchor: end" x="43.11625" y="194.882511" transform="rotate(-0, 43.11625, 194.882511)">0.5</text>
     </g>
    </g>
    <g id="ytick_6">
     <g id="line2d_30">
      <path d="M 52.61625 141.287679 
L 409.86 141.287679 
" clip-path="url(#p395db3370e)" style="fill: none; stroke: #cccccc; stroke-linecap: round"/>
     </g>
     <g id="text_18">
      <text style="fill: #262626; font: 11px 'sans-serif'; text-anchor: end" x="43.11625" y="145.224475" transform="rotate(-0, 43.11625, 145.224475)">1.0</text>
     </g>
    </g>
    <g id="text_19">
     <text style="fill: #262626; font: 12px 'sans-serif'; text-anchor: middle" x="21.300625" y="188.462812" transform="rotate(-90, 21.300625, 188.462812)">Density</text>
    </g>
   </g>
   <g id="line2d_31">
    <path d="M 70.308321 229.095021 
L 73.710643 229.095021 
L 73.710643 218.43879 
L 77.112964 218.43879 
L 77.112964 212.045051 
L 80.515286 212.045051 
L 80.515286 203.093817 
L 83.917607 203.093817 
L 83.917607 198.831325 
L 87.319929 198.831325 
L 87.319929 193.716334 
L 90.72225 193.716334 
L 90.72225 189.453842 
L 94.124571 189.453842 
L 94.124571 185.617599 
L 97.526893 185.617599 
L 97.526893 180.928857 
L 100.929214 180.928857 
L 100.929214 177.945113 
L 104.331536 177.945113 
L 104.331536 175.387617 
L 107.733857 175.387617 
L 107.733857 172.830122 
L 111.136179 172.830122 
L 111.136179 171.551374 
L 114.5385 171.551374 
L 114.5385 170.272626 
L 117.940821 170.272626 
L 117.940821 168.56763 
L 121.343143 168.56763 
L 121.343143 167.715131 
L 124.745464 167.715131 
L 124.745464 167.288882 
L 128.147786 167.288882 
L 128.147786 166.436383 
L 131.550107 166.436383 
L 131.550107 165.583885 
L 134.952429 165.583885 
L 134.952429 165.157636 
L 138.35475 165.157636 
L 138.35475 163.878888 
L 141.757071 163.878888 
L 141.757071 163.026389 
L 145.159393 163.026389 
L 145.159393 162.60014 
L 148.561714 162.60014 
L 148.561714 160.895143 
L 151.964036 160.895143 
L 151.964036 160.042645 
L 155.366357 160.042645 
L 155.366357 158.337648 
L 158.768679 158.337648 
L 158.768679 156.206402 
L 162.171 156.206402 
L 162.171 154.927654 
L 172.377964 154.927654 
L 172.377964 154.501405 
L 175.780286 154.501405 
L 175.780286 153.648906 
L 179.182607 153.648906 
L 179.182607 152.796408 
L 185.98725 152.796408 
L 185.98725 151.51766 
L 192.791893 151.51766 
L 192.791893 151.091411 
L 196.194214 151.091411 
L 196.194214 150.665162 
L 199.596536 150.665162 
L 199.596536 149.812663 
L 202.998857 149.812663 
L 202.998857 149.386414 
L 206.401179 149.386414 
L 206.401179 148.533916 
L 223.412786 148.533916 
L 223.412786 147.681417 
L 233.61975 147.681417 
L 233.61975 147.255168 
L 284.654571 147.255168 
L 284.654571 146.828919 
L 332.287071 146.828919 
L 332.287071 145.97642 
L 339.091714 145.97642 
L 339.091714 145.550171 
L 433 145.550171 
L 433 145.550171 
" clip-path="url(#p395db3370e)" style="fill: none; stroke: #852d90; stroke-width: 1.5; stroke-linecap: round"/>
   </g>
   <g id="line2d_32">
    <path d="M 70.308321 233.864445 
L 73.710643 233.864445 
L 73.710643 226.41574 
L 77.112964 226.41574 
L 77.112964 222.159337 
L 80.515286 222.159337 
L 80.515286 217.548233 
L 83.917607 217.548233 
L 83.917607 213.646531 
L 87.319929 213.646531 
L 87.319929 212.22773 
L 90.72225 212.22773 
L 90.72225 210.099528 
L 94.124571 210.099528 
L 94.124571 209.035427 
L 97.526893 209.035427 
L 97.526893 206.197825 
L 100.929214 206.197825 
L 100.929214 203.714923 
L 104.331536 203.714923 
L 104.331536 201.232022 
L 107.733857 201.232022 
L 107.733857 198.74912 
L 111.136179 198.74912 
L 111.136179 197.330319 
L 114.5385 197.330319 
L 114.5385 196.975619 
L 117.940821 196.975619 
L 117.940821 195.556818 
L 121.343143 195.556818 
L 121.343143 193.783316 
L 124.745464 193.783316 
L 124.745464 193.073916 
L 128.147786 193.073916 
L 128.147786 191.655115 
L 131.550107 191.655115 
L 131.550107 190.945714 
L 134.952429 190.945714 
L 134.952429 190.591014 
L 138.35475 190.591014 
L 138.35475 189.526913 
L 141.757071 189.526913 
L 141.757071 188.108112 
L 145.159393 188.108112 
L 145.159393 187.398712 
L 148.561714 187.398712 
L 148.561714 186.334611 
L 151.964036 186.334611 
L 151.964036 185.27051 
L 155.366357 185.27051 
L 155.366357 184.91581 
L 158.768679 184.91581 
L 158.768679 184.56111 
L 162.171 184.56111 
L 162.171 183.851709 
L 165.573321 183.851709 
L 165.573321 183.142309 
L 168.975643 183.142309 
L 168.975643 182.432908 
L 172.377964 182.432908 
L 172.377964 182.078208 
L 175.780286 182.078208 
L 175.780286 181.368807 
L 179.182607 181.368807 
L 179.182607 181.014107 
L 182.584929 181.014107 
L 182.584929 180.304707 
L 189.389571 180.304707 
L 189.389571 179.950006 
L 192.791893 179.950006 
L 192.791893 178.531205 
L 199.596536 178.531205 
L 199.596536 178.176505 
L 202.998857 178.176505 
L 202.998857 176.757704 
L 206.401179 176.757704 
L 206.401179 176.048304 
L 209.8035 176.048304 
L 209.8035 175.338903 
L 216.608143 175.338903 
L 216.608143 173.920102 
L 220.010464 173.920102 
L 220.010464 173.565402 
L 237.022071 173.565402 
L 237.022071 172.501301 
L 243.826714 172.501301 
L 243.826714 171.791901 
L 247.229036 171.791901 
L 247.229036 171.4372 
L 250.631357 171.4372 
L 250.631357 171.0825 
L 254.033679 171.0825 
L 254.033679 170.7278 
L 260.838321 170.7278 
L 260.838321 170.018399 
L 274.447607 170.018399 
L 274.447607 169.308999 
L 277.849929 169.308999 
L 277.849929 168.599598 
L 281.25225 168.599598 
L 281.25225 168.244898 
L 288.056893 168.244898 
L 288.056893 167.890198 
L 298.263857 167.890198 
L 298.263857 167.535497 
L 301.666179 167.535497 
L 301.666179 167.180797 
L 305.0685 167.180797 
L 305.0685 166.116696 
L 315.275464 166.116696 
L 315.275464 165.761996 
L 318.677786 165.761996 
L 318.677786 165.407296 
L 328.88475 165.407296 
L 328.88475 165.052596 
L 335.689393 165.052596 
L 335.689393 164.343195 
L 342.494036 164.343195 
L 342.494036 163.988495 
L 345.896357 163.988495 
L 345.896357 163.633795 
L 366.310286 163.633795 
L 366.310286 163.279094 
L 369.712607 163.279094 
L 369.712607 162.569694 
L 373.114929 162.569694 
L 373.114929 162.214994 
L 407.138143 162.214994 
L 407.138143 161.150893 
L 410.540464 161.150893 
L 410.540464 160.441492 
L 433 160.441492 
L 433 160.441492 
" clip-path="url(#p395db3370e)" style="fill: none; stroke: #8c74b5; stroke-width: 1.5; stroke-linecap: round"/>
   </g>
   <g id="line2d_33">
    <path d="M 70.308321 231.575016 
L 73.710643 231.575016 
L 73.710643 209.003182 
L 77.112964 209.003182 
L 77.112964 190.945714 
L 80.515286 190.945714 
L 80.515286 181.916981 
L 83.917607 181.916981 
L 83.917607 177.402614 
L 90.72225 177.402614 
L 90.72225 168.37388 
L 97.526893 168.37388 
L 97.526893 163.859513 
L 100.929214 163.859513 
L 100.929214 159.345146 
L 111.136179 159.345146 
L 111.136179 154.830779 
L 117.940821 154.830779 
L 117.940821 150.316412 
L 121.343143 150.316412 
L 121.343143 145.802045 
L 185.98725 145.802045 
L 185.98725 141.287679 
L 433 141.287679 
L 433 141.287679 
" clip-path="url(#p395db3370e)" style="fill: none; stroke: #9ab4d6; stroke-width: 1.5; stroke-linecap: round"/>
   </g>
   <g id="line2d_34">
    <path d="M 70.308321 233.079805 
L 73.710643 233.079805 
L 73.710643 218.031916 
L 77.112964 218.031916 
L 77.112964 210.507971 
L 80.515286 210.507971 
L 80.515286 201.479237 
L 83.917607 201.479237 
L 83.917607 195.460081 
L 87.319929 195.460081 
L 87.319929 186.431347 
L 90.72225 186.431347 
L 90.72225 181.916981 
L 94.124571 181.916981 
L 94.124571 177.402614 
L 100.929214 177.402614 
L 100.929214 172.888247 
L 104.331536 172.888247 
L 104.331536 169.878669 
L 111.136179 169.878669 
L 111.136179 166.869091 
L 114.5385 166.869091 
L 114.5385 160.849935 
L 117.940821 160.849935 
L 117.940821 159.345146 
L 121.343143 159.345146 
L 121.343143 157.840357 
L 124.745464 157.840357 
L 124.745464 156.335568 
L 131.550107 156.335568 
L 131.550107 154.830779 
L 148.561714 154.830779 
L 148.561714 153.32599 
L 165.573321 153.32599 
L 165.573321 151.821201 
L 172.377964 151.821201 
L 172.377964 150.316412 
L 179.182607 150.316412 
L 179.182607 148.811623 
L 185.98725 148.811623 
L 185.98725 147.306834 
L 189.389571 147.306834 
L 189.389571 144.297256 
L 250.631357 144.297256 
L 250.631357 142.792468 
L 298.263857 142.792468 
L 298.263857 141.287679 
L 433 141.287679 
L 433 141.287679 
" clip-path="url(#p395db3370e)" style="fill: none; stroke: #ccddec; stroke-width: 1.5; stroke-linecap: round"/>
   </g>
   <g id="line2d_35">
    <path d="M 69.627857 240.60375 
L 71.673341 233.227541 
L 73.718825 226.505859 
L 75.764309 220.375785 
L 77.809792 214.780636 
L 80.537104 208.064995 
L 83.264416 202.102757 
L 85.991728 196.800454 
L 88.71904 192.076678 
L 91.446351 187.860507 
L 94.173663 184.090132 
L 96.900975 180.711664 
L 99.628287 177.678103 
L 102.355598 174.948439 
L 105.08291 172.486869 
L 108.49205 169.739656 
L 111.90119 167.310209 
L 115.310329 165.154074 
L 118.719469 163.233611 
L 122.810437 161.195561 
L 126.901404 159.405066 
L 131.6742 157.578769 
L 136.446995 155.988974 
L 141.901619 154.411575 
L 148.03807 152.887478 
L 154.85635 151.445618 
L 162.356457 150.104466 
L 170.538392 148.874198 
L 180.083984 147.68113 
L 190.311403 146.630178 
L 201.902478 145.660795 
L 215.539037 144.7535 
L 231.221079 143.947045 
L 248.948606 143.262727 
L 270.085272 142.674909 
L 295.994734 142.188236 
L 328.722475 141.809804 
L 373.041291 141.53734 
L 409.86 141.422946 
L 409.86 141.422946 
" clip-path="url(#p395db3370e)" style="fill: none; stroke-dasharray: 1.85,0.8; stroke-dashoffset: 0; stroke: #000000; stroke-width: 0.5"/>
   </g>
   <g id="line2d_36">
    <path d="M 69.627857 240.60375 
L 71.673341 229.492498 
L 73.718825 219.792344 
L 75.764309 211.313173 
L 77.809792 203.891107 
L 79.855276 197.38485 
L 81.90076 191.672549 
L 83.946244 186.649083 
L 85.991728 182.223741 
L 88.037212 178.318218 
L 90.082695 174.864891 
L 92.128179 171.805344 
L 94.173663 169.089083 
L 96.219147 166.67245 
L 98.946459 163.851811 
L 101.67377 161.421436 
L 104.401082 159.318684 
L 107.128394 157.491753 
L 109.855706 155.897737 
L 113.264845 154.179123 
L 116.673985 152.712678 
L 120.764953 151.223068 
L 124.85592 149.971274 
L 129.628716 148.749642 
L 135.08334 147.600851 
L 141.219791 146.551543 
L 148.03807 145.615253 
L 156.220006 144.7305 
L 165.765597 143.940322 
L 176.674844 143.26714 
L 189.629575 142.692048 
L 205.993445 142.201341 
L 226.448284 141.822966 
L 254.403229 141.545927 
L 296.676562 141.373543 
L 381.223226 141.297175 
L 409.86 141.292184 
L 409.86 141.292184 
" clip-path="url(#p395db3370e)" style="fill: none; stroke-dasharray: 1.85,0.8; stroke-dashoffset: 0; stroke: #000000; stroke-width: 0.5"/>
   </g>
   <g id="line2d_37">
    <path d="M 69.627857 240.60375 
L 72.355169 235.600638 
L 75.082481 231.081456 
L 77.809792 226.995094 
L 80.537104 223.295883 
L 83.264416 219.943014 
L 85.991728 216.900019 
L 88.71904 214.134311 
L 92.128179 211.023049 
L 95.537319 208.249614 
L 98.946459 205.770423 
L 102.355598 203.547607 
L 106.446566 201.172624 
L 110.537534 199.070892 
L 114.628501 197.201204 
L 119.401297 195.267031 
L 124.85592 193.326727 
L 130.310544 191.621455 
L 136.446995 189.928707 
L 143.265275 188.270057 
L 151.44721 186.517656 
L 160.992801 184.718225 
L 171.902048 182.895322 
L 184.856779 180.958616 
L 200.538822 178.843805 
L 219.630004 176.505284 
L 241.448498 174.06302 
L 265.994304 171.544769 
L 292.585594 169.046642 
L 320.54054 166.647079 
L 349.859141 164.354598 
L 380.541399 162.177622 
L 409.86 160.289785 
L 409.86 160.289785 
" clip-path="url(#p395db3370e)" style="fill: none; stroke-dasharray: 1.85,0.8; stroke-dashoffset: 0; stroke: #000000; stroke-width: 0.5"/>
   </g>
   <g id="line2d_38">
    <path d="M 69.627857 240.60375 
L 72.355169 233.404121 
L 75.082481 226.774794 
L 77.809792 220.670218 
L 80.537104 215.048482 
L 83.264416 209.871024 
L 85.991728 205.102366 
L 88.71904 200.709866 
L 91.446351 196.66349 
L 94.855491 192.050372 
L 98.264631 187.88589 
L 101.67377 184.125741 
L 105.08291 180.730001 
L 108.49205 177.662695 
L 111.90119 174.891405 
L 115.310329 172.386919 
L 118.719469 170.122913 
L 122.810437 167.69031 
L 126.901404 165.533389 
L 130.992372 163.619871 
L 135.765167 161.65725 
L 140.537963 159.947746 
L 145.310759 158.457182 
L 150.765382 156.98406 
L 156.901834 155.575868 
L 163.720113 154.268188 
L 171.22022 153.084107 
L 179.402156 152.034898 
L 188.265919 151.121656 
L 198.493338 150.288018 
L 210.766241 149.516159 
L 225.766456 148.807738 
L 244.857638 148.146248 
L 270.085272 147.511154 
L 306.222153 146.840462 
L 362.132044 146.045553 
L 409.86 145.483127 
L 409.86 145.483127 
" clip-path="url(#p395db3370e)" style="fill: none; stroke-dasharray: 1.85,0.8; stroke-dashoffset: 0; stroke: #000000; stroke-width: 0.5"/>
   </g>
   <g id="patch_9">
    <path d="M 52.61625 240.60375 
L 52.61625 136.321875 
" style="fill: none; stroke: #cccccc; stroke-width: 1.25; stroke-linejoin: miter; stroke-linecap: square"/>
   </g>
   <g id="patch_10">
    <path d="M 409.86 240.60375 
L 409.86 136.321875 
" style="fill: none; stroke: #cccccc; stroke-width: 1.25; stroke-linejoin: miter; stroke-linecap: square"/>
   </g>
   <g id="patch_11">
    <path d="M 52.61625 240.60375 
L 409.86 240.60375 
" style="fill: none; stroke: #cccccc; stroke-width: 1.25; stroke-linejoin: miter; stroke-linecap: square"/>
   </g>
   <g id="patch_12">
    <path d="M 52.61625 136.321875 
L 409.86 136.321875 
" style="fill: none; stroke: #cccccc; stroke-width: 1.25; stroke-linejoin: miter; stroke-linecap: square"/>
   </g>
   <g id="legend_2">
    <g id="patch_13">
     <path d="M 311.421266 235.60575 
L 402.8628 235.60575 
Q 404.862 235.60575 404.862 233.60655 
L 404.862 177.836679 
Q 404.862 175.837479 402.8628 175.837479 
L 311.421266 175.837479 
Q 309.422066 175.837479 309.422066 177.836679 
L 309.422066 233.60655 
Q 309.422066 235.60575 311.421266 235.60575 
z
" style="fill: #ffffff; opacity: 0.8; stroke: #cccccc; stroke-linejoin: miter"/>
    </g>
    <g id="line2d_39">
     <path d="M 313.420466 183.521904 
L 323.416466 183.521904 
L 333.412466 183.521904 
" style="fill: none; stroke: #ccddec; stroke-width: 1.5; stroke-linecap: round"/>
    </g>
    <g id="text_20">
     <text style="fill: #262626; font: 9.996px 'sans-serif'; text-anchor: start" x="341.409266" y="187.020504" transform="rotate(-0, 341.409266, 187.020504)">01_Native</text>
    </g>
    <g id="line2d_40">
     <path d="M 313.420466 197.783385 
L 323.416466 197.783385 
L 333.412466 197.783385 
" style="fill: none; stroke: #9ab4d6; stroke-width: 1.5; stroke-linecap: round"/>
    </g>
    <g id="text_21">
     <text style="fill: #262626; font: 9.996px 'sans-serif'; text-anchor: start" x="341.409266" y="201.281985" transform="rotate(-0, 341.409266, 201.281985)">02_Misfolded</text>
    </g>
    <g id="line2d_41">
     <path d="M 313.420466 211.952715 
L 323.416466 211.952715 
L 333.412466 211.952715 
" style="fill: none; stroke: #8c74b5; stroke-width: 1.5; stroke-linecap: round"/>
    </g>
    <g id="text_22">
     <text style="fill: #262626; font: 9.996px 'sans-serif'; text-anchor: start" x="341.409266" y="215.451315" transform="rotate(-0, 341.409266, 215.451315)">03_A8A2</text>
    </g>
    <g id="line2d_42">
     <path d="M 313.420466 226.122045 
L 323.416466 226.122045 
L 333.412466 226.122045 
" style="fill: none; stroke: #852d90; stroke-width: 1.5; stroke-linecap: round"/>
    </g>
    <g id="text_23">
     <text style="fill: #262626; font: 9.996px 'sans-serif'; text-anchor: start" x="341.409266" y="229.620645" transform="rotate(-0, 341.409266, 229.620645)">04_A8B1</text>
    </g>
   </g>
  </g>
 </g>
 <defs>
  <clipPath id="p0385d69ab3">
   <rect x="52.61625" y="12.96" width="357.24375" height="104.281875"/>
  </clipPath>
  <clipPath id="p395db3370e">
   <rect x="52.61625" y="136.321875" width="357.24375" height="104.281875"/>
  </clipPath>
 </defs>
</svg>
