<?xml version="1.0" encoding="utf-8" standalone="no"?>
<!DOCTYPE svg PUBLIC "-//W3C//DTD SVG 1.1//EN"
  "http://www.w3.org/Graphics/SVG/1.1/DTD/svg11.dtd">
<svg xmlns:xlink="http://www.w3.org/1999/xlink" width="460.8pt" height="345.6pt" viewBox="0 0 460.8 345.6" xmlns="http://www.w3.org/2000/svg" version="1.1">
 <metadata>
  <rdf:RDF xmlns:dc="http://purl.org/dc/elements/1.1/" xmlns:cc="http://creativecommons.org/ns#" xmlns:rdf="http://www.w3.org/1999/02/22-rdf-syntax-ns#">
   <cc:Work>
    <dc:type rdf:resource="http://purl.org/dc/dcmitype/StillImage"/>
    <dc:date>2026-05-26T09:43:43.190764</dc:date>
    <dc:format>image/svg+xml</dc:format>
    <dc:creator>
     <cc:Agent>
      <dc:title>Matplotlib v3.5.1, https://matplotlib.org/</dc:title>
     </cc:Agent>
    </dc:creator>
   </cc:Work>
  </rdf:RDF>
 </metadata>
 <defs>
  <style type="text/css">*{stroke-linejoin: round; stroke-linecap: butt}</style>
 </defs>
 <g id="figure_1">
  <g id="patch_1">
   <path d="M 0 345.6 
L 460.8 345.6 
L 460.8 0 
L 0 0 
z
" style="fill: #ffffff"/>
  </g>
  <g id="axes_1">
   <g id="patch_2">
    <path d="M 57.6 307.584 
L 414.72 307.584 
L 414.72 41.472 
L 57.6 41.472 
z
" style="fill: #ffffff"/>
   </g>
   <g id="matplotlib.axis_1">
    <g id="xtick_1">
     <g id="line2d_1">
      <defs>
       <path id="m9247c4876d" d="M 0 0 
L 0 6 
" style="stroke: #262626; stroke-width: 1.25"/>
      </defs>
      <g>
       <use xlink:href="#m9247c4876d" x="145.978182" y="307.584" style="fill: #262626; stroke: #262626; stroke-width: 1.25"/>
      </g>
     </g>
     <g id="text_1">
      <!-- $T_{high-low}$ -->
      <g style="fill: #262626" transform="translate(122.768182 325.114)">
       <text>
        <tspan style="font: oblique 11px 'DejaVu Sans'" x="0" y="-0.984375">T</tspan>
        <tspan style="font: oblique 7.7px 'DejaVu Sans'" x="6.719238 11.599414 13.738721 18.626416 32.958643 35.097949 39.808936" y="0.8203125">highlow</tspan>
        <tspan style="font: 7.7px 'DejaVu Sans'" x="25.006738" y="0.8203125">−</tspan>
       </text>
      </g>
     </g>
    </g>
    <g id="xtick_2">
     <g id="line2d_2">
      <g>
       <use xlink:href="#m9247c4876d" x="326.341818" y="307.584" style="fill: #262626; stroke: #262626; stroke-width: 1.25"/>
      </g>
     </g>
     <g id="text_2">
      <!-- $T_{low-high}$ -->
      <g style="fill: #262626" transform="translate(303.131818 325.114)">
       <text>
        <tspan style="font: oblique 11px 'DejaVu Sans'" x="0" y="-0.984375">T</tspan>
        <tspan style="font: oblique 7.7px 'DejaVu Sans'" x="6.719238 8.858545 13.569531 29.319189 34.199365 36.338672 41.226367" y="0.8203125">lowhigh</tspan>
        <tspan style="font: 7.7px 'DejaVu Sans'" x="21.367285" y="0.8203125">−</tspan>
       </text>
      </g>
     </g>
    </g>
   </g>
   <g id="matplotlib.axis_2">
    <g id="ytick_1">
     <g id="line2d_3">
      <defs>
       <path id="m1ee854888e" d="M 0 0 
L -6 0 
" style="stroke: #262626; stroke-width: 1.25"/>
      </defs>
      <g>
       <use xlink:href="#m1ee854888e" x="57.6" y="307.584" style="fill: #262626; stroke: #262626; stroke-width: 1.25"/>
      </g>
     </g>
     <g id="text_3">
      <text style="fill: #262626; font: 11px 'sans-serif'; text-anchor: end" x="48.1" y="311.520797" transform="rotate(-0, 48.1, 311.520797)">0</text>
     </g>
    </g>
    <g id="ytick_2">
     <g id="line2d_4">
      <g>
       <use xlink:href="#m1ee854888e" x="57.6" y="265.221626" style="fill: #262626; stroke: #262626; stroke-width: 1.25"/>
      </g>
     </g>
     <g id="text_4">
      <text style="fill: #262626; font: 11px 'sans-serif'; text-anchor: end" x="48.1" y="269.158423" transform="rotate(-0, 48.1, 269.158423)">10</text>
     </g>
    </g>
    <g id="ytick_3">
     <g id="line2d_5">
      <g>
       <use xlink:href="#m1ee854888e" x="57.6" y="222.859253" style="fill: #262626; stroke: #262626; stroke-width: 1.25"/>
      </g>
     </g>
     <g id="text_5">
      <text style="fill: #262626; font: 11px 'sans-serif'; text-anchor: end" x="48.1" y="226.796049" transform="rotate(-0, 48.1, 226.796049)">20</text>
     </g>
    </g>
    <g id="ytick_4">
     <g id="line2d_6">
      <g>
       <use xlink:href="#m1ee854888e" x="57.6" y="180.496879" style="fill: #262626; stroke: #262626; stroke-width: 1.25"/>
      </g>
     </g>
     <g id="text_6">
      <text style="fill: #262626; font: 11px 'sans-serif'; text-anchor: end" x="48.1" y="184.433676" transform="rotate(-0, 48.1, 184.433676)">30</text>
     </g>
    </g>
    <g id="ytick_5">
     <g id="line2d_7">
      <g>
       <use xlink:href="#m1ee854888e" x="57.6" y="138.134505" style="fill: #262626; stroke: #262626; stroke-width: 1.25"/>
      </g>
     </g>
     <g id="text_7">
      <text style="fill: #262626; font: 11px 'sans-serif'; text-anchor: end" x="48.1" y="142.071302" transform="rotate(-0, 48.1, 142.071302)">40</text>
     </g>
    </g>
    <g id="ytick_6">
     <g id="line2d_8">
      <g>
       <use xlink:href="#m1ee854888e" x="57.6" y="95.772132" style="fill: #262626; stroke: #262626; stroke-width: 1.25"/>
      </g>
     </g>
     <g id="text_8">
      <text style="fill: #262626; font: 11px 'sans-serif'; text-anchor: end" x="48.1" y="99.708928" transform="rotate(-0, 48.1, 99.708928)">50</text>
     </g>
    </g>
    <g id="ytick_7">
     <g id="line2d_9">
      <g>
       <use xlink:href="#m1ee854888e" x="57.6" y="53.409758" style="fill: #262626; stroke: #262626; stroke-width: 1.25"/>
      </g>
     </g>
     <g id="text_9">
      <text style="fill: #262626; font: 11px 'sans-serif'; text-anchor: end" x="48.1" y="57.346555" transform="rotate(-0, 48.1, 57.346555)">60</text>
     </g>
    </g>
    <g id="text_10">
     <text style="fill: #262626; font: 12px 'sans-serif'; text-anchor: middle" x="29.340312" y="174.528" transform="rotate(-90, 29.340312, 174.528)">Residence time (s)</text>
    </g>
   </g>
   <g id="patch_3">
    <path d="M 73.832727 307.584 
L 109.905455 307.584 
L 109.905455 193.852175 
L 73.832727 193.852175 
z
" clip-path="url(#p9cb4f6ee0d)" style="fill: #d0dde8; stroke: #000000; stroke-linejoin: miter"/>
   </g>
   <g id="patch_4">
    <path d="M 254.196364 307.584 
L 290.269091 307.584 
L 290.269091 263.642665 
L 254.196364 263.642665 
z
" clip-path="url(#p9cb4f6ee0d)" style="fill: #d0dde8; stroke: #000000; stroke-linejoin: miter"/>
   </g>
   <g id="patch_5">
    <path d="M 109.905455 307.584 
L 145.978182 307.584 
L 145.978182 227.858013 
L 109.905455 227.858013 
z
" clip-path="url(#p9cb4f6ee0d)" style="fill: #a2b5cf; stroke: #000000; stroke-linejoin: miter"/>
   </g>
   <g id="patch_6">
    <path d="M 290.269091 307.584 
L 326.341818 307.584 
L 326.341818 280.818682 
L 290.269091 280.818682 
z
" clip-path="url(#p9cb4f6ee0d)" style="fill: #a2b5cf; stroke: #000000; stroke-linejoin: miter"/>
   </g>
   <g id="patch_7">
    <path d="M 145.978182 307.584 
L 182.050909 307.584 
L 182.050909 271.606098 
L 145.978182 271.606098 
z
" clip-path="url(#p9cb4f6ee0d)" style="fill: #8e7cad; stroke: #000000; stroke-linejoin: miter"/>
   </g>
   <g id="patch_8">
    <path d="M 326.341818 307.584 
L 362.414545 307.584 
L 362.414545 73.407824 
L 326.341818 73.407824 
z
" clip-path="url(#p9cb4f6ee0d)" style="fill: #8e7cad; stroke: #000000; stroke-linejoin: miter"/>
   </g>
   <g id="patch_9">
    <path d="M 182.050909 307.584 
L 218.123636 307.584 
L 218.123636 228.359181 
L 182.050909 228.359181 
z
" clip-path="url(#p9cb4f6ee0d)" style="fill: #7c3983; stroke: #000000; stroke-linejoin: miter"/>
   </g>
   <g id="patch_10">
    <path d="M 362.414545 307.584 
L 398.487273 307.584 
L 398.487273 222.019278 
L 362.414545 222.019278 
z
" clip-path="url(#p9cb4f6ee0d)" style="fill: #7c3983; stroke: #000000; stroke-linejoin: miter"/>
   </g>
   <g id="LineCollection_1">
    <path d="M 91.869091 210.361348 
L 91.869091 177.343001 
" clip-path="url(#p9cb4f6ee0d)" style="fill: none; stroke: #000000; stroke-width: 2"/>
    <path d="M 272.232727 270.316353 
L 272.232727 256.968977 
" clip-path="url(#p9cb4f6ee0d)" style="fill: none; stroke: #000000; stroke-width: 2"/>
    <path d="M 127.941818 248.456511 
L 127.941818 207.259514 
" clip-path="url(#p9cb4f6ee0d)" style="fill: none; stroke: #000000; stroke-width: 2"/>
    <path d="M 308.305455 287.912009 
L 308.305455 273.725355 
" clip-path="url(#p9cb4f6ee0d)" style="fill: none; stroke: #000000; stroke-width: 2"/>
    <path d="M 164.014545 275.112993 
L 164.014545 268.099203 
" clip-path="url(#p9cb4f6ee0d)" style="fill: none; stroke: #000000; stroke-width: 2"/>
    <path d="M 344.378182 92.671648 
L 344.378182 54.144 
" clip-path="url(#p9cb4f6ee0d)" style="fill: none; stroke: #000000; stroke-width: 2"/>
    <path d="M 200.087273 236.782454 
L 200.087273 219.935908 
" clip-path="url(#p9cb4f6ee0d)" style="fill: none; stroke: #000000; stroke-width: 2"/>
    <path d="M 380.450909 234.968964 
L 380.450909 209.069591 
" clip-path="url(#p9cb4f6ee0d)" style="fill: none; stroke: #000000; stroke-width: 2"/>
   </g>
   <g id="line2d_10">
    <defs>
     <path id="md124a927ae" d="M 4 0 
L -4 -0 
" style="stroke: #000000"/>
    </defs>
    <g clip-path="url(#p9cb4f6ee0d)">
     <use xlink:href="#md124a927ae" x="91.869091" y="210.361348" style="stroke: #000000"/>
     <use xlink:href="#md124a927ae" x="272.232727" y="270.316353" style="stroke: #000000"/>
     <use xlink:href="#md124a927ae" x="127.941818" y="248.456511" style="stroke: #000000"/>
     <use xlink:href="#md124a927ae" x="308.305455" y="287.912009" style="stroke: #000000"/>
     <use xlink:href="#md124a927ae" x="164.014545" y="275.112993" style="stroke: #000000"/>
     <use xlink:href="#md124a927ae" x="344.378182" y="92.671648" style="stroke: #000000"/>
     <use xlink:href="#md124a927ae" x="200.087273" y="236.782454" style="stroke: #000000"/>
     <use xlink:href="#md124a927ae" x="380.450909" y="234.968964" style="stroke: #000000"/>
    </g>
   </g>
   <g id="line2d_11">
    <g clip-path="url(#p9cb4f6ee0d)">
     <use xlink:href="#md124a927ae" x="91.869091" y="177.343001" style="stroke: #000000"/>
     <use xlink:href="#md124a927ae" x="272.232727" y="256.968977" style="stroke: #000000"/>
     <use xlink:href="#md124a927ae" x="127.941818" y="207.259514" style="stroke: #000000"/>
     <use xlink:href="#md124a927ae" x="308.305455" y="273.725355" style="stroke: #000000"/>
     <use xlink:href="#md124a927ae" x="164.014545" y="268.099203" style="stroke: #000000"/>
     <use xlink:href="#md124a927ae" x="344.378182" y="54.144" style="stroke: #000000"/>
     <use xlink:href="#md124a927ae" x="200.087273" y="219.935908" style="stroke: #000000"/>
     <use xlink:href="#md124a927ae" x="380.450909" y="209.069591" style="stroke: #000000"/>
    </g>
   </g>
   <g id="patch_11">
    <path d="M 57.6 307.584 
L 57.6 41.472 
" style="fill: none; stroke: #262626; stroke-width: 1.25; stroke-linejoin: miter; stroke-linecap: square"/>
   </g>
   <g id="patch_12">
    <path d="M 414.72 307.584 
L 414.72 41.472 
" style="fill: none; stroke: #262626; stroke-width: 1.25; stroke-linejoin: miter; stroke-linecap: square"/>
   </g>
   <g id="patch_13">
    <path d="M 57.6 307.584 
L 414.72 307.584 
" style="fill: none; stroke: #262626; stroke-width: 1.25; stroke-linejoin: miter; stroke-linecap: square"/>
   </g>
   <g id="patch_14">
    <path d="M 57.6 41.472 
L 414.72 41.472 
" style="fill: none; stroke: #262626; stroke-width: 1.25; stroke-linejoin: miter; stroke-linecap: square"/>
   </g>
   <g id="legend_1">
    <g id="patch_15">
     <path d="M 65.3 112.743406 
L 165.925938 112.743406 
Q 168.125937 112.743406 168.125937 110.543406 
L 168.125937 49.172 
Q 168.125937 46.972 165.925938 46.972 
L 65.3 46.972 
Q 63.1 46.972 63.1 49.172 
L 63.1 110.543406 
Q 63.1 112.743406 65.3 112.743406 
z
" style="fill: #ffffff; opacity: 0.8; stroke: #cccccc; stroke-linejoin: miter"/>
    </g>
    <g id="patch_16">
     <path d="M 67.5 59.27825 
L 89.5 59.27825 
L 89.5 51.57825 
L 67.5 51.57825 
z
" style="fill: #d0dde8; stroke: #000000; stroke-linejoin: miter"/>
    </g>
    <g id="text_11">
     <text style="fill: #262626; font: 11px 'sans-serif'; text-anchor: start" x="98.3" y="59.27825" transform="rotate(-0, 98.3, 59.27825)">01_Native</text>
    </g>
    <g id="patch_17">
     <path d="M 67.5 74.972156 
L 89.5 74.972156 
L 89.5 67.272156 
L 67.5 67.272156 
z
" style="fill: #a2b5cf; stroke: #000000; stroke-linejoin: miter"/>
    </g>
    <g id="text_12">
     <text style="fill: #262626; font: 11px 'sans-serif'; text-anchor: start" x="98.3" y="74.972156" transform="rotate(-0, 98.3, 74.972156)">02_Misfolded</text>
    </g>
    <g id="patch_18">
     <path d="M 67.5 90.564656 
L 89.5 90.564656 
L 89.5 82.864656 
L 67.5 82.864656 
z
" style="fill: #8e7cad; stroke: #000000; stroke-linejoin: miter"/>
    </g>
    <g id="text_13">
     <text style="fill: #262626; font: 11px 'sans-serif'; text-anchor: start" x="98.3" y="90.564656" transform="rotate(-0, 98.3, 90.564656)">03_A8A2</text>
    </g>
    <g id="patch_19">
     <path d="M 67.5 106.157156 
L 89.5 106.157156 
L 89.5 98.457156 
L 67.5 98.457156 
z
" style="fill: #7c3983; stroke: #000000; stroke-linejoin: miter"/>
    </g>
    <g id="text_14">
     <text style="fill: #262626; font: 11px 'sans-serif'; text-anchor: start" x="98.3" y="106.157156" transform="rotate(-0, 98.3, 106.157156)">04_A8B1</text>
    </g>
   </g>
  </g>
 </g>
 <defs>
  <clipPath id="p9cb4f6ee0d">
   <rect x="57.6" y="41.472" width="357.12" height="266.112"/>
  </clipPath>
 </defs>
</svg>
