<?xml version="1.0" encoding="utf-8" standalone="no"?>
<!DOCTYPE svg PUBLIC "-//W3C//DTD SVG 1.1//EN"
  "http://www.w3.org/Graphics/SVG/1.1/DTD/svg11.dtd">
<svg xmlns:xlink="http://www.w3.org/1999/xlink" width="460.8pt" height="345.6pt" viewBox="0 0 460.8 345.6" xmlns="http://www.w3.org/2000/svg" version="1.1">
 <metadata>
  <rdf:RDF xmlns:dc="http://purl.org/dc/elements/1.1/" xmlns:cc="http://creativecommons.org/ns#" xmlns:rdf="http://www.w3.org/1999/02/22-rdf-syntax-ns#">
   <cc:Work>
    <dc:type rdf:resource="http://purl.org/dc/dcmitype/StillImage"/>
    <dc:date>2026-05-26T09:43:42.087202</dc:date>
    <dc:format>image/svg+xml</dc:format>
    <dc:creator>
     <cc:Agent>
      <dc:title>Matplotlib v3.5.1, https://matplotlib.org/</dc:title>
     </cc:Agent>
    </dc:creator>
   </cc:Work>
  </rdf:RDF>
 </metadata>
 <defs>
  <style type="text/css">*{stroke-linejoin: round; stroke-linecap: butt}</style>
 </defs>
 <g id="figure_1">
  <g id="patch_1">
   <path d="M 0 345.6 
L 460.8 345.6 
L 460.8 0 
L 0 0 
z
" style="fill: #ffffff"/>
  </g>
  <g id="axes_1">
   <g id="patch_2">
    <path d="M 57.6 307.584 
L 414.72 307.584 
L 414.72 41.472 
L 57.6 41.472 
z
" style="fill: #ffffff"/>
   </g>
   <g id="matplotlib.axis_1">
    <g id="xtick_1">
     <g id="line2d_1">
      <defs>
       <path id="m764bf88f51" d="M 0 0 
L 0 6 
" style="stroke: #262626; stroke-width: 1.25"/>
      </defs>
      <g>
       <use xlink:href="#m764bf88f51" x="145.978182" y="307.584" style="fill: #262626; stroke: #262626; stroke-width: 1.25"/>
      </g>
     </g>
     <g id="text_1">
      <!-- $T_{low-high}$ -->
      <g style="fill: #262626" transform="translate(122.768182 325.114)">
       <text>
        <tspan style="font: oblique 11px 'DejaVu Sans'" x="0" y="-0.984375">T</tspan>
        <tspan style="font: oblique 7.7px 'DejaVu Sans'" x="6.719238 8.858545 13.569531 29.319189 34.199365 36.338672 41.226367" y="0.8203125">lowhigh</tspan>
        <tspan style="font: 7.7px 'DejaVu Sans'" x="21.367285" y="0.8203125">−</tspan>
       </text>
      </g>
     </g>
    </g>
    <g id="xtick_2">
     <g id="line2d_2">
      <g>
       <use xlink:href="#m764bf88f51" x="326.341818" y="307.584" style="fill: #262626; stroke: #262626; stroke-width: 1.25"/>
      </g>
     </g>
     <g id="text_2">
      <!-- $T_{high-low}$ -->
      <g style="fill: #262626" transform="translate(303.131818 325.114)">
       <text>
        <tspan style="font: oblique 11px 'DejaVu Sans'" x="0" y="-0.984375">T</tspan>
        <tspan style="font: oblique 7.7px 'DejaVu Sans'" x="6.719238 11.599414 13.738721 18.626416 32.958643 35.097949 39.808936" y="0.8203125">highlow</tspan>
        <tspan style="font: 7.7px 'DejaVu Sans'" x="25.006738" y="0.8203125">−</tspan>
       </text>
      </g>
     </g>
    </g>
   </g>
   <g id="matplotlib.axis_2">
    <g id="ytick_1">
     <g id="line2d_3">
      <defs>
       <path id="m7bcebd74b8" d="M 0 0 
L -6 0 
" style="stroke: #262626; stroke-width: 1.25"/>
      </defs>
      <g>
       <use xlink:href="#m7bcebd74b8" x="57.6" y="307.584" style="fill: #262626; stroke: #262626; stroke-width: 1.25"/>
      </g>
     </g>
     <g id="text_3">
      <text style="fill: #262626; font: 11px 'sans-serif'; text-anchor: end" x="48.1" y="311.520797" transform="rotate(-0, 48.1, 311.520797)">0</text>
     </g>
    </g>
    <g id="ytick_2">
     <g id="line2d_4">
      <g>
       <use xlink:href="#m7bcebd74b8" x="57.6" y="251.293141" style="fill: #262626; stroke: #262626; stroke-width: 1.25"/>
      </g>
     </g>
     <g id="text_4">
      <text style="fill: #262626; font: 11px 'sans-serif'; text-anchor: end" x="48.1" y="255.229938" transform="rotate(-0, 48.1, 255.229938)">10</text>
     </g>
    </g>
    <g id="ytick_3">
     <g id="line2d_5">
      <g>
       <use xlink:href="#m7bcebd74b8" x="57.6" y="195.002282" style="fill: #262626; stroke: #262626; stroke-width: 1.25"/>
      </g>
     </g>
     <g id="text_5">
      <text style="fill: #262626; font: 11px 'sans-serif'; text-anchor: end" x="48.1" y="198.939079" transform="rotate(-0, 48.1, 198.939079)">20</text>
     </g>
    </g>
    <g id="ytick_4">
     <g id="line2d_6">
      <g>
       <use xlink:href="#m7bcebd74b8" x="57.6" y="138.711423" style="fill: #262626; stroke: #262626; stroke-width: 1.25"/>
      </g>
     </g>
     <g id="text_6">
      <text style="fill: #262626; font: 11px 'sans-serif'; text-anchor: end" x="48.1" y="142.64822" transform="rotate(-0, 48.1, 142.64822)">30</text>
     </g>
    </g>
    <g id="ytick_5">
     <g id="line2d_7">
      <g>
       <use xlink:href="#m7bcebd74b8" x="57.6" y="82.420565" style="fill: #262626; stroke: #262626; stroke-width: 1.25"/>
      </g>
     </g>
     <g id="text_7">
      <text style="fill: #262626; font: 11px 'sans-serif'; text-anchor: end" x="48.1" y="86.357361" transform="rotate(-0, 48.1, 86.357361)">40</text>
     </g>
    </g>
    <g id="text_8">
     <text style="fill: #262626; font: 12px 'sans-serif'; text-anchor: middle" x="29.340312" y="174.528" transform="rotate(-90, 29.340312, 174.528)">Residence time (s)</text>
    </g>
   </g>
   <g id="patch_3">
    <path d="M 73.832727 307.584 
L 109.905455 307.584 
L 109.905455 237.72079 
L 73.832727 237.72079 
z
" clip-path="url(#p4d829f00b8)" style="fill: #d0dde8; stroke: #000000; stroke-linejoin: miter"/>
   </g>
   <g id="patch_4">
    <path d="M 254.196364 307.584 
L 290.269091 307.584 
L 290.269091 209.209778 
L 254.196364 209.209778 
z
" clip-path="url(#p4d829f00b8)" style="fill: #d0dde8; stroke: #000000; stroke-linejoin: miter"/>
   </g>
   <g id="patch_5">
    <path d="M 109.905455 307.584 
L 145.978182 307.584 
L 145.978182 258.573426 
L 109.905455 258.573426 
z
" clip-path="url(#p4d829f00b8)" style="fill: #a2b5cf; stroke: #000000; stroke-linejoin: miter"/>
   </g>
   <g id="patch_6">
    <path d="M 290.269091 307.584 
L 326.341818 307.584 
L 326.341818 254.992255 
L 290.269091 254.992255 
z
" clip-path="url(#p4d829f00b8)" style="fill: #a2b5cf; stroke: #000000; stroke-linejoin: miter"/>
   </g>
   <g id="patch_7">
    <path d="M 145.978182 307.584 
L 182.050909 307.584 
L 182.050909 77.896639 
L 145.978182 77.896639 
z
" clip-path="url(#p4d829f00b8)" style="fill: #8e7cad; stroke: #000000; stroke-linejoin: miter"/>
   </g>
   <g id="patch_8">
    <path d="M 326.341818 307.584 
L 362.414545 307.584 
L 362.414545 259.239603 
L 326.341818 259.239603 
z
" clip-path="url(#p4d829f00b8)" style="fill: #8e7cad; stroke: #000000; stroke-linejoin: miter"/>
   </g>
   <g id="patch_9">
    <path d="M 182.050909 307.584 
L 218.123636 307.584 
L 218.123636 230.858038 
L 182.050909 230.858038 
z
" clip-path="url(#p4d829f00b8)" style="fill: #7c3983; stroke: #000000; stroke-linejoin: miter"/>
   </g>
   <g id="patch_10">
    <path d="M 362.414545 307.584 
L 398.487273 307.584 
L 398.487273 247.80373 
L 362.414545 247.80373 
z
" clip-path="url(#p4d829f00b8)" style="fill: #7c3983; stroke: #000000; stroke-linejoin: miter"/>
   </g>
   <g id="LineCollection_1">
    <path d="M 91.869091 247.927932 
L 91.869091 227.513647 
" clip-path="url(#p4d829f00b8)" style="fill: none; stroke: #000000; stroke-width: 2"/>
    <path d="M 272.232727 223.057379 
L 272.232727 195.362177 
" clip-path="url(#p4d829f00b8)" style="fill: none; stroke: #000000; stroke-width: 2"/>
    <path d="M 127.941818 271.007447 
L 127.941818 246.139404 
" clip-path="url(#p4d829f00b8)" style="fill: none; stroke: #000000; stroke-width: 2"/>
    <path d="M 308.305455 261.193815 
L 308.305455 248.790694 
" clip-path="url(#p4d829f00b8)" style="fill: none; stroke: #000000; stroke-width: 2"/>
    <path d="M 164.014545 101.649277 
L 164.014545 54.144 
" clip-path="url(#p4d829f00b8)" style="fill: none; stroke: #000000; stroke-width: 2"/>
    <path d="M 344.378182 263.498276 
L 344.378182 254.980929 
" clip-path="url(#p4d829f00b8)" style="fill: none; stroke: #000000; stroke-width: 2"/>
    <path d="M 200.087273 238.137153 
L 200.087273 223.578923 
" clip-path="url(#p4d829f00b8)" style="fill: none; stroke: #000000; stroke-width: 2"/>
    <path d="M 380.450909 252.834457 
L 380.450909 242.773003 
" clip-path="url(#p4d829f00b8)" style="fill: none; stroke: #000000; stroke-width: 2"/>
   </g>
   <g id="line2d_8">
    <defs>
     <path id="m312d3d5543" d="M 4 0 
L -4 -0 
" style="stroke: #000000"/>
    </defs>
    <g clip-path="url(#p4d829f00b8)">
     <use xlink:href="#m312d3d5543" x="91.869091" y="247.927932" style="stroke: #000000"/>
     <use xlink:href="#m312d3d5543" x="272.232727" y="223.057379" style="stroke: #000000"/>
     <use xlink:href="#m312d3d5543" x="127.941818" y="271.007447" style="stroke: #000000"/>
     <use xlink:href="#m312d3d5543" x="308.305455" y="261.193815" style="stroke: #000000"/>
     <use xlink:href="#m312d3d5543" x="164.014545" y="101.649277" style="stroke: #000000"/>
     <use xlink:href="#m312d3d5543" x="344.378182" y="263.498276" style="stroke: #000000"/>
     <use xlink:href="#m312d3d5543" x="200.087273" y="238.137153" style="stroke: #000000"/>
     <use xlink:href="#m312d3d5543" x="380.450909" y="252.834457" style="stroke: #000000"/>
    </g>
   </g>
   <g id="line2d_9">
    <g clip-path="url(#p4d829f00b8)">
     <use xlink:href="#m312d3d5543" x="91.869091" y="227.513647" style="stroke: #000000"/>
     <use xlink:href="#m312d3d5543" x="272.232727" y="195.362177" style="stroke: #000000"/>
     <use xlink:href="#m312d3d5543" x="127.941818" y="246.139404" style="stroke: #000000"/>
     <use xlink:href="#m312d3d5543" x="308.305455" y="248.790694" style="stroke: #000000"/>
     <use xlink:href="#m312d3d5543" x="164.014545" y="54.144" style="stroke: #000000"/>
     <use xlink:href="#m312d3d5543" x="344.378182" y="254.980929" style="stroke: #000000"/>
     <use xlink:href="#m312d3d5543" x="200.087273" y="223.578923" style="stroke: #000000"/>
     <use xlink:href="#m312d3d5543" x="380.450909" y="242.773003" style="stroke: #000000"/>
    </g>
   </g>
   <g id="patch_11">
    <path d="M 57.6 307.584 
L 57.6 41.472 
" style="fill: none; stroke: #262626; stroke-width: 1.25; stroke-linejoin: miter; stroke-linecap: square"/>
   </g>
   <g id="patch_12">
    <path d="M 414.72 307.584 
L 414.72 41.472 
" style="fill: none; stroke: #262626; stroke-width: 1.25; stroke-linejoin: miter; stroke-linecap: square"/>
   </g>
   <g id="patch_13">
    <path d="M 57.6 307.584 
L 414.72 307.584 
" style="fill: none; stroke: #262626; stroke-width: 1.25; stroke-linejoin: miter; stroke-linecap: square"/>
   </g>
   <g id="patch_14">
    <path d="M 57.6 41.472 
L 414.72 41.472 
" style="fill: none; stroke: #262626; stroke-width: 1.25; stroke-linejoin: miter; stroke-linecap: square"/>
   </g>
   <g id="legend_1">
    <g id="patch_15">
     <path d="M 306.394063 112.743406 
L 407.02 112.743406 
Q 409.22 112.743406 409.22 110.543406 
L 409.22 49.172 
Q 409.22 46.972 407.02 46.972 
L 306.394063 46.972 
Q 304.194063 46.972 304.194063 49.172 
L 304.194063 110.543406 
Q 304.194063 112.743406 306.394063 112.743406 
z
" style="fill: #ffffff; opacity: 0.8; stroke: #cccccc; stroke-linejoin: miter"/>
    </g>
    <g id="patch_16">
     <path d="M 308.594063 59.27825 
L 330.594063 59.27825 
L 330.594063 51.57825 
L 308.594063 51.57825 
z
" style="fill: #d0dde8; stroke: #000000; stroke-linejoin: miter"/>
    </g>
    <g id="text_9">
     <text style="fill: #262626; font: 11px 'sans-serif'; text-anchor: start" x="339.394063" y="59.27825" transform="rotate(-0, 339.394063, 59.27825)">01_Native</text>
    </g>
    <g id="patch_17">
     <path d="M 308.594063 74.972156 
L 330.594063 74.972156 
L 330.594063 67.272156 
L 308.594063 67.272156 
z
" style="fill: #a2b5cf; stroke: #000000; stroke-linejoin: miter"/>
    </g>
    <g id="text_10">
     <text style="fill: #262626; font: 11px 'sans-serif'; text-anchor: start" x="339.394063" y="74.972156" transform="rotate(-0, 339.394063, 74.972156)">02_Misfolded</text>
    </g>
    <g id="patch_18">
     <path d="M 308.594063 90.564656 
L 330.594063 90.564656 
L 330.594063 82.864656 
L 308.594063 82.864656 
z
" style="fill: #8e7cad; stroke: #000000; stroke-linejoin: miter"/>
    </g>
    <g id="text_11">
     <text style="fill: #262626; font: 11px 'sans-serif'; text-anchor: start" x="339.394063" y="90.564656" transform="rotate(-0, 339.394063, 90.564656)">03_A8A2</text>
    </g>
    <g id="patch_19">
     <path d="M 308.594063 106.157156 
L 330.594063 106.157156 
L 330.594063 98.457156 
L 308.594063 98.457156 
z
" style="fill: #7c3983; stroke: #000000; stroke-linejoin: miter"/>
    </g>
    <g id="text_12">
     <text style="fill: #262626; font: 11px 'sans-serif'; text-anchor: start" x="339.394063" y="106.157156" transform="rotate(-0, 339.394063, 106.157156)">04_A8B1</text>
    </g>
   </g>
  </g>
 </g>
 <defs>
  <clipPath id="p4d829f00b8">
   <rect x="57.6" y="41.472" width="357.12" height="266.112"/>
  </clipPath>
 </defs>
</svg>
