<?xml version="1.0" encoding="utf-8" standalone="no"?>
<!DOCTYPE svg PUBLIC "-//W3C//DTD SVG 1.1//EN"
  "http://www.w3.org/Graphics/SVG/1.1/DTD/svg11.dtd">
<svg xmlns:xlink="http://www.w3.org/1999/xlink" width="460.8pt" height="345.6pt" viewBox="0 0 460.8 345.6" xmlns="http://www.w3.org/2000/svg" version="1.1">
 <metadata>
  <rdf:RDF xmlns:dc="http://purl.org/dc/elements/1.1/" xmlns:cc="http://creativecommons.org/ns#" xmlns:rdf="http://www.w3.org/1999/02/22-rdf-syntax-ns#">
   <cc:Work>
    <dc:type rdf:resource="http://purl.org/dc/dcmitype/StillImage"/>
    <dc:date>2026-05-26T09:43:43.768459</dc:date>
    <dc:format>image/svg+xml</dc:format>
    <dc:creator>
     <cc:Agent>
      <dc:title>Matplotlib v3.5.1, https://matplotlib.org/</dc:title>
     </cc:Agent>
    </dc:creator>
   </cc:Work>
  </rdf:RDF>
 </metadata>
 <defs>
  <style type="text/css">*{stroke-linejoin: round; stroke-linecap: butt}</style>
 </defs>
 <g id="figure_1">
  <g id="patch_1">
   <path d="M 0 345.6 
L 460.8 345.6 
L 460.8 0 
L 0 0 
z
" style="fill: #ffffff"/>
  </g>
  <g id="axes_1">
   <g id="patch_2">
    <path d="M 57.6 99.322435 
L 414.72 99.322435 
L 414.72 41.472 
L 57.6 41.472 
z
" style="fill: #ffffff"/>
   </g>
   <g id="matplotlib.axis_1">
    <g id="xtick_1">
     <g id="line2d_1">
      <defs>
       <path id="mef46927e67" d="M 0 0 
L 0 6 
" style="stroke: #262626; stroke-width: 1.25"/>
      </defs>
      <g>
       <use xlink:href="#mef46927e67" x="57.6" y="99.322435" style="fill: #262626; stroke: #262626; stroke-width: 1.25"/>
      </g>
     </g>
    </g>
    <g id="xtick_2">
     <g id="line2d_2">
      <g>
       <use xlink:href="#mef46927e67" x="102.24" y="99.322435" style="fill: #262626; stroke: #262626; stroke-width: 1.25"/>
      </g>
     </g>
    </g>
    <g id="xtick_3">
     <g id="line2d_3">
      <g>
       <use xlink:href="#mef46927e67" x="146.88" y="99.322435" style="fill: #262626; stroke: #262626; stroke-width: 1.25"/>
      </g>
     </g>
    </g>
    <g id="xtick_4">
     <g id="line2d_4">
      <g>
       <use xlink:href="#mef46927e67" x="191.52" y="99.322435" style="fill: #262626; stroke: #262626; stroke-width: 1.25"/>
      </g>
     </g>
    </g>
    <g id="xtick_5">
     <g id="line2d_5">
      <g>
       <use xlink:href="#mef46927e67" x="236.16" y="99.322435" style="fill: #262626; stroke: #262626; stroke-width: 1.25"/>
      </g>
     </g>
    </g>
    <g id="xtick_6">
     <g id="line2d_6">
      <g>
       <use xlink:href="#mef46927e67" x="280.8" y="99.322435" style="fill: #262626; stroke: #262626; stroke-width: 1.25"/>
      </g>
     </g>
    </g>
    <g id="xtick_7">
     <g id="line2d_7">
      <g>
       <use xlink:href="#mef46927e67" x="325.44" y="99.322435" style="fill: #262626; stroke: #262626; stroke-width: 1.25"/>
      </g>
     </g>
    </g>
    <g id="xtick_8">
     <g id="line2d_8">
      <g>
       <use xlink:href="#mef46927e67" x="370.08" y="99.322435" style="fill: #262626; stroke: #262626; stroke-width: 1.25"/>
      </g>
     </g>
    </g>
    <g id="xtick_9">
     <g id="line2d_9">
      <g>
       <use xlink:href="#mef46927e67" x="414.72" y="99.322435" style="fill: #262626; stroke: #262626; stroke-width: 1.25"/>
      </g>
     </g>
    </g>
   </g>
   <g id="matplotlib.axis_2">
    <g id="ytick_1">
     <g id="line2d_10">
      <defs>
       <path id="m77d38ba11f" d="M 0 0 
L -6 0 
" style="stroke: #262626; stroke-width: 1.25"/>
      </defs>
      <g>
       <use xlink:href="#m77d38ba11f" x="57.6" y="99.322435" style="fill: #262626; stroke: #262626; stroke-width: 1.25"/>
      </g>
     </g>
     <g id="text_1">
      <text style="fill: #262626; font: 11px 'sans-serif'; text-anchor: end" x="48.1" y="103.259232" transform="rotate(-0, 48.1, 103.259232)">0.00</text>
     </g>
    </g>
    <g id="ytick_2">
     <g id="line2d_11">
      <g>
       <use xlink:href="#m77d38ba11f" x="57.6" y="58.918957" style="fill: #262626; stroke: #262626; stroke-width: 1.25"/>
      </g>
     </g>
     <g id="text_2">
      <text style="fill: #262626; font: 11px 'sans-serif'; text-anchor: end" x="48.1" y="62.855753" transform="rotate(-0, 48.1, 62.855753)">0.05</text>
     </g>
    </g>
    <g id="text_3">
     <text style="fill: #262626; font: 12px 'sans-serif'; text-anchor: middle" x="20.167344" y="70.397217" transform="rotate(-90, 20.167344, 70.397217)">Density</text>
    </g>
   </g>
   <g id="patch_3">
    <path d="M 57.95712 99.322435 
L 75.81312 99.322435 
L 75.81312 44.226783 
L 57.95712 44.226783 
L 57.95712 99.322435 
z
" clip-path="url(#p6273828215)" style="fill: none; stroke: #357ba3; stroke-width: 1.5; stroke-linejoin: miter"/>
   </g>
   <g id="patch_4">
    <path d="M 75.81312 99.322435 
L 93.66912 99.322435 
L 93.66912 84.630261 
L 75.81312 84.630261 
L 75.81312 99.322435 
z
" clip-path="url(#p6273828215)" style="fill: none; stroke: #357ba3; stroke-width: 1.5; stroke-linejoin: miter"/>
   </g>
   <g id="patch_5">
    <path d="M 93.66912 99.322435 
L 111.52512 99.322435 
L 111.52512 96.873739 
L 93.66912 96.873739 
L 93.66912 99.322435 
z
" clip-path="url(#p6273828215)" style="fill: none; stroke: #357ba3; stroke-width: 1.5; stroke-linejoin: miter"/>
   </g>
   <g id="patch_6">
    <path d="M 111.52512 99.322435 
L 129.38112 99.322435 
L 129.38112 93.200696 
L 111.52512 93.200696 
L 111.52512 99.322435 
z
" clip-path="url(#p6273828215)" style="fill: none; stroke: #357ba3; stroke-width: 1.5; stroke-linejoin: miter"/>
   </g>
   <g id="patch_7">
    <path d="M 129.38112 99.322435 
L 147.23712 99.322435 
L 147.23712 99.322435 
L 129.38112 99.322435 
L 129.38112 99.322435 
z
" clip-path="url(#p6273828215)" style="fill: none; stroke: #357ba3; stroke-width: 1.5; stroke-linejoin: miter"/>
   </g>
   <g id="patch_8">
    <path d="M 147.23712 99.322435 
L 165.09312 99.322435 
L 165.09312 98.098087 
L 147.23712 98.098087 
L 147.23712 99.322435 
z
" clip-path="url(#p6273828215)" style="fill: none; stroke: #357ba3; stroke-width: 1.5; stroke-linejoin: miter"/>
   </g>
   <g id="patch_9">
    <path d="M 165.09312 99.322435 
L 182.94912 99.322435 
L 182.94912 98.098087 
L 165.09312 98.098087 
L 165.09312 99.322435 
z
" clip-path="url(#p6273828215)" style="fill: none; stroke: #357ba3; stroke-width: 1.5; stroke-linejoin: miter"/>
   </g>
   <g id="line2d_12">
    <path d="M 57.95712 68.403125 
L 59.771433 65.383479 
L 60.980975 63.724853 
L 62.190517 62.399871 
L 63.400059 61.437957 
L 64.609602 60.855055 
L 65.819144 60.653262 
L 67.028686 60.821383 
L 68.238228 61.336332 
L 69.44777 62.165207 
L 70.657312 63.267829 
L 72.471625 65.336698 
L 74.285938 67.764705 
L 77.914565 73.129556 
L 82.147962 79.31046 
L 85.171817 83.270153 
L 87.590902 86.061431 
L 90.009986 88.477556 
L 91.824299 90.027509 
L 93.638612 91.34432 
L 95.452925 92.425035 
L 97.267239 93.272517 
L 99.081552 93.896566 
L 100.895865 94.314484 
L 103.314949 94.5948 
L 105.734033 94.630167 
L 109.36266 94.428029 
L 114.200828 94.189463 
L 117.224683 94.306088 
L 119.643768 94.603969 
L 122.667623 95.210061 
L 127.505791 96.478219 
L 131.739189 97.523228 
L 134.763044 98.07022 
L 137.786899 98.407779 
L 141.415526 98.564393 
L 146.253694 98.513312 
L 154.720489 98.403267 
L 172.258849 98.468762 
L 178.30656 98.410266 
L 178.30656 98.410266 
" clip-path="url(#p6273828215)" style="fill: none; stroke: #357ba3; stroke-width: 1.5; stroke-linecap: round"/>
   </g>
   <g id="patch_10">
    <path d="M 57.6 99.322435 
L 57.6 41.472 
" style="fill: none; stroke: #262626; stroke-width: 1.25; stroke-linejoin: miter; stroke-linecap: square"/>
   </g>
   <g id="patch_11">
    <path d="M 414.72 99.322435 
L 414.72 41.472 
" style="fill: none; stroke: #262626; stroke-width: 1.25; stroke-linejoin: miter; stroke-linecap: square"/>
   </g>
   <g id="patch_12">
    <path d="M 57.6 99.322435 
L 414.72 99.322435 
" style="fill: none; stroke: #262626; stroke-width: 1.25; stroke-linejoin: miter; stroke-linecap: square"/>
   </g>
   <g id="patch_13">
    <path d="M 57.6 41.472 
L 414.72 41.472 
" style="fill: none; stroke: #262626; stroke-width: 1.25; stroke-linejoin: miter; stroke-linecap: square"/>
   </g>
   <g id="text_4">
    <text style="fill: #262626; font: 12px 'sans-serif'; text-anchor: middle" x="236.16" y="35.472" transform="rotate(-0, 236.16, 35.472)">01_Native</text>
   </g>
   <g id="legend_1">
    <g id="patch_14">
     <path d="M 402.62 55.772 
L 407.02 55.772 
Q 409.22 55.772 409.22 53.572 
L 409.22 49.172 
Q 409.22 46.972 407.02 46.972 
L 402.62 46.972 
Q 400.42 46.972 400.42 49.172 
L 400.42 53.572 
Q 400.42 55.772 402.62 55.772 
z
" style="fill: #ffffff; opacity: 0.8; stroke: #cccccc; stroke-linejoin: miter"/>
    </g>
   </g>
  </g>
  <g id="axes_2">
   <g id="patch_15">
    <path d="M 57.6 168.742957 
L 414.72 168.742957 
L 414.72 110.892522 
L 57.6 110.892522 
z
" style="fill: #ffffff"/>
   </g>
   <g id="matplotlib.axis_3">
    <g id="xtick_10">
     <g id="line2d_13">
      <g>
       <use xlink:href="#mef46927e67" x="57.6" y="168.742957" style="fill: #262626; stroke: #262626; stroke-width: 1.25"/>
      </g>
     </g>
    </g>
    <g id="xtick_11">
     <g id="line2d_14">
      <g>
       <use xlink:href="#mef46927e67" x="102.24" y="168.742957" style="fill: #262626; stroke: #262626; stroke-width: 1.25"/>
      </g>
     </g>
    </g>
    <g id="xtick_12">
     <g id="line2d_15">
      <g>
       <use xlink:href="#mef46927e67" x="146.88" y="168.742957" style="fill: #262626; stroke: #262626; stroke-width: 1.25"/>
      </g>
     </g>
    </g>
    <g id="xtick_13">
     <g id="line2d_16">
      <g>
       <use xlink:href="#mef46927e67" x="191.52" y="168.742957" style="fill: #262626; stroke: #262626; stroke-width: 1.25"/>
      </g>
     </g>
    </g>
    <g id="xtick_14">
     <g id="line2d_17">
      <g>
       <use xlink:href="#mef46927e67" x="236.16" y="168.742957" style="fill: #262626; stroke: #262626; stroke-width: 1.25"/>
      </g>
     </g>
    </g>
    <g id="xtick_15">
     <g id="line2d_18">
      <g>
       <use xlink:href="#mef46927e67" x="280.8" y="168.742957" style="fill: #262626; stroke: #262626; stroke-width: 1.25"/>
      </g>
     </g>
    </g>
    <g id="xtick_16">
     <g id="line2d_19">
      <g>
       <use xlink:href="#mef46927e67" x="325.44" y="168.742957" style="fill: #262626; stroke: #262626; stroke-width: 1.25"/>
      </g>
     </g>
    </g>
    <g id="xtick_17">
     <g id="line2d_20">
      <g>
       <use xlink:href="#mef46927e67" x="370.08" y="168.742957" style="fill: #262626; stroke: #262626; stroke-width: 1.25"/>
      </g>
     </g>
    </g>
    <g id="xtick_18">
     <g id="line2d_21">
      <g>
       <use xlink:href="#mef46927e67" x="414.72" y="168.742957" style="fill: #262626; stroke: #262626; stroke-width: 1.25"/>
      </g>
     </g>
    </g>
   </g>
   <g id="matplotlib.axis_4">
    <g id="ytick_3">
     <g id="line2d_22">
      <g>
       <use xlink:href="#m77d38ba11f" x="57.6" y="168.742957" style="fill: #262626; stroke: #262626; stroke-width: 1.25"/>
      </g>
     </g>
     <g id="text_5">
      <text style="fill: #262626; font: 11px 'sans-serif'; text-anchor: end" x="48.1" y="172.679753" transform="rotate(-0, 48.1, 172.679753)">0.00</text>
     </g>
    </g>
    <g id="ytick_4">
     <g id="line2d_23">
      <g>
       <use xlink:href="#m77d38ba11f" x="57.6" y="135.073391" style="fill: #262626; stroke: #262626; stroke-width: 1.25"/>
      </g>
     </g>
     <g id="text_6">
      <text style="fill: #262626; font: 11px 'sans-serif'; text-anchor: end" x="48.1" y="139.010188" transform="rotate(-0, 48.1, 139.010188)">0.05</text>
     </g>
    </g>
    <g id="text_7">
     <text style="fill: #262626; font: 12px 'sans-serif'; text-anchor: middle" x="20.167344" y="139.817739" transform="rotate(-90, 20.167344, 139.817739)">Density</text>
    </g>
   </g>
   <g id="patch_16">
    <path d="M 58.31424 168.742957 
L 76.17024 168.742957 
L 76.17024 113.647304 
L 58.31424 113.647304 
L 58.31424 168.742957 
z
" clip-path="url(#p8e77d40d51)" style="fill: none; stroke: #357ba3; stroke-width: 1.5; stroke-linejoin: miter"/>
   </g>
   <g id="patch_17">
    <path d="M 76.17024 168.742957 
L 94.02624 168.742957 
L 94.02624 159.560348 
L 76.17024 159.560348 
L 76.17024 168.742957 
z
" clip-path="url(#p8e77d40d51)" style="fill: none; stroke: #357ba3; stroke-width: 1.5; stroke-linejoin: miter"/>
   </g>
   <g id="patch_18">
    <path d="M 94.02624 168.742957 
L 111.88224 168.742957 
L 111.88224 168.742957 
L 94.02624 168.742957 
L 94.02624 168.742957 
z
" clip-path="url(#p8e77d40d51)" style="fill: none; stroke: #357ba3; stroke-width: 1.5; stroke-linejoin: miter"/>
   </g>
   <g id="patch_19">
    <path d="M 111.88224 168.742957 
L 129.73824 168.742957 
L 129.73824 165.682087 
L 111.88224 165.682087 
L 111.88224 168.742957 
z
" clip-path="url(#p8e77d40d51)" style="fill: none; stroke: #357ba3; stroke-width: 1.5; stroke-linejoin: miter"/>
   </g>
   <g id="line2d_24">
    <path d="M 58.31424 129.842098 
L 59.556084 127.203765 
L 60.487468 125.727502 
L 61.418851 124.724707 
L 62.039773 124.328693 
L 62.660695 124.151507 
L 63.281618 124.189412 
L 63.90254 124.434925 
L 64.523462 124.877128 
L 65.454845 125.877983 
L 66.386229 127.232061 
L 67.628073 129.471992 
L 69.49084 133.423581 
L 73.837295 142.883661 
L 75.700062 146.306364 
L 77.562829 149.219356 
L 79.425595 151.692594 
L 81.598823 154.186711 
L 84.703434 157.373552 
L 89.049889 161.513137 
L 91.533578 163.620593 
L 93.706806 165.182691 
L 95.569573 166.25974 
L 97.432339 167.080445 
L 99.295106 167.655572 
L 101.157873 168.010875 
L 103.3311 168.18807 
L 105.504328 168.150318 
L 107.988017 167.887634 
L 111.092628 167.309316 
L 117.30185 166.047847 
L 119.475078 165.867418 
L 120.096 165.857752 
L 120.096 165.857752 
" clip-path="url(#p8e77d40d51)" style="fill: none; stroke: #357ba3; stroke-width: 1.5; stroke-linecap: round"/>
   </g>
   <g id="patch_20">
    <path d="M 57.6 168.742957 
L 57.6 110.892522 
" style="fill: none; stroke: #262626; stroke-width: 1.25; stroke-linejoin: miter; stroke-linecap: square"/>
   </g>
   <g id="patch_21">
    <path d="M 414.72 168.742957 
L 414.72 110.892522 
" style="fill: none; stroke: #262626; stroke-width: 1.25; stroke-linejoin: miter; stroke-linecap: square"/>
   </g>
   <g id="patch_22">
    <path d="M 57.6 168.742957 
L 414.72 168.742957 
" style="fill: none; stroke: #262626; stroke-width: 1.25; stroke-linejoin: miter; stroke-linecap: square"/>
   </g>
   <g id="patch_23">
    <path d="M 57.6 110.892522 
L 414.72 110.892522 
" style="fill: none; stroke: #262626; stroke-width: 1.25; stroke-linejoin: miter; stroke-linecap: square"/>
   </g>
   <g id="text_8">
    <text style="fill: #262626; font: 12px 'sans-serif'; text-anchor: middle" x="236.16" y="104.892522" transform="rotate(-0, 236.16, 104.892522)">02_Misfolded</text>
   </g>
   <g id="legend_2">
    <g id="patch_24">
     <path d="M 402.62 125.192522 
L 407.02 125.192522 
Q 409.22 125.192522 409.22 122.992522 
L 409.22 118.592522 
Q 409.22 116.392522 407.02 116.392522 
L 402.62 116.392522 
Q 400.42 116.392522 400.42 118.592522 
L 400.42 122.992522 
Q 400.42 125.192522 402.62 125.192522 
z
" style="fill: #ffffff; opacity: 0.8; stroke: #cccccc; stroke-linejoin: miter"/>
    </g>
   </g>
  </g>
  <g id="axes_3">
   <g id="patch_25">
    <path d="M 57.6 238.163478 
L 414.72 238.163478 
L 414.72 180.313043 
L 57.6 180.313043 
z
" style="fill: #ffffff"/>
   </g>
   <g id="matplotlib.axis_5">
    <g id="xtick_19">
     <g id="line2d_25">
      <g>
       <use xlink:href="#mef46927e67" x="57.6" y="238.163478" style="fill: #262626; stroke: #262626; stroke-width: 1.25"/>
      </g>
     </g>
    </g>
    <g id="xtick_20">
     <g id="line2d_26">
      <g>
       <use xlink:href="#mef46927e67" x="102.24" y="238.163478" style="fill: #262626; stroke: #262626; stroke-width: 1.25"/>
      </g>
     </g>
    </g>
    <g id="xtick_21">
     <g id="line2d_27">
      <g>
       <use xlink:href="#mef46927e67" x="146.88" y="238.163478" style="fill: #262626; stroke: #262626; stroke-width: 1.25"/>
      </g>
     </g>
    </g>
    <g id="xtick_22">
     <g id="line2d_28">
      <g>
       <use xlink:href="#mef46927e67" x="191.52" y="238.163478" style="fill: #262626; stroke: #262626; stroke-width: 1.25"/>
      </g>
     </g>
    </g>
    <g id="xtick_23">
     <g id="line2d_29">
      <g>
       <use xlink:href="#mef46927e67" x="236.16" y="238.163478" style="fill: #262626; stroke: #262626; stroke-width: 1.25"/>
      </g>
     </g>
    </g>
    <g id="xtick_24">
     <g id="line2d_30">
      <g>
       <use xlink:href="#mef46927e67" x="280.8" y="238.163478" style="fill: #262626; stroke: #262626; stroke-width: 1.25"/>
      </g>
     </g>
    </g>
    <g id="xtick_25">
     <g id="line2d_31">
      <g>
       <use xlink:href="#mef46927e67" x="325.44" y="238.163478" style="fill: #262626; stroke: #262626; stroke-width: 1.25"/>
      </g>
     </g>
    </g>
    <g id="xtick_26">
     <g id="line2d_32">
      <g>
       <use xlink:href="#mef46927e67" x="370.08" y="238.163478" style="fill: #262626; stroke: #262626; stroke-width: 1.25"/>
      </g>
     </g>
    </g>
    <g id="xtick_27">
     <g id="line2d_33">
      <g>
       <use xlink:href="#mef46927e67" x="414.72" y="238.163478" style="fill: #262626; stroke: #262626; stroke-width: 1.25"/>
      </g>
     </g>
    </g>
   </g>
   <g id="matplotlib.axis_6">
    <g id="ytick_5">
     <g id="line2d_34">
      <g>
       <use xlink:href="#m77d38ba11f" x="57.6" y="238.163478" style="fill: #262626; stroke: #262626; stroke-width: 1.25"/>
      </g>
     </g>
     <g id="text_9">
      <text style="fill: #262626; font: 11px 'sans-serif'; text-anchor: end" x="48.1" y="242.100275" transform="rotate(-0, 48.1, 242.100275)">0.00</text>
     </g>
    </g>
    <g id="ytick_6">
     <g id="line2d_35">
      <g>
       <use xlink:href="#m77d38ba11f" x="57.6" y="208.496589" style="fill: #262626; stroke: #262626; stroke-width: 1.25"/>
      </g>
     </g>
     <g id="text_10">
      <text style="fill: #262626; font: 11px 'sans-serif'; text-anchor: end" x="48.1" y="212.433386" transform="rotate(-0, 48.1, 212.433386)">0.02</text>
     </g>
    </g>
    <g id="text_11">
     <text style="fill: #262626; font: 12px 'sans-serif'; text-anchor: middle" x="20.167344" y="209.238261" transform="rotate(-90, 20.167344, 209.238261)">Density</text>
    </g>
   </g>
   <g id="patch_26">
    <path d="M 57.95712 238.163478 
L 75.81312 238.163478 
L 75.81312 183.067826 
L 57.95712 183.067826 
L 57.95712 238.163478 
z
" clip-path="url(#p55958fc0d4)" style="fill: none; stroke: #357ba3; stroke-width: 1.5; stroke-linejoin: miter"/>
   </g>
   <g id="patch_27">
    <path d="M 75.81312 238.163478 
L 93.66912 238.163478 
L 93.66912 218.56214 
L 75.81312 218.56214 
L 75.81312 238.163478 
z
" clip-path="url(#p55958fc0d4)" style="fill: none; stroke: #357ba3; stroke-width: 1.5; stroke-linejoin: miter"/>
   </g>
   <g id="patch_28">
    <path d="M 93.66912 238.163478 
L 111.52512 238.163478 
L 111.52512 225.978863 
L 93.66912 225.978863 
L 93.66912 238.163478 
z
" clip-path="url(#p55958fc0d4)" style="fill: none; stroke: #357ba3; stroke-width: 1.5; stroke-linejoin: miter"/>
   </g>
   <g id="patch_29">
    <path d="M 111.52512 238.163478 
L 129.38112 238.163478 
L 129.38112 229.687224 
L 111.52512 229.687224 
L 111.52512 238.163478 
z
" clip-path="url(#p55958fc0d4)" style="fill: none; stroke: #357ba3; stroke-width: 1.5; stroke-linejoin: miter"/>
   </g>
   <g id="patch_30">
    <path d="M 129.38112 238.163478 
L 147.23712 238.163478 
L 147.23712 231.806288 
L 129.38112 231.806288 
L 129.38112 238.163478 
z
" clip-path="url(#p55958fc0d4)" style="fill: none; stroke: #357ba3; stroke-width: 1.5; stroke-linejoin: miter"/>
   </g>
   <g id="patch_31">
    <path d="M 147.23712 238.163478 
L 165.09312 238.163478 
L 165.09312 234.455117 
L 147.23712 234.455117 
L 147.23712 238.163478 
z
" clip-path="url(#p55958fc0d4)" style="fill: none; stroke: #357ba3; stroke-width: 1.5; stroke-linejoin: miter"/>
   </g>
   <g id="patch_32">
    <path d="M 165.09312 238.163478 
L 182.94912 238.163478 
L 182.94912 232.336054 
L 165.09312 232.336054 
L 165.09312 238.163478 
z
" clip-path="url(#p55958fc0d4)" style="fill: none; stroke: #357ba3; stroke-width: 1.5; stroke-linejoin: miter"/>
   </g>
   <g id="patch_33">
    <path d="M 182.94912 238.163478 
L 200.80512 238.163478 
L 200.80512 235.514649 
L 182.94912 235.514649 
L 182.94912 238.163478 
z
" clip-path="url(#p55958fc0d4)" style="fill: none; stroke: #357ba3; stroke-width: 1.5; stroke-linejoin: miter"/>
   </g>
   <g id="patch_34">
    <path d="M 200.80512 238.163478 
L 218.66112 238.163478 
L 218.66112 234.984883 
L 200.80512 234.984883 
L 200.80512 238.163478 
z
" clip-path="url(#p55958fc0d4)" style="fill: none; stroke: #357ba3; stroke-width: 1.5; stroke-linejoin: miter"/>
   </g>
   <g id="patch_35">
    <path d="M 218.66112 238.163478 
L 236.51712 238.163478 
L 236.51712 236.574181 
L 218.66112 236.574181 
L 218.66112 238.163478 
z
" clip-path="url(#p55958fc0d4)" style="fill: none; stroke: #357ba3; stroke-width: 1.5; stroke-linejoin: miter"/>
   </g>
   <g id="patch_36">
    <path d="M 236.51712 238.163478 
L 254.37312 238.163478 
L 254.37312 236.574181 
L 236.51712 236.574181 
L 236.51712 238.163478 
z
" clip-path="url(#p55958fc0d4)" style="fill: none; stroke: #357ba3; stroke-width: 1.5; stroke-linejoin: miter"/>
   </g>
   <g id="patch_37">
    <path d="M 254.37312 238.163478 
L 272.22912 238.163478 
L 272.22912 237.103946 
L 254.37312 237.103946 
L 254.37312 238.163478 
z
" clip-path="url(#p55958fc0d4)" style="fill: none; stroke: #357ba3; stroke-width: 1.5; stroke-linejoin: miter"/>
   </g>
   <g id="patch_38">
    <path d="M 272.22912 238.163478 
L 290.08512 238.163478 
L 290.08512 235.514649 
L 272.22912 235.514649 
L 272.22912 238.163478 
z
" clip-path="url(#p55958fc0d4)" style="fill: none; stroke: #357ba3; stroke-width: 1.5; stroke-linejoin: miter"/>
   </g>
   <g id="patch_39">
    <path d="M 290.08512 238.163478 
L 307.94112 238.163478 
L 307.94112 236.574181 
L 290.08512 236.574181 
L 290.08512 238.163478 
z
" clip-path="url(#p55958fc0d4)" style="fill: none; stroke: #357ba3; stroke-width: 1.5; stroke-linejoin: miter"/>
   </g>
   <g id="patch_40">
    <path d="M 307.94112 238.163478 
L 325.79712 238.163478 
L 325.79712 234.455117 
L 307.94112 234.455117 
L 307.94112 238.163478 
z
" clip-path="url(#p55958fc0d4)" style="fill: none; stroke: #357ba3; stroke-width: 1.5; stroke-linejoin: miter"/>
   </g>
   <g id="patch_41">
    <path d="M 325.79712 238.163478 
L 343.65312 238.163478 
L 343.65312 235.514649 
L 325.79712 235.514649 
L 325.79712 238.163478 
z
" clip-path="url(#p55958fc0d4)" style="fill: none; stroke: #357ba3; stroke-width: 1.5; stroke-linejoin: miter"/>
   </g>
   <g id="patch_42">
    <path d="M 343.65312 238.163478 
L 361.50912 238.163478 
L 361.50912 236.574181 
L 343.65312 236.574181 
L 343.65312 238.163478 
z
" clip-path="url(#p55958fc0d4)" style="fill: none; stroke: #357ba3; stroke-width: 1.5; stroke-linejoin: miter"/>
   </g>
   <g id="patch_43">
    <path d="M 361.50912 238.163478 
L 379.36512 238.163478 
L 379.36512 236.574181 
L 361.50912 236.574181 
L 361.50912 238.163478 
z
" clip-path="url(#p55958fc0d4)" style="fill: none; stroke: #357ba3; stroke-width: 1.5; stroke-linejoin: miter"/>
   </g>
   <g id="patch_44">
    <path d="M 379.36512 238.163478 
L 397.22112 238.163478 
L 397.22112 237.633712 
L 379.36512 237.633712 
L 379.36512 238.163478 
z
" clip-path="url(#p55958fc0d4)" style="fill: none; stroke: #357ba3; stroke-width: 1.5; stroke-linejoin: miter"/>
   </g>
   <g id="patch_45">
    <path d="M 397.22112 238.163478 
L 415.07712 238.163478 
L 415.07712 236.574181 
L 397.22112 236.574181 
L 397.22112 238.163478 
z
" clip-path="url(#p55958fc0d4)" style="fill: none; stroke: #357ba3; stroke-width: 1.5; stroke-linejoin: miter"/>
   </g>
   <g id="patch_46">
    <path d="M 415.07712 238.163478 
L 432.93312 238.163478 
L 432.93312 237.103946 
L 415.07712 237.103946 
L 415.07712 238.163478 
z
" clip-path="url(#p55958fc0d4)" style="fill: none; stroke: #357ba3; stroke-width: 1.5; stroke-linejoin: miter"/>
   </g>
   <g id="patch_47">
    <path d="M 432.93312 238.163478 
L 450.78912 238.163478 
L 450.78912 237.103946 
L 432.93312 237.103946 
L 432.93312 238.163478 
z
" clip-path="url(#p55958fc0d4)" style="fill: none; stroke: #357ba3; stroke-width: 1.5; stroke-linejoin: miter"/>
   </g>
   <g id="patch_48">
    <path d="M 450.78912 238.163478 
L 461.8 238.163478 
M 461.8 237.633712 
L 450.78912 237.633712 
L 450.78912 238.163478 
" clip-path="url(#p55958fc0d4)" style="fill: none; stroke: #357ba3; stroke-width: 1.5; stroke-linejoin: miter"/>
   </g>
   <g id="patch_49">
    <path clip-path="url(#p55958fc0d4)" style="fill: none; stroke: #357ba3; stroke-width: 1.5; stroke-linejoin: miter"/>
   </g>
   <g id="patch_50">
    <path clip-path="url(#p55958fc0d4)" style="fill: none; stroke: #357ba3; stroke-width: 1.5; stroke-linejoin: miter"/>
   </g>
   <g id="patch_51">
    <path clip-path="url(#p55958fc0d4)" style="fill: none; stroke: #357ba3; stroke-width: 1.5; stroke-linejoin: miter"/>
   </g>
   <g id="patch_52">
    <path clip-path="url(#p55958fc0d4)" style="fill: none; stroke: #357ba3; stroke-width: 1.5; stroke-linejoin: miter"/>
   </g>
   <g id="patch_53">
    <path clip-path="url(#p55958fc0d4)" style="fill: none; stroke: #357ba3; stroke-width: 1.5; stroke-linejoin: miter"/>
   </g>
   <g id="patch_54">
    <path clip-path="url(#p55958fc0d4)" style="fill: none; stroke: #357ba3; stroke-width: 1.5; stroke-linejoin: miter"/>
   </g>
   <g id="patch_55">
    <path clip-path="url(#p55958fc0d4)" style="fill: none; stroke: #357ba3; stroke-width: 1.5; stroke-linejoin: miter"/>
   </g>
   <g id="patch_56">
    <path clip-path="url(#p55958fc0d4)" style="fill: none; stroke: #357ba3; stroke-width: 1.5; stroke-linejoin: miter"/>
   </g>
   <g id="patch_57">
    <path clip-path="url(#p55958fc0d4)" style="fill: none; stroke: #357ba3; stroke-width: 1.5; stroke-linejoin: miter"/>
   </g>
   <g id="patch_58">
    <path clip-path="url(#p55958fc0d4)" style="fill: none; stroke: #357ba3; stroke-width: 1.5; stroke-linejoin: miter"/>
   </g>
   <g id="patch_59">
    <path clip-path="url(#p55958fc0d4)" style="fill: none; stroke: #357ba3; stroke-width: 1.5; stroke-linejoin: miter"/>
   </g>
   <g id="line2d_36">
    <path d="M 57.95712 224.685353 
L 64.0479 224.057862 
L 70.138681 223.623638 
L 76.229461 223.394813 
L 82.320241 223.373229 
L 88.411022 223.550658 
L 94.501802 223.909867 
L 103.637972 224.734483 
L 112.774143 225.81034 
L 131.046484 228.288306 
L 146.273434 230.272632 
L 158.454995 231.634733 
L 170.636556 232.755344 
L 182.818116 233.646424 
L 198.045067 234.488307 
L 213.272018 235.092054 
L 231.544359 235.575433 
L 252.86209 235.882129 
L 277.225211 235.99599 
L 338.133014 236.163309 
L 380.768476 236.637922 
L 426.449328 237.078284 
L 461.8 237.23303 
L 461.8 237.23303 
" clip-path="url(#p55958fc0d4)" style="fill: none; stroke: #357ba3; stroke-width: 1.5; stroke-linecap: round"/>
   </g>
   <g id="patch_60">
    <path d="M 57.6 238.163478 
L 57.6 180.313043 
" style="fill: none; stroke: #262626; stroke-width: 1.25; stroke-linejoin: miter; stroke-linecap: square"/>
   </g>
   <g id="patch_61">
    <path d="M 414.72 238.163478 
L 414.72 180.313043 
" style="fill: none; stroke: #262626; stroke-width: 1.25; stroke-linejoin: miter; stroke-linecap: square"/>
   </g>
   <g id="patch_62">
    <path d="M 57.6 238.163478 
L 414.72 238.163478 
" style="fill: none; stroke: #262626; stroke-width: 1.25; stroke-linejoin: miter; stroke-linecap: square"/>
   </g>
   <g id="patch_63">
    <path d="M 57.6 180.313043 
L 414.72 180.313043 
" style="fill: none; stroke: #262626; stroke-width: 1.25; stroke-linejoin: miter; stroke-linecap: square"/>
   </g>
   <g id="text_12">
    <text style="fill: #262626; font: 12px 'sans-serif'; text-anchor: middle" x="236.16" y="174.313043" transform="rotate(-0, 236.16, 174.313043)">03_A8A2</text>
   </g>
   <g id="legend_3">
    <g id="patch_64">
     <path d="M 402.62 194.613043 
L 407.02 194.613043 
Q 409.22 194.613043 409.22 192.413043 
L 409.22 188.013043 
Q 409.22 185.813043 407.02 185.813043 
L 402.62 185.813043 
Q 400.42 185.813043 400.42 188.013043 
L 400.42 192.413043 
Q 400.42 194.613043 402.62 194.613043 
z
" style="fill: #ffffff; opacity: 0.8; stroke: #cccccc; stroke-linejoin: miter"/>
    </g>
   </g>
  </g>
  <g id="axes_4">
   <g id="patch_65">
    <path d="M 57.6 307.584 
L 414.72 307.584 
L 414.72 249.733565 
L 57.6 249.733565 
z
" style="fill: #ffffff"/>
   </g>
   <g id="matplotlib.axis_7">
    <g id="xtick_28">
     <g id="line2d_37">
      <g>
       <use xlink:href="#mef46927e67" x="57.6" y="307.584" style="fill: #262626; stroke: #262626; stroke-width: 1.25"/>
      </g>
     </g>
     <g id="text_13">
      <text style="fill: #262626; font: 11px 'sans-serif'; text-anchor: middle" x="57.6" y="324.957594" transform="rotate(-0, 57.6, 324.957594)">0</text>
     </g>
    </g>
    <g id="xtick_29">
     <g id="line2d_38">
      <g>
       <use xlink:href="#mef46927e67" x="102.24" y="307.584" style="fill: #262626; stroke: #262626; stroke-width: 1.25"/>
      </g>
     </g>
     <g id="text_14">
      <text style="fill: #262626; font: 11px 'sans-serif'; text-anchor: middle" x="102.24" y="324.957594" transform="rotate(-0, 102.24, 324.957594)">25</text>
     </g>
    </g>
    <g id="xtick_30">
     <g id="line2d_39">
      <g>
       <use xlink:href="#mef46927e67" x="146.88" y="307.584" style="fill: #262626; stroke: #262626; stroke-width: 1.25"/>
      </g>
     </g>
     <g id="text_15">
      <text style="fill: #262626; font: 11px 'sans-serif'; text-anchor: middle" x="146.88" y="324.957594" transform="rotate(-0, 146.88, 324.957594)">50</text>
     </g>
    </g>
    <g id="xtick_31">
     <g id="line2d_40">
      <g>
       <use xlink:href="#mef46927e67" x="191.52" y="307.584" style="fill: #262626; stroke: #262626; stroke-width: 1.25"/>
      </g>
     </g>
     <g id="text_16">
      <text style="fill: #262626; font: 11px 'sans-serif'; text-anchor: middle" x="191.52" y="324.957594" transform="rotate(-0, 191.52, 324.957594)">75</text>
     </g>
    </g>
    <g id="xtick_32">
     <g id="line2d_41">
      <g>
       <use xlink:href="#mef46927e67" x="236.16" y="307.584" style="fill: #262626; stroke: #262626; stroke-width: 1.25"/>
      </g>
     </g>
     <g id="text_17">
      <text style="fill: #262626; font: 11px 'sans-serif'; text-anchor: middle" x="236.16" y="324.957594" transform="rotate(-0, 236.16, 324.957594)">100</text>
     </g>
    </g>
    <g id="xtick_33">
     <g id="line2d_42">
      <g>
       <use xlink:href="#mef46927e67" x="280.8" y="307.584" style="fill: #262626; stroke: #262626; stroke-width: 1.25"/>
      </g>
     </g>
     <g id="text_18">
      <text style="fill: #262626; font: 11px 'sans-serif'; text-anchor: middle" x="280.8" y="324.957594" transform="rotate(-0, 280.8, 324.957594)">125</text>
     </g>
    </g>
    <g id="xtick_34">
     <g id="line2d_43">
      <g>
       <use xlink:href="#mef46927e67" x="325.44" y="307.584" style="fill: #262626; stroke: #262626; stroke-width: 1.25"/>
      </g>
     </g>
     <g id="text_19">
      <text style="fill: #262626; font: 11px 'sans-serif'; text-anchor: middle" x="325.44" y="324.957594" transform="rotate(-0, 325.44, 324.957594)">150</text>
     </g>
    </g>
    <g id="xtick_35">
     <g id="line2d_44">
      <g>
       <use xlink:href="#mef46927e67" x="370.08" y="307.584" style="fill: #262626; stroke: #262626; stroke-width: 1.25"/>
      </g>
     </g>
     <g id="text_20">
      <text style="fill: #262626; font: 11px 'sans-serif'; text-anchor: middle" x="370.08" y="324.957594" transform="rotate(-0, 370.08, 324.957594)">175</text>
     </g>
    </g>
    <g id="xtick_36">
     <g id="line2d_45">
      <g>
       <use xlink:href="#mef46927e67" x="414.72" y="307.584" style="fill: #262626; stroke: #262626; stroke-width: 1.25"/>
      </g>
     </g>
     <g id="text_21">
      <text style="fill: #262626; font: 11px 'sans-serif'; text-anchor: middle" x="414.72" y="324.957594" transform="rotate(-0, 414.72, 324.957594)">200</text>
     </g>
    </g>
    <g id="text_22">
     <text style="fill: #262626; font: 12px 'sans-serif'; text-anchor: middle" x="236.16" y="339.879469" transform="rotate(-0, 236.16, 339.879469)">Residence time before transition to 'bound' state (s)</text>
    </g>
   </g>
   <g id="matplotlib.axis_8">
    <g id="ytick_7">
     <g id="line2d_46">
      <g>
       <use xlink:href="#m77d38ba11f" x="57.6" y="307.584" style="fill: #262626; stroke: #262626; stroke-width: 1.25"/>
      </g>
     </g>
     <g id="text_23">
      <text style="fill: #262626; font: 11px 'sans-serif'; text-anchor: end" x="48.1" y="311.520797" transform="rotate(-0, 48.1, 311.520797)">0.00</text>
     </g>
    </g>
    <g id="ytick_8">
     <g id="line2d_47">
      <g>
       <use xlink:href="#m77d38ba11f" x="57.6" y="263.919759" style="fill: #262626; stroke: #262626; stroke-width: 1.25"/>
      </g>
     </g>
     <g id="text_24">
      <text style="fill: #262626; font: 11px 'sans-serif'; text-anchor: end" x="48.1" y="267.856556" transform="rotate(-0, 48.1, 267.856556)">0.05</text>
     </g>
    </g>
    <g id="text_25">
     <text style="fill: #262626; font: 12px 'sans-serif'; text-anchor: middle" x="20.167344" y="278.658783" transform="rotate(-90, 20.167344, 278.658783)">Density</text>
    </g>
   </g>
   <g id="patch_66">
    <path d="M 57.95712 307.584 
L 75.81312 307.584 
L 75.81312 252.488348 
L 57.95712 252.488348 
L 57.95712 307.584 
z
" clip-path="url(#pc198324d16)" style="fill: none; stroke: #357ba3; stroke-width: 1.5; stroke-linejoin: miter"/>
   </g>
   <g id="patch_67">
    <path d="M 75.81312 307.584 
L 93.66912 307.584 
L 93.66912 296.339989 
L 75.81312 296.339989 
L 75.81312 307.584 
z
" clip-path="url(#pc198324d16)" style="fill: none; stroke: #357ba3; stroke-width: 1.5; stroke-linejoin: miter"/>
   </g>
   <g id="patch_68">
    <path d="M 93.66912 307.584 
L 111.52512 307.584 
L 111.52512 298.588791 
L 93.66912 298.588791 
L 93.66912 307.584 
z
" clip-path="url(#pc198324d16)" style="fill: none; stroke: #357ba3; stroke-width: 1.5; stroke-linejoin: miter"/>
   </g>
   <g id="patch_69">
    <path d="M 111.52512 307.584 
L 129.38112 307.584 
L 129.38112 302.711595 
L 111.52512 302.711595 
L 111.52512 307.584 
z
" clip-path="url(#pc198324d16)" style="fill: none; stroke: #357ba3; stroke-width: 1.5; stroke-linejoin: miter"/>
   </g>
   <g id="patch_70">
    <path d="M 129.38112 307.584 
L 147.23712 307.584 
L 147.23712 305.709998 
L 129.38112 305.709998 
L 129.38112 307.584 
z
" clip-path="url(#pc198324d16)" style="fill: none; stroke: #357ba3; stroke-width: 1.5; stroke-linejoin: miter"/>
   </g>
   <g id="patch_71">
    <path d="M 147.23712 307.584 
L 165.09312 307.584 
L 165.09312 307.584 
L 147.23712 307.584 
L 147.23712 307.584 
z
" clip-path="url(#pc198324d16)" style="fill: none; stroke: #357ba3; stroke-width: 1.5; stroke-linejoin: miter"/>
   </g>
   <g id="patch_72">
    <path d="M 165.09312 307.584 
L 182.94912 307.584 
L 182.94912 307.2092 
L 165.09312 307.2092 
L 165.09312 307.584 
z
" clip-path="url(#pc198324d16)" style="fill: none; stroke: #357ba3; stroke-width: 1.5; stroke-linejoin: miter"/>
   </g>
   <g id="patch_73">
    <path d="M 182.94912 307.584 
L 200.80512 307.584 
L 200.80512 306.459599 
L 182.94912 306.459599 
L 182.94912 307.584 
z
" clip-path="url(#pc198324d16)" style="fill: none; stroke: #357ba3; stroke-width: 1.5; stroke-linejoin: miter"/>
   </g>
   <g id="patch_74">
    <path d="M 200.80512 307.584 
L 218.66112 307.584 
L 218.66112 307.584 
L 200.80512 307.584 
L 200.80512 307.584 
z
" clip-path="url(#pc198324d16)" style="fill: none; stroke: #357ba3; stroke-width: 1.5; stroke-linejoin: miter"/>
   </g>
   <g id="patch_75">
    <path d="M 218.66112 307.584 
L 236.51712 307.584 
L 236.51712 307.584 
L 218.66112 307.584 
L 218.66112 307.584 
z
" clip-path="url(#pc198324d16)" style="fill: none; stroke: #357ba3; stroke-width: 1.5; stroke-linejoin: miter"/>
   </g>
   <g id="patch_76">
    <path d="M 236.51712 307.584 
L 254.37312 307.584 
L 254.37312 307.584 
L 236.51712 307.584 
L 236.51712 307.584 
z
" clip-path="url(#pc198324d16)" style="fill: none; stroke: #357ba3; stroke-width: 1.5; stroke-linejoin: miter"/>
   </g>
   <g id="patch_77">
    <path d="M 254.37312 307.584 
L 272.22912 307.584 
L 272.22912 307.2092 
L 254.37312 307.2092 
L 254.37312 307.584 
z
" clip-path="url(#pc198324d16)" style="fill: none; stroke: #357ba3; stroke-width: 1.5; stroke-linejoin: miter"/>
   </g>
   <g id="patch_78">
    <path d="M 272.22912 307.584 
L 290.08512 307.584 
L 290.08512 307.584 
L 272.22912 307.584 
L 272.22912 307.584 
z
" clip-path="url(#pc198324d16)" style="fill: none; stroke: #357ba3; stroke-width: 1.5; stroke-linejoin: miter"/>
   </g>
   <g id="patch_79">
    <path d="M 290.08512 307.584 
L 307.94112 307.584 
L 307.94112 307.2092 
L 290.08512 307.2092 
L 290.08512 307.584 
z
" clip-path="url(#pc198324d16)" style="fill: none; stroke: #357ba3; stroke-width: 1.5; stroke-linejoin: miter"/>
   </g>
   <g id="patch_80">
    <path d="M 307.94112 307.584 
L 325.79712 307.584 
L 325.79712 307.584 
L 307.94112 307.584 
L 307.94112 307.584 
z
" clip-path="url(#pc198324d16)" style="fill: none; stroke: #357ba3; stroke-width: 1.5; stroke-linejoin: miter"/>
   </g>
   <g id="patch_81">
    <path d="M 325.79712 307.584 
L 343.65312 307.584 
L 343.65312 306.834399 
L 325.79712 306.834399 
L 325.79712 307.584 
z
" clip-path="url(#pc198324d16)" style="fill: none; stroke: #357ba3; stroke-width: 1.5; stroke-linejoin: miter"/>
   </g>
   <g id="patch_82">
    <path d="M 343.65312 307.584 
L 361.50912 307.584 
L 361.50912 307.2092 
L 343.65312 307.2092 
L 343.65312 307.584 
z
" clip-path="url(#pc198324d16)" style="fill: none; stroke: #357ba3; stroke-width: 1.5; stroke-linejoin: miter"/>
   </g>
   <g id="patch_83">
    <path d="M 361.50912 307.584 
L 379.36512 307.584 
L 379.36512 307.584 
L 361.50912 307.584 
L 361.50912 307.584 
z
" clip-path="url(#pc198324d16)" style="fill: none; stroke: #357ba3; stroke-width: 1.5; stroke-linejoin: miter"/>
   </g>
   <g id="patch_84">
    <path d="M 379.36512 307.584 
L 397.22112 307.584 
L 397.22112 307.2092 
L 379.36512 307.2092 
L 379.36512 307.584 
z
" clip-path="url(#pc198324d16)" style="fill: none; stroke: #357ba3; stroke-width: 1.5; stroke-linejoin: miter"/>
   </g>
   <g id="patch_85">
    <path d="M 397.22112 307.584 
L 415.07712 307.584 
L 415.07712 307.584 
L 397.22112 307.584 
L 397.22112 307.584 
z
" clip-path="url(#pc198324d16)" style="fill: none; stroke: #357ba3; stroke-width: 1.5; stroke-linejoin: miter"/>
   </g>
   <g id="patch_86">
    <path d="M 415.07712 307.584 
L 432.93312 307.584 
L 432.93312 307.584 
L 415.07712 307.584 
L 415.07712 307.584 
z
" clip-path="url(#pc198324d16)" style="fill: none; stroke: #357ba3; stroke-width: 1.5; stroke-linejoin: miter"/>
   </g>
   <g id="patch_87">
    <path d="M 432.93312 307.584 
L 450.78912 307.584 
L 450.78912 307.584 
L 432.93312 307.584 
L 432.93312 307.584 
z
" clip-path="url(#pc198324d16)" style="fill: none; stroke: #357ba3; stroke-width: 1.5; stroke-linejoin: miter"/>
   </g>
   <g id="patch_88">
    <path d="M 450.78912 307.584 
L 461.8 307.584 
M 461.8 307.584 
L 450.78912 307.584 
L 450.78912 307.584 
" clip-path="url(#pc198324d16)" style="fill: none; stroke: #357ba3; stroke-width: 1.5; stroke-linejoin: miter"/>
   </g>
   <g id="patch_89">
    <path clip-path="url(#pc198324d16)" style="fill: none; stroke: #357ba3; stroke-width: 1.5; stroke-linejoin: miter"/>
   </g>
   <g id="patch_90">
    <path clip-path="url(#pc198324d16)" style="fill: none; stroke: #357ba3; stroke-width: 1.5; stroke-linejoin: miter"/>
   </g>
   <g id="patch_91">
    <path clip-path="url(#pc198324d16)" style="fill: none; stroke: #357ba3; stroke-width: 1.5; stroke-linejoin: miter"/>
   </g>
   <g id="patch_92">
    <path clip-path="url(#pc198324d16)" style="fill: none; stroke: #357ba3; stroke-width: 1.5; stroke-linejoin: miter"/>
   </g>
   <g id="patch_93">
    <path clip-path="url(#pc198324d16)" style="fill: none; stroke: #357ba3; stroke-width: 1.5; stroke-linejoin: miter"/>
   </g>
   <g id="patch_94">
    <path clip-path="url(#pc198324d16)" style="fill: none; stroke: #357ba3; stroke-width: 1.5; stroke-linejoin: miter"/>
   </g>
   <g id="patch_95">
    <path clip-path="url(#pc198324d16)" style="fill: none; stroke: #357ba3; stroke-width: 1.5; stroke-linejoin: miter"/>
   </g>
   <g id="patch_96">
    <path clip-path="url(#pc198324d16)" style="fill: none; stroke: #357ba3; stroke-width: 1.5; stroke-linejoin: miter"/>
   </g>
   <g id="patch_97">
    <path clip-path="url(#pc198324d16)" style="fill: none; stroke: #357ba3; stroke-width: 1.5; stroke-linejoin: miter"/>
   </g>
   <g id="patch_98">
    <path clip-path="url(#pc198324d16)" style="fill: none; stroke: #357ba3; stroke-width: 1.5; stroke-linejoin: miter"/>
   </g>
   <g id="line2d_48">
    <path d="M 57.95712 291.378668 
L 60.878685 290.811582 
L 63.800249 290.380942 
L 66.721814 290.09529 
L 69.643378 289.959006 
L 72.564943 289.972197 
L 75.486508 290.130809 
L 78.408072 290.426937 
L 84.251202 291.383917 
L 90.094331 292.724442 
L 98.859025 295.15066 
L 110.545283 298.499784 
L 116.388412 300.021437 
L 122.231542 301.378188 
L 128.074671 302.554968 
L 133.9178 303.553502 
L 139.760929 304.385169 
L 148.525623 305.354734 
L 157.290317 306.042226 
L 166.055011 306.505054 
L 177.74127 306.870054 
L 195.270657 307.123887 
L 236.172562 307.400346 
L 271.231337 307.408892 
L 370.564535 307.332922 
L 449.446779 307.577795 
L 461.8 307.581945 
L 461.8 307.581945 
" clip-path="url(#pc198324d16)" style="fill: none; stroke: #357ba3; stroke-width: 1.5; stroke-linecap: round"/>
   </g>
   <g id="patch_99">
    <path d="M 57.6 307.584 
L 57.6 249.733565 
" style="fill: none; stroke: #262626; stroke-width: 1.25; stroke-linejoin: miter; stroke-linecap: square"/>
   </g>
   <g id="patch_100">
    <path d="M 414.72 307.584 
L 414.72 249.733565 
" style="fill: none; stroke: #262626; stroke-width: 1.25; stroke-linejoin: miter; stroke-linecap: square"/>
   </g>
   <g id="patch_101">
    <path d="M 57.6 307.584 
L 414.72 307.584 
" style="fill: none; stroke: #262626; stroke-width: 1.25; stroke-linejoin: miter; stroke-linecap: square"/>
   </g>
   <g id="patch_102">
    <path d="M 57.6 249.733565 
L 414.72 249.733565 
" style="fill: none; stroke: #262626; stroke-width: 1.25; stroke-linejoin: miter; stroke-linecap: square"/>
   </g>
   <g id="text_26">
    <text style="fill: #262626; font: 12px 'sans-serif'; text-anchor: middle" x="236.16" y="243.733565" transform="rotate(-0, 236.16, 243.733565)">04_A8B1</text>
   </g>
   <g id="legend_4">
    <g id="patch_103">
     <path d="M 402.62 264.033565 
L 407.02 264.033565 
Q 409.22 264.033565 409.22 261.833565 
L 409.22 257.433565 
Q 409.22 255.233565 407.02 255.233565 
L 402.62 255.233565 
Q 400.42 255.233565 400.42 257.433565 
L 400.42 261.833565 
Q 400.42 264.033565 402.62 264.033565 
z
" style="fill: #ffffff; opacity: 0.8; stroke: #cccccc; stroke-linejoin: miter"/>
    </g>
   </g>
  </g>
 </g>
 <defs>
  <clipPath id="p6273828215">
   <rect x="57.6" y="41.472" width="357.12" height="57.850435"/>
  </clipPath>
  <clipPath id="p8e77d40d51">
   <rect x="57.6" y="110.892522" width="357.12" height="57.850435"/>
  </clipPath>
  <clipPath id="p55958fc0d4">
   <rect x="57.6" y="180.313043" width="357.12" height="57.850435"/>
  </clipPath>
  <clipPath id="pc198324d16">
   <rect x="57.6" y="249.733565" width="357.12" height="57.850435"/>
  </clipPath>
 </defs>
</svg>
