<?xml version="1.0" encoding="utf-8" standalone="no"?>
<!DOCTYPE svg PUBLIC "-//W3C//DTD SVG 1.1//EN"
  "http://www.w3.org/Graphics/SVG/1.1/DTD/svg11.dtd">
<svg xmlns:xlink="http://www.w3.org/1999/xlink" width="460.8pt" height="345.6pt" viewBox="0 0 460.8 345.6" xmlns="http://www.w3.org/2000/svg" version="1.1">
 <metadata>
  <rdf:RDF xmlns:dc="http://purl.org/dc/elements/1.1/" xmlns:cc="http://creativecommons.org/ns#" xmlns:rdf="http://www.w3.org/1999/02/22-rdf-syntax-ns#">
   <cc:Work>
    <dc:type rdf:resource="http://purl.org/dc/dcmitype/StillImage"/>
    <dc:date>2026-05-26T09:43:42.533084</dc:date>
    <dc:format>image/svg+xml</dc:format>
    <dc:creator>
     <cc:Agent>
      <dc:title>Matplotlib v3.5.1, https://matplotlib.org/</dc:title>
     </cc:Agent>
    </dc:creator>
   </cc:Work>
  </rdf:RDF>
 </metadata>
 <defs>
  <style type="text/css">*{stroke-linejoin: round; stroke-linecap: butt}</style>
 </defs>
 <g id="figure_1">
  <g id="patch_1">
   <path d="M 0 345.6 
L 460.8 345.6 
L 460.8 0 
L 0 0 
z
" style="fill: #ffffff"/>
  </g>
  <g id="axes_1">
   <g id="patch_2">
    <path d="M 57.6 99.322435 
L 414.72 99.322435 
L 414.72 41.472 
L 57.6 41.472 
z
" style="fill: #ffffff"/>
   </g>
   <g id="matplotlib.axis_1">
    <g id="xtick_1">
     <g id="line2d_1">
      <defs>
       <path id="m123a68bc44" d="M 0 0 
L 0 6 
" style="stroke: #262626; stroke-width: 1.25"/>
      </defs>
      <g>
       <use xlink:href="#m123a68bc44" x="57.6" y="99.322435" style="fill: #262626; stroke: #262626; stroke-width: 1.25"/>
      </g>
     </g>
    </g>
    <g id="xtick_2">
     <g id="line2d_2">
      <g>
       <use xlink:href="#m123a68bc44" x="102.24" y="99.322435" style="fill: #262626; stroke: #262626; stroke-width: 1.25"/>
      </g>
     </g>
    </g>
    <g id="xtick_3">
     <g id="line2d_3">
      <g>
       <use xlink:href="#m123a68bc44" x="146.88" y="99.322435" style="fill: #262626; stroke: #262626; stroke-width: 1.25"/>
      </g>
     </g>
    </g>
    <g id="xtick_4">
     <g id="line2d_4">
      <g>
       <use xlink:href="#m123a68bc44" x="191.52" y="99.322435" style="fill: #262626; stroke: #262626; stroke-width: 1.25"/>
      </g>
     </g>
    </g>
    <g id="xtick_5">
     <g id="line2d_5">
      <g>
       <use xlink:href="#m123a68bc44" x="236.16" y="99.322435" style="fill: #262626; stroke: #262626; stroke-width: 1.25"/>
      </g>
     </g>
    </g>
    <g id="xtick_6">
     <g id="line2d_6">
      <g>
       <use xlink:href="#m123a68bc44" x="280.8" y="99.322435" style="fill: #262626; stroke: #262626; stroke-width: 1.25"/>
      </g>
     </g>
    </g>
    <g id="xtick_7">
     <g id="line2d_7">
      <g>
       <use xlink:href="#m123a68bc44" x="325.44" y="99.322435" style="fill: #262626; stroke: #262626; stroke-width: 1.25"/>
      </g>
     </g>
    </g>
    <g id="xtick_8">
     <g id="line2d_8">
      <g>
       <use xlink:href="#m123a68bc44" x="370.08" y="99.322435" style="fill: #262626; stroke: #262626; stroke-width: 1.25"/>
      </g>
     </g>
    </g>
    <g id="xtick_9">
     <g id="line2d_9">
      <g>
       <use xlink:href="#m123a68bc44" x="414.72" y="99.322435" style="fill: #262626; stroke: #262626; stroke-width: 1.25"/>
      </g>
     </g>
    </g>
   </g>
   <g id="matplotlib.axis_2">
    <g id="ytick_1">
     <g id="line2d_10">
      <defs>
       <path id="mdf119999ba" d="M 0 0 
L -6 0 
" style="stroke: #262626; stroke-width: 1.25"/>
      </defs>
      <g>
       <use xlink:href="#mdf119999ba" x="57.6" y="99.322435" style="fill: #262626; stroke: #262626; stroke-width: 1.25"/>
      </g>
     </g>
     <g id="text_1">
      <text style="fill: #262626; font: 11px 'sans-serif'; text-anchor: end" x="48.1" y="103.259232" transform="rotate(-0, 48.1, 103.259232)">0.00</text>
     </g>
    </g>
    <g id="ytick_2">
     <g id="line2d_11">
      <g>
       <use xlink:href="#mdf119999ba" x="57.6" y="56.820075" style="fill: #262626; stroke: #262626; stroke-width: 1.25"/>
      </g>
     </g>
     <g id="text_2">
      <text style="fill: #262626; font: 11px 'sans-serif'; text-anchor: end" x="48.1" y="60.756871" transform="rotate(-0, 48.1, 60.756871)">0.05</text>
     </g>
    </g>
    <g id="text_3">
     <text style="fill: #262626; font: 12px 'sans-serif'; text-anchor: middle" x="20.167344" y="70.397217" transform="rotate(-90, 20.167344, 70.397217)">Density</text>
    </g>
   </g>
   <g id="patch_3">
    <path d="M 61.1712 99.322435 
L 79.0272 99.322435 
L 79.0272 44.226783 
L 61.1712 44.226783 
L 61.1712 99.322435 
z
" clip-path="url(#p2c72f26aae)" style="fill: none; stroke: #357ba3; stroke-width: 1.5; stroke-linejoin: miter"/>
   </g>
   <g id="patch_4">
    <path d="M 79.0272 99.322435 
L 96.8832 99.322435 
L 96.8832 83.58082 
L 79.0272 83.58082 
L 79.0272 99.322435 
z
" clip-path="url(#p2c72f26aae)" style="fill: none; stroke: #357ba3; stroke-width: 1.5; stroke-linejoin: miter"/>
   </g>
   <g id="patch_5">
    <path d="M 96.8832 99.322435 
L 114.7392 99.322435 
L 114.7392 94.59995 
L 96.8832 94.59995 
L 96.8832 99.322435 
z
" clip-path="url(#p2c72f26aae)" style="fill: none; stroke: #357ba3; stroke-width: 1.5; stroke-linejoin: miter"/>
   </g>
   <g id="patch_6">
    <path d="M 114.7392 99.322435 
L 132.5952 99.322435 
L 132.5952 93.025789 
L 114.7392 93.025789 
L 114.7392 99.322435 
z
" clip-path="url(#p2c72f26aae)" style="fill: none; stroke: #357ba3; stroke-width: 1.5; stroke-linejoin: miter"/>
   </g>
   <g id="patch_7">
    <path d="M 132.5952 99.322435 
L 150.4512 99.322435 
L 150.4512 99.322435 
L 132.5952 99.322435 
L 132.5952 99.322435 
z
" clip-path="url(#p2c72f26aae)" style="fill: none; stroke: #357ba3; stroke-width: 1.5; stroke-linejoin: miter"/>
   </g>
   <g id="patch_8">
    <path d="M 150.4512 99.322435 
L 168.3072 99.322435 
L 168.3072 97.748273 
L 150.4512 97.748273 
L 150.4512 99.322435 
z
" clip-path="url(#p2c72f26aae)" style="fill: none; stroke: #357ba3; stroke-width: 1.5; stroke-linejoin: miter"/>
   </g>
   <g id="patch_9">
    <path d="M 168.3072 99.322435 
L 186.1632 99.322435 
L 186.1632 97.748273 
L 168.3072 97.748273 
L 168.3072 99.322435 
z
" clip-path="url(#p2c72f26aae)" style="fill: none; stroke: #357ba3; stroke-width: 1.5; stroke-linejoin: miter"/>
   </g>
   <g id="patch_10">
    <path d="M 57.6 99.322435 
L 57.6 41.472 
" style="fill: none; stroke: #262626; stroke-width: 1.25; stroke-linejoin: miter; stroke-linecap: square"/>
   </g>
   <g id="patch_11">
    <path d="M 414.72 99.322435 
L 414.72 41.472 
" style="fill: none; stroke: #262626; stroke-width: 1.25; stroke-linejoin: miter; stroke-linecap: square"/>
   </g>
   <g id="patch_12">
    <path d="M 57.6 99.322435 
L 414.72 99.322435 
" style="fill: none; stroke: #262626; stroke-width: 1.25; stroke-linejoin: miter; stroke-linecap: square"/>
   </g>
   <g id="patch_13">
    <path d="M 57.6 41.472 
L 414.72 41.472 
" style="fill: none; stroke: #262626; stroke-width: 1.25; stroke-linejoin: miter; stroke-linecap: square"/>
   </g>
   <g id="text_4">
    <text style="fill: #262626; font: 12px 'sans-serif'; text-anchor: middle" x="236.16" y="35.472" transform="rotate(-0, 236.16, 35.472)">01_Native</text>
   </g>
   <g id="legend_1">
    <g id="patch_14">
     <path d="M 322.290781 82.338875 
L 407.02 82.338875 
Q 409.22 82.338875 409.22 80.138875 
L 409.22 49.172 
Q 409.22 46.972 407.02 46.972 
L 322.290781 46.972 
Q 320.090781 46.972 320.090781 49.172 
L 320.090781 80.138875 
Q 320.090781 82.338875 322.290781 82.338875 
z
" style="fill: #ffffff; opacity: 0.8; stroke: #cccccc; stroke-linejoin: miter"/>
    </g>
    <g id="text_5">
     <text style="fill: #262626; font: 12px 'sans-serif'; text-anchor: start" x="339.312891" y="59.961375" transform="rotate(-0, 339.312891, 59.961375)">treatment</text>
    </g>
    <g id="patch_15">
     <path d="M 324.490781 75.752625 
L 346.490781 75.752625 
L 346.490781 68.052625 
L 324.490781 68.052625 
L 324.490781 75.752625 
z
" style="fill: none; stroke: #357ba3; stroke-linejoin: miter"/>
    </g>
    <g id="text_6">
     <text style="fill: #262626; font: 11px 'sans-serif'; text-anchor: start" x="355.290781" y="75.752625" transform="rotate(-0, 355.290781, 75.752625)">01_Native</text>
    </g>
   </g>
  </g>
  <g id="axes_2">
   <g id="patch_16">
    <path d="M 57.6 168.742957 
L 414.72 168.742957 
L 414.72 110.892522 
L 57.6 110.892522 
z
" style="fill: #ffffff"/>
   </g>
   <g id="matplotlib.axis_3">
    <g id="xtick_10">
     <g id="line2d_12">
      <g>
       <use xlink:href="#m123a68bc44" x="57.6" y="168.742957" style="fill: #262626; stroke: #262626; stroke-width: 1.25"/>
      </g>
     </g>
    </g>
    <g id="xtick_11">
     <g id="line2d_13">
      <g>
       <use xlink:href="#m123a68bc44" x="102.24" y="168.742957" style="fill: #262626; stroke: #262626; stroke-width: 1.25"/>
      </g>
     </g>
    </g>
    <g id="xtick_12">
     <g id="line2d_14">
      <g>
       <use xlink:href="#m123a68bc44" x="146.88" y="168.742957" style="fill: #262626; stroke: #262626; stroke-width: 1.25"/>
      </g>
     </g>
    </g>
    <g id="xtick_13">
     <g id="line2d_15">
      <g>
       <use xlink:href="#m123a68bc44" x="191.52" y="168.742957" style="fill: #262626; stroke: #262626; stroke-width: 1.25"/>
      </g>
     </g>
    </g>
    <g id="xtick_14">
     <g id="line2d_16">
      <g>
       <use xlink:href="#m123a68bc44" x="236.16" y="168.742957" style="fill: #262626; stroke: #262626; stroke-width: 1.25"/>
      </g>
     </g>
    </g>
    <g id="xtick_15">
     <g id="line2d_17">
      <g>
       <use xlink:href="#m123a68bc44" x="280.8" y="168.742957" style="fill: #262626; stroke: #262626; stroke-width: 1.25"/>
      </g>
     </g>
    </g>
    <g id="xtick_16">
     <g id="line2d_18">
      <g>
       <use xlink:href="#m123a68bc44" x="325.44" y="168.742957" style="fill: #262626; stroke: #262626; stroke-width: 1.25"/>
      </g>
     </g>
    </g>
    <g id="xtick_17">
     <g id="line2d_19">
      <g>
       <use xlink:href="#m123a68bc44" x="370.08" y="168.742957" style="fill: #262626; stroke: #262626; stroke-width: 1.25"/>
      </g>
     </g>
    </g>
    <g id="xtick_18">
     <g id="line2d_20">
      <g>
       <use xlink:href="#m123a68bc44" x="414.72" y="168.742957" style="fill: #262626; stroke: #262626; stroke-width: 1.25"/>
      </g>
     </g>
    </g>
   </g>
   <g id="matplotlib.axis_4">
    <g id="ytick_3">
     <g id="line2d_21">
      <g>
       <use xlink:href="#mdf119999ba" x="57.6" y="168.742957" style="fill: #262626; stroke: #262626; stroke-width: 1.25"/>
      </g>
     </g>
     <g id="text_7">
      <text style="fill: #262626; font: 11px 'sans-serif'; text-anchor: end" x="48.1" y="172.679753" transform="rotate(-0, 48.1, 172.679753)">0.00</text>
     </g>
    </g>
    <g id="ytick_4">
     <g id="line2d_22">
      <g>
       <use xlink:href="#mdf119999ba" x="57.6" y="131.177739" style="fill: #262626; stroke: #262626; stroke-width: 1.25"/>
      </g>
     </g>
     <g id="text_8">
      <text style="fill: #262626; font: 11px 'sans-serif'; text-anchor: end" x="48.1" y="135.114536" transform="rotate(-0, 48.1, 135.114536)">0.05</text>
     </g>
    </g>
    <g id="text_9">
     <text style="fill: #262626; font: 12px 'sans-serif'; text-anchor: middle" x="20.167344" y="139.817739" transform="rotate(-90, 20.167344, 139.817739)">Density</text>
    </g>
   </g>
   <g id="patch_17">
    <path d="M 61.52832 168.742957 
L 79.38432 168.742957 
L 79.38432 113.647304 
L 61.52832 113.647304 
L 61.52832 168.742957 
z
" clip-path="url(#p12941f55a6)" style="fill: none; stroke: #357ba3; stroke-width: 1.5; stroke-linejoin: miter"/>
   </g>
   <g id="patch_18">
    <path d="M 79.38432 168.742957 
L 97.24032 168.742957 
L 97.24032 153.71687 
L 79.38432 153.71687 
L 79.38432 168.742957 
z
" clip-path="url(#p12941f55a6)" style="fill: none; stroke: #357ba3; stroke-width: 1.5; stroke-linejoin: miter"/>
   </g>
   <g id="patch_19">
    <path d="M 97.24032 168.742957 
L 115.09632 168.742957 
L 115.09632 168.742957 
L 97.24032 168.742957 
L 97.24032 168.742957 
z
" clip-path="url(#p12941f55a6)" style="fill: none; stroke: #357ba3; stroke-width: 1.5; stroke-linejoin: miter"/>
   </g>
   <g id="patch_20">
    <path d="M 115.09632 168.742957 
L 132.95232 168.742957 
L 132.95232 163.734261 
L 115.09632 163.734261 
L 115.09632 168.742957 
z
" clip-path="url(#p12941f55a6)" style="fill: none; stroke: #357ba3; stroke-width: 1.5; stroke-linejoin: miter"/>
   </g>
   <g id="patch_21">
    <path d="M 57.6 168.742957 
L 57.6 110.892522 
" style="fill: none; stroke: #262626; stroke-width: 1.25; stroke-linejoin: miter; stroke-linecap: square"/>
   </g>
   <g id="patch_22">
    <path d="M 414.72 168.742957 
L 414.72 110.892522 
" style="fill: none; stroke: #262626; stroke-width: 1.25; stroke-linejoin: miter; stroke-linecap: square"/>
   </g>
   <g id="patch_23">
    <path d="M 57.6 168.742957 
L 414.72 168.742957 
" style="fill: none; stroke: #262626; stroke-width: 1.25; stroke-linejoin: miter; stroke-linecap: square"/>
   </g>
   <g id="patch_24">
    <path d="M 57.6 110.892522 
L 414.72 110.892522 
" style="fill: none; stroke: #262626; stroke-width: 1.25; stroke-linejoin: miter; stroke-linecap: square"/>
   </g>
   <g id="text_10">
    <text style="fill: #262626; font: 12px 'sans-serif'; text-anchor: middle" x="236.16" y="104.892522" transform="rotate(-0, 236.16, 104.892522)">02_Misfolded</text>
   </g>
   <g id="legend_2">
    <g id="patch_25">
     <path d="M 306.394063 151.860803 
L 407.02 151.860803 
Q 409.22 151.860803 409.22 149.660803 
L 409.22 118.592522 
Q 409.22 116.392522 407.02 116.392522 
L 306.394063 116.392522 
Q 304.194063 116.392522 304.194063 118.592522 
L 304.194063 149.660803 
Q 304.194063 151.860803 306.394063 151.860803 
z
" style="fill: #ffffff; opacity: 0.8; stroke: #cccccc; stroke-linejoin: miter"/>
    </g>
    <g id="text_11">
     <text style="fill: #262626; font: 12px 'sans-serif'; text-anchor: start" x="331.364531" y="129.381897" transform="rotate(-0, 331.364531, 129.381897)">treatment</text>
    </g>
    <g id="patch_26">
     <path d="M 308.594063 145.274553 
L 330.594063 145.274553 
L 330.594063 137.574553 
L 308.594063 137.574553 
L 308.594063 145.274553 
z
" style="fill: none; stroke: #357ba3; stroke-linejoin: miter"/>
    </g>
    <g id="text_12">
     <text style="fill: #262626; font: 11px 'sans-serif'; text-anchor: start" x="339.394063" y="145.274553" transform="rotate(-0, 339.394063, 145.274553)">02_Misfolded</text>
    </g>
   </g>
  </g>
  <g id="axes_3">
   <g id="patch_27">
    <path d="M 57.6 238.163478 
L 414.72 238.163478 
L 414.72 180.313043 
L 57.6 180.313043 
z
" style="fill: #ffffff"/>
   </g>
   <g id="matplotlib.axis_5">
    <g id="xtick_19">
     <g id="line2d_23">
      <g>
       <use xlink:href="#m123a68bc44" x="57.6" y="238.163478" style="fill: #262626; stroke: #262626; stroke-width: 1.25"/>
      </g>
     </g>
    </g>
    <g id="xtick_20">
     <g id="line2d_24">
      <g>
       <use xlink:href="#m123a68bc44" x="102.24" y="238.163478" style="fill: #262626; stroke: #262626; stroke-width: 1.25"/>
      </g>
     </g>
    </g>
    <g id="xtick_21">
     <g id="line2d_25">
      <g>
       <use xlink:href="#m123a68bc44" x="146.88" y="238.163478" style="fill: #262626; stroke: #262626; stroke-width: 1.25"/>
      </g>
     </g>
    </g>
    <g id="xtick_22">
     <g id="line2d_26">
      <g>
       <use xlink:href="#m123a68bc44" x="191.52" y="238.163478" style="fill: #262626; stroke: #262626; stroke-width: 1.25"/>
      </g>
     </g>
    </g>
    <g id="xtick_23">
     <g id="line2d_27">
      <g>
       <use xlink:href="#m123a68bc44" x="236.16" y="238.163478" style="fill: #262626; stroke: #262626; stroke-width: 1.25"/>
      </g>
     </g>
    </g>
    <g id="xtick_24">
     <g id="line2d_28">
      <g>
       <use xlink:href="#m123a68bc44" x="280.8" y="238.163478" style="fill: #262626; stroke: #262626; stroke-width: 1.25"/>
      </g>
     </g>
    </g>
    <g id="xtick_25">
     <g id="line2d_29">
      <g>
       <use xlink:href="#m123a68bc44" x="325.44" y="238.163478" style="fill: #262626; stroke: #262626; stroke-width: 1.25"/>
      </g>
     </g>
    </g>
    <g id="xtick_26">
     <g id="line2d_30">
      <g>
       <use xlink:href="#m123a68bc44" x="370.08" y="238.163478" style="fill: #262626; stroke: #262626; stroke-width: 1.25"/>
      </g>
     </g>
    </g>
    <g id="xtick_27">
     <g id="line2d_31">
      <g>
       <use xlink:href="#m123a68bc44" x="414.72" y="238.163478" style="fill: #262626; stroke: #262626; stroke-width: 1.25"/>
      </g>
     </g>
    </g>
   </g>
   <g id="matplotlib.axis_6">
    <g id="ytick_5">
     <g id="line2d_32">
      <g>
       <use xlink:href="#mdf119999ba" x="57.6" y="238.163478" style="fill: #262626; stroke: #262626; stroke-width: 1.25"/>
      </g>
     </g>
     <g id="text_13">
      <text style="fill: #262626; font: 11px 'sans-serif'; text-anchor: end" x="48.1" y="242.100275" transform="rotate(-0, 48.1, 242.100275)">0.000</text>
     </g>
    </g>
    <g id="ytick_6">
     <g id="line2d_33">
      <g>
       <use xlink:href="#mdf119999ba" x="57.6" y="209.010924" style="fill: #262626; stroke: #262626; stroke-width: 1.25"/>
      </g>
     </g>
     <g id="text_14">
      <text style="fill: #262626; font: 11px 'sans-serif'; text-anchor: end" x="48.1" y="212.947721" transform="rotate(-0, 48.1, 212.947721)">0.025</text>
     </g>
    </g>
    <g id="text_15">
     <text style="fill: #262626; font: 12px 'sans-serif'; text-anchor: middle" x="14.050313" y="209.238261" transform="rotate(-90, 14.050313, 209.238261)">Density</text>
    </g>
   </g>
   <g id="patch_28">
    <path d="M 61.1712 238.163478 
L 79.0272 238.163478 
L 79.0272 183.067826 
L 61.1712 183.067826 
L 61.1712 238.163478 
z
" clip-path="url(#pe6bbcc7394)" style="fill: none; stroke: #357ba3; stroke-width: 1.5; stroke-linejoin: miter"/>
   </g>
   <g id="patch_29">
    <path d="M 79.0272 238.163478 
L 96.8832 238.163478 
L 96.8832 224.255838 
L 79.0272 224.255838 
L 79.0272 238.163478 
z
" clip-path="url(#pe6bbcc7394)" style="fill: none; stroke: #357ba3; stroke-width: 1.5; stroke-linejoin: miter"/>
   </g>
   <g id="patch_30">
    <path d="M 96.8832 238.163478 
L 114.7392 238.163478 
L 114.7392 228.535112 
L 96.8832 228.535112 
L 96.8832 238.163478 
z
" clip-path="url(#pe6bbcc7394)" style="fill: none; stroke: #357ba3; stroke-width: 1.5; stroke-linejoin: miter"/>
   </g>
   <g id="patch_31">
    <path d="M 114.7392 238.163478 
L 132.5952 238.163478 
L 132.5952 230.13984 
L 114.7392 230.13984 
L 114.7392 238.163478 
z
" clip-path="url(#pe6bbcc7394)" style="fill: none; stroke: #357ba3; stroke-width: 1.5; stroke-linejoin: miter"/>
   </g>
   <g id="patch_32">
    <path d="M 132.5952 238.163478 
L 150.4512 238.163478 
L 150.4512 233.349295 
L 132.5952 233.349295 
L 132.5952 238.163478 
z
" clip-path="url(#pe6bbcc7394)" style="fill: none; stroke: #357ba3; stroke-width: 1.5; stroke-linejoin: miter"/>
   </g>
   <g id="patch_33">
    <path d="M 150.4512 238.163478 
L 168.3072 238.163478 
L 168.3072 234.954023 
L 150.4512 234.954023 
L 150.4512 238.163478 
z
" clip-path="url(#pe6bbcc7394)" style="fill: none; stroke: #357ba3; stroke-width: 1.5; stroke-linejoin: miter"/>
   </g>
   <g id="patch_34">
    <path d="M 168.3072 238.163478 
L 186.1632 238.163478 
L 186.1632 235.488932 
L 168.3072 235.488932 
L 168.3072 238.163478 
z
" clip-path="url(#pe6bbcc7394)" style="fill: none; stroke: #357ba3; stroke-width: 1.5; stroke-linejoin: miter"/>
   </g>
   <g id="patch_35">
    <path d="M 186.1632 238.163478 
L 204.0192 238.163478 
L 204.0192 234.419114 
L 186.1632 234.419114 
L 186.1632 238.163478 
z
" clip-path="url(#pe6bbcc7394)" style="fill: none; stroke: #357ba3; stroke-width: 1.5; stroke-linejoin: miter"/>
   </g>
   <g id="patch_36">
    <path d="M 204.0192 238.163478 
L 221.8752 238.163478 
L 221.8752 237.628569 
L 204.0192 237.628569 
L 204.0192 238.163478 
z
" clip-path="url(#pe6bbcc7394)" style="fill: none; stroke: #357ba3; stroke-width: 1.5; stroke-linejoin: miter"/>
   </g>
   <g id="patch_37">
    <path d="M 221.8752 238.163478 
L 239.7312 238.163478 
L 239.7312 236.558751 
L 221.8752 236.558751 
L 221.8752 238.163478 
z
" clip-path="url(#pe6bbcc7394)" style="fill: none; stroke: #357ba3; stroke-width: 1.5; stroke-linejoin: miter"/>
   </g>
   <g id="patch_38">
    <path d="M 239.7312 238.163478 
L 257.5872 238.163478 
L 257.5872 237.628569 
L 239.7312 237.628569 
L 239.7312 238.163478 
z
" clip-path="url(#pe6bbcc7394)" style="fill: none; stroke: #357ba3; stroke-width: 1.5; stroke-linejoin: miter"/>
   </g>
   <g id="patch_39">
    <path d="M 257.5872 238.163478 
L 275.4432 238.163478 
L 275.4432 237.628569 
L 257.5872 237.628569 
L 257.5872 238.163478 
z
" clip-path="url(#pe6bbcc7394)" style="fill: none; stroke: #357ba3; stroke-width: 1.5; stroke-linejoin: miter"/>
   </g>
   <g id="patch_40">
    <path d="M 275.4432 238.163478 
L 293.2992 238.163478 
L 293.2992 236.558751 
L 275.4432 236.558751 
L 275.4432 238.163478 
z
" clip-path="url(#pe6bbcc7394)" style="fill: none; stroke: #357ba3; stroke-width: 1.5; stroke-linejoin: miter"/>
   </g>
   <g id="patch_41">
    <path d="M 293.2992 238.163478 
L 311.1552 238.163478 
L 311.1552 237.628569 
L 293.2992 237.628569 
L 293.2992 238.163478 
z
" clip-path="url(#pe6bbcc7394)" style="fill: none; stroke: #357ba3; stroke-width: 1.5; stroke-linejoin: miter"/>
   </g>
   <g id="patch_42">
    <path d="M 311.1552 238.163478 
L 329.0112 238.163478 
L 329.0112 236.558751 
L 311.1552 236.558751 
L 311.1552 238.163478 
z
" clip-path="url(#pe6bbcc7394)" style="fill: none; stroke: #357ba3; stroke-width: 1.5; stroke-linejoin: miter"/>
   </g>
   <g id="patch_43">
    <path d="M 329.0112 238.163478 
L 346.8672 238.163478 
L 346.8672 236.023841 
L 329.0112 236.023841 
L 329.0112 238.163478 
z
" clip-path="url(#pe6bbcc7394)" style="fill: none; stroke: #357ba3; stroke-width: 1.5; stroke-linejoin: miter"/>
   </g>
   <g id="patch_44">
    <path d="M 346.8672 238.163478 
L 364.7232 238.163478 
L 364.7232 237.628569 
L 346.8672 237.628569 
L 346.8672 238.163478 
z
" clip-path="url(#pe6bbcc7394)" style="fill: none; stroke: #357ba3; stroke-width: 1.5; stroke-linejoin: miter"/>
   </g>
   <g id="patch_45">
    <path d="M 364.7232 238.163478 
L 382.5792 238.163478 
L 382.5792 237.628569 
L 364.7232 237.628569 
L 364.7232 238.163478 
z
" clip-path="url(#pe6bbcc7394)" style="fill: none; stroke: #357ba3; stroke-width: 1.5; stroke-linejoin: miter"/>
   </g>
   <g id="patch_46">
    <path d="M 382.5792 238.163478 
L 400.4352 238.163478 
L 400.4352 238.163478 
L 382.5792 238.163478 
L 382.5792 238.163478 
z
" clip-path="url(#pe6bbcc7394)" style="fill: none; stroke: #357ba3; stroke-width: 1.5; stroke-linejoin: miter"/>
   </g>
   <g id="patch_47">
    <path d="M 400.4352 238.163478 
L 418.2912 238.163478 
L 418.2912 237.628569 
L 400.4352 237.628569 
L 400.4352 238.163478 
z
" clip-path="url(#pe6bbcc7394)" style="fill: none; stroke: #357ba3; stroke-width: 1.5; stroke-linejoin: miter"/>
   </g>
   <g id="patch_48">
    <path d="M 418.2912 238.163478 
L 436.1472 238.163478 
L 436.1472 237.628569 
L 418.2912 237.628569 
L 418.2912 238.163478 
z
" clip-path="url(#pe6bbcc7394)" style="fill: none; stroke: #357ba3; stroke-width: 1.5; stroke-linejoin: miter"/>
   </g>
   <g id="patch_49">
    <path d="M 436.1472 238.163478 
L 454.0032 238.163478 
L 454.0032 238.163478 
L 436.1472 238.163478 
L 436.1472 238.163478 
z
" clip-path="url(#pe6bbcc7394)" style="fill: none; stroke: #357ba3; stroke-width: 1.5; stroke-linejoin: miter"/>
   </g>
   <g id="patch_50">
    <path d="M 454.0032 238.163478 
L 461.8 238.163478 
M 461.8 237.628569 
L 454.0032 237.628569 
L 454.0032 238.163478 
" clip-path="url(#pe6bbcc7394)" style="fill: none; stroke: #357ba3; stroke-width: 1.5; stroke-linejoin: miter"/>
   </g>
   <g id="patch_51">
    <path clip-path="url(#pe6bbcc7394)" style="fill: none; stroke: #357ba3; stroke-width: 1.5; stroke-linejoin: miter"/>
   </g>
   <g id="patch_52">
    <path clip-path="url(#pe6bbcc7394)" style="fill: none; stroke: #357ba3; stroke-width: 1.5; stroke-linejoin: miter"/>
   </g>
   <g id="patch_53">
    <path clip-path="url(#pe6bbcc7394)" style="fill: none; stroke: #357ba3; stroke-width: 1.5; stroke-linejoin: miter"/>
   </g>
   <g id="patch_54">
    <path clip-path="url(#pe6bbcc7394)" style="fill: none; stroke: #357ba3; stroke-width: 1.5; stroke-linejoin: miter"/>
   </g>
   <g id="patch_55">
    <path clip-path="url(#pe6bbcc7394)" style="fill: none; stroke: #357ba3; stroke-width: 1.5; stroke-linejoin: miter"/>
   </g>
   <g id="patch_56">
    <path clip-path="url(#pe6bbcc7394)" style="fill: none; stroke: #357ba3; stroke-width: 1.5; stroke-linejoin: miter"/>
   </g>
   <g id="patch_57">
    <path clip-path="url(#pe6bbcc7394)" style="fill: none; stroke: #357ba3; stroke-width: 1.5; stroke-linejoin: miter"/>
   </g>
   <g id="patch_58">
    <path clip-path="url(#pe6bbcc7394)" style="fill: none; stroke: #357ba3; stroke-width: 1.5; stroke-linejoin: miter"/>
   </g>
   <g id="patch_59">
    <path clip-path="url(#pe6bbcc7394)" style="fill: none; stroke: #357ba3; stroke-width: 1.5; stroke-linejoin: miter"/>
   </g>
   <g id="patch_60">
    <path clip-path="url(#pe6bbcc7394)" style="fill: none; stroke: #357ba3; stroke-width: 1.5; stroke-linejoin: miter"/>
   </g>
   <g id="patch_61">
    <path clip-path="url(#pe6bbcc7394)" style="fill: none; stroke: #357ba3; stroke-width: 1.5; stroke-linejoin: miter"/>
   </g>
   <g id="patch_62">
    <path d="M 57.6 238.163478 
L 57.6 180.313043 
" style="fill: none; stroke: #262626; stroke-width: 1.25; stroke-linejoin: miter; stroke-linecap: square"/>
   </g>
   <g id="patch_63">
    <path d="M 414.72 238.163478 
L 414.72 180.313043 
" style="fill: none; stroke: #262626; stroke-width: 1.25; stroke-linejoin: miter; stroke-linecap: square"/>
   </g>
   <g id="patch_64">
    <path d="M 57.6 238.163478 
L 414.72 238.163478 
" style="fill: none; stroke: #262626; stroke-width: 1.25; stroke-linejoin: miter; stroke-linecap: square"/>
   </g>
   <g id="patch_65">
    <path d="M 57.6 180.313043 
L 414.72 180.313043 
" style="fill: none; stroke: #262626; stroke-width: 1.25; stroke-linejoin: miter; stroke-linecap: square"/>
   </g>
   <g id="text_16">
    <text style="fill: #262626; font: 12px 'sans-serif'; text-anchor: middle" x="236.16" y="174.313043" transform="rotate(-0, 236.16, 174.313043)">03_A8A2</text>
   </g>
   <g id="legend_3">
    <g id="patch_66">
     <path d="M 326.560156 221.179918 
L 407.02 221.179918 
Q 409.22 221.179918 409.22 218.979918 
L 409.22 188.013043 
Q 409.22 185.813043 407.02 185.813043 
L 326.560156 185.813043 
Q 324.360156 185.813043 324.360156 188.013043 
L 324.360156 218.979918 
Q 324.360156 221.179918 326.560156 221.179918 
z
" style="fill: #ffffff; opacity: 0.8; stroke: #cccccc; stroke-linejoin: miter"/>
    </g>
    <g id="text_17">
     <text style="fill: #262626; font: 12px 'sans-serif'; text-anchor: start" x="341.447578" y="198.802418" transform="rotate(-0, 341.447578, 198.802418)">treatment</text>
    </g>
    <g id="patch_67">
     <path d="M 328.760156 214.593668 
L 350.760156 214.593668 
L 350.760156 206.893668 
L 328.760156 206.893668 
L 328.760156 214.593668 
z
" style="fill: none; stroke: #357ba3; stroke-linejoin: miter"/>
    </g>
    <g id="text_18">
     <text style="fill: #262626; font: 11px 'sans-serif'; text-anchor: start" x="359.560156" y="214.593668" transform="rotate(-0, 359.560156, 214.593668)">03_A8A2</text>
    </g>
   </g>
  </g>
  <g id="axes_4">
   <g id="patch_68">
    <path d="M 57.6 307.584 
L 414.72 307.584 
L 414.72 249.733565 
L 57.6 249.733565 
z
" style="fill: #ffffff"/>
   </g>
   <g id="matplotlib.axis_7">
    <g id="xtick_28">
     <g id="line2d_34">
      <g>
       <use xlink:href="#m123a68bc44" x="57.6" y="307.584" style="fill: #262626; stroke: #262626; stroke-width: 1.25"/>
      </g>
     </g>
     <g id="text_19">
      <text style="fill: #262626; font: 11px 'sans-serif'; text-anchor: middle" x="57.6" y="324.957594" transform="rotate(-0, 57.6, 324.957594)">0</text>
     </g>
    </g>
    <g id="xtick_29">
     <g id="line2d_35">
      <g>
       <use xlink:href="#m123a68bc44" x="102.24" y="307.584" style="fill: #262626; stroke: #262626; stroke-width: 1.25"/>
      </g>
     </g>
     <g id="text_20">
      <text style="fill: #262626; font: 11px 'sans-serif'; text-anchor: middle" x="102.24" y="324.957594" transform="rotate(-0, 102.24, 324.957594)">25</text>
     </g>
    </g>
    <g id="xtick_30">
     <g id="line2d_36">
      <g>
       <use xlink:href="#m123a68bc44" x="146.88" y="307.584" style="fill: #262626; stroke: #262626; stroke-width: 1.25"/>
      </g>
     </g>
     <g id="text_21">
      <text style="fill: #262626; font: 11px 'sans-serif'; text-anchor: middle" x="146.88" y="324.957594" transform="rotate(-0, 146.88, 324.957594)">50</text>
     </g>
    </g>
    <g id="xtick_31">
     <g id="line2d_37">
      <g>
       <use xlink:href="#m123a68bc44" x="191.52" y="307.584" style="fill: #262626; stroke: #262626; stroke-width: 1.25"/>
      </g>
     </g>
     <g id="text_22">
      <text style="fill: #262626; font: 11px 'sans-serif'; text-anchor: middle" x="191.52" y="324.957594" transform="rotate(-0, 191.52, 324.957594)">75</text>
     </g>
    </g>
    <g id="xtick_32">
     <g id="line2d_38">
      <g>
       <use xlink:href="#m123a68bc44" x="236.16" y="307.584" style="fill: #262626; stroke: #262626; stroke-width: 1.25"/>
      </g>
     </g>
     <g id="text_23">
      <text style="fill: #262626; font: 11px 'sans-serif'; text-anchor: middle" x="236.16" y="324.957594" transform="rotate(-0, 236.16, 324.957594)">100</text>
     </g>
    </g>
    <g id="xtick_33">
     <g id="line2d_39">
      <g>
       <use xlink:href="#m123a68bc44" x="280.8" y="307.584" style="fill: #262626; stroke: #262626; stroke-width: 1.25"/>
      </g>
     </g>
     <g id="text_24">
      <text style="fill: #262626; font: 11px 'sans-serif'; text-anchor: middle" x="280.8" y="324.957594" transform="rotate(-0, 280.8, 324.957594)">125</text>
     </g>
    </g>
    <g id="xtick_34">
     <g id="line2d_40">
      <g>
       <use xlink:href="#m123a68bc44" x="325.44" y="307.584" style="fill: #262626; stroke: #262626; stroke-width: 1.25"/>
      </g>
     </g>
     <g id="text_25">
      <text style="fill: #262626; font: 11px 'sans-serif'; text-anchor: middle" x="325.44" y="324.957594" transform="rotate(-0, 325.44, 324.957594)">150</text>
     </g>
    </g>
    <g id="xtick_35">
     <g id="line2d_41">
      <g>
       <use xlink:href="#m123a68bc44" x="370.08" y="307.584" style="fill: #262626; stroke: #262626; stroke-width: 1.25"/>
      </g>
     </g>
     <g id="text_26">
      <text style="fill: #262626; font: 11px 'sans-serif'; text-anchor: middle" x="370.08" y="324.957594" transform="rotate(-0, 370.08, 324.957594)">175</text>
     </g>
    </g>
    <g id="xtick_36">
     <g id="line2d_42">
      <g>
       <use xlink:href="#m123a68bc44" x="414.72" y="307.584" style="fill: #262626; stroke: #262626; stroke-width: 1.25"/>
      </g>
     </g>
     <g id="text_27">
      <text style="fill: #262626; font: 11px 'sans-serif'; text-anchor: middle" x="414.72" y="324.957594" transform="rotate(-0, 414.72, 324.957594)">200</text>
     </g>
    </g>
    <g id="text_28">
     <text style="fill: #262626; font: 12px 'sans-serif'; text-anchor: middle" x="236.16" y="339.879469" transform="rotate(-0, 236.16, 339.879469)">Residence time before transition to 'bound' state (s)</text>
    </g>
   </g>
   <g id="matplotlib.axis_8">
    <g id="ytick_7">
     <g id="line2d_43">
      <g>
       <use xlink:href="#mdf119999ba" x="57.6" y="307.584" style="fill: #262626; stroke: #262626; stroke-width: 1.25"/>
      </g>
     </g>
     <g id="text_29">
      <text style="fill: #262626; font: 11px 'sans-serif'; text-anchor: end" x="48.1" y="311.520797" transform="rotate(-0, 48.1, 311.520797)">0.00</text>
     </g>
    </g>
    <g id="ytick_8">
     <g id="line2d_44">
      <g>
       <use xlink:href="#mdf119999ba" x="57.6" y="265.810657" style="fill: #262626; stroke: #262626; stroke-width: 1.25"/>
      </g>
     </g>
     <g id="text_30">
      <text style="fill: #262626; font: 11px 'sans-serif'; text-anchor: end" x="48.1" y="269.747454" transform="rotate(-0, 48.1, 269.747454)">0.05</text>
     </g>
    </g>
    <g id="text_31">
     <text style="fill: #262626; font: 12px 'sans-serif'; text-anchor: middle" x="20.167344" y="278.658783" transform="rotate(-90, 20.167344, 278.658783)">Density</text>
    </g>
   </g>
   <g id="patch_69">
    <path d="M 61.1712 307.584 
L 79.0272 307.584 
L 79.0272 252.488348 
L 61.1712 252.488348 
L 61.1712 307.584 
z
" clip-path="url(#pa6a43421f7)" style="fill: none; stroke: #357ba3; stroke-width: 1.5; stroke-linejoin: miter"/>
   </g>
   <g id="patch_70">
    <path d="M 79.0272 307.584 
L 96.8832 307.584 
L 96.8832 294.487493 
L 79.0272 294.487493 
L 79.0272 307.584 
z
" clip-path="url(#pa6a43421f7)" style="fill: none; stroke: #357ba3; stroke-width: 1.5; stroke-linejoin: miter"/>
   </g>
   <g id="patch_71">
    <path d="M 96.8832 307.584 
L 114.7392 307.584 
L 114.7392 300.809944 
L 96.8832 300.809944 
L 96.8832 307.584 
z
" clip-path="url(#pa6a43421f7)" style="fill: none; stroke: #357ba3; stroke-width: 1.5; stroke-linejoin: miter"/>
   </g>
   <g id="patch_72">
    <path d="M 114.7392 307.584 
L 132.5952 307.584 
L 132.5952 301.261548 
L 114.7392 301.261548 
L 114.7392 307.584 
z
" clip-path="url(#pa6a43421f7)" style="fill: none; stroke: #357ba3; stroke-width: 1.5; stroke-linejoin: miter"/>
   </g>
   <g id="patch_73">
    <path d="M 132.5952 307.584 
L 150.4512 307.584 
L 150.4512 307.132396 
L 132.5952 307.132396 
L 132.5952 307.584 
z
" clip-path="url(#pa6a43421f7)" style="fill: none; stroke: #357ba3; stroke-width: 1.5; stroke-linejoin: miter"/>
   </g>
   <g id="patch_74">
    <path d="M 150.4512 307.584 
L 168.3072 307.584 
L 168.3072 307.584 
L 150.4512 307.584 
L 150.4512 307.584 
z
" clip-path="url(#pa6a43421f7)" style="fill: none; stroke: #357ba3; stroke-width: 1.5; stroke-linejoin: miter"/>
   </g>
   <g id="patch_75">
    <path d="M 168.3072 307.584 
L 186.1632 307.584 
L 186.1632 307.132396 
L 168.3072 307.132396 
L 168.3072 307.584 
z
" clip-path="url(#pa6a43421f7)" style="fill: none; stroke: #357ba3; stroke-width: 1.5; stroke-linejoin: miter"/>
   </g>
   <g id="patch_76">
    <path d="M 186.1632 307.584 
L 204.0192 307.584 
L 204.0192 307.132396 
L 186.1632 307.132396 
L 186.1632 307.584 
z
" clip-path="url(#pa6a43421f7)" style="fill: none; stroke: #357ba3; stroke-width: 1.5; stroke-linejoin: miter"/>
   </g>
   <g id="patch_77">
    <path d="M 204.0192 307.584 
L 221.8752 307.584 
L 221.8752 307.584 
L 204.0192 307.584 
L 204.0192 307.584 
z
" clip-path="url(#pa6a43421f7)" style="fill: none; stroke: #357ba3; stroke-width: 1.5; stroke-linejoin: miter"/>
   </g>
   <g id="patch_78">
    <path d="M 221.8752 307.584 
L 239.7312 307.584 
L 239.7312 307.584 
L 221.8752 307.584 
L 221.8752 307.584 
z
" clip-path="url(#pa6a43421f7)" style="fill: none; stroke: #357ba3; stroke-width: 1.5; stroke-linejoin: miter"/>
   </g>
   <g id="patch_79">
    <path d="M 239.7312 307.584 
L 257.5872 307.584 
L 257.5872 307.584 
L 239.7312 307.584 
L 239.7312 307.584 
z
" clip-path="url(#pa6a43421f7)" style="fill: none; stroke: #357ba3; stroke-width: 1.5; stroke-linejoin: miter"/>
   </g>
   <g id="patch_80">
    <path d="M 257.5872 307.584 
L 275.4432 307.584 
L 275.4432 307.132396 
L 257.5872 307.132396 
L 257.5872 307.584 
z
" clip-path="url(#pa6a43421f7)" style="fill: none; stroke: #357ba3; stroke-width: 1.5; stroke-linejoin: miter"/>
   </g>
   <g id="patch_81">
    <path d="M 275.4432 307.584 
L 293.2992 307.584 
L 293.2992 307.584 
L 275.4432 307.584 
L 275.4432 307.584 
z
" clip-path="url(#pa6a43421f7)" style="fill: none; stroke: #357ba3; stroke-width: 1.5; stroke-linejoin: miter"/>
   </g>
   <g id="patch_82">
    <path d="M 293.2992 307.584 
L 311.1552 307.584 
L 311.1552 307.584 
L 293.2992 307.584 
L 293.2992 307.584 
z
" clip-path="url(#pa6a43421f7)" style="fill: none; stroke: #357ba3; stroke-width: 1.5; stroke-linejoin: miter"/>
   </g>
   <g id="patch_83">
    <path d="M 311.1552 307.584 
L 329.0112 307.584 
L 329.0112 307.584 
L 311.1552 307.584 
L 311.1552 307.584 
z
" clip-path="url(#pa6a43421f7)" style="fill: none; stroke: #357ba3; stroke-width: 1.5; stroke-linejoin: miter"/>
   </g>
   <g id="patch_84">
    <path d="M 329.0112 307.584 
L 346.8672 307.584 
L 346.8672 307.132396 
L 329.0112 307.132396 
L 329.0112 307.584 
z
" clip-path="url(#pa6a43421f7)" style="fill: none; stroke: #357ba3; stroke-width: 1.5; stroke-linejoin: miter"/>
   </g>
   <g id="patch_85">
    <path d="M 57.6 307.584 
L 57.6 249.733565 
" style="fill: none; stroke: #262626; stroke-width: 1.25; stroke-linejoin: miter; stroke-linecap: square"/>
   </g>
   <g id="patch_86">
    <path d="M 414.72 307.584 
L 414.72 249.733565 
" style="fill: none; stroke: #262626; stroke-width: 1.25; stroke-linejoin: miter; stroke-linecap: square"/>
   </g>
   <g id="patch_87">
    <path d="M 57.6 307.584 
L 414.72 307.584 
" style="fill: none; stroke: #262626; stroke-width: 1.25; stroke-linejoin: miter; stroke-linecap: square"/>
   </g>
   <g id="patch_88">
    <path d="M 57.6 249.733565 
L 414.72 249.733565 
" style="fill: none; stroke: #262626; stroke-width: 1.25; stroke-linejoin: miter; stroke-linecap: square"/>
   </g>
   <g id="text_32">
    <text style="fill: #262626; font: 12px 'sans-serif'; text-anchor: middle" x="236.16" y="243.733565" transform="rotate(-0, 236.16, 243.733565)">04_A8B1</text>
   </g>
   <g id="legend_4">
    <g id="patch_89">
     <path d="M 326.560156 290.60044 
L 407.02 290.60044 
Q 409.22 290.60044 409.22 288.40044 
L 409.22 257.433565 
Q 409.22 255.233565 407.02 255.233565 
L 326.560156 255.233565 
Q 324.360156 255.233565 324.360156 257.433565 
L 324.360156 288.40044 
Q 324.360156 290.60044 326.560156 290.60044 
z
" style="fill: #ffffff; opacity: 0.8; stroke: #cccccc; stroke-linejoin: miter"/>
    </g>
    <g id="text_33">
     <text style="fill: #262626; font: 12px 'sans-serif'; text-anchor: start" x="341.447578" y="268.22294" transform="rotate(-0, 341.447578, 268.22294)">treatment</text>
    </g>
    <g id="patch_90">
     <path d="M 328.760156 284.01419 
L 350.760156 284.01419 
L 350.760156 276.31419 
L 328.760156 276.31419 
L 328.760156 284.01419 
z
" style="fill: none; stroke: #357ba3; stroke-linejoin: miter"/>
    </g>
    <g id="text_34">
     <text style="fill: #262626; font: 11px 'sans-serif'; text-anchor: start" x="359.560156" y="284.01419" transform="rotate(-0, 359.560156, 284.01419)">04_A8B1</text>
    </g>
   </g>
  </g>
 </g>
 <defs>
  <clipPath id="p2c72f26aae">
   <rect x="57.6" y="41.472" width="357.12" height="57.850435"/>
  </clipPath>
  <clipPath id="p12941f55a6">
   <rect x="57.6" y="110.892522" width="357.12" height="57.850435"/>
  </clipPath>
  <clipPath id="pe6bbcc7394">
   <rect x="57.6" y="180.313043" width="357.12" height="57.850435"/>
  </clipPath>
  <clipPath id="pa6a43421f7">
   <rect x="57.6" y="249.733565" width="357.12" height="57.850435"/>
  </clipPath>
 </defs>
</svg>
