<?xml version="1.0" encoding="utf-8" standalone="no"?>
<!DOCTYPE svg PUBLIC "-//W3C//DTD SVG 1.1//EN"
  "http://www.w3.org/Graphics/SVG/1.1/DTD/svg11.dtd">
<svg xmlns:xlink="http://www.w3.org/1999/xlink" width="460.8pt" height="345.6pt" viewBox="0 0 460.8 345.6" xmlns="http://www.w3.org/2000/svg" version="1.1">
 <metadata>
  <rdf:RDF xmlns:dc="http://purl.org/dc/elements/1.1/" xmlns:cc="http://creativecommons.org/ns#" xmlns:rdf="http://www.w3.org/1999/02/22-rdf-syntax-ns#">
   <cc:Work>
    <dc:type rdf:resource="http://purl.org/dc/dcmitype/StillImage"/>
    <dc:date>2026-05-26T09:43:39.703042</dc:date>
    <dc:format>image/svg+xml</dc:format>
    <dc:creator>
     <cc:Agent>
      <dc:title>Matplotlib v3.5.1, https://matplotlib.org/</dc:title>
     </cc:Agent>
    </dc:creator>
   </cc:Work>
  </rdf:RDF>
 </metadata>
 <defs>
  <style type="text/css">*{stroke-linejoin: round; stroke-linecap: butt}</style>
 </defs>
 <g id="figure_1">
  <g id="patch_1">
   <path d="M 0 345.6 
L 460.8 345.6 
L 460.8 0 
L 0 0 
z
" style="fill: #ffffff"/>
  </g>
  <g id="axes_1">
   <g id="patch_2">
    <path d="M 57.6 307.584 
L 414.72 307.584 
L 414.72 41.472 
L 57.6 41.472 
z
" style="fill: #ffffff"/>
   </g>
   <g id="matplotlib.axis_1">
    <g id="xtick_1">
     <g id="line2d_1">
      <defs>
       <path id="mdd4a8841f5" d="M 0 0 
L 0 6 
" style="stroke: #262626; stroke-width: 1.25"/>
      </defs>
      <g>
       <use xlink:href="#mdd4a8841f5" x="102.24" y="307.584" style="fill: #262626; stroke: #262626; stroke-width: 1.25"/>
      </g>
     </g>
     <g id="text_1">
      <text style="fill: #262626; font: 11px 'sans-serif'" transform="translate(86.751102 357.697009)rotate(-45)">01_Native</text>
     </g>
    </g>
    <g id="xtick_2">
     <g id="line2d_2">
      <g>
       <use xlink:href="#mdd4a8841f5" x="191.52" y="307.584" style="fill: #262626; stroke: #262626; stroke-width: 1.25"/>
      </g>
     </g>
     <g id="text_2">
      <text style="fill: #262626; font: 11px 'sans-serif'" transform="translate(170.446616 369.009392)rotate(-45)">02_Misfolded</text>
     </g>
    </g>
    <g id="xtick_3">
     <g id="line2d_3">
      <g>
       <use xlink:href="#mdd4a8841f5" x="280.8" y="307.584" style="fill: #262626; stroke: #262626; stroke-width: 1.25"/>
      </g>
     </g>
     <g id="text_3">
      <text style="fill: #262626; font: 11px 'sans-serif'" transform="translate(266.820554 354.678105)rotate(-45)">03_A8A2</text>
     </g>
    </g>
    <g id="xtick_4">
     <g id="line2d_4">
      <g>
       <use xlink:href="#mdd4a8841f5" x="370.08" y="307.584" style="fill: #262626; stroke: #262626; stroke-width: 1.25"/>
      </g>
     </g>
     <g id="text_4">
      <text style="fill: #262626; font: 11px 'sans-serif'" transform="translate(356.100554 354.678105)rotate(-45)">04_A8B1</text>
     </g>
    </g>
   </g>
   <g id="matplotlib.axis_2">
    <g id="ytick_1">
     <g id="line2d_5">
      <defs>
       <path id="m823a0d79b7" d="M 0 0 
L -6 0 
" style="stroke: #262626; stroke-width: 1.25"/>
      </defs>
      <g>
       <use xlink:href="#m823a0d79b7" x="57.6" y="303.461323" style="fill: #262626; stroke: #262626; stroke-width: 1.25"/>
      </g>
     </g>
     <g id="text_5">
      <text style="fill: #262626; font: 11px 'sans-serif'; text-anchor: end" x="48.1" y="307.39812" transform="rotate(-0, 48.1, 307.39812)">0</text>
     </g>
    </g>
    <g id="ytick_2">
     <g id="line2d_6">
      <g>
       <use xlink:href="#m823a0d79b7" x="57.6" y="256.259251" style="fill: #262626; stroke: #262626; stroke-width: 1.25"/>
      </g>
     </g>
     <g id="text_6">
      <text style="fill: #262626; font: 11px 'sans-serif'; text-anchor: end" x="48.1" y="260.196048" transform="rotate(-0, 48.1, 260.196048)">1</text>
     </g>
    </g>
    <g id="ytick_3">
     <g id="line2d_7">
      <g>
       <use xlink:href="#m823a0d79b7" x="57.6" y="209.057179" style="fill: #262626; stroke: #262626; stroke-width: 1.25"/>
      </g>
     </g>
     <g id="text_7">
      <text style="fill: #262626; font: 11px 'sans-serif'; text-anchor: end" x="48.1" y="212.993976" transform="rotate(-0, 48.1, 212.993976)">2</text>
     </g>
    </g>
    <g id="ytick_4">
     <g id="line2d_8">
      <g>
       <use xlink:href="#m823a0d79b7" x="57.6" y="161.855107" style="fill: #262626; stroke: #262626; stroke-width: 1.25"/>
      </g>
     </g>
     <g id="text_8">
      <text style="fill: #262626; font: 11px 'sans-serif'; text-anchor: end" x="48.1" y="165.791904" transform="rotate(-0, 48.1, 165.791904)">3</text>
     </g>
    </g>
    <g id="ytick_5">
     <g id="line2d_9">
      <g>
       <use xlink:href="#m823a0d79b7" x="57.6" y="114.653035" style="fill: #262626; stroke: #262626; stroke-width: 1.25"/>
      </g>
     </g>
     <g id="text_9">
      <text style="fill: #262626; font: 11px 'sans-serif'; text-anchor: end" x="48.1" y="118.589831" transform="rotate(-0, 48.1, 118.589831)">4</text>
     </g>
    </g>
    <g id="ytick_6">
     <g id="line2d_10">
      <g>
       <use xlink:href="#m823a0d79b7" x="57.6" y="67.450962" style="fill: #262626; stroke: #262626; stroke-width: 1.25"/>
      </g>
     </g>
     <g id="text_10">
      <text style="fill: #262626; font: 11px 'sans-serif'; text-anchor: end" x="48.1" y="71.387759" transform="rotate(-0, 48.1, 71.387759)">5</text>
     </g>
    </g>
    <g id="text_11">
     <text style="fill: #262626; font: 12px 'sans-serif'; text-anchor: middle" x="35.457344" y="174.528" transform="rotate(-90, 35.457344, 174.528)"># of chaperone binding and release events/molecule/min</text>
    </g>
   </g>
   <g id="PolyCollection_1">
    <defs>
     <path id="m845b72fc76" d="M 114.763654 -50.885201 
L 89.716346 -50.885201 
L 88.43279 -52.4747 
L 87.091205 -54.0642 
L 85.699424 -55.6537 
L 84.26682 -57.2432 
L 82.804249 -58.832699 
L 81.323948 -60.422199 
L 79.839372 -62.011699 
L 78.364983 -63.601199 
L 76.915982 -65.190698 
L 75.507999 -66.780198 
L 74.156742 -68.369698 
L 72.877624 -69.959198 
L 71.685376 -71.548697 
L 70.593669 -73.138197 
L 69.614744 -74.727697 
L 68.759099 -76.317197 
L 68.035209 -77.906696 
L 67.449323 -79.496196 
L 67.005338 -81.085696 
L 66.704746 -82.675196 
L 66.546674 -84.264695 
L 66.528 -85.854195 
L 66.643547 -87.443695 
L 66.886331 -89.033195 
L 67.247869 -90.622694 
L 67.718501 -92.212194 
L 68.287741 -93.801694 
L 68.944607 -95.391194 
L 69.677944 -96.980693 
L 70.476695 -98.570193 
L 71.330144 -100.159693 
L 72.228093 -101.749193 
L 73.160994 -103.338692 
L 74.120029 -104.928192 
L 75.097141 -106.517692 
L 76.08503 -108.107192 
L 77.077126 -109.696691 
L 78.067538 -111.286191 
L 79.050999 -112.875691 
L 80.022821 -114.465191 
L 80.978849 -116.05469 
L 81.915432 -117.64419 
L 82.829417 -119.23369 
L 83.718145 -120.82319 
L 84.57947 -122.412689 
L 85.411777 -124.002189 
L 86.214003 -125.591689 
L 86.98565 -127.181188 
L 87.726792 -128.770688 
L 88.438054 -130.360188 
L 89.120582 -131.949688 
L 89.775979 -133.539187 
L 90.406223 -135.128687 
L 91.013571 -136.718187 
L 91.600435 -138.307687 
L 92.169259 -139.897186 
L 92.722386 -141.486686 
L 93.261934 -143.076186 
L 93.789683 -144.665686 
L 94.306979 -146.255185 
L 94.814667 -147.844685 
L 95.313046 -149.434185 
L 95.801859 -151.023685 
L 96.280314 -152.613184 
L 96.747128 -154.202684 
L 97.200598 -155.792184 
L 97.638697 -157.381684 
L 98.05917 -158.971183 
L 98.459646 -160.560683 
L 98.837748 -162.150183 
L 99.191195 -163.739683 
L 99.517894 -165.329182 
L 99.816016 -166.918682 
L 100.084061 -168.508182 
L 100.320898 -170.097682 
L 100.525798 -171.687181 
L 100.698443 -173.276681 
L 100.83893 -174.866181 
L 100.947766 -176.455681 
L 101.025853 -178.04518 
L 101.074473 -179.63468 
L 101.095267 -181.22418 
L 101.090217 -182.81368 
L 101.061625 -184.403179 
L 101.012092 -185.992679 
L 100.944488 -187.582179 
L 100.861925 -189.171679 
L 100.767718 -190.761178 
L 100.66534 -192.350678 
L 100.558361 -193.940178 
L 100.450389 -195.529678 
L 100.344991 -197.119177 
L 100.245614 -198.708677 
L 100.155493 -200.298177 
L 100.077572 -201.887677 
L 100.014415 -203.477176 
L 99.968133 -205.066676 
L 99.940323 -206.656176 
L 99.932022 -208.245676 
L 104.547978 -208.245676 
L 104.547978 -208.245676 
L 104.539677 -206.656176 
L 104.511867 -205.066676 
L 104.465585 -203.477176 
L 104.402428 -201.887677 
L 104.324507 -200.298177 
L 104.234386 -198.708677 
L 104.135009 -197.119177 
L 104.029611 -195.529678 
L 103.921639 -193.940178 
L 103.81466 -192.350678 
L 103.712282 -190.761178 
L 103.618075 -189.171679 
L 103.535512 -187.582179 
L 103.467908 -185.992679 
L 103.418375 -184.403179 
L 103.389783 -182.81368 
L 103.384733 -181.22418 
L 103.405527 -179.63468 
L 103.454147 -178.04518 
L 103.532234 -176.455681 
L 103.64107 -174.866181 
L 103.781557 -173.276681 
L 103.954202 -171.687181 
L 104.159102 -170.097682 
L 104.395939 -168.508182 
L 104.663984 -166.918682 
L 104.962106 -165.329182 
L 105.288805 -163.739683 
L 105.642252 -162.150183 
L 106.020354 -160.560683 
L 106.42083 -158.971183 
L 106.841303 -157.381684 
L 107.279402 -155.792184 
L 107.732872 -154.202684 
L 108.199686 -152.613184 
L 108.678141 -151.023685 
L 109.166954 -149.434185 
L 109.665333 -147.844685 
L 110.173021 -146.255185 
L 110.690317 -144.665686 
L 111.218066 -143.076186 
L 111.757614 -141.486686 
L 112.310741 -139.897186 
L 112.879565 -138.307687 
L 113.466429 -136.718187 
L 114.073777 -135.128687 
L 114.704021 -133.539187 
L 115.359418 -131.949688 
L 116.041946 -130.360188 
L 116.753208 -128.770688 
L 117.49435 -127.181188 
L 118.265997 -125.591689 
L 119.068223 -124.002189 
L 119.90053 -122.412689 
L 120.761855 -120.82319 
L 121.650583 -119.23369 
L 122.564568 -117.64419 
L 123.501151 -116.05469 
L 124.457179 -114.465191 
L 125.429001 -112.875691 
L 126.412462 -111.286191 
L 127.402874 -109.696691 
L 128.39497 -108.107192 
L 129.382859 -106.517692 
L 130.359971 -104.928192 
L 131.319006 -103.338692 
L 132.251907 -101.749193 
L 133.149856 -100.159693 
L 134.003305 -98.570193 
L 134.802056 -96.980693 
L 135.535393 -95.391194 
L 136.192259 -93.801694 
L 136.761499 -92.212194 
L 137.232131 -90.622694 
L 137.593669 -89.033195 
L 137.836453 -87.443695 
L 137.952 -85.854195 
L 137.933326 -84.264695 
L 137.775254 -82.675196 
L 137.474662 -81.085696 
L 137.030677 -79.496196 
L 136.444791 -77.906696 
L 135.720901 -76.317197 
L 134.865256 -74.727697 
L 133.886331 -73.138197 
L 132.794624 -71.548697 
L 131.602376 -69.959198 
L 130.323258 -68.369698 
L 128.972001 -66.780198 
L 127.564018 -65.190698 
L 126.115017 -63.601199 
L 124.640628 -62.011699 
L 123.156052 -60.422199 
L 121.675751 -58.832699 
L 120.21318 -57.2432 
L 118.780576 -55.6537 
L 117.388795 -54.0642 
L 116.04721 -52.4747 
L 114.763654 -50.885201 
z
" style="stroke: #393939; stroke-width: 1.5"/>
    </defs>
    <g clip-path="url(#p75fed7c709)">
     <use xlink:href="#m845b72fc76" x="0" y="345.6" style="fill: #d0dde8; stroke: #393939; stroke-width: 1.5"/>
    </g>
   </g>
   <g id="PolyCollection_2">
    <defs>
     <path id="m8086ac1d9a" d="M 223.689377 -60.994365 
L 159.350623 -60.994365 
L 158.824952 -62.516916 
L 158.338406 -64.039468 
L 157.892389 -65.562019 
L 157.488088 -67.084571 
L 157.126468 -68.607122 
L 156.808261 -70.129674 
L 156.533962 -71.652225 
L 156.303829 -73.174777 
L 156.117879 -74.697328 
L 155.975891 -76.21988 
L 155.877408 -77.742431 
L 155.821746 -79.264983 
L 155.808 -80.787534 
L 155.835052 -82.310085 
L 155.901585 -83.832637 
L 156.006098 -85.355188 
L 156.146914 -86.87774 
L 156.322205 -88.400291 
L 156.530002 -89.922843 
L 156.768218 -91.445394 
L 157.034663 -92.967946 
L 157.32707 -94.490497 
L 157.643106 -96.013049 
L 157.980398 -97.5356 
L 158.336552 -99.058152 
L 158.709171 -100.580703 
L 159.095872 -102.103255 
L 159.494309 -103.625806 
L 159.902185 -105.148357 
L 160.31727 -106.670909 
L 160.737415 -108.19346 
L 161.160567 -109.716012 
L 161.584777 -111.238563 
L 162.008213 -112.761115 
L 162.429168 -114.283666 
L 162.846067 -115.806218 
L 163.257469 -117.328769 
L 163.662076 -118.851321 
L 164.05873 -120.373872 
L 164.446417 -121.896424 
L 164.824261 -123.418975 
L 165.191529 -124.941527 
L 165.547619 -126.464078 
L 165.892061 -127.986629 
L 166.224507 -129.509181 
L 166.54473 -131.031732 
L 166.852607 -132.554284 
L 167.148123 -134.076835 
L 167.431351 -135.599387 
L 167.702452 -137.121938 
L 167.96166 -138.64449 
L 168.209279 -140.167041 
L 168.44567 -141.689593 
L 168.671244 -143.212144 
L 168.886455 -144.734696 
L 169.091793 -146.257247 
L 169.287773 -147.779799 
L 169.474937 -149.30235 
L 169.653839 -150.824901 
L 169.825049 -152.347453 
L 169.989141 -153.870004 
L 170.146697 -155.392556 
L 170.298299 -156.915107 
L 170.444529 -158.437659 
L 170.585968 -159.96021 
L 170.723194 -161.482762 
L 170.856783 -163.005313 
L 170.987307 -164.527865 
L 171.115337 -166.050416 
L 171.241441 -167.572968 
L 171.366186 -169.095519 
L 171.490139 -170.61807 
L 171.613866 -172.140622 
L 171.737934 -173.663173 
L 171.862911 -175.185725 
L 171.989365 -176.708276 
L 172.117866 -178.230828 
L 172.248983 -179.753379 
L 172.383284 -181.275931 
L 172.521335 -182.798482 
L 172.663695 -184.321034 
L 172.810917 -185.843585 
L 172.963546 -187.366137 
L 173.122112 -188.888688 
L 173.287126 -190.41124 
L 173.459083 -191.933791 
L 173.638449 -193.456342 
L 173.825662 -194.978894 
L 174.021126 -196.501445 
L 174.225208 -198.023997 
L 174.43823 -199.546548 
L 174.660469 -201.0691 
L 174.892149 -202.591651 
L 175.133442 -204.114203 
L 175.384458 -205.636754 
L 175.645248 -207.159306 
L 175.9158 -208.681857 
L 176.196035 -210.204409 
L 176.485809 -211.72696 
L 206.554191 -211.72696 
L 206.554191 -211.72696 
L 206.843965 -210.204409 
L 207.1242 -208.681857 
L 207.394752 -207.159306 
L 207.655542 -205.636754 
L 207.906558 -204.114203 
L 208.147851 -202.591651 
L 208.379531 -201.0691 
L 208.60177 -199.546548 
L 208.814792 -198.023997 
L 209.018874 -196.501445 
L 209.214338 -194.978894 
L 209.401551 -193.456342 
L 209.580917 -191.933791 
L 209.752874 -190.41124 
L 209.917888 -188.888688 
L 210.076454 -187.366137 
L 210.229083 -185.843585 
L 210.376305 -184.321034 
L 210.518665 -182.798482 
L 210.656716 -181.275931 
L 210.791017 -179.753379 
L 210.922134 -178.230828 
L 211.050635 -176.708276 
L 211.177089 -175.185725 
L 211.302066 -173.663173 
L 211.426134 -172.140622 
L 211.549861 -170.61807 
L 211.673814 -169.095519 
L 211.798559 -167.572968 
L 211.924663 -166.050416 
L 212.052693 -164.527865 
L 212.183217 -163.005313 
L 212.316806 -161.482762 
L 212.454032 -159.96021 
L 212.595471 -158.437659 
L 212.741701 -156.915107 
L 212.893303 -155.392556 
L 213.050859 -153.870004 
L 213.214951 -152.347453 
L 213.386161 -150.824901 
L 213.565063 -149.30235 
L 213.752227 -147.779799 
L 213.948207 -146.257247 
L 214.153545 -144.734696 
L 214.368756 -143.212144 
L 214.59433 -141.689593 
L 214.830721 -140.167041 
L 215.07834 -138.64449 
L 215.337548 -137.121938 
L 215.608649 -135.599387 
L 215.891877 -134.076835 
L 216.187393 -132.554284 
L 216.49527 -131.031732 
L 216.815493 -129.509181 
L 217.147939 -127.986629 
L 217.492381 -126.464078 
L 217.848471 -124.941527 
L 218.215739 -123.418975 
L 218.593583 -121.896424 
L 218.98127 -120.373872 
L 219.377924 -118.851321 
L 219.782531 -117.328769 
L 220.193933 -115.806218 
L 220.610832 -114.283666 
L 221.031787 -112.761115 
L 221.455223 -111.238563 
L 221.879433 -109.716012 
L 222.302585 -108.19346 
L 222.72273 -106.670909 
L 223.137815 -105.148357 
L 223.545691 -103.625806 
L 223.944128 -102.103255 
L 224.330829 -100.580703 
L 224.703448 -99.058152 
L 225.059602 -97.5356 
L 225.396894 -96.013049 
L 225.71293 -94.490497 
L 226.005337 -92.967946 
L 226.271782 -91.445394 
L 226.509998 -89.922843 
L 226.717795 -88.400291 
L 226.893086 -86.87774 
L 227.033902 -85.355188 
L 227.138415 -83.832637 
L 227.204948 -82.310085 
L 227.232 -80.787534 
L 227.218254 -79.264983 
L 227.162592 -77.742431 
L 227.064109 -76.21988 
L 226.922121 -74.697328 
L 226.736171 -73.174777 
L 226.506038 -71.652225 
L 226.231739 -70.129674 
L 225.913532 -68.607122 
L 225.551912 -67.084571 
L 225.147611 -65.562019 
L 224.701594 -64.039468 
L 224.215048 -62.516916 
L 223.689377 -60.994365 
z
" style="stroke: #393939; stroke-width: 1.5"/>
    </defs>
    <g clip-path="url(#p75fed7c709)">
     <use xlink:href="#m8086ac1d9a" x="0" y="345.6" style="fill: #a2b5cf; stroke: #393939; stroke-width: 1.5"/>
    </g>
   </g>
   <g id="PolyCollection_3">
    <defs>
     <path id="m70ca09c5ee" d="M 304.296928 -50.305125 
L 257.303072 -50.305125 
L 254.935444 -52.746811 
L 252.706361 -55.188497 
L 250.67762 -57.630182 
L 248.904911 -60.071868 
L 247.43488 -62.513553 
L 246.30278 -64.955239 
L 245.53087 -67.396925 
L 245.127659 -69.83861 
L 245.088 -72.280296 
L 245.394017 -74.721981 
L 246.016736 -77.163667 
L 246.918288 -79.605353 
L 248.054496 -82.047038 
L 249.377641 -84.488724 
L 250.839197 -86.930409 
L 252.392333 -89.372095 
L 253.994016 -91.813781 
L 255.606598 -94.255466 
L 257.198802 -96.697152 
L 258.746118 -99.138837 
L 260.230661 -101.580523 
L 261.640581 -104.022209 
L 262.969187 -106.463894 
L 264.213901 -108.90558 
L 265.375207 -111.347266 
L 266.455681 -113.788951 
L 267.459205 -116.230637 
L 268.39036 -118.672322 
L 269.254038 -121.114008 
L 270.055202 -123.555694 
L 270.798781 -125.997379 
L 271.489631 -128.439065 
L 272.132526 -130.88075 
L 272.732155 -133.322436 
L 273.293093 -135.764122 
L 273.819753 -138.205807 
L 274.316317 -140.647493 
L 274.786654 -143.089178 
L 275.234232 -145.530864 
L 275.662035 -147.97255 
L 276.072494 -150.414235 
L 276.467428 -152.855921 
L 276.848009 -155.297606 
L 277.214751 -157.739292 
L 277.567522 -160.180978 
L 277.905587 -162.622663 
L 278.227682 -165.064349 
L 278.532113 -167.506034 
L 278.816884 -169.94772 
L 279.079845 -172.389406 
L 279.318843 -174.831091 
L 279.531887 -177.272777 
L 279.717295 -179.714462 
L 279.873831 -182.156148 
L 280.000826 -184.597834 
L 280.098267 -187.039519 
L 280.16687 -189.481205 
L 280.208119 -191.92289 
L 280.224282 -194.364576 
L 280.218387 -196.806262 
L 280.194162 -199.247947 
L 280.155927 -201.689633 
L 280.108441 -204.131318 
L 280.056698 -206.573004 
L 280.005679 -209.01469 
L 279.960085 -211.456375 
L 279.924061 -213.898061 
L 279.90094 -216.339746 
L 279.893041 -218.781432 
L 279.901539 -221.223118 
L 279.92643 -223.664803 
L 279.966584 -226.106489 
L 280.0199 -228.548174 
L 280.083522 -230.98986 
L 280.154104 -233.431546 
L 280.228088 -235.873231 
L 280.301961 -238.314917 
L 280.372466 -240.756602 
L 280.436753 -243.198288 
L 280.492468 -245.639974 
L 280.53777 -248.081659 
L 280.571313 -250.523345 
L 280.592189 -252.96503 
L 280.599875 -255.406716 
L 280.594186 -257.848402 
L 280.575259 -260.290087 
L 280.543565 -262.731773 
L 280.499952 -265.173458 
L 280.445701 -267.615144 
L 280.382579 -270.05683 
L 280.312873 -272.498515 
L 280.239374 -274.940201 
L 280.165308 -277.381886 
L 280.094195 -279.823572 
L 280.029658 -282.265258 
L 279.975174 -284.706943 
L 279.933815 -287.148629 
L 279.907994 -289.590314 
L 279.899262 -292.032 
L 281.700738 -292.032 
L 281.700738 -292.032 
L 281.692006 -289.590314 
L 281.666185 -287.148629 
L 281.624826 -284.706943 
L 281.570342 -282.265258 
L 281.505805 -279.823572 
L 281.434692 -277.381886 
L 281.360626 -274.940201 
L 281.287127 -272.498515 
L 281.217421 -270.05683 
L 281.154299 -267.615144 
L 281.100048 -265.173458 
L 281.056435 -262.731773 
L 281.024741 -260.290087 
L 281.005814 -257.848402 
L 281.000125 -255.406716 
L 281.007811 -252.96503 
L 281.028687 -250.523345 
L 281.06223 -248.081659 
L 281.107532 -245.639974 
L 281.163247 -243.198288 
L 281.227534 -240.756602 
L 281.298039 -238.314917 
L 281.371912 -235.873231 
L 281.445896 -233.431546 
L 281.516478 -230.98986 
L 281.5801 -228.548174 
L 281.633416 -226.106489 
L 281.67357 -223.664803 
L 281.698461 -221.223118 
L 281.706959 -218.781432 
L 281.69906 -216.339746 
L 281.675939 -213.898061 
L 281.639915 -211.456375 
L 281.594321 -209.01469 
L 281.543302 -206.573004 
L 281.491559 -204.131318 
L 281.444073 -201.689633 
L 281.405838 -199.247947 
L 281.381613 -196.806262 
L 281.375718 -194.364576 
L 281.391881 -191.92289 
L 281.43313 -189.481205 
L 281.501733 -187.039519 
L 281.599174 -184.597834 
L 281.726169 -182.156148 
L 281.882705 -179.714462 
L 282.068113 -177.272777 
L 282.281157 -174.831091 
L 282.520155 -172.389406 
L 282.783116 -169.94772 
L 283.067887 -167.506034 
L 283.372318 -165.064349 
L 283.694413 -162.622663 
L 284.032478 -160.180978 
L 284.385249 -157.739292 
L 284.751991 -155.297606 
L 285.132572 -152.855921 
L 285.527506 -150.414235 
L 285.937965 -147.97255 
L 286.365768 -145.530864 
L 286.813346 -143.089178 
L 287.283683 -140.647493 
L 287.780247 -138.205807 
L 288.306907 -135.764122 
L 288.867845 -133.322436 
L 289.467474 -130.88075 
L 290.110369 -128.439065 
L 290.801219 -125.997379 
L 291.544798 -123.555694 
L 292.345962 -121.114008 
L 293.20964 -118.672322 
L 294.140795 -116.230637 
L 295.144319 -113.788951 
L 296.224793 -111.347266 
L 297.386099 -108.90558 
L 298.630813 -106.463894 
L 299.959419 -104.022209 
L 301.369339 -101.580523 
L 302.853882 -99.138837 
L 304.401198 -96.697152 
L 305.993402 -94.255466 
L 307.605984 -91.813781 
L 309.207667 -89.372095 
L 310.760803 -86.930409 
L 312.222359 -84.488724 
L 313.545504 -82.047038 
L 314.681712 -79.605353 
L 315.583264 -77.163667 
L 316.205983 -74.721981 
L 316.512 -72.280296 
L 316.472341 -69.83861 
L 316.06913 -67.396925 
L 315.29722 -64.955239 
L 314.16512 -62.513553 
L 312.695089 -60.071868 
L 310.92238 -57.630182 
L 308.893639 -55.188497 
L 306.664556 -52.746811 
L 304.296928 -50.305125 
z
" style="stroke: #393939; stroke-width: 1.5"/>
    </defs>
    <g clip-path="url(#p75fed7c709)">
     <use xlink:href="#m70ca09c5ee" x="0" y="345.6" style="fill: #8e7cad; stroke: #393939; stroke-width: 1.5"/>
    </g>
   </g>
   <g id="PolyCollection_4">
    <defs>
     <path id="m53f6dc8d8e" d="M 384.609936 -50.112 
L 355.550064 -50.112 
L 354.210264 -51.842051 
L 352.867749 -53.572102 
L 351.535116 -55.302153 
L 350.224032 -57.032204 
L 348.94484 -58.762255 
L 347.706245 -60.492306 
L 346.515099 -62.222357 
L 345.376298 -63.952408 
L 344.292796 -65.682459 
L 343.265738 -67.41251 
L 342.294715 -69.142561 
L 341.378116 -70.872612 
L 340.513572 -72.602663 
L 339.698464 -74.332714 
L 338.930464 -76.062765 
L 338.20807 -77.792817 
L 337.531113 -79.522868 
L 336.901168 -81.252919 
L 336.32186 -82.98297 
L 335.79901 -84.713021 
L 335.340593 -86.443072 
L 334.956514 -88.173123 
L 334.658174 -89.903174 
L 334.457862 -91.633225 
L 334.368 -93.363276 
L 334.400281 -95.093327 
L 334.564779 -96.823378 
L 334.869082 -98.553429 
L 335.317529 -100.28348 
L 335.91061 -102.013531 
L 336.644583 -103.743582 
L 337.51135 -105.473633 
L 338.498594 -107.203684 
L 339.590192 -108.933735 
L 340.766855 -110.663786 
L 342.006966 -112.393837 
L 343.287547 -114.123888 
L 344.585295 -115.853939 
L 345.877619 -117.58399 
L 347.143601 -119.314041 
L 348.364845 -121.044092 
L 349.526153 -122.774143 
L 350.616005 -124.504194 
L 351.626824 -126.234245 
L 352.555033 -127.964296 
L 353.400898 -129.694347 
L 354.168199 -131.424398 
L 354.863734 -133.15445 
L 355.496719 -134.884501 
L 356.078094 -136.614552 
L 356.619794 -138.344603 
L 357.134019 -140.074654 
L 357.632536 -141.804705 
L 358.126052 -143.534756 
L 358.623687 -145.264807 
L 359.132564 -146.994858 
L 359.657531 -148.724909 
L 360.201031 -150.45496 
L 360.763105 -152.185011 
L 361.341529 -153.915062 
L 361.932057 -155.645113 
L 362.528767 -157.375164 
L 363.124463 -159.105215 
L 363.711124 -160.835266 
L 364.280356 -162.565317 
L 364.823846 -164.295368 
L 365.333771 -166.025419 
L 365.803169 -167.75547 
L 366.226235 -169.485521 
L 366.598568 -171.215572 
L 366.917319 -172.945623 
L 367.181288 -174.675674 
L 367.390934 -176.405725 
L 367.548313 -178.135776 
L 367.65696 -179.865827 
L 367.721702 -181.595878 
L 367.748425 -183.325929 
L 367.743794 -185.05598 
L 367.714949 -186.786032 
L 367.669184 -188.516083 
L 367.613631 -190.246134 
L 367.554962 -191.976185 
L 367.499127 -193.706236 
L 367.451155 -195.436287 
L 367.41501 -197.166338 
L 367.393527 -198.896389 
L 367.38842 -200.62644 
L 367.400364 -202.356491 
L 367.429128 -204.086542 
L 367.473764 -205.816593 
L 367.532802 -207.546644 
L 367.604465 -209.276695 
L 367.686858 -211.006746 
L 367.778127 -212.736797 
L 367.876574 -214.466848 
L 367.980727 -216.196899 
L 368.08936 -217.92695 
L 368.201473 -219.657001 
L 368.316241 -221.387052 
L 371.843759 -221.387052 
L 371.843759 -221.387052 
L 371.958527 -219.657001 
L 372.07064 -217.92695 
L 372.179273 -216.196899 
L 372.283426 -214.466848 
L 372.381873 -212.736797 
L 372.473142 -211.006746 
L 372.555535 -209.276695 
L 372.627198 -207.546644 
L 372.686236 -205.816593 
L 372.730872 -204.086542 
L 372.759636 -202.356491 
L 372.77158 -200.62644 
L 372.766473 -198.896389 
L 372.74499 -197.166338 
L 372.708845 -195.436287 
L 372.660873 -193.706236 
L 372.605038 -191.976185 
L 372.546369 -190.246134 
L 372.490816 -188.516083 
L 372.445051 -186.786032 
L 372.416206 -185.05598 
L 372.411575 -183.325929 
L 372.438298 -181.595878 
L 372.50304 -179.865827 
L 372.611687 -178.135776 
L 372.769066 -176.405725 
L 372.978712 -174.675674 
L 373.242681 -172.945623 
L 373.561432 -171.215572 
L 373.933765 -169.485521 
L 374.356831 -167.75547 
L 374.826229 -166.025419 
L 375.336154 -164.295368 
L 375.879644 -162.565317 
L 376.448876 -160.835266 
L 377.035537 -159.105215 
L 377.631233 -157.375164 
L 378.227943 -155.645113 
L 378.818471 -153.915062 
L 379.396895 -152.185011 
L 379.958969 -150.45496 
L 380.502469 -148.724909 
L 381.027436 -146.994858 
L 381.536313 -145.264807 
L 382.033948 -143.534756 
L 382.527464 -141.804705 
L 383.025981 -140.074654 
L 383.540206 -138.344603 
L 384.081906 -136.614552 
L 384.663281 -134.884501 
L 385.296266 -133.15445 
L 385.991801 -131.424398 
L 386.759102 -129.694347 
L 387.604967 -127.964296 
L 388.533176 -126.234245 
L 389.543995 -124.504194 
L 390.633847 -122.774143 
L 391.795155 -121.044092 
L 393.016399 -119.314041 
L 394.282381 -117.58399 
L 395.574705 -115.853939 
L 396.872453 -114.123888 
L 398.153034 -112.393837 
L 399.393145 -110.663786 
L 400.569808 -108.933735 
L 401.661406 -107.203684 
L 402.64865 -105.473633 
L 403.515417 -103.743582 
L 404.24939 -102.013531 
L 404.842471 -100.28348 
L 405.290918 -98.553429 
L 405.595221 -96.823378 
L 405.759719 -95.093327 
L 405.792 -93.363276 
L 405.702138 -91.633225 
L 405.501826 -89.903174 
L 405.203486 -88.173123 
L 404.819407 -86.443072 
L 404.36099 -84.713021 
L 403.83814 -82.98297 
L 403.258832 -81.252919 
L 402.628887 -79.522868 
L 401.95193 -77.792817 
L 401.229536 -76.062765 
L 400.461536 -74.332714 
L 399.646428 -72.602663 
L 398.781884 -70.872612 
L 397.865285 -69.142561 
L 396.894262 -67.41251 
L 395.867204 -65.682459 
L 394.783702 -63.952408 
L 393.644901 -62.222357 
L 392.453755 -60.492306 
L 391.21516 -58.762255 
L 389.935968 -57.032204 
L 388.624884 -55.302153 
L 387.292251 -53.572102 
L 385.949736 -51.842051 
L 384.609936 -50.112 
z
" style="stroke: #393939; stroke-width: 1.5"/>
    </defs>
    <g clip-path="url(#p75fed7c709)">
     <use xlink:href="#m53f6dc8d8e" x="0" y="345.6" style="fill: #7c3983; stroke: #393939; stroke-width: 1.5"/>
    </g>
   </g>
   <g id="line2d_11">
    <path d="M 102.24 294.714799 
L 102.24 198.047266 
" clip-path="url(#p75fed7c709)" style="fill: none; stroke: #393939; stroke-width: 1.5; stroke-linecap: round"/>
   </g>
   <g id="line2d_12">
    <path d="M 102.24 267.9065 
L 102.24 235.983506 
" clip-path="url(#p75fed7c709)" style="fill: none; stroke: #393939; stroke-width: 4.5; stroke-linecap: round"/>
   </g>
   <g id="line2d_13">
    <path d="M 191.52 284.605635 
L 191.52 133.87304 
" clip-path="url(#p75fed7c709)" style="fill: none; stroke: #393939; stroke-width: 1.5; stroke-linecap: round"/>
   </g>
   <g id="line2d_14">
    <path d="M 191.52 269.843849 
L 191.52 193.612231 
" clip-path="url(#p75fed7c709)" style="fill: none; stroke: #393939; stroke-width: 4.5; stroke-linecap: round"/>
   </g>
   <g id="line2d_15">
    <path d="M 280.8 295.294875 
L 280.8 194.533464 
" clip-path="url(#p75fed7c709)" style="fill: none; stroke: #393939; stroke-width: 1.5; stroke-linecap: round"/>
   </g>
   <g id="line2d_16">
    <path d="M 280.8 280.979829 
L 280.8 242.974005 
" clip-path="url(#p75fed7c709)" style="fill: none; stroke: #393939; stroke-width: 4.5; stroke-linecap: round"/>
   </g>
   <g id="line2d_17">
    <path d="M 370.08 295.488 
L 370.08 184.464503 
" clip-path="url(#p75fed7c709)" style="fill: none; stroke: #393939; stroke-width: 1.5; stroke-linecap: round"/>
   </g>
   <g id="line2d_18">
    <path d="M 370.08 269.236256 
L 370.08 229.244228 
" clip-path="url(#p75fed7c709)" style="fill: none; stroke: #393939; stroke-width: 4.5; stroke-linecap: round"/>
   </g>
   <g id="patch_3">
    <path d="M 57.6 307.584 
L 57.6 41.472 
" style="fill: none; stroke: #000000; stroke-width: 2; stroke-linejoin: miter; stroke-linecap: square"/>
   </g>
   <g id="patch_4">
    <path d="M 414.72 307.584 
L 414.72 41.472 
" style="fill: none; stroke: #000000; stroke-width: 2; stroke-linejoin: miter; stroke-linecap: square"/>
   </g>
   <g id="patch_5">
    <path d="M 57.6 307.584 
L 414.72 307.584 
" style="fill: none; stroke: #000000; stroke-width: 2; stroke-linejoin: miter; stroke-linecap: square"/>
   </g>
   <g id="patch_6">
    <path d="M 57.6 41.472 
L 414.72 41.472 
" style="fill: none; stroke: #000000; stroke-width: 2; stroke-linejoin: miter; stroke-linecap: square"/>
   </g>
   <g id="PathCollection_1">
    <defs>
     <path id="mc56f64694a" d="M 0 1.5 
C 0.397805 1.5 0.77937 1.341951 1.06066 1.06066 
C 1.341951 0.77937 1.5 0.397805 1.5 0 
C 1.5 -0.397805 1.341951 -0.77937 1.06066 -1.06066 
C 0.77937 -1.341951 0.397805 -1.5 0 -1.5 
C -0.397805 -1.5 -0.77937 -1.341951 -1.06066 -1.06066 
C -1.341951 -0.77937 -1.5 -0.397805 -1.5 0 
C -1.5 0.397805 -1.341951 0.77937 -1.06066 1.06066 
C -0.77937 1.341951 -0.397805 1.5 0 1.5 
z
" style="stroke: #393939"/>
    </defs>
    <g clip-path="url(#p75fed7c709)">
     <use xlink:href="#mc56f64694a" x="102.24" y="257.33552" style="fill: #ffffff; stroke: #393939"/>
    </g>
   </g>
   <g id="PathCollection_2">
    <g clip-path="url(#p75fed7c709)">
     <use xlink:href="#mc56f64694a" x="191.52" y="252.174445" style="fill: #ffffff; stroke: #393939"/>
    </g>
   </g>
   <g id="PathCollection_3">
    <g clip-path="url(#p75fed7c709)">
     <use xlink:href="#mc56f64694a" x="280.8" y="268.491495" style="fill: #ffffff; stroke: #393939"/>
    </g>
   </g>
   <g id="PathCollection_4">
    <g clip-path="url(#p75fed7c709)">
     <use xlink:href="#mc56f64694a" x="370.08" y="248.787108" style="fill: #ffffff; stroke: #393939"/>
    </g>
   </g>
   <g id="PathCollection_5">
    <defs>
     <path id="C0_0_17fdbdeedb" d="M 0 2.5 
C 0.663008 2.5 1.29895 2.236584 1.767767 1.767767 
C 2.236584 1.29895 2.5 0.663008 2.5 -0 
C 2.5 -0.663008 2.236584 -1.29895 1.767767 -1.767767 
C 1.29895 -2.236584 0.663008 -2.5 0 -2.5 
C -0.663008 -2.5 -1.29895 -2.236584 -1.767767 -1.767767 
C -2.236584 -1.29895 -2.5 -0.663008 -2.5 0 
C -2.5 0.663008 -2.236584 1.29895 -1.767767 1.767767 
C -1.29895 2.236584 -0.663008 2.5 0 2.5 
z
"/>
    </defs>
    <g clip-path="url(#p75fed7c709)">
     <use xlink:href="#C0_0_17fdbdeedb" x="105.371794" y="269.421367" style="fill-opacity: 0.25"/>
    </g>
    <g clip-path="url(#p75fed7c709)">
     <use xlink:href="#C0_0_17fdbdeedb" x="93.800404" y="198.047266" style="fill-opacity: 0.25"/>
    </g>
    <g clip-path="url(#p75fed7c709)">
     <use xlink:href="#C0_0_17fdbdeedb" x="94.581775" y="276.229358" style="fill-opacity: 0.25"/>
    </g>
    <g clip-path="url(#p75fed7c709)">
     <use xlink:href="#C0_0_17fdbdeedb" x="94.624333" y="246.931895" style="fill-opacity: 0.25"/>
    </g>
    <g clip-path="url(#p75fed7c709)">
     <use xlink:href="#C0_0_17fdbdeedb" x="105.583295" y="280.65839" style="fill-opacity: 0.25"/>
    </g>
    <g clip-path="url(#p75fed7c709)">
     <use xlink:href="#C0_0_17fdbdeedb" x="100.558466" y="294.714799" style="fill-opacity: 0.25"/>
    </g>
    <g clip-path="url(#p75fed7c709)">
     <use xlink:href="#C0_0_17fdbdeedb" x="104.715469" y="137.354324" style="fill-opacity: 0.25"/>
    </g>
    <g clip-path="url(#p75fed7c709)">
     <use xlink:href="#C0_0_17fdbdeedb" x="109.842051" y="231.725651" style="fill-opacity: 0.25"/>
    </g>
    <g clip-path="url(#p75fed7c709)">
     <use xlink:href="#C0_0_17fdbdeedb" x="107.228283" y="202.55428" style="fill-opacity: 0.25"/>
    </g>
    <g clip-path="url(#p75fed7c709)">
     <use xlink:href="#C0_0_17fdbdeedb" x="99.772958" y="237.750782" style="fill-opacity: 0.25"/>
    </g>
    <g clip-path="url(#p75fed7c709)">
     <use xlink:href="#C0_0_17fdbdeedb" x="101.581379" y="263.002404" style="fill-opacity: 0.25"/>
    </g>
    <g clip-path="url(#p75fed7c709)">
     <use xlink:href="#C0_0_17fdbdeedb" x="96.763139" y="272.339078" style="fill-opacity: 0.25"/>
    </g>
    <g clip-path="url(#p75fed7c709)">
     <use xlink:href="#C0_0_17fdbdeedb" x="99.604659" y="239.674739" style="fill-opacity: 0.25"/>
    </g>
    <g clip-path="url(#p75fed7c709)">
     <use xlink:href="#C0_0_17fdbdeedb" x="101.885157" y="234.216229" style="fill-opacity: 0.25"/>
    </g>
    <g clip-path="url(#p75fed7c709)">
     <use xlink:href="#C0_0_17fdbdeedb" x="96.561305" y="257.33552" style="fill-opacity: 0.25"/>
    </g>
    <g clip-path="url(#p75fed7c709)">
     <use xlink:href="#C0_0_17fdbdeedb" x="100.362079" y="261.689578" style="fill-opacity: 0.25"/>
    </g>
    <g clip-path="url(#p75fed7c709)">
     <use xlink:href="#C0_0_17fdbdeedb" x="107.612572" y="273.960028" style="fill-opacity: 0.25"/>
    </g>
    <g clip-path="url(#p75fed7c709)">
     <use xlink:href="#C0_0_17fdbdeedb" x="97.099562" y="219.297153" style="fill-opacity: 0.25"/>
    </g>
    <g clip-path="url(#p75fed7c709)">
     <use xlink:href="#C0_0_17fdbdeedb" x="107.075438" y="262.236806" style="fill-opacity: 0.25"/>
    </g>
    <g clip-path="url(#p75fed7c709)">
     <use xlink:href="#C0_0_17fdbdeedb" x="95.597838" y="241.759268" style="fill-opacity: 0.25"/>
    </g>
    <g clip-path="url(#p75fed7c709)">
     <use xlink:href="#C0_0_17fdbdeedb" x="96.642506" y="250.52442" style="fill-opacity: 0.25"/>
    </g>
    <g clip-path="url(#p75fed7c709)">
     <use xlink:href="#C0_0_17fdbdeedb" x="100.200154" y="263.402987" style="fill-opacity: 0.25"/>
    </g>
    <g clip-path="url(#p75fed7c709)">
     <use xlink:href="#C0_0_17fdbdeedb" x="94.737931" y="266.391633" style="fill-opacity: 0.25"/>
    </g>
    <g clip-path="url(#p75fed7c709)">
     <use xlink:href="#C0_0_17fdbdeedb" x="94.765803" y="219.670662" style="fill-opacity: 0.25"/>
    </g>
    <g clip-path="url(#p75fed7c709)">
     <use xlink:href="#C0_0_17fdbdeedb" x="98.291489" y="258.21972" style="fill-opacity: 0.25"/>
    </g>
    <g clip-path="url(#p75fed7c709)">
     <use xlink:href="#C0_0_17fdbdeedb" x="105.14146" y="282.5446" style="fill-opacity: 0.25"/>
    </g>
    <g clip-path="url(#p75fed7c709)">
     <use xlink:href="#C0_0_17fdbdeedb" x="97.651158" y="256.259251" style="fill-opacity: 0.25"/>
    </g>
   </g>
   <g id="PathCollection_6">
    <defs>
     <path id="C1_0_aba3b094aa" d="M 0 2.5 
C 0.663008 2.5 1.29895 2.236584 1.767767 1.767767 
C 2.236584 1.29895 2.5 0.663008 2.5 -0 
C 2.5 -0.663008 2.236584 -1.29895 1.767767 -1.767767 
C 1.29895 -2.236584 0.663008 -2.5 0 -2.5 
C -0.663008 -2.5 -1.29895 -2.236584 -1.767767 -1.767767 
C -2.236584 -1.29895 -2.5 -0.663008 -2.5 0 
C -2.5 0.663008 -2.236584 1.29895 -1.767767 1.767767 
C -1.29895 2.236584 -0.663008 2.5 0 2.5 
z
"/>
    </defs>
    <g clip-path="url(#p75fed7c709)">
     <use xlink:href="#C1_0_aba3b094aa" x="196.591216" y="133.87304" style="fill-opacity: 0.25"/>
    </g>
    <g clip-path="url(#p75fed7c709)">
     <use xlink:href="#C1_0_aba3b094aa" x="188.014754" y="284.605635" style="fill-opacity: 0.25"/>
    </g>
    <g clip-path="url(#p75fed7c709)">
     <use xlink:href="#C1_0_aba3b094aa" x="184.462645" y="267.058697" style="fill-opacity: 0.25"/>
    </g>
    <g clip-path="url(#p75fed7c709)">
     <use xlink:href="#C1_0_aba3b094aa" x="187.212024" y="269.984676" style="fill-opacity: 0.25"/>
    </g>
    <g clip-path="url(#p75fed7c709)">
     <use xlink:href="#C1_0_aba3b094aa" x="185.101702" y="198.567829" style="fill-opacity: 0.25"/>
    </g>
    <g clip-path="url(#p75fed7c709)">
     <use xlink:href="#C1_0_aba3b094aa" x="192.639137" y="144.353215" style="fill-opacity: 0.25"/>
    </g>
    <g clip-path="url(#p75fed7c709)">
     <use xlink:href="#C1_0_aba3b094aa" x="187.963426" y="269.421367" style="fill-opacity: 0.25"/>
    </g>
    <g clip-path="url(#p75fed7c709)">
     <use xlink:href="#C1_0_aba3b094aa" x="185.912466" y="280.731593" style="fill-opacity: 0.25"/>
    </g>
    <g clip-path="url(#p75fed7c709)">
     <use xlink:href="#C1_0_aba3b094aa" x="196.063736" y="191.960365" style="fill-opacity: 0.25"/>
    </g>
    <g clip-path="url(#p75fed7c709)">
     <use xlink:href="#C1_0_aba3b094aa" x="186.688529" y="237.290194" style="fill-opacity: 0.25"/>
    </g>
   </g>
   <g id="PathCollection_7">
    <defs>
     <path id="C2_0_479594d7e1" d="M 0 2.5 
C 0.663008 2.5 1.29895 2.236584 1.767767 1.767767 
C 2.236584 1.29895 2.5 0.663008 2.5 -0 
C 2.5 -0.663008 2.236584 -1.29895 1.767767 -1.767767 
C 1.29895 -2.236584 0.663008 -2.5 0 -2.5 
C -0.663008 -2.5 -1.29895 -2.236584 -1.767767 -1.767767 
C -2.236584 -1.29895 -2.5 -0.663008 -2.5 0 
C -2.5 0.663008 -2.236584 1.29895 -1.767767 1.767767 
C -1.29895 2.236584 -0.663008 2.5 0 2.5 
z
"/>
    </defs>
    <g clip-path="url(#p75fed7c709)">
     <use xlink:href="#C2_0_479594d7e1" x="284.27758" y="287.727299" style="fill-opacity: 0.25"/>
    </g>
    <g clip-path="url(#p75fed7c709)">
     <use xlink:href="#C2_0_479594d7e1" x="274.042913" y="240.987992" style="fill-opacity: 0.25"/>
    </g>
    <g clip-path="url(#p75fed7c709)">
     <use xlink:href="#C2_0_479594d7e1" x="276.91226" y="273.008373" style="fill-opacity: 0.25"/>
    </g>
    <g clip-path="url(#p75fed7c709)">
     <use xlink:href="#C2_0_479594d7e1" x="286.615098" y="274.264165" style="fill-opacity: 0.25"/>
    </g>
    <g clip-path="url(#p75fed7c709)">
     <use xlink:href="#C2_0_479594d7e1" x="287.348718" y="194.533464" style="fill-opacity: 0.25"/>
    </g>
    <g clip-path="url(#p75fed7c709)">
     <use xlink:href="#C2_0_479594d7e1" x="281.371097" y="288.937608" style="fill-opacity: 0.25"/>
    </g>
    <g clip-path="url(#p75fed7c709)">
     <use xlink:href="#C2_0_479594d7e1" x="272.103402" y="277.714738" style="fill-opacity: 0.25"/>
    </g>
    <g clip-path="url(#p75fed7c709)">
     <use xlink:href="#C2_0_479594d7e1" x="277.295612" y="234.046511" style="fill-opacity: 0.25"/>
    </g>
    <g clip-path="url(#p75fed7c709)">
     <use xlink:href="#C2_0_479594d7e1" x="281.235561" y="273.960028" style="fill-opacity: 0.25"/>
    </g>
    <g clip-path="url(#p75fed7c709)">
     <use xlink:href="#C2_0_479594d7e1" x="284.675235" y="287.47868" style="fill-opacity: 0.25"/>
    </g>
    <g clip-path="url(#p75fed7c709)">
     <use xlink:href="#C2_0_479594d7e1" x="289.711609" y="280.435922" style="fill-opacity: 0.25"/>
    </g>
    <g clip-path="url(#p75fed7c709)">
     <use xlink:href="#C2_0_479594d7e1" x="280.248604" y="254.206987" style="fill-opacity: 0.25"/>
    </g>
    <g clip-path="url(#p75fed7c709)">
     <use xlink:href="#C2_0_479594d7e1" x="273.491293" y="254.631593" style="fill-opacity: 0.25"/>
    </g>
    <g clip-path="url(#p75fed7c709)">
     <use xlink:href="#C2_0_479594d7e1" x="281.051007" y="268.059769" style="fill-opacity: 0.25"/>
    </g>
    <g clip-path="url(#p75fed7c709)">
     <use xlink:href="#C2_0_479594d7e1" x="276.566612" y="236.665938" style="fill-opacity: 0.25"/>
    </g>
    <g clip-path="url(#p75fed7c709)">
     <use xlink:href="#C2_0_479594d7e1" x="284.120163" y="275.830842" style="fill-opacity: 0.25"/>
    </g>
    <g clip-path="url(#p75fed7c709)">
     <use xlink:href="#C2_0_479594d7e1" x="288.329131" y="264.665099" style="fill-opacity: 0.25"/>
    </g>
    <g clip-path="url(#p75fed7c709)">
     <use xlink:href="#C2_0_479594d7e1" x="274.176947" y="224.351705" style="fill-opacity: 0.25"/>
    </g>
    <g clip-path="url(#p75fed7c709)">
     <use xlink:href="#C2_0_479594d7e1" x="279.898035" y="267.152037" style="fill-opacity: 0.25"/>
    </g>
    <g clip-path="url(#p75fed7c709)">
     <use xlink:href="#C2_0_479594d7e1" x="272.634276" y="200.940985" style="fill-opacity: 0.25"/>
    </g>
    <g clip-path="url(#p75fed7c709)">
     <use xlink:href="#C2_0_479594d7e1" x="275.427931" y="254.34934" style="fill-opacity: 0.25"/>
    </g>
    <g clip-path="url(#p75fed7c709)">
     <use xlink:href="#C2_0_479594d7e1" x="278.396707" y="264.665099" style="fill-opacity: 0.25"/>
    </g>
    <g clip-path="url(#p75fed7c709)">
     <use xlink:href="#C2_0_479594d7e1" x="275.24414" y="243.837653" style="fill-opacity: 0.25"/>
    </g>
    <g clip-path="url(#p75fed7c709)">
     <use xlink:href="#C2_0_479594d7e1" x="288.330499" y="285.130421" style="fill-opacity: 0.25"/>
    </g>
    <g clip-path="url(#p75fed7c709)">
     <use xlink:href="#C2_0_479594d7e1" x="285.872552" y="291.201045" style="fill-opacity: 0.25"/>
    </g>
    <g clip-path="url(#p75fed7c709)">
     <use xlink:href="#C2_0_479594d7e1" x="280.465933" y="275.695398" style="fill-opacity: 0.25"/>
    </g>
    <g clip-path="url(#p75fed7c709)">
     <use xlink:href="#C2_0_479594d7e1" x="283.300249" y="279.860287" style="fill-opacity: 0.25"/>
    </g>
    <g clip-path="url(#p75fed7c709)">
     <use xlink:href="#C2_0_479594d7e1" x="278.350983" y="265.189373" style="fill-opacity: 0.25"/>
    </g>
    <g clip-path="url(#p75fed7c709)">
     <use xlink:href="#C2_0_479594d7e1" x="283.512538" y="220.163549" style="fill-opacity: 0.25"/>
    </g>
    <g clip-path="url(#p75fed7c709)">
     <use xlink:href="#C2_0_479594d7e1" x="282.75001" y="258.147334" style="fill-opacity: 0.25"/>
    </g>
    <g clip-path="url(#p75fed7c709)">
     <use xlink:href="#C2_0_479594d7e1" x="277.977331" y="270.682106" style="fill-opacity: 0.25"/>
    </g>
    <g clip-path="url(#p75fed7c709)">
     <use xlink:href="#C2_0_479594d7e1" x="278.20802" y="209.057179" style="fill-opacity: 0.25"/>
    </g>
    <g clip-path="url(#p75fed7c709)">
     <use xlink:href="#C2_0_479594d7e1" x="272.141237" y="126.453553" style="fill-opacity: 0.25"/>
    </g>
    <g clip-path="url(#p75fed7c709)">
     <use xlink:href="#C2_0_479594d7e1" x="284.725931" y="213.552614" style="fill-opacity: 0.25"/>
    </g>
    <g clip-path="url(#p75fed7c709)">
     <use xlink:href="#C2_0_479594d7e1" x="281.391767" y="255.048941" style="fill-opacity: 0.25"/>
    </g>
    <g clip-path="url(#p75fed7c709)">
     <use xlink:href="#C2_0_479594d7e1" x="285.242346" y="271.993275" style="fill-opacity: 0.25"/>
    </g>
    <g clip-path="url(#p75fed7c709)">
     <use xlink:href="#C2_0_479594d7e1" x="280.284216" y="281.161131" style="fill-opacity: 0.25"/>
    </g>
    <g clip-path="url(#p75fed7c709)">
     <use xlink:href="#C2_0_479594d7e1" x="274.435584" y="268.923221" style="fill-opacity: 0.25"/>
    </g>
    <g clip-path="url(#p75fed7c709)">
     <use xlink:href="#C2_0_479594d7e1" x="289.241483" y="292.52648" style="fill-opacity: 0.25"/>
    </g>
    <g clip-path="url(#p75fed7c709)">
     <use xlink:href="#C2_0_479594d7e1" x="272.757744" y="253.774931" style="fill-opacity: 0.25"/>
    </g>
    <g clip-path="url(#p75fed7c709)">
     <use xlink:href="#C2_0_479594d7e1" x="273.204829" y="261.503926" style="fill-opacity: 0.25"/>
    </g>
    <g clip-path="url(#p75fed7c709)">
     <use xlink:href="#C2_0_479594d7e1" x="274.288131" y="289.910489" style="fill-opacity: 0.25"/>
    </g>
    <g clip-path="url(#p75fed7c709)">
     <use xlink:href="#C2_0_479594d7e1" x="284.298919" y="294.413002" style="fill-opacity: 0.25"/>
    </g>
    <g clip-path="url(#p75fed7c709)">
     <use xlink:href="#C2_0_479594d7e1" x="279.598908" y="287.184746" style="fill-opacity: 0.25"/>
    </g>
    <g clip-path="url(#p75fed7c709)">
     <use xlink:href="#C2_0_479594d7e1" x="285.517058" y="222.543485" style="fill-opacity: 0.25"/>
    </g>
    <g clip-path="url(#p75fed7c709)">
     <use xlink:href="#C2_0_479594d7e1" x="276.393759" y="274.854007" style="fill-opacity: 0.25"/>
    </g>
    <g clip-path="url(#p75fed7c709)">
     <use xlink:href="#C2_0_479594d7e1" x="276.913861" y="266.196529" style="fill-opacity: 0.25"/>
    </g>
    <g clip-path="url(#p75fed7c709)">
     <use xlink:href="#C2_0_479594d7e1" x="279.456925" y="286.296933" style="fill-opacity: 0.25"/>
    </g>
    <g clip-path="url(#p75fed7c709)">
     <use xlink:href="#C2_0_479594d7e1" x="285.74321" y="241.489237" style="fill-opacity: 0.25"/>
    </g>
    <g clip-path="url(#p75fed7c709)">
     <use xlink:href="#C2_0_479594d7e1" x="287.733125" y="282.560036" style="fill-opacity: 0.25"/>
    </g>
    <g clip-path="url(#p75fed7c709)">
     <use xlink:href="#C2_0_479594d7e1" x="280.128471" y="290.874104" style="fill-opacity: 0.25"/>
    </g>
    <g clip-path="url(#p75fed7c709)">
     <use xlink:href="#C2_0_479594d7e1" x="279.38479" y="286.296933" style="fill-opacity: 0.25"/>
    </g>
    <g clip-path="url(#p75fed7c709)">
     <use xlink:href="#C2_0_479594d7e1" x="272.203956" y="289.314848" style="fill-opacity: 0.25"/>
    </g>
    <g clip-path="url(#p75fed7c709)">
     <use xlink:href="#C2_0_479594d7e1" x="277.846105" y="295.294875" style="fill-opacity: 0.25"/>
    </g>
    <g clip-path="url(#p75fed7c709)">
     <use xlink:href="#C2_0_479594d7e1" x="278.449156" y="295.290162" style="fill-opacity: 0.25"/>
    </g>
    <g clip-path="url(#p75fed7c709)">
     <use xlink:href="#C2_0_479594d7e1" x="289.305753" y="241.353333" style="fill-opacity: 0.25"/>
    </g>
    <g clip-path="url(#p75fed7c709)">
     <use xlink:href="#C2_0_479594d7e1" x="279.804225" y="53.568" style="fill-opacity: 0.25"/>
    </g>
    <g clip-path="url(#p75fed7c709)">
     <use xlink:href="#C2_0_479594d7e1" x="274.062364" y="265.949742" style="fill-opacity: 0.25"/>
    </g>
    <g clip-path="url(#p75fed7c709)">
     <use xlink:href="#C2_0_479594d7e1" x="273.899049" y="259.890179" style="fill-opacity: 0.25"/>
    </g>
    <g clip-path="url(#p75fed7c709)">
     <use xlink:href="#C2_0_479594d7e1" x="283.145631" y="271.835144" style="fill-opacity: 0.25"/>
    </g>
    <g clip-path="url(#p75fed7c709)">
     <use xlink:href="#C2_0_479594d7e1" x="282.384906" y="242.686123" style="fill-opacity: 0.25"/>
    </g>
    <g clip-path="url(#p75fed7c709)">
     <use xlink:href="#C2_0_479594d7e1" x="282.875877" y="279.741689" style="fill-opacity: 0.25"/>
    </g>
    <g clip-path="url(#p75fed7c709)">
     <use xlink:href="#C2_0_479594d7e1" x="281.156514" y="181.985402" style="fill-opacity: 0.25"/>
    </g>
    <g clip-path="url(#p75fed7c709)">
     <use xlink:href="#C2_0_479594d7e1" x="287.653697" y="235.381411" style="fill-opacity: 0.25"/>
    </g>
    <g clip-path="url(#p75fed7c709)">
     <use xlink:href="#C2_0_479594d7e1" x="275.201987" y="272.744139" style="fill-opacity: 0.25"/>
    </g>
    <g clip-path="url(#p75fed7c709)">
     <use xlink:href="#C2_0_479594d7e1" x="272.188608" y="277.23795" style="fill-opacity: 0.25"/>
    </g>
   </g>
   <g id="PathCollection_8">
    <defs>
     <path id="C3_0_efcd036b6f" d="M 0 2.5 
C 0.663008 2.5 1.29895 2.236584 1.767767 1.767767 
C 2.236584 1.29895 2.5 0.663008 2.5 -0 
C 2.5 -0.663008 2.236584 -1.29895 1.767767 -1.767767 
C 1.29895 -2.236584 0.663008 -2.5 0 -2.5 
C -0.663008 -2.5 -1.29895 -2.236584 -1.767767 -1.767767 
C -2.236584 -1.29895 -2.5 -0.663008 -2.5 0 
C -2.5 0.663008 -2.236584 1.29895 -1.767767 1.767767 
C -1.29895 2.236584 -0.663008 2.5 0 2.5 
z
"/>
    </defs>
    <g clip-path="url(#p75fed7c709)">
     <use xlink:href="#C3_0_efcd036b6f" x="371.231347" y="262.886476" style="fill-opacity: 0.25"/>
    </g>
    <g clip-path="url(#p75fed7c709)">
     <use xlink:href="#C3_0_efcd036b6f" x="376.737672" y="254.799393" style="fill-opacity: 0.25"/>
    </g>
    <g clip-path="url(#p75fed7c709)">
     <use xlink:href="#C3_0_efcd036b6f" x="371.225719" y="195.364975" style="fill-opacity: 0.25"/>
    </g>
    <g clip-path="url(#p75fed7c709)">
     <use xlink:href="#C3_0_efcd036b6f" x="370.083319" y="214.77267" style="fill-opacity: 0.25"/>
    </g>
    <g clip-path="url(#p75fed7c709)">
     <use xlink:href="#C3_0_efcd036b6f" x="364.57736" y="238.80095" style="fill-opacity: 0.25"/>
    </g>
    <g clip-path="url(#p75fed7c709)">
     <use xlink:href="#C3_0_efcd036b6f" x="361.821505" y="240.525227" style="fill-opacity: 0.25"/>
    </g>
    <g clip-path="url(#p75fed7c709)">
     <use xlink:href="#C3_0_efcd036b6f" x="366.438527" y="270.606052" style="fill-opacity: 0.25"/>
    </g>
    <g clip-path="url(#p75fed7c709)">
     <use xlink:href="#C3_0_efcd036b6f" x="361.423923" y="202.67398" style="fill-opacity: 0.25"/>
    </g>
    <g clip-path="url(#p75fed7c709)">
     <use xlink:href="#C3_0_efcd036b6f" x="367.73977" y="252.154723" style="fill-opacity: 0.25"/>
    </g>
    <g clip-path="url(#p75fed7c709)">
     <use xlink:href="#C3_0_efcd036b6f" x="373.658299" y="279.899557" style="fill-opacity: 0.25"/>
    </g>
    <g clip-path="url(#p75fed7c709)">
     <use xlink:href="#C3_0_efcd036b6f" x="362.508713" y="262.176712" style="fill-opacity: 0.25"/>
    </g>
    <g clip-path="url(#p75fed7c709)">
     <use xlink:href="#C3_0_efcd036b6f" x="377.637596" y="124.212948" style="fill-opacity: 0.25"/>
    </g>
    <g clip-path="url(#p75fed7c709)">
     <use xlink:href="#C3_0_efcd036b6f" x="376.021982" y="195.364975" style="fill-opacity: 0.25"/>
    </g>
    <g clip-path="url(#p75fed7c709)">
     <use xlink:href="#C3_0_efcd036b6f" x="366.600687" y="251.968153" style="fill-opacity: 0.25"/>
    </g>
    <g clip-path="url(#p75fed7c709)">
     <use xlink:href="#C3_0_efcd036b6f" x="376.275134" y="243.962913" style="fill-opacity: 0.25"/>
    </g>
    <g clip-path="url(#p75fed7c709)">
     <use xlink:href="#C3_0_efcd036b6f" x="368.551953" y="245.346597" style="fill-opacity: 0.25"/>
    </g>
    <g clip-path="url(#p75fed7c709)">
     <use xlink:href="#C3_0_efcd036b6f" x="378.934431" y="148.700431" style="fill-opacity: 0.25"/>
    </g>
    <g clip-path="url(#p75fed7c709)">
     <use xlink:href="#C3_0_efcd036b6f" x="370.517041" y="248.361628" style="fill-opacity: 0.25"/>
    </g>
    <g clip-path="url(#p75fed7c709)">
     <use xlink:href="#C3_0_efcd036b6f" x="375.150849" y="248.787108" style="fill-opacity: 0.25"/>
    </g>
    <g clip-path="url(#p75fed7c709)">
     <use xlink:href="#C3_0_efcd036b6f" x="378.505753" y="278.264487" style="fill-opacity: 0.25"/>
    </g>
    <g clip-path="url(#p75fed7c709)">
     <use xlink:href="#C3_0_efcd036b6f" x="368.692004" y="229.244228" style="fill-opacity: 0.25"/>
    </g>
    <g clip-path="url(#p75fed7c709)">
     <use xlink:href="#C3_0_efcd036b6f" x="371.304936" y="249.136688" style="fill-opacity: 0.25"/>
    </g>
    <g clip-path="url(#p75fed7c709)">
     <use xlink:href="#C3_0_efcd036b6f" x="361.603466" y="247.929473" style="fill-opacity: 0.25"/>
    </g>
    <g clip-path="url(#p75fed7c709)">
     <use xlink:href="#C3_0_efcd036b6f" x="374.904143" y="289.385158" style="fill-opacity: 0.25"/>
    </g>
    <g clip-path="url(#p75fed7c709)">
     <use xlink:href="#C3_0_efcd036b6f" x="361.261599" y="250.623183" style="fill-opacity: 0.25"/>
    </g>
    <g clip-path="url(#p75fed7c709)">
     <use xlink:href="#C3_0_efcd036b6f" x="365.55314" y="266.488421" style="fill-opacity: 0.25"/>
    </g>
    <g clip-path="url(#p75fed7c709)">
     <use xlink:href="#C3_0_efcd036b6f" x="369.158171" y="240.803705" style="fill-opacity: 0.25"/>
    </g>
    <g clip-path="url(#p75fed7c709)">
     <use xlink:href="#C3_0_efcd036b6f" x="377.012768" y="224.791203" style="fill-opacity: 0.25"/>
    </g>
    <g clip-path="url(#p75fed7c709)">
     <use xlink:href="#C3_0_efcd036b6f" x="375.351673" y="264.981373" style="fill-opacity: 0.25"/>
    </g>
    <g clip-path="url(#p75fed7c709)">
     <use xlink:href="#C3_0_efcd036b6f" x="376.93089" y="194.812052" style="fill-opacity: 0.25"/>
    </g>
    <g clip-path="url(#p75fed7c709)">
     <use xlink:href="#C3_0_efcd036b6f" x="363.079919" y="243.458689" style="fill-opacity: 0.25"/>
    </g>
    <g clip-path="url(#p75fed7c709)">
     <use xlink:href="#C3_0_efcd036b6f" x="364.683722" y="228.138867" style="fill-opacity: 0.25"/>
    </g>
    <g clip-path="url(#p75fed7c709)">
     <use xlink:href="#C3_0_efcd036b6f" x="372.910835" y="263.684296" style="fill-opacity: 0.25"/>
    </g>
    <g clip-path="url(#p75fed7c709)">
     <use xlink:href="#C3_0_efcd036b6f" x="369.21783" y="210.452314" style="fill-opacity: 0.25"/>
    </g>
    <g clip-path="url(#p75fed7c709)">
     <use xlink:href="#C3_0_efcd036b6f" x="372.591723" y="236.349372" style="fill-opacity: 0.25"/>
    </g>
    <g clip-path="url(#p75fed7c709)">
     <use xlink:href="#C3_0_efcd036b6f" x="378.409331" y="243.711865" style="fill-opacity: 0.25"/>
    </g>
    <g clip-path="url(#p75fed7c709)">
     <use xlink:href="#C3_0_efcd036b6f" x="372.048728" y="291.957975" style="fill-opacity: 0.25"/>
    </g>
    <g clip-path="url(#p75fed7c709)">
     <use xlink:href="#C3_0_efcd036b6f" x="373.61555" y="253.890886" style="fill-opacity: 0.25"/>
    </g>
    <g clip-path="url(#p75fed7c709)">
     <use xlink:href="#C3_0_efcd036b6f" x="370.376142" y="240.244262" style="fill-opacity: 0.25"/>
    </g>
    <g clip-path="url(#p75fed7c709)">
     <use xlink:href="#C3_0_efcd036b6f" x="370.622436" y="184.464503" style="fill-opacity: 0.25"/>
    </g>
    <g clip-path="url(#p75fed7c709)">
     <use xlink:href="#C3_0_efcd036b6f" x="378.800988" y="237.444439" style="fill-opacity: 0.25"/>
    </g>
    <g clip-path="url(#p75fed7c709)">
     <use xlink:href="#C3_0_efcd036b6f" x="365.148127" y="147.850096" style="fill-opacity: 0.25"/>
    </g>
    <g clip-path="url(#p75fed7c709)">
     <use xlink:href="#C3_0_efcd036b6f" x="377.427407" y="202.67398" style="fill-opacity: 0.25"/>
    </g>
    <g clip-path="url(#p75fed7c709)">
     <use xlink:href="#C3_0_efcd036b6f" x="364.987895" y="221.370763" style="fill-opacity: 0.25"/>
    </g>
    <g clip-path="url(#p75fed7c709)">
     <use xlink:href="#C3_0_efcd036b6f" x="361.79877" y="228.931735" style="fill-opacity: 0.25"/>
    </g>
    <g clip-path="url(#p75fed7c709)">
     <use xlink:href="#C3_0_efcd036b6f" x="364.612018" y="287.29623" style="fill-opacity: 0.25"/>
    </g>
    <g clip-path="url(#p75fed7c709)">
     <use xlink:href="#C3_0_efcd036b6f" x="369.980224" y="275.695398" style="fill-opacity: 0.25"/>
    </g>
    <g clip-path="url(#p75fed7c709)">
     <use xlink:href="#C3_0_efcd036b6f" x="374.020207" y="202.494324" style="fill-opacity: 0.25"/>
    </g>
    <g clip-path="url(#p75fed7c709)">
     <use xlink:href="#C3_0_efcd036b6f" x="372.041404" y="263.06012" style="fill-opacity: 0.25"/>
    </g>
    <g clip-path="url(#p75fed7c709)">
     <use xlink:href="#C3_0_efcd036b6f" x="374.216058" y="295.488" style="fill-opacity: 0.25"/>
    </g>
    <g clip-path="url(#p75fed7c709)">
     <use xlink:href="#C3_0_efcd036b6f" x="361.961259" y="231.701416" style="fill-opacity: 0.25"/>
    </g>
    <g clip-path="url(#p75fed7c709)">
     <use xlink:href="#C3_0_efcd036b6f" x="369.511268" y="273.774485" style="fill-opacity: 0.25"/>
    </g>
    <g clip-path="url(#p75fed7c709)">
     <use xlink:href="#C3_0_efcd036b6f" x="365.647877" y="250.425287" style="fill-opacity: 0.25"/>
    </g>
    <g clip-path="url(#p75fed7c709)">
     <use xlink:href="#C3_0_efcd036b6f" x="369.054733" y="278.24205" style="fill-opacity: 0.25"/>
    </g>
    <g clip-path="url(#p75fed7c709)">
     <use xlink:href="#C3_0_efcd036b6f" x="362.973925" y="293.867406" style="fill-opacity: 0.25"/>
    </g>
    <g clip-path="url(#p75fed7c709)">
     <use xlink:href="#C3_0_efcd036b6f" x="371.856089" y="269.236256" style="fill-opacity: 0.25"/>
    </g>
    <g clip-path="url(#p75fed7c709)">
     <use xlink:href="#C3_0_efcd036b6f" x="369.194129" y="282.498153" style="fill-opacity: 0.25"/>
    </g>
    <g clip-path="url(#p75fed7c709)">
     <use xlink:href="#C3_0_efcd036b6f" x="364.32404" y="265.899992" style="fill-opacity: 0.25"/>
    </g>
    <g clip-path="url(#p75fed7c709)">
     <use xlink:href="#C3_0_efcd036b6f" x="366.13113" y="279.541354" style="fill-opacity: 0.25"/>
    </g>
    <g clip-path="url(#p75fed7c709)">
     <use xlink:href="#C3_0_efcd036b6f" x="365.599626" y="244.507861" style="fill-opacity: 0.25"/>
    </g>
    <g clip-path="url(#p75fed7c709)">
     <use xlink:href="#C3_0_efcd036b6f" x="377.451987" y="295.087212" style="fill-opacity: 0.25"/>
    </g>
    <g clip-path="url(#p75fed7c709)">
     <use xlink:href="#C3_0_efcd036b6f" x="378.80211" y="214.213708" style="fill-opacity: 0.25"/>
    </g>
    <g clip-path="url(#p75fed7c709)">
     <use xlink:href="#C3_0_efcd036b6f" x="377.790781" y="283.318191" style="fill-opacity: 0.25"/>
    </g>
    <g clip-path="url(#p75fed7c709)">
     <use xlink:href="#C3_0_efcd036b6f" x="377.695338" y="262.475443" style="fill-opacity: 0.25"/>
    </g>
    <g clip-path="url(#p75fed7c709)">
     <use xlink:href="#C3_0_efcd036b6f" x="370.33193" y="274.562095" style="fill-opacity: 0.25"/>
    </g>
    <g clip-path="url(#p75fed7c709)">
     <use xlink:href="#C3_0_efcd036b6f" x="364.945852" y="238.205002" style="fill-opacity: 0.25"/>
    </g>
    <g clip-path="url(#p75fed7c709)">
     <use xlink:href="#C3_0_efcd036b6f" x="369.663269" y="261.441674" style="fill-opacity: 0.25"/>
    </g>
    <g clip-path="url(#p75fed7c709)">
     <use xlink:href="#C3_0_efcd036b6f" x="368.528309" y="243.100617" style="fill-opacity: 0.25"/>
    </g>
    <g clip-path="url(#p75fed7c709)">
     <use xlink:href="#C3_0_efcd036b6f" x="367.254291" y="282.697948" style="fill-opacity: 0.25"/>
    </g>
   </g>
  </g>
 </g>
 <defs>
  <clipPath id="p75fed7c709">
   <rect x="57.6" y="41.472" width="357.12" height="266.112"/>
  </clipPath>
 </defs>
</svg>
