<?xml version="1.0" encoding="utf-8" standalone="no"?>
<!DOCTYPE svg PUBLIC "-//W3C//DTD SVG 1.1//EN"
  "http://www.w3.org/Graphics/SVG/1.1/DTD/svg11.dtd">
<svg xmlns:xlink="http://www.w3.org/1999/xlink" width="4707.707026pt" height="1589.60875pt" viewBox="0 0 4707.707026 1589.60875" xmlns="http://www.w3.org/2000/svg" version="1.1">
 <metadata>
  <rdf:RDF xmlns:dc="http://purl.org/dc/elements/1.1/" xmlns:cc="http://creativecommons.org/ns#" xmlns:rdf="http://www.w3.org/1999/02/22-rdf-syntax-ns#">
   <cc:Work>
    <dc:type rdf:resource="http://purl.org/dc/dcmitype/StillImage"/>
    <dc:date>2026-05-26T09:34:39.659666</dc:date>
    <dc:format>image/svg+xml</dc:format>
    <dc:creator>
     <cc:Agent>
      <dc:title>Matplotlib v3.5.1, https://matplotlib.org/</dc:title>
     </cc:Agent>
    </dc:creator>
   </cc:Work>
  </rdf:RDF>
 </metadata>
 <defs>
  <style type="text/css">*{stroke-linejoin: round; stroke-linecap: butt}</style>
 </defs>
 <g id="figure_1">
  <g id="patch_1">
   <path d="M 0 1589.60875 
L 4707.707026 1589.60875 
L 4707.707026 0 
L 0 0 
z
" style="fill: #ffffff"/>
  </g>
  <g id="axes_1">
   <g id="patch_2">
    <path d="M 390.54832 734.349342 
L 3950.96832 734.349342 
L 3950.96832 7.2 
L 390.54832 7.2 
L 390.54832 734.349342 
z
" style="fill: none"/>
   </g>
   <g id="PolyCollection_1">
    <defs>
     <path id="mf91d7e5a59" d="M 1162.366408 -855.259949 
L 1162.366408 -855.259408 
L 1179.907345 -855.259408 
L 1197.448281 -855.259408 
L 1214.989218 -855.259408 
L 1232.530155 -855.259408 
L 1250.071091 -855.259408 
L 1267.612028 -855.259408 
L 1285.152964 -855.259408 
L 1302.693901 -855.259408 
L 1320.234838 -855.259408 
L 1337.775774 -855.259408 
L 1355.316711 -855.259408 
L 1372.857647 -855.259408 
L 1390.398584 -855.259408 
L 1407.939521 -855.259408 
L 1425.480457 -855.259408 
L 1443.021394 -855.259408 
L 1460.562331 -855.259408 
L 1478.103267 -855.259408 
L 1495.644204 -855.259408 
L 1513.18514 -855.259408 
L 1530.726077 -855.259408 
L 1548.267014 -855.259408 
L 1565.80795 -855.259408 
L 1583.348887 -855.259408 
L 1600.889823 -855.259408 
L 1618.43076 -855.259408 
L 1635.971697 -855.259408 
L 1653.512633 -855.259408 
L 1671.05357 -855.259408 
L 1688.594507 -855.259408 
L 1706.135443 -855.259408 
L 1723.67638 -855.259408 
L 1741.217316 -855.259408 
L 1758.758253 -855.259408 
L 1776.29919 -855.259408 
L 1793.840126 -855.259408 
L 1811.381063 -855.259408 
L 1828.921999 -855.259408 
L 1846.462936 -855.259408 
L 1864.003873 -855.259408 
L 1881.544809 -855.259408 
L 1899.085746 -855.259408 
L 1916.626683 -855.259408 
L 1934.167619 -855.259408 
L 1951.708556 -855.259408 
L 1969.249492 -855.259408 
L 1986.790429 -855.259408 
L 2004.331366 -855.259408 
L 2021.872302 -855.259408 
L 2039.413239 -855.259408 
L 2056.954175 -855.259408 
L 2074.495112 -855.259408 
L 2092.036049 -855.259408 
L 2109.576985 -855.259408 
L 2127.117922 -855.259408 
L 2144.658859 -855.259408 
L 2162.199795 -855.259408 
L 2179.740732 -855.259408 
L 2197.281668 -855.259408 
L 2214.822605 -855.259408 
L 2232.363542 -855.259408 
L 2249.904478 -855.259408 
L 2267.445415 -855.259408 
L 2284.986351 -855.259408 
L 2302.527288 -855.259408 
L 2320.068225 -855.259408 
L 2337.609161 -855.259408 
L 2355.150098 -855.259408 
L 2372.691035 -855.259408 
L 2390.231971 -855.259408 
L 2407.772908 -855.259408 
L 2425.313844 -855.259408 
L 2442.854781 -855.259408 
L 2460.395718 -855.259408 
L 2477.936654 -855.259408 
L 2495.477591 -855.259408 
L 2513.018527 -855.259408 
L 2530.559464 -855.259408 
L 2548.100401 -855.259408 
L 2565.641337 -855.259408 
L 2583.182274 -855.259408 
L 2600.723211 -855.259408 
L 2618.264147 -855.259408 
L 2635.805084 -855.259408 
L 2653.34602 -855.259408 
L 2670.886957 -855.259408 
L 2688.427894 -855.259408 
L 2705.96883 -855.259408 
L 2723.509767 -855.259408 
L 2741.050703 -855.259408 
L 2758.59164 -855.259408 
L 2776.132577 -855.259408 
L 2793.673513 -855.259408 
L 2811.21445 -855.259408 
L 2828.755387 -855.259408 
L 2846.296323 -855.259408 
L 2863.83726 -855.259408 
L 2881.378196 -855.259408 
L 2898.919133 -855.259408 
L 2916.46007 -855.259408 
L 2934.001006 -855.259408 
L 2951.541943 -855.259408 
L 2969.082879 -855.259408 
L 2986.623816 -855.259408 
L 3004.164753 -855.259408 
L 3021.705689 -855.259408 
L 3039.246626 -855.259408 
L 3056.787563 -855.259408 
L 3074.328499 -855.259408 
L 3091.869436 -855.259408 
L 3109.410372 -855.259408 
L 3126.951309 -855.259408 
L 3144.492246 -855.259408 
L 3162.033182 -855.259408 
L 3179.574119 -855.259408 
L 3197.115056 -855.259408 
L 3214.655992 -855.259408 
L 3232.196929 -855.259408 
L 3249.737865 -855.259408 
L 3267.278802 -855.259408 
L 3284.819739 -855.259408 
L 3302.360675 -855.259408 
L 3319.901612 -855.259408 
L 3337.442548 -855.259408 
L 3354.983485 -855.259408 
L 3372.524422 -855.259408 
L 3390.065358 -855.259408 
L 3407.606295 -855.259408 
L 3425.147232 -855.259408 
L 3442.688168 -855.259408 
L 3460.229105 -855.259408 
L 3477.770041 -855.259408 
L 3495.310978 -855.259408 
L 3512.851915 -855.259408 
L 3530.392851 -855.259408 
L 3547.933788 -855.259408 
L 3565.474724 -855.259408 
L 3583.015661 -855.259408 
L 3600.556598 -855.259408 
L 3618.097534 -855.259408 
L 3635.638471 -855.259408 
L 3653.179408 -855.259408 
L 3670.720344 -855.259408 
L 3688.261281 -855.259408 
L 3705.802217 -855.259408 
L 3723.343154 -855.259408 
L 3740.884091 -855.259408 
L 3758.425027 -855.259408 
L 3775.965964 -855.259408 
L 3793.5069 -855.259408 
L 3811.047837 -855.259408 
L 3828.588774 -855.259408 
L 3846.12971 -855.259408 
L 3863.670647 -855.259408 
L 3881.211584 -855.259408 
L 3898.75252 -855.259408 
L 3916.293457 -855.259408 
L 3933.834393 -855.259408 
L 3951.37533 -855.259408 
L 3968.916267 -855.259408 
L 3986.457203 -855.259408 
L 4003.99814 -855.259408 
L 4021.539076 -855.259408 
L 4039.080013 -855.259408 
L 4056.62095 -855.259408 
L 4074.161886 -855.259408 
L 4091.702823 -855.259408 
L 4109.24376 -855.259408 
L 4126.784696 -855.259408 
L 4144.325633 -855.259408 
L 4161.866569 -855.259408 
L 4179.407506 -855.259408 
L 4196.948443 -855.259408 
L 4214.489379 -855.259408 
L 4232.030316 -855.259408 
L 4249.571252 -855.259408 
L 4267.112189 -855.259408 
L 4284.653126 -855.259408 
L 4302.194062 -855.259408 
L 4319.734999 -855.259408 
L 4337.275936 -855.259408 
L 4354.816872 -855.259408 
L 4372.357809 -855.259408 
L 4389.898745 -855.259408 
L 4407.439682 -855.259408 
L 4424.980619 -855.259408 
L 4442.521555 -855.259408 
L 4460.062492 -855.259408 
L 4477.603428 -855.259408 
L 4495.144365 -855.259408 
L 4512.685302 -855.259408 
L 4530.226238 -855.259408 
L 4547.767175 -855.259408 
L 4565.308112 -855.259408 
L 4582.849048 -855.259408 
L 4600.389985 -855.259408 
L 4617.930921 -855.259408 
L 4635.471858 -855.259408 
L 4653.012795 -855.259408 
L 4653.012795 -855.259889 
L 4653.012795 -855.259889 
L 4635.471858 -855.261758 
L 4617.930921 -855.267548 
L 4600.389985 -855.27942 
L 4582.849048 -855.294324 
L 4565.308112 -855.302646 
L 4547.767175 -855.297409 
L 4530.226238 -855.283112 
L 4512.685302 -855.269902 
L 4495.144365 -855.262705 
L 4477.603428 -855.260143 
L 4460.062492 -855.259524 
L 4442.521555 -855.259421 
L 4424.980619 -855.259409 
L 4407.439682 -855.259408 
L 4389.898745 -855.259408 
L 4372.357809 -855.259408 
L 4354.816872 -855.259408 
L 4337.275936 -855.259408 
L 4319.734999 -855.259408 
L 4302.194062 -855.259408 
L 4284.653126 -855.259408 
L 4267.112189 -855.259408 
L 4249.571252 -855.259408 
L 4232.030316 -855.259408 
L 4214.489379 -855.259408 
L 4196.948443 -855.259408 
L 4179.407506 -855.259408 
L 4161.866569 -855.259408 
L 4144.325633 -855.259408 
L 4126.784696 -855.259408 
L 4109.24376 -855.259408 
L 4091.702823 -855.259408 
L 4074.161886 -855.259408 
L 4056.62095 -855.259408 
L 4039.080013 -855.259408 
L 4021.539076 -855.259408 
L 4003.99814 -855.259414 
L 3986.457203 -855.259471 
L 3968.916267 -855.259869 
L 3951.37533 -855.26183 
L 3933.834393 -855.268613 
L 3916.293457 -855.284938 
L 3898.75252 -855.311835 
L 3881.211584 -855.341545 
L 3863.670647 -855.363807 
L 3846.12971 -855.378384 
L 3828.588774 -855.392271 
L 3811.047837 -855.406425 
L 3793.5069 -855.417197 
L 3775.965964 -855.426642 
L 3758.425027 -855.445696 
L 3740.884091 -855.495097 
L 3723.343154 -855.600264 
L 3705.802217 -855.774977 
L 3688.261281 -856.014421 
L 3670.720344 -856.324586 
L 3653.179408 -856.781952 
L 3635.638471 -857.55041 
L 3618.097534 -858.791347 
L 3600.556598 -860.565493 
L 3583.015661 -862.907522 
L 3565.474724 -866.017008 
L 3547.933788 -870.25127 
L 3530.392851 -875.82075 
L 3512.851915 -882.553333 
L 3495.310978 -890.070558 
L 3477.770041 -898.043198 
L 3460.229105 -905.976625 
L 3442.688168 -912.978384 
L 3425.147232 -918.312934 
L 3407.606295 -922.122676 
L 3390.065358 -925.078472 
L 3372.524422 -927.355774 
L 3354.983485 -928.536736 
L 3337.442548 -928.595033 
L 3319.901612 -928.47993 
L 3302.360675 -929.714467 
L 3284.819739 -933.594335 
L 3267.278802 -940.338879 
L 3249.737865 -948.815225 
L 3232.196929 -957.584584 
L 3214.655992 -966.149409 
L 3197.115056 -974.658163 
L 3179.574119 -983.02946 
L 3162.033182 -991.276169 
L 3144.492246 -1000.212241 
L 3126.951309 -1011.097688 
L 3109.410372 -1024.675714 
L 3091.869436 -1040.786182 
L 3074.328499 -1058.867324 
L 3056.787563 -1078.629254 
L 3039.246626 -1100.190033 
L 3021.705689 -1123.776685 
L 3004.164753 -1149.454495 
L 2986.623816 -1177.264985 
L 2969.082879 -1207.52921 
L 2951.541943 -1240.375293 
L 2934.001006 -1274.725145 
L 2916.46007 -1308.653808 
L 2898.919133 -1341.173222 
L 2881.378196 -1372.53139 
L 2863.83726 -1402.523502 
L 2846.296323 -1429.733302 
L 2828.755387 -1452.015795 
L 2811.21445 -1466.735127 
L 2793.673513 -1471.672744 
L 2776.132577 -1466.691985 
L 2758.59164 -1454.026999 
L 2741.050703 -1436.82837 
L 2723.509767 -1417.431695 
L 2705.96883 -1396.471011 
L 2688.427894 -1373.571674 
L 2670.886957 -1348.86334 
L 2653.34602 -1323.346304 
L 2635.805084 -1298.036724 
L 2618.264147 -1273.194445 
L 2600.723211 -1248.224485 
L 2583.182274 -1222.459006 
L 2565.641337 -1196.08408 
L 2548.100401 -1169.924818 
L 2530.559464 -1144.465908 
L 2513.018527 -1119.447067 
L 2495.477591 -1094.438531 
L 2477.936654 -1069.709897 
L 2460.395718 -1046.422581 
L 2442.854781 -1026.066085 
L 2425.313844 -1009.843415 
L 2407.772908 -998.339408 
L 2390.231971 -991.254681 
L 2372.691035 -987.222632 
L 2355.150098 -984.244555 
L 2337.609161 -980.715993 
L 2320.068225 -976.026363 
L 2302.527288 -970.245147 
L 2284.986351 -963.6431 
L 2267.445415 -956.58147 
L 2249.904478 -949.502839 
L 2232.363542 -942.974582 
L 2214.822605 -937.613638 
L 2197.281668 -933.500582 
L 2179.740732 -929.94054 
L 2162.199795 -926.355899 
L 2144.658859 -922.889497 
L 2127.117922 -919.648487 
L 2109.576985 -916.040846 
L 2092.036049 -911.353079 
L 2074.495112 -905.561926 
L 2056.954175 -899.319183 
L 2039.413239 -893.431955 
L 2021.872302 -888.471903 
L 2004.331366 -884.614115 
L 1986.790429 -881.679571 
L 1969.249492 -879.386312 
L 1951.708556 -877.506451 
L 1934.167619 -875.78143 
L 1916.626683 -873.985257 
L 1899.085746 -872.098649 
L 1881.544809 -870.172397 
L 1864.003873 -868.189019 
L 1846.462936 -866.256176 
L 1828.921999 -864.697659 
L 1811.381063 -863.819624 
L 1793.840126 -863.660422 
L 1776.29919 -863.954263 
L 1758.758253 -864.367599 
L 1741.217316 -864.763422 
L 1723.67638 -865.137944 
L 1706.135443 -865.454324 
L 1688.594507 -865.675058 
L 1671.05357 -865.727219 
L 1653.512633 -865.412987 
L 1635.971697 -864.608854 
L 1618.43076 -863.478643 
L 1600.889823 -862.325115 
L 1583.348887 -861.318715 
L 1565.80795 -860.440025 
L 1548.267014 -859.626945 
L 1530.726077 -858.874606 
L 1513.18514 -858.181793 
L 1495.644204 -857.524685 
L 1478.103267 -856.91823 
L 1460.562331 -856.415473 
L 1443.021394 -856.044754 
L 1425.480457 -855.802242 
L 1407.939521 -855.677138 
L 1390.398584 -855.643024 
L 1372.857647 -855.649463 
L 1355.316711 -855.64831 
L 1337.775774 -855.623725 
L 1320.234838 -855.591302 
L 1302.693901 -855.566289 
L 1285.152964 -855.53732 
L 1267.612028 -855.483747 
L 1250.071091 -855.409556 
L 1232.530155 -855.340062 
L 1214.989218 -855.293676 
L 1197.448281 -855.27075 
L 1179.907345 -855.262273 
L 1162.366408 -855.259949 
z
" style="stroke: #ccddec; stroke-width: 10"/>
    </defs>
    <g>
     <use xlink:href="#mf91d7e5a59" x="0" y="1589.60875" style="fill: #ccddec; stroke: #ccddec; stroke-width: 10"/>
    </g>
   </g>
   <g id="matplotlib.axis_1">
    <g id="xtick_1">
     <g id="line2d_1">
      <defs>
       <path id="md181c5e755" d="M 0 0 
L 0 3.5 
" style="stroke: #000000; stroke-width: 0.8"/>
      </defs>
      <g>
       <use xlink:href="#md181c5e755" x="390.54832" y="734.349342" style="stroke: #000000; stroke-width: 0.8"/>
      </g>
     </g>
    </g>
    <g id="xtick_2">
     <g id="line2d_2">
      <g>
       <use xlink:href="#md181c5e755" x="835.60082" y="734.349342" style="stroke: #000000; stroke-width: 0.8"/>
      </g>
     </g>
    </g>
    <g id="xtick_3">
     <g id="line2d_3">
      <g>
       <use xlink:href="#md181c5e755" x="1280.65332" y="734.349342" style="stroke: #000000; stroke-width: 0.8"/>
      </g>
     </g>
    </g>
    <g id="xtick_4">
     <g id="line2d_4">
      <g>
       <use xlink:href="#md181c5e755" x="1725.70582" y="734.349342" style="stroke: #000000; stroke-width: 0.8"/>
      </g>
     </g>
    </g>
    <g id="xtick_5">
     <g id="line2d_5">
      <g>
       <use xlink:href="#md181c5e755" x="2170.75832" y="734.349342" style="stroke: #000000; stroke-width: 0.8"/>
      </g>
     </g>
    </g>
    <g id="xtick_6">
     <g id="line2d_6">
      <g>
       <use xlink:href="#md181c5e755" x="2615.81082" y="734.349342" style="stroke: #000000; stroke-width: 0.8"/>
      </g>
     </g>
    </g>
    <g id="xtick_7">
     <g id="line2d_7">
      <g>
       <use xlink:href="#md181c5e755" x="3060.86332" y="734.349342" style="stroke: #000000; stroke-width: 0.8"/>
      </g>
     </g>
    </g>
    <g id="xtick_8">
     <g id="line2d_8">
      <g>
       <use xlink:href="#md181c5e755" x="3505.91582" y="734.349342" style="stroke: #000000; stroke-width: 0.8"/>
      </g>
     </g>
    </g>
    <g id="xtick_9">
     <g id="line2d_9">
      <g>
       <use xlink:href="#md181c5e755" x="3950.96832" y="734.349342" style="stroke: #000000; stroke-width: 0.8"/>
      </g>
     </g>
    </g>
   </g>
   <g id="matplotlib.axis_2"/>
   <g id="line2d_10">
    <path d="M 1162.366408 734.348801 
L 1232.530155 734.268688 
L 1320.234838 734.017448 
L 1425.480457 733.806508 
L 1443.021394 733.563996 
L 1460.562331 733.193277 
L 1495.644204 732.084065 
L 1530.726077 730.734144 
L 1565.80795 729.168725 
L 1583.348887 728.290035 
L 1600.889823 727.283635 
L 1635.971697 724.999896 
L 1653.512633 724.195763 
L 1671.05357 723.881531 
L 1688.594507 723.933692 
L 1723.67638 724.470806 
L 1793.840126 725.948328 
L 1811.381063 725.789126 
L 1828.921999 724.911091 
L 1846.462936 723.352574 
L 1916.626683 715.623493 
L 1969.249492 710.222438 
L 1986.790429 707.929179 
L 2004.331366 704.994635 
L 2021.872302 701.136847 
L 2039.413239 696.176795 
L 2056.954175 690.289567 
L 2074.495112 684.046824 
L 2092.036049 678.255671 
L 2109.576985 673.567904 
L 2127.117922 669.960263 
L 2144.658859 666.719253 
L 2162.199795 663.252851 
L 2197.281668 656.108168 
L 2214.822605 651.995112 
L 2232.363542 646.634168 
L 2249.904478 640.105911 
L 2284.986351 625.96565 
L 2302.527288 619.363603 
L 2320.068225 613.582387 
L 2337.609161 608.892757 
L 2355.150098 605.364195 
L 2372.691035 602.386118 
L 2390.231971 598.354069 
L 2407.772908 591.269342 
L 2425.313844 579.765335 
L 2442.854781 563.542665 
L 2460.395718 543.186169 
L 2477.936654 519.898853 
L 2495.477591 495.170219 
L 2530.559464 445.142842 
L 2548.100401 419.683932 
L 2565.641337 393.52467 
L 2583.182274 367.149744 
L 2600.723211 341.384265 
L 2635.805084 291.572026 
L 2653.34602 266.262446 
L 2670.886957 240.74541 
L 2688.427894 216.037076 
L 2705.96883 193.137739 
L 2723.509767 172.177055 
L 2741.050703 152.78038 
L 2758.59164 135.581751 
L 2776.132577 122.916765 
L 2793.673513 117.936006 
L 2811.21445 122.873623 
L 2828.755387 137.592955 
L 2846.296323 159.875448 
L 2863.83726 187.085248 
L 2881.378196 217.07736 
L 2898.919133 248.435528 
L 2916.46007 280.954942 
L 2934.001006 314.883605 
L 2951.541943 349.233457 
L 2969.082879 382.07954 
L 2986.623816 412.343765 
L 3004.164753 440.154255 
L 3021.705689 465.832065 
L 3039.246626 489.418717 
L 3056.787563 510.979496 
L 3074.328499 530.741426 
L 3091.869436 548.822568 
L 3109.410372 564.933036 
L 3126.951309 578.511062 
L 3144.492246 589.396509 
L 3162.033182 598.332581 
L 3179.574119 606.57929 
L 3197.115056 614.950587 
L 3232.196929 632.024166 
L 3249.737865 640.793525 
L 3267.278802 649.269871 
L 3284.819739 656.014415 
L 3302.360675 659.894283 
L 3319.901612 661.12882 
L 3337.442548 661.013717 
L 3354.983485 661.072014 
L 3372.524422 662.252976 
L 3390.065358 664.530278 
L 3407.606295 667.486074 
L 3425.147232 671.295816 
L 3442.688168 676.630366 
L 3460.229105 683.632125 
L 3495.310978 699.538192 
L 3512.851915 707.055417 
L 3530.392851 713.788 
L 3547.933788 719.35748 
L 3565.474724 723.591742 
L 3583.015661 726.701228 
L 3600.556598 729.043257 
L 3618.097534 730.817403 
L 3635.638471 732.05834 
L 3653.179408 732.826798 
L 3670.720344 733.284164 
L 3705.802217 733.833773 
L 3740.884091 734.113653 
L 3811.047837 734.202325 
L 4126.784696 734.349342 
L 4653.012795 734.348861 
L 4653.012795 734.348861 
" style="fill: none; stroke: #000000; stroke-width: 10; stroke-linecap: square"/>
   </g>
   <g id="line2d_11">
    <path d="M 390.54832 734.349342 
L 3950.96832 734.349342 
" style="fill: none; stroke: #ccddec; stroke-width: 2; stroke-linecap: square"/>
   </g>
   <g id="text_1">
    <text style="fill: #ccddec; font: 700 100px 'sans-serif'; text-anchor: start" x="168.02207" y="655.430958" transform="rotate(-0, 168.02207, 655.430958)">01_Native</text>
   </g>
  </g>
  <g id="axes_2">
   <g id="patch_3">
    <path d="M 390.54832 952.494145 
L 3950.96832 952.494145 
L 3950.96832 225.344803 
L 390.54832 225.344803 
L 390.54832 952.494145 
z
" style="fill: none"/>
   </g>
   <g id="PolyCollection_2">
    <defs>
     <path id="m2979660566" d="M 1143.092383 -637.115337 
L 1143.092383 -637.114605 
L 1157.996103 -637.114605 
L 1172.899823 -637.114605 
L 1187.803543 -637.114605 
L 1202.707263 -637.114605 
L 1217.610983 -637.114605 
L 1232.514703 -637.114605 
L 1247.418424 -637.114605 
L 1262.322144 -637.114605 
L 1277.225864 -637.114605 
L 1292.129584 -637.114605 
L 1307.033304 -637.114605 
L 1321.937024 -637.114605 
L 1336.840744 -637.114605 
L 1351.744465 -637.114605 
L 1366.648185 -637.114605 
L 1381.551905 -637.114605 
L 1396.455625 -637.114605 
L 1411.359345 -637.114605 
L 1426.263065 -637.114605 
L 1441.166785 -637.114605 
L 1456.070506 -637.114605 
L 1470.974226 -637.114605 
L 1485.877946 -637.114605 
L 1500.781666 -637.114605 
L 1515.685386 -637.114605 
L 1530.589106 -637.114605 
L 1545.492826 -637.114605 
L 1560.396546 -637.114605 
L 1575.300267 -637.114605 
L 1590.203987 -637.114605 
L 1605.107707 -637.114605 
L 1620.011427 -637.114605 
L 1634.915147 -637.114605 
L 1649.818867 -637.114605 
L 1664.722587 -637.114605 
L 1679.626308 -637.114605 
L 1694.530028 -637.114605 
L 1709.433748 -637.114605 
L 1724.337468 -637.114605 
L 1739.241188 -637.114605 
L 1754.144908 -637.114605 
L 1769.048628 -637.114605 
L 1783.952349 -637.114605 
L 1798.856069 -637.114605 
L 1813.759789 -637.114605 
L 1828.663509 -637.114605 
L 1843.567229 -637.114605 
L 1858.470949 -637.114605 
L 1873.374669 -637.114605 
L 1888.278389 -637.114605 
L 1903.18211 -637.114605 
L 1918.08583 -637.114605 
L 1932.98955 -637.114605 
L 1947.89327 -637.114605 
L 1962.79699 -637.114605 
L 1977.70071 -637.114605 
L 1992.60443 -637.114605 
L 2007.508151 -637.114605 
L 2022.411871 -637.114605 
L 2037.315591 -637.114605 
L 2052.219311 -637.114605 
L 2067.123031 -637.114605 
L 2082.026751 -637.114605 
L 2096.930471 -637.114605 
L 2111.834192 -637.114605 
L 2126.737912 -637.114605 
L 2141.641632 -637.114605 
L 2156.545352 -637.114605 
L 2171.449072 -637.114605 
L 2186.352792 -637.114605 
L 2201.256512 -637.114605 
L 2216.160232 -637.114605 
L 2231.063953 -637.114605 
L 2245.967673 -637.114605 
L 2260.871393 -637.114605 
L 2275.775113 -637.114605 
L 2290.678833 -637.114605 
L 2305.582553 -637.114605 
L 2320.486273 -637.114605 
L 2335.389994 -637.114605 
L 2350.293714 -637.114605 
L 2365.197434 -637.114605 
L 2380.101154 -637.114605 
L 2395.004874 -637.114605 
L 2409.908594 -637.114605 
L 2424.812314 -637.114605 
L 2439.716034 -637.114605 
L 2454.619755 -637.114605 
L 2469.523475 -637.114605 
L 2484.427195 -637.114605 
L 2499.330915 -637.114605 
L 2514.234635 -637.114605 
L 2529.138355 -637.114605 
L 2544.042075 -637.114605 
L 2558.945796 -637.114605 
L 2573.849516 -637.114605 
L 2588.753236 -637.114605 
L 2603.656956 -637.114605 
L 2618.560676 -637.114605 
L 2633.464396 -637.114605 
L 2648.368116 -637.114605 
L 2663.271837 -637.114605 
L 2678.175557 -637.114605 
L 2693.079277 -637.114605 
L 2707.982997 -637.114605 
L 2722.886717 -637.114605 
L 2737.790437 -637.114605 
L 2752.694157 -637.114605 
L 2767.597877 -637.114605 
L 2782.501598 -637.114605 
L 2797.405318 -637.114605 
L 2812.309038 -637.114605 
L 2827.212758 -637.114605 
L 2842.116478 -637.114605 
L 2857.020198 -637.114605 
L 2871.923918 -637.114605 
L 2886.827639 -637.114605 
L 2901.731359 -637.114605 
L 2916.635079 -637.114605 
L 2931.538799 -637.114605 
L 2946.442519 -637.114605 
L 2961.346239 -637.114605 
L 2976.249959 -637.114605 
L 2991.15368 -637.114605 
L 3006.0574 -637.114605 
L 3020.96112 -637.114605 
L 3035.86484 -637.114605 
L 3050.76856 -637.114605 
L 3065.67228 -637.114605 
L 3080.576 -637.114605 
L 3095.47972 -637.114605 
L 3110.383441 -637.114605 
L 3125.287161 -637.114605 
L 3140.190881 -637.114605 
L 3155.094601 -637.114605 
L 3169.998321 -637.114605 
L 3184.902041 -637.114605 
L 3199.805761 -637.114605 
L 3214.709482 -637.114605 
L 3229.613202 -637.114605 
L 3244.516922 -637.114605 
L 3259.420642 -637.114605 
L 3274.324362 -637.114605 
L 3289.228082 -637.114605 
L 3304.131802 -637.114605 
L 3319.035523 -637.114605 
L 3333.939243 -637.114605 
L 3348.842963 -637.114605 
L 3363.746683 -637.114605 
L 3378.650403 -637.114605 
L 3393.554123 -637.114605 
L 3408.457843 -637.114605 
L 3423.361563 -637.114605 
L 3438.265284 -637.114605 
L 3453.169004 -637.114605 
L 3468.072724 -637.114605 
L 3482.976444 -637.114605 
L 3497.880164 -637.114605 
L 3512.783884 -637.114605 
L 3527.687604 -637.114605 
L 3542.591325 -637.114605 
L 3557.495045 -637.114605 
L 3572.398765 -637.114605 
L 3587.302485 -637.114605 
L 3602.206205 -637.114605 
L 3617.109925 -637.114605 
L 3632.013645 -637.114605 
L 3646.917366 -637.114605 
L 3661.821086 -637.114605 
L 3676.724806 -637.114605 
L 3691.628526 -637.114605 
L 3706.532246 -637.114605 
L 3721.435966 -637.114605 
L 3736.339686 -637.114605 
L 3751.243406 -637.114605 
L 3766.147127 -637.114605 
L 3781.050847 -637.114605 
L 3795.954567 -637.114605 
L 3810.858287 -637.114605 
L 3825.762007 -637.114605 
L 3840.665727 -637.114605 
L 3855.569447 -637.114605 
L 3870.473168 -637.114605 
L 3885.376888 -637.114605 
L 3900.280608 -637.114605 
L 3915.184328 -637.114605 
L 3930.088048 -637.114605 
L 3944.991768 -637.114605 
L 3959.895488 -637.114605 
L 3974.799208 -637.114605 
L 3989.702929 -637.114605 
L 4004.606649 -637.114605 
L 4019.510369 -637.114605 
L 4034.414089 -637.114605 
L 4049.317809 -637.114605 
L 4064.221529 -637.114605 
L 4079.125249 -637.114605 
L 4094.02897 -637.114605 
L 4108.93269 -637.114605 
L 4108.93269 -637.115246 
L 4108.93269 -637.115246 
L 4094.02897 -637.116697 
L 4079.125249 -637.12031 
L 4064.221529 -637.127599 
L 4049.317809 -637.139325 
L 4034.414089 -637.15391 
L 4019.510369 -637.166929 
L 4004.606649 -637.173269 
L 3989.702929 -637.171028 
L 3974.799208 -637.163698 
L 3959.895488 -637.158009 
L 3944.991768 -637.158864 
L 3930.088048 -637.165534 
L 3915.184328 -637.172226 
L 3900.280608 -637.172564 
L 3885.376888 -637.164302 
L 3870.473168 -637.15042 
L 3855.569447 -637.136202 
L 3840.665727 -637.12549 
L 3825.762007 -637.119206 
L 3810.858287 -637.11633 
L 3795.954567 -637.115609 
L 3781.050847 -637.116806 
L 3766.147127 -637.121587 
L 3751.243406 -637.134483 
L 3736.339686 -637.163675 
L 3721.435966 -637.220894 
L 3706.532246 -637.321037 
L 3691.628526 -637.484759 
L 3676.724806 -637.747694 
L 3661.821086 -638.174754 
L 3646.917366 -638.871568 
L 3632.013645 -639.986949 
L 3617.109925 -641.711129 
L 3602.206205 -644.28074 
L 3587.302485 -647.991113 
L 3572.398765 -653.197085 
L 3557.495045 -660.27835 
L 3542.591325 -669.571642 
L 3527.687604 -681.310637 
L 3512.783884 -695.609451 
L 3497.880164 -712.456631 
L 3482.976444 -731.643663 
L 3468.072724 -752.636635 
L 3453.169004 -774.530267 
L 3438.265284 -796.215066 
L 3423.361563 -816.749345 
L 3408.457843 -835.809659 
L 3393.554123 -853.981424 
L 3378.650403 -872.538619 
L 3363.746683 -892.565887 
L 3348.842963 -913.925477 
L 3333.939243 -934.987741 
L 3319.035523 -953.507613 
L 3304.131802 -967.992363 
L 3289.228082 -978.531713 
L 3274.324362 -986.646725 
L 3259.420642 -994.451364 
L 3244.516922 -1003.677418 
L 3229.613202 -1015.027825 
L 3214.709482 -1028.114483 
L 3199.805761 -1041.875105 
L 3184.902041 -1055.054368 
L 3169.998321 -1066.443594 
L 3155.094601 -1074.962617 
L 3140.190881 -1079.824883 
L 3125.287161 -1080.822822 
L 3110.383441 -1078.528961 
L 3095.47972 -1074.192933 
L 3080.576 -1069.3136 
L 3065.67228 -1065.094612 
L 3050.76856 -1062.062588 
L 3035.86484 -1060.024525 
L 3020.96112 -1058.367162 
L 3006.0574 -1056.502346 
L 2991.15368 -1054.148475 
L 2976.249959 -1051.301558 
L 2961.346239 -1048.059554 
L 2946.442519 -1044.511755 
L 2931.538799 -1040.695486 
L 2916.635079 -1036.55036 
L 2901.731359 -1031.896896 
L 2886.827639 -1026.453526 
L 2871.923918 -1019.843379 
L 2857.020198 -1011.636631 
L 2842.116478 -1001.551988 
L 2827.212758 -989.768284 
L 2812.309038 -977.077873 
L 2797.405318 -964.673278 
L 2782.501598 -953.639417 
L 2767.597877 -944.432236 
L 2752.694157 -936.638755 
L 2737.790437 -929.188332 
L 2722.886717 -920.952817 
L 2707.982997 -911.398884 
L 2693.079277 -900.857295 
L 2678.175557 -890.216086 
L 2663.271837 -880.26 
L 2648.368116 -871.11802 
L 2633.464396 -862.19487 
L 2618.560676 -852.650513 
L 2603.656956 -842.110228 
L 2588.753236 -831.04736 
L 2573.849516 -820.469434 
L 2558.945796 -811.157182 
L 2544.042075 -803.169076 
L 2529.138355 -796.039107 
L 2514.234635 -789.351097 
L 2499.330915 -783.05821 
L 2484.427195 -777.325612 
L 2469.523475 -772.201446 
L 2454.619755 -767.476926 
L 2439.716034 -762.780536 
L 2424.812314 -757.730579 
L 2409.908594 -752.039128 
L 2395.004874 -745.599475 
L 2380.101154 -738.564148 
L 2365.197434 -731.314779 
L 2350.293714 -724.265654 
L 2335.389994 -717.628717 
L 2320.486273 -711.354003 
L 2305.582553 -705.298857 
L 2290.678833 -699.446088 
L 2275.775113 -693.965244 
L 2260.871393 -689.103405 
L 2245.967673 -685.044795 
L 2231.063953 -681.839127 
L 2216.160232 -679.3893 
L 2201.256512 -677.466269 
L 2186.352792 -675.757878 
L 2171.449072 -673.960215 
L 2156.545352 -671.880427 
L 2141.641632 -669.500244 
L 2126.737912 -666.966896 
L 2111.834192 -664.508847 
L 2096.930471 -662.311635 
L 2082.026751 -660.428699 
L 2067.123031 -658.79864 
L 2052.219311 -657.358555 
L 2037.315591 -656.14176 
L 2022.411871 -655.249098 
L 2007.508151 -654.715396 
L 1992.60443 -654.418092 
L 1977.70071 -654.139349 
L 1962.79699 -653.727923 
L 1947.89327 -653.199457 
L 1932.98955 -652.681908 
L 1918.08583 -652.274329 
L 1903.18211 -651.961792 
L 1888.278389 -651.644571 
L 1873.374669 -651.2117 
L 1858.470949 -650.573834 
L 1843.567229 -649.661685 
L 1828.663509 -648.448358 
L 1813.759789 -646.999129 
L 1798.856069 -645.485404 
L 1783.952349 -644.121023 
L 1769.048628 -643.05877 
L 1754.144908 -642.324454 
L 1739.241188 -641.828255 
L 1724.337468 -641.429263 
L 1709.433748 -641.003154 
L 1694.530028 -640.483195 
L 1679.626308 -639.871939 
L 1664.722587 -639.227939 
L 1649.818867 -638.631739 
L 1634.915147 -638.145873 
L 1620.011427 -637.791795 
L 1605.107707 -637.554193 
L 1590.203987 -637.401267 
L 1575.300267 -637.302572 
L 1560.396546 -637.236549 
L 1545.492826 -637.190795 
L 1530.589106 -637.159711 
L 1515.685386 -637.141675 
L 1500.781666 -637.136783 
L 1485.877946 -637.145538 
L 1470.974226 -637.167594 
L 1456.070506 -637.199858 
L 1441.166785 -637.235423 
L 1426.263065 -637.265748 
L 1411.359345 -637.286042 
L 1396.455625 -637.300134 
L 1381.551905 -637.320438 
L 1366.648185 -637.361829 
L 1351.744465 -637.432232 
L 1336.840744 -637.524782 
L 1321.937024 -637.616211 
L 1307.033304 -637.674479 
L 1292.129584 -637.674146 
L 1277.225864 -637.610943 
L 1262.322144 -637.504419 
L 1247.418424 -637.386083 
L 1232.514703 -637.282813 
L 1217.610983 -637.20756 
L 1202.707263 -637.160381 
L 1187.803543 -637.134586 
L 1172.899823 -637.122267 
L 1157.996103 -637.117159 
L 1143.092383 -637.115337 
z
" style="stroke: #9ab4d6; stroke-width: 10"/>
    </defs>
    <g>
     <use xlink:href="#m2979660566" x="0" y="1589.60875" style="fill: #9ab4d6; stroke: #9ab4d6; stroke-width: 10"/>
    </g>
   </g>
   <g id="matplotlib.axis_3">
    <g id="xtick_10">
     <g id="line2d_12">
      <g>
       <use xlink:href="#md181c5e755" x="390.54832" y="952.494145" style="stroke: #000000; stroke-width: 0.8"/>
      </g>
     </g>
    </g>
    <g id="xtick_11">
     <g id="line2d_13">
      <g>
       <use xlink:href="#md181c5e755" x="835.60082" y="952.494145" style="stroke: #000000; stroke-width: 0.8"/>
      </g>
     </g>
    </g>
    <g id="xtick_12">
     <g id="line2d_14">
      <g>
       <use xlink:href="#md181c5e755" x="1280.65332" y="952.494145" style="stroke: #000000; stroke-width: 0.8"/>
      </g>
     </g>
    </g>
    <g id="xtick_13">
     <g id="line2d_15">
      <g>
       <use xlink:href="#md181c5e755" x="1725.70582" y="952.494145" style="stroke: #000000; stroke-width: 0.8"/>
      </g>
     </g>
    </g>
    <g id="xtick_14">
     <g id="line2d_16">
      <g>
       <use xlink:href="#md181c5e755" x="2170.75832" y="952.494145" style="stroke: #000000; stroke-width: 0.8"/>
      </g>
     </g>
    </g>
    <g id="xtick_15">
     <g id="line2d_17">
      <g>
       <use xlink:href="#md181c5e755" x="2615.81082" y="952.494145" style="stroke: #000000; stroke-width: 0.8"/>
      </g>
     </g>
    </g>
    <g id="xtick_16">
     <g id="line2d_18">
      <g>
       <use xlink:href="#md181c5e755" x="3060.86332" y="952.494145" style="stroke: #000000; stroke-width: 0.8"/>
      </g>
     </g>
    </g>
    <g id="xtick_17">
     <g id="line2d_19">
      <g>
       <use xlink:href="#md181c5e755" x="3505.91582" y="952.494145" style="stroke: #000000; stroke-width: 0.8"/>
      </g>
     </g>
    </g>
    <g id="xtick_18">
     <g id="line2d_20">
      <g>
       <use xlink:href="#md181c5e755" x="3950.96832" y="952.494145" style="stroke: #000000; stroke-width: 0.8"/>
      </g>
     </g>
    </g>
   </g>
   <g id="matplotlib.axis_4"/>
   <g id="line2d_21">
    <path d="M 1143.092383 952.493413 
L 1217.610983 952.40119 
L 1307.033304 951.934271 
L 1456.070506 952.408892 
L 1515.685386 952.467075 
L 1575.300267 952.306178 
L 1605.107707 952.054557 
L 1620.011427 951.816955 
L 1634.915147 951.462877 
L 1664.722587 950.380811 
L 1694.530028 949.125555 
L 1724.337468 948.179487 
L 1754.144908 947.284296 
L 1769.048628 946.54998 
L 1783.952349 945.487727 
L 1798.856069 944.123346 
L 1828.663509 941.160392 
L 1843.567229 939.947065 
L 1858.470949 939.034916 
L 1873.374669 938.39705 
L 1888.278389 937.964179 
L 1932.98955 936.926842 
L 1977.70071 935.469401 
L 2007.508151 934.893354 
L 2022.411871 934.359652 
L 2037.315591 933.46699 
L 2052.219311 932.250195 
L 2067.123031 930.81011 
L 2082.026751 929.180051 
L 2096.930471 927.297115 
L 2111.834192 925.099903 
L 2156.545352 917.728323 
L 2171.449072 915.648535 
L 2216.160232 910.21945 
L 2231.063953 907.769623 
L 2245.967673 904.563955 
L 2260.871393 900.505345 
L 2275.775113 895.643506 
L 2290.678833 890.162662 
L 2305.582553 884.309893 
L 2320.486273 878.254747 
L 2335.389994 871.980033 
L 2350.293714 865.343096 
L 2365.197434 858.293971 
L 2380.101154 851.044602 
L 2395.004874 844.009275 
L 2409.908594 837.569622 
L 2424.812314 831.878171 
L 2439.716034 826.828214 
L 2469.523475 817.407304 
L 2484.427195 812.283138 
L 2499.330915 806.55054 
L 2514.234635 800.257653 
L 2529.138355 793.569643 
L 2544.042075 786.439674 
L 2558.945796 778.451568 
L 2573.849516 769.139316 
L 2588.753236 758.56139 
L 2603.656956 747.498522 
L 2618.560676 736.958237 
L 2633.464396 727.41388 
L 2648.368116 718.49073 
L 2663.271837 709.34875 
L 2678.175557 699.392664 
L 2707.982997 678.209866 
L 2722.886717 668.655933 
L 2737.790437 660.420418 
L 2752.694157 652.969995 
L 2767.597877 645.176514 
L 2782.501598 635.969333 
L 2797.405318 624.935472 
L 2812.309038 612.530877 
L 2827.212758 599.840466 
L 2842.116478 588.056762 
L 2857.020198 577.972119 
L 2871.923918 569.765371 
L 2886.827639 563.155224 
L 2901.731359 557.711854 
L 2916.635079 553.05839 
L 2931.538799 548.913264 
L 2946.442519 545.096995 
L 2961.346239 541.549196 
L 2976.249959 538.307192 
L 2991.15368 535.460275 
L 3006.0574 533.106404 
L 3020.96112 531.241588 
L 3035.86484 529.584225 
L 3050.76856 527.546162 
L 3065.67228 524.514138 
L 3080.576 520.29515 
L 3095.47972 515.415817 
L 3110.383441 511.079789 
L 3125.287161 508.785928 
L 3140.190881 509.783867 
L 3155.094601 514.646133 
L 3169.998321 523.165156 
L 3184.902041 534.554382 
L 3199.805761 547.733645 
L 3214.709482 561.494267 
L 3229.613202 574.580925 
L 3244.516922 585.931332 
L 3259.420642 595.157386 
L 3274.324362 602.962025 
L 3289.228082 611.077037 
L 3304.131802 621.616387 
L 3319.035523 636.101137 
L 3333.939243 654.621009 
L 3348.842963 675.683273 
L 3363.746683 697.042863 
L 3378.650403 717.070131 
L 3393.554123 735.627326 
L 3408.457843 753.799091 
L 3423.361563 772.859405 
L 3438.265284 793.393684 
L 3453.169004 815.078483 
L 3468.072724 836.972115 
L 3482.976444 857.965087 
L 3497.880164 877.152119 
L 3512.783884 893.999299 
L 3527.687604 908.298113 
L 3542.591325 920.037108 
L 3557.495045 929.3304 
L 3572.398765 936.411665 
L 3587.302485 941.617637 
L 3602.206205 945.32801 
L 3617.109925 947.897621 
L 3632.013645 949.621801 
L 3646.917366 950.737182 
L 3661.821086 951.433996 
L 3676.724806 951.861056 
L 3706.532246 952.287713 
L 3736.339686 952.445075 
L 3810.858287 952.49242 
L 4108.93269 952.493504 
L 4108.93269 952.493504 
" style="fill: none; stroke: #000000; stroke-width: 10; stroke-linecap: square"/>
   </g>
   <g id="line2d_22">
    <path d="M 390.54832 952.494145 
L 3950.96832 952.494145 
" style="fill: none; stroke: #9ab4d6; stroke-width: 2; stroke-linecap: square"/>
   </g>
   <g id="text_2">
    <text style="fill: #9ab4d6; font: 700 100px 'sans-serif'; text-anchor: start" x="168.02207" y="873.57576" transform="rotate(-0, 168.02207, 873.57576)">02_Misfolded</text>
   </g>
  </g>
  <g id="axes_3">
   <g id="patch_4">
    <path d="M 390.54832 1170.638947 
L 3950.96832 1170.638947 
L 3950.96832 443.489605 
L 390.54832 443.489605 
L 390.54832 1170.638947 
z
" style="fill: none"/>
   </g>
   <g id="PolyCollection_3">
    <defs>
     <path id="m63bff846d9" d="M 7.2 -418.970376 
L 7.2 -418.969803 
L 26.753931 -418.969803 
L 46.307862 -418.969803 
L 65.861792 -418.969803 
L 85.415723 -418.969803 
L 104.969654 -418.969803 
L 124.523585 -418.969803 
L 144.077515 -418.969803 
L 163.631446 -418.969803 
L 183.185377 -418.969803 
L 202.739308 -418.969803 
L 222.293238 -418.969803 
L 241.847169 -418.969803 
L 261.4011 -418.969803 
L 280.955031 -418.969803 
L 300.508961 -418.969803 
L 320.062892 -418.969803 
L 339.616823 -418.969803 
L 359.170754 -418.969803 
L 378.724685 -418.969803 
L 398.278615 -418.969803 
L 417.832546 -418.969803 
L 437.386477 -418.969803 
L 456.940408 -418.969803 
L 476.494338 -418.969803 
L 496.048269 -418.969803 
L 515.6022 -418.969803 
L 535.156131 -418.969803 
L 554.710061 -418.969803 
L 574.263992 -418.969803 
L 593.817923 -418.969803 
L 613.371854 -418.969803 
L 632.925784 -418.969803 
L 652.479715 -418.969803 
L 672.033646 -418.969803 
L 691.587577 -418.969803 
L 711.141508 -418.969803 
L 730.695438 -418.969803 
L 750.249369 -418.969803 
L 769.8033 -418.969803 
L 789.357231 -418.969803 
L 808.911161 -418.969803 
L 828.465092 -418.969803 
L 848.019023 -418.969803 
L 867.572954 -418.969803 
L 887.126884 -418.969803 
L 906.680815 -418.969803 
L 926.234746 -418.969803 
L 945.788677 -418.969803 
L 965.342607 -418.969803 
L 984.896538 -418.969803 
L 1004.450469 -418.969803 
L 1024.0044 -418.969803 
L 1043.55833 -418.969803 
L 1063.112261 -418.969803 
L 1082.666192 -418.969803 
L 1102.220123 -418.969803 
L 1121.774054 -418.969803 
L 1141.327984 -418.969803 
L 1160.881915 -418.969803 
L 1180.435846 -418.969803 
L 1199.989777 -418.969803 
L 1219.543707 -418.969803 
L 1239.097638 -418.969803 
L 1258.651569 -418.969803 
L 1278.2055 -418.969803 
L 1297.75943 -418.969803 
L 1317.313361 -418.969803 
L 1336.867292 -418.969803 
L 1356.421223 -418.969803 
L 1375.975153 -418.969803 
L 1395.529084 -418.969803 
L 1415.083015 -418.969803 
L 1434.636946 -418.969803 
L 1454.190877 -418.969803 
L 1473.744807 -418.969803 
L 1493.298738 -418.969803 
L 1512.852669 -418.969803 
L 1532.4066 -418.969803 
L 1551.96053 -418.969803 
L 1571.514461 -418.969803 
L 1591.068392 -418.969803 
L 1610.622323 -418.969803 
L 1630.176253 -418.969803 
L 1649.730184 -418.969803 
L 1669.284115 -418.969803 
L 1688.838046 -418.969803 
L 1708.391976 -418.969803 
L 1727.945907 -418.969803 
L 1747.499838 -418.969803 
L 1767.053769 -418.969803 
L 1786.6077 -418.969803 
L 1806.16163 -418.969803 
L 1825.715561 -418.969803 
L 1845.269492 -418.969803 
L 1864.823423 -418.969803 
L 1884.377353 -418.969803 
L 1903.931284 -418.969803 
L 1923.485215 -418.969803 
L 1943.039146 -418.969803 
L 1962.593076 -418.969803 
L 1982.147007 -418.969803 
L 2001.700938 -418.969803 
L 2021.254869 -418.969803 
L 2040.808799 -418.969803 
L 2060.36273 -418.969803 
L 2079.916661 -418.969803 
L 2099.470592 -418.969803 
L 2119.024523 -418.969803 
L 2138.578453 -418.969803 
L 2158.132384 -418.969803 
L 2177.686315 -418.969803 
L 2197.240246 -418.969803 
L 2216.794176 -418.969803 
L 2236.348107 -418.969803 
L 2255.902038 -418.969803 
L 2275.455969 -418.969803 
L 2295.009899 -418.969803 
L 2314.56383 -418.969803 
L 2334.117761 -418.969803 
L 2353.671692 -418.969803 
L 2373.225622 -418.969803 
L 2392.779553 -418.969803 
L 2412.333484 -418.969803 
L 2431.887415 -418.969803 
L 2451.441345 -418.969803 
L 2470.995276 -418.969803 
L 2490.549207 -418.969803 
L 2510.103138 -418.969803 
L 2529.657069 -418.969803 
L 2549.210999 -418.969803 
L 2568.76493 -418.969803 
L 2588.318861 -418.969803 
L 2607.872792 -418.969803 
L 2627.426722 -418.969803 
L 2646.980653 -418.969803 
L 2666.534584 -418.969803 
L 2686.088515 -418.969803 
L 2705.642445 -418.969803 
L 2725.196376 -418.969803 
L 2744.750307 -418.969803 
L 2764.304238 -418.969803 
L 2783.858168 -418.969803 
L 2803.412099 -418.969803 
L 2822.96603 -418.969803 
L 2842.519961 -418.969803 
L 2862.073892 -418.969803 
L 2881.627822 -418.969803 
L 2901.181753 -418.969803 
L 2920.735684 -418.969803 
L 2940.289615 -418.969803 
L 2959.843545 -418.969803 
L 2979.397476 -418.969803 
L 2998.951407 -418.969803 
L 3018.505338 -418.969803 
L 3038.059268 -418.969803 
L 3057.613199 -418.969803 
L 3077.16713 -418.969803 
L 3096.721061 -418.969803 
L 3116.274991 -418.969803 
L 3135.828922 -418.969803 
L 3155.382853 -418.969803 
L 3174.936784 -418.969803 
L 3194.490715 -418.969803 
L 3214.044645 -418.969803 
L 3233.598576 -418.969803 
L 3253.152507 -418.969803 
L 3272.706438 -418.969803 
L 3292.260368 -418.969803 
L 3311.814299 -418.969803 
L 3331.36823 -418.969803 
L 3350.922161 -418.969803 
L 3370.476091 -418.969803 
L 3390.030022 -418.969803 
L 3409.583953 -418.969803 
L 3429.137884 -418.969803 
L 3448.691814 -418.969803 
L 3468.245745 -418.969803 
L 3487.799676 -418.969803 
L 3507.353607 -418.969803 
L 3526.907538 -418.969803 
L 3546.461468 -418.969803 
L 3566.015399 -418.969803 
L 3585.56933 -418.969803 
L 3605.123261 -418.969803 
L 3624.677191 -418.969803 
L 3644.231122 -418.969803 
L 3663.785053 -418.969803 
L 3683.338984 -418.969803 
L 3702.892914 -418.969803 
L 3722.446845 -418.969803 
L 3742.000776 -418.969803 
L 3761.554707 -418.969803 
L 3781.108637 -418.969803 
L 3800.662568 -418.969803 
L 3820.216499 -418.969803 
L 3839.77043 -418.969803 
L 3859.324361 -418.969803 
L 3878.878291 -418.969803 
L 3898.432222 -418.969803 
L 3898.432222 -418.970117 
L 3898.432222 -418.970117 
L 3878.878291 -418.970688 
L 3859.324361 -418.972072 
L 3839.77043 -418.975115 
L 3820.216499 -418.981239 
L 3800.662568 -418.992637 
L 3781.108637 -419.012579 
L 3761.554707 -419.046113 
L 3742.000776 -419.101684 
L 3722.446845 -419.194294 
L 3702.892914 -419.350535 
L 3683.338984 -419.61491 
L 3663.785053 -420.055393 
L 3644.231122 -420.764735 
L 3624.677191 -421.853775 
L 3605.123261 -423.434986 
L 3585.56933 -425.598713 
L 3566.015399 -428.388688 
L 3546.461468 -431.784534 
L 3526.907538 -435.69611 
L 3507.353607 -439.970453 
L 3487.799676 -444.410632 
L 3468.245745 -448.807203 
L 3448.691814 -452.981872 
L 3429.137884 -456.835178 
L 3409.583953 -460.379724 
L 3390.030022 -463.739021 
L 3370.476091 -467.105208 
L 3350.922161 -470.669269 
L 3331.36823 -474.550113 
L 3311.814299 -478.74725 
L 3292.260368 -483.130943 
L 3272.706438 -487.471521 
L 3253.152507 -491.498037 
L 3233.598576 -494.965785 
L 3214.044645 -497.707933 
L 3194.490715 -499.65546 
L 3174.936784 -500.828314 
L 3155.382853 -501.313735 
L 3135.828922 -501.244305 
L 3116.274991 -500.775758 
L 3096.721061 -500.060296 
L 3077.16713 -499.22022 
L 3057.613199 -498.336061 
L 3038.059268 -497.458415 
L 3018.505338 -496.635368 
L 2998.951407 -495.933164 
L 2979.397476 -495.429796 
L 2959.843545 -495.179136 
L 2940.289615 -495.165164 
L 2920.735684 -495.277077 
L 2901.181753 -495.327299 
L 2881.627822 -495.109525 
L 2862.073892 -494.468636 
L 2842.519961 -493.347025 
L 2822.96603 -491.787678 
L 2803.412099 -489.900605 
L 2783.858168 -487.816591 
L 2764.304238 -485.651609 
L 2744.750307 -483.493038 
L 2725.196376 -481.405779 
L 2705.642445 -479.447906 
L 2686.088515 -477.682113 
L 2666.534584 -476.172868 
L 2646.980653 -474.969799 
L 2627.426722 -474.088719 
L 2607.872792 -473.503306 
L 2588.318861 -473.151244 
L 2568.76493 -472.948036 
L 2549.210999 -472.799173 
L 2529.657069 -472.607525 
L 2510.103138 -472.280358 
L 2490.549207 -471.742266 
L 2470.995276 -470.955029 
L 2451.441345 -469.936641 
L 2431.887415 -468.76636 
L 2412.333484 -467.566125 
L 2392.779553 -466.461174 
L 2373.225622 -465.536671 
L 2353.671692 -464.811979 
L 2334.117761 -464.244736 
L 2314.56383 -463.759465 
L 2295.009899 -463.283431 
L 2275.455969 -462.773654 
L 2255.902038 -462.228956 
L 2236.348107 -461.688903 
L 2216.794176 -461.222815 
L 2197.240246 -460.911385 
L 2177.686315 -460.825961 
L 2158.132384 -461.014233 
L 2138.578453 -461.499515 
L 2119.024523 -462.292111 
L 2099.470592 -463.401943 
L 2079.916661 -464.84014 
L 2060.36273 -466.606266 
L 2040.808799 -468.671033 
L 2021.254869 -470.971165 
L 2001.700938 -473.426421 
L 1982.147007 -475.972032 
L 1962.593076 -478.586142 
L 1943.039146 -481.293778 
L 1923.485215 -484.146187 
L 1903.931284 -487.192715 
L 1884.377353 -490.466624 
L 1864.823423 -493.994833 
L 1845.269492 -497.826197 
L 1825.715561 -502.06496 
L 1806.16163 -506.896572 
L 1786.6077 -512.597132 
L 1767.053769 -519.522822 
L 1747.499838 -528.083439 
L 1727.945907 -538.713664 
L 1708.391976 -551.860075 
L 1688.838046 -567.993964 
L 1669.284115 -587.641316 
L 1649.730184 -611.403845 
L 1630.176253 -639.941458 
L 1610.622323 -673.898384 
L 1591.068392 -713.770585 
L 1571.514461 -759.718973 
L 1551.96053 -811.334623 
L 1532.4066 -867.37777 
L 1512.852669 -925.555857 
L 1493.298738 -982.459341 
L 1473.744807 -1033.786503 
L 1454.190877 -1074.915632 
L 1434.636946 -1101.734965 
L 1415.083015 -1111.492986 
L 1395.529084 -1103.37665 
L 1375.975153 -1078.606901 
L 1356.421223 -1040.025766 
L 1336.867292 -991.348855 
L 1317.313361 -936.375794 
L 1297.75943 -878.430947 
L 1278.2055 -820.157914 
L 1258.651569 -763.598791 
L 1239.097638 -710.369187 
L 1219.543707 -661.758406 
L 1199.989777 -618.704083 
L 1180.435846 -581.707535 
L 1160.881915 -550.790525 
L 1141.327984 -525.547855 
L 1121.774054 -505.28188 
L 1102.220123 -489.166329 
L 1082.666192 -476.388069 
L 1063.112261 -466.238016 
L 1043.55833 -458.146234 
L 1024.0044 -451.673142 
L 1004.450469 -446.477725 
L 984.896538 -442.284488 
L 965.342607 -438.863869 
L 945.788677 -436.028877 
L 926.234746 -433.640315 
L 906.680815 -431.609069 
L 887.126884 -429.887777 
L 867.572954 -428.452131 
L 848.019023 -427.279226 
L 828.465092 -426.332544 
L 808.911161 -425.559518 
L 789.357231 -424.900818 
L 769.8033 -424.304873 
L 750.249369 -423.739578 
L 730.695438 -423.195767 
L 711.141508 -422.681681 
L 691.587577 -422.212116 
L 672.033646 -421.798074 
L 652.479715 -421.441623 
L 632.925784 -421.137002 
L 613.371854 -420.875223 
L 593.817923 -420.648213 
L 574.263992 -420.450336 
L 554.710061 -420.27789 
L 535.156131 -420.128269 
L 515.6022 -419.999651 
L 496.048269 -419.890811 
L 476.494338 -419.800507 
L 456.940408 -419.72666 
L 437.386477 -419.666031 
L 417.832546 -419.614754 
L 398.278615 -419.569298 
L 378.724685 -419.527217 
L 359.170754 -419.487391 
L 339.616823 -419.449837 
L 320.062892 -419.415175 
L 300.508961 -419.383748 
L 280.955031 -419.354633 
L 261.4011 -419.325239 
L 241.847169 -419.292076 
L 222.293238 -419.252503 
L 202.739308 -419.206367 
L 183.185377 -419.156446 
L 163.631446 -419.107409 
L 144.077515 -419.063974 
L 124.523585 -419.029312 
L 104.969654 -419.004376 
L 85.415723 -418.988198 
L 65.861792 -418.978735 
L 46.307862 -418.973748 
L 26.753931 -418.971383 
L 7.2 -418.970376 
z
" style="stroke: #8c74b5; stroke-width: 10"/>
    </defs>
    <g>
     <use xlink:href="#m63bff846d9" x="0" y="1589.60875" style="fill: #8c74b5; stroke: #8c74b5; stroke-width: 10"/>
    </g>
   </g>
   <g id="matplotlib.axis_5">
    <g id="xtick_19">
     <g id="line2d_23">
      <g>
       <use xlink:href="#md181c5e755" x="390.54832" y="1170.638947" style="stroke: #000000; stroke-width: 0.8"/>
      </g>
     </g>
    </g>
    <g id="xtick_20">
     <g id="line2d_24">
      <g>
       <use xlink:href="#md181c5e755" x="835.60082" y="1170.638947" style="stroke: #000000; stroke-width: 0.8"/>
      </g>
     </g>
    </g>
    <g id="xtick_21">
     <g id="line2d_25">
      <g>
       <use xlink:href="#md181c5e755" x="1280.65332" y="1170.638947" style="stroke: #000000; stroke-width: 0.8"/>
      </g>
     </g>
    </g>
    <g id="xtick_22">
     <g id="line2d_26">
      <g>
       <use xlink:href="#md181c5e755" x="1725.70582" y="1170.638947" style="stroke: #000000; stroke-width: 0.8"/>
      </g>
     </g>
    </g>
    <g id="xtick_23">
     <g id="line2d_27">
      <g>
       <use xlink:href="#md181c5e755" x="2170.75832" y="1170.638947" style="stroke: #000000; stroke-width: 0.8"/>
      </g>
     </g>
    </g>
    <g id="xtick_24">
     <g id="line2d_28">
      <g>
       <use xlink:href="#md181c5e755" x="2615.81082" y="1170.638947" style="stroke: #000000; stroke-width: 0.8"/>
      </g>
     </g>
    </g>
    <g id="xtick_25">
     <g id="line2d_29">
      <g>
       <use xlink:href="#md181c5e755" x="3060.86332" y="1170.638947" style="stroke: #000000; stroke-width: 0.8"/>
      </g>
     </g>
    </g>
    <g id="xtick_26">
     <g id="line2d_30">
      <g>
       <use xlink:href="#md181c5e755" x="3505.91582" y="1170.638947" style="stroke: #000000; stroke-width: 0.8"/>
      </g>
     </g>
    </g>
    <g id="xtick_27">
     <g id="line2d_31">
      <g>
       <use xlink:href="#md181c5e755" x="3950.96832" y="1170.638947" style="stroke: #000000; stroke-width: 0.8"/>
      </g>
     </g>
    </g>
   </g>
   <g id="matplotlib.axis_6"/>
   <g id="line2d_32">
    <path d="M 7.2 1170.638374 
L 144.077515 1170.544776 
L 515.6022 1169.609099 
L 574.263992 1169.158414 
L 632.925784 1168.471748 
L 672.033646 1167.810676 
L 711.141508 1166.927069 
L 769.8033 1165.303877 
L 808.911161 1164.049232 
L 828.465092 1163.276206 
L 848.019023 1162.329524 
L 867.572954 1161.156619 
L 887.126884 1159.720973 
L 906.680815 1157.999681 
L 926.234746 1155.968435 
L 945.788677 1153.579873 
L 965.342607 1150.744881 
L 984.896538 1147.324262 
L 1004.450469 1143.131025 
L 1024.0044 1137.935608 
L 1043.55833 1131.462516 
L 1063.112261 1123.370734 
L 1082.666192 1113.220681 
L 1102.220123 1100.442421 
L 1121.774054 1084.32687 
L 1141.327984 1064.060895 
L 1160.881915 1038.818225 
L 1180.435846 1007.901215 
L 1199.989777 970.904667 
L 1219.543707 927.850344 
L 1239.097638 879.239563 
L 1258.651569 826.009959 
L 1278.2055 769.450836 
L 1317.313361 653.232956 
L 1336.867292 598.259895 
L 1356.421223 549.582984 
L 1375.975153 511.001849 
L 1395.529084 486.2321 
L 1415.083015 478.115764 
L 1434.636946 487.873785 
L 1454.190877 514.693118 
L 1473.744807 555.822247 
L 1493.298738 607.149409 
L 1512.852669 664.052893 
L 1532.4066 722.23098 
L 1551.96053 778.274127 
L 1571.514461 829.889777 
L 1591.068392 875.838165 
L 1610.622323 915.710366 
L 1630.176253 949.667292 
L 1649.730184 978.204905 
L 1669.284115 1001.967434 
L 1688.838046 1021.614786 
L 1708.391976 1037.748675 
L 1727.945907 1050.895086 
L 1747.499838 1061.525311 
L 1767.053769 1070.085928 
L 1786.6077 1077.011618 
L 1806.16163 1082.712178 
L 1825.715561 1087.54379 
L 1845.269492 1091.782553 
L 1864.823423 1095.613917 
L 1884.377353 1099.142126 
L 1903.931284 1102.416035 
L 1923.485215 1105.462563 
L 1943.039146 1108.314972 
L 1982.147007 1113.636718 
L 2021.254869 1118.637585 
L 2040.808799 1120.937717 
L 2060.36273 1123.002484 
L 2079.916661 1124.76861 
L 2099.470592 1126.206807 
L 2119.024523 1127.316639 
L 2138.578453 1128.109235 
L 2158.132384 1128.594517 
L 2177.686315 1128.782789 
L 2197.240246 1128.697365 
L 2216.794176 1128.385935 
L 2255.902038 1127.379794 
L 2314.56383 1125.849285 
L 2353.671692 1124.796771 
L 2373.225622 1124.072079 
L 2392.779553 1123.147576 
L 2431.887415 1120.84239 
L 2451.441345 1119.672109 
L 2470.995276 1118.653721 
L 2490.549207 1117.866484 
L 2510.103138 1117.328392 
L 2529.657069 1117.001225 
L 2588.318861 1116.457506 
L 2607.872792 1116.105444 
L 2627.426722 1115.520031 
L 2646.980653 1114.638951 
L 2666.534584 1113.435882 
L 2686.088515 1111.926637 
L 2705.642445 1110.160844 
L 2725.196376 1108.202971 
L 2764.304238 1103.957141 
L 2803.412099 1099.708145 
L 2822.96603 1097.821072 
L 2842.519961 1096.261725 
L 2862.073892 1095.140114 
L 2881.627822 1094.499225 
L 2901.181753 1094.281451 
L 2959.843545 1094.429614 
L 2979.397476 1094.178954 
L 2998.951407 1093.675586 
L 3018.505338 1092.973382 
L 3057.613199 1091.272689 
L 3096.721061 1089.548454 
L 3116.274991 1088.832992 
L 3135.828922 1088.364445 
L 3155.382853 1088.295015 
L 3174.936784 1088.780436 
L 3194.490715 1089.95329 
L 3214.044645 1091.900817 
L 3233.598576 1094.642965 
L 3253.152507 1098.110713 
L 3272.706438 1102.137229 
L 3331.36823 1115.058637 
L 3350.922161 1118.939481 
L 3370.476091 1122.503542 
L 3409.583953 1129.229026 
L 3429.137884 1132.773572 
L 3448.691814 1136.626878 
L 3468.245745 1140.801547 
L 3526.907538 1153.91264 
L 3546.461468 1157.824216 
L 3566.015399 1161.220062 
L 3585.56933 1164.010037 
L 3605.123261 1166.173764 
L 3624.677191 1167.754975 
L 3644.231122 1168.844015 
L 3663.785053 1169.553357 
L 3683.338984 1169.99384 
L 3722.446845 1170.414456 
L 3781.108637 1170.596171 
L 3898.432222 1170.638633 
L 3898.432222 1170.638633 
" style="fill: none; stroke: #000000; stroke-width: 10; stroke-linecap: square"/>
   </g>
   <g id="line2d_33">
    <path d="M 390.54832 1170.638947 
L 3950.96832 1170.638947 
" style="fill: none; stroke: #8c74b5; stroke-width: 2; stroke-linecap: square"/>
   </g>
   <g id="text_3">
    <text style="fill: #8c74b5; font: 700 100px 'sans-serif'; text-anchor: start" x="168.02207" y="1091.720563" transform="rotate(-0, 168.02207, 1091.720563)">03_A8A2</text>
   </g>
  </g>
  <g id="axes_4">
   <g id="patch_5">
    <path d="M 390.54832 1388.78375 
L 3950.96832 1388.78375 
L 3950.96832 661.634408 
L 390.54832 661.634408 
L 390.54832 1388.78375 
z
" style="fill: none"/>
   </g>
   <g id="PolyCollection_4">
    <defs>
     <path id="mb5c971212e" d="M 548.565123 -200.825176 
L 548.565123 -200.825 
L 569.429152 -200.825 
L 590.293182 -200.825 
L 611.157212 -200.825 
L 632.021241 -200.825 
L 652.885271 -200.825 
L 673.749301 -200.825 
L 694.61333 -200.825 
L 715.47736 -200.825 
L 736.34139 -200.825 
L 757.205419 -200.825 
L 778.069449 -200.825 
L 798.933479 -200.825 
L 819.797508 -200.825 
L 840.661538 -200.825 
L 861.525568 -200.825 
L 882.389597 -200.825 
L 903.253627 -200.825 
L 924.117657 -200.825 
L 944.981686 -200.825 
L 965.845716 -200.825 
L 986.709746 -200.825 
L 1007.573775 -200.825 
L 1028.437805 -200.825 
L 1049.301835 -200.825 
L 1070.165864 -200.825 
L 1091.029894 -200.825 
L 1111.893924 -200.825 
L 1132.757953 -200.825 
L 1153.621983 -200.825 
L 1174.486013 -200.825 
L 1195.350042 -200.825 
L 1216.214072 -200.825 
L 1237.078102 -200.825 
L 1257.942131 -200.825 
L 1278.806161 -200.825 
L 1299.670191 -200.825 
L 1320.53422 -200.825 
L 1341.39825 -200.825 
L 1362.26228 -200.825 
L 1383.126309 -200.825 
L 1403.990339 -200.825 
L 1424.854369 -200.825 
L 1445.718398 -200.825 
L 1466.582428 -200.825 
L 1487.446458 -200.825 
L 1508.310487 -200.825 
L 1529.174517 -200.825 
L 1550.038547 -200.825 
L 1570.902576 -200.825 
L 1591.766606 -200.825 
L 1612.630636 -200.825 
L 1633.494665 -200.825 
L 1654.358695 -200.825 
L 1675.222725 -200.825 
L 1696.086754 -200.825 
L 1716.950784 -200.825 
L 1737.814814 -200.825 
L 1758.678843 -200.825 
L 1779.542873 -200.825 
L 1800.406903 -200.825 
L 1821.270932 -200.825 
L 1842.134962 -200.825 
L 1862.998992 -200.825 
L 1883.863021 -200.825 
L 1904.727051 -200.825 
L 1925.591081 -200.825 
L 1946.45511 -200.825 
L 1967.31914 -200.825 
L 1988.18317 -200.825 
L 2009.047199 -200.825 
L 2029.911229 -200.825 
L 2050.775259 -200.825 
L 2071.639288 -200.825 
L 2092.503318 -200.825 
L 2113.367348 -200.825 
L 2134.231377 -200.825 
L 2155.095407 -200.825 
L 2175.959437 -200.825 
L 2196.823466 -200.825 
L 2217.687496 -200.825 
L 2238.551526 -200.825 
L 2259.415555 -200.825 
L 2280.279585 -200.825 
L 2301.143615 -200.825 
L 2322.007644 -200.825 
L 2342.871674 -200.825 
L 2363.735704 -200.825 
L 2384.599733 -200.825 
L 2405.463763 -200.825 
L 2426.327793 -200.825 
L 2447.191822 -200.825 
L 2468.055852 -200.825 
L 2488.919882 -200.825 
L 2509.783911 -200.825 
L 2530.647941 -200.825 
L 2551.511971 -200.825 
L 2572.376 -200.825 
L 2593.24003 -200.825 
L 2614.10406 -200.825 
L 2634.968089 -200.825 
L 2655.832119 -200.825 
L 2676.696149 -200.825 
L 2697.560178 -200.825 
L 2718.424208 -200.825 
L 2739.288238 -200.825 
L 2760.152267 -200.825 
L 2781.016297 -200.825 
L 2801.880327 -200.825 
L 2822.744356 -200.825 
L 2843.608386 -200.825 
L 2864.472416 -200.825 
L 2885.336445 -200.825 
L 2906.200475 -200.825 
L 2927.064505 -200.825 
L 2947.928534 -200.825 
L 2968.792564 -200.825 
L 2989.656594 -200.825 
L 3010.520623 -200.825 
L 3031.384653 -200.825 
L 3052.248683 -200.825 
L 3073.112712 -200.825 
L 3093.976742 -200.825 
L 3114.840772 -200.825 
L 3135.704801 -200.825 
L 3156.568831 -200.825 
L 3177.432861 -200.825 
L 3198.29689 -200.825 
L 3219.16092 -200.825 
L 3240.02495 -200.825 
L 3260.888979 -200.825 
L 3281.753009 -200.825 
L 3302.617039 -200.825 
L 3323.481068 -200.825 
L 3344.345098 -200.825 
L 3365.209128 -200.825 
L 3386.073157 -200.825 
L 3406.937187 -200.825 
L 3427.801217 -200.825 
L 3448.665246 -200.825 
L 3469.529276 -200.825 
L 3490.393306 -200.825 
L 3511.257335 -200.825 
L 3532.121365 -200.825 
L 3552.985395 -200.825 
L 3573.849424 -200.825 
L 3594.713454 -200.825 
L 3615.577484 -200.825 
L 3636.441513 -200.825 
L 3657.305543 -200.825 
L 3678.169573 -200.825 
L 3699.033602 -200.825 
L 3719.897632 -200.825 
L 3740.761662 -200.825 
L 3761.625691 -200.825 
L 3782.489721 -200.825 
L 3803.353751 -200.825 
L 3824.21778 -200.825 
L 3845.08181 -200.825 
L 3865.94584 -200.825 
L 3886.809869 -200.825 
L 3907.673899 -200.825 
L 3928.537929 -200.825 
L 3949.401958 -200.825 
L 3970.265988 -200.825 
L 3991.130018 -200.825 
L 4011.994047 -200.825 
L 4032.858077 -200.825 
L 4053.722107 -200.825 
L 4074.586136 -200.825 
L 4095.450166 -200.825 
L 4116.314196 -200.825 
L 4137.178225 -200.825 
L 4158.042255 -200.825 
L 4178.906285 -200.825 
L 4199.770314 -200.825 
L 4220.634344 -200.825 
L 4241.498374 -200.825 
L 4262.362403 -200.825 
L 4283.226433 -200.825 
L 4304.090463 -200.825 
L 4324.954492 -200.825 
L 4345.818522 -200.825 
L 4366.682552 -200.825 
L 4387.546581 -200.825 
L 4408.410611 -200.825 
L 4429.274641 -200.825 
L 4450.13867 -200.825 
L 4471.0027 -200.825 
L 4491.86673 -200.825 
L 4512.730759 -200.825 
L 4533.594789 -200.825 
L 4554.458819 -200.825 
L 4575.322848 -200.825 
L 4596.186878 -200.825 
L 4617.050908 -200.825 
L 4637.914937 -200.825 
L 4658.778967 -200.825 
L 4679.642997 -200.825 
L 4700.507026 -200.825 
L 4700.507026 -200.825163 
L 4700.507026 -200.825163 
L 4679.642997 -200.825517 
L 4658.778967 -200.82638 
L 4637.914937 -200.828112 
L 4617.050908 -200.830929 
L 4596.186878 -200.834571 
L 4575.322848 -200.838171 
L 4554.458819 -200.840696 
L 4533.594789 -200.841799 
L 4512.730759 -200.842339 
L 4491.86673 -200.843937 
L 4471.0027 -200.847829 
L 4450.13867 -200.853943 
L 4429.274641 -200.860878 
L 4408.410611 -200.866661 
L 4387.546581 -200.869776 
L 4366.682552 -200.869962 
L 4345.818522 -200.868396 
L 4324.954492 -200.867169 
L 4304.090463 -200.868431 
L 4283.226433 -200.873947 
L 4262.362403 -200.885381 
L 4241.498374 -200.904652 
L 4220.634344 -200.933167 
L 4199.770314 -200.969701 
L 4178.906285 -201.008866 
L 4158.042255 -201.0425 
L 4137.178225 -201.063797 
L 4116.314196 -201.071037 
L 4095.450166 -201.068004 
L 4074.586136 -201.061122 
L 4053.722107 -201.055768 
L 4032.858077 -201.054244 
L 4011.994047 -201.056517 
L 3991.130018 -201.063138 
L 3970.265988 -201.078239 
L 3949.401958 -201.110043 
L 3928.537929 -201.167803 
L 3907.673899 -201.257054 
L 3886.809869 -201.377062 
L 3865.94584 -201.523283 
L 3845.08181 -201.693999 
L 3824.21778 -201.897248 
L 3803.353751 -202.154538 
L 3782.489721 -202.501089 
L 3761.625691 -202.985588 
L 3740.761662 -203.674487 
L 3719.897632 -204.66659 
L 3699.033602 -206.118905 
L 3678.169573 -208.272656 
L 3657.305543 -211.460664 
L 3636.441513 -216.086748 
L 3615.577484 -222.584689 
L 3594.713454 -231.367262 
L 3573.849424 -242.765813 
L 3552.985395 -256.957563 
L 3532.121365 -273.889451 
L 3511.257335 -293.227347 
L 3490.393306 -314.374071 
L 3469.529276 -336.581001 
L 3448.665246 -359.114996 
L 3427.801217 -381.389584 
L 3406.937187 -402.991705 
L 3386.073157 -423.602458 
L 3365.209128 -442.852768 
L 3344.345098 -460.190756 
L 3323.481068 -474.894367 
L 3302.617039 -486.333348 
L 3281.753009 -494.377673 
L 3260.888979 -499.637684 
L 3240.02495 -503.289175 
L 3219.16092 -506.572527 
L 3198.29689 -510.315538 
L 3177.432861 -514.760057 
L 3156.568831 -519.691623 
L 3135.704801 -524.677726 
L 3114.840772 -529.241709 
L 3093.976742 -532.926761 
L 3073.112712 -535.296978 
L 3052.248683 -535.944976 
L 3031.384653 -534.5498 
L 3010.520623 -530.977012 
L 2989.656594 -525.368376 
L 2968.792564 -518.163503 
L 2947.928534 -510.025845 
L 2927.064505 -501.684707 
L 2906.200475 -493.742429 
L 2885.336445 -486.526367 
L 2864.472416 -480.059249 
L 2843.608386 -474.156372 
L 2822.744356 -468.578239 
L 2801.880327 -463.146918 
L 2781.016297 -457.778601 
L 2760.152267 -452.436952 
L 2739.288238 -447.045323 
L 2718.424208 -441.422351 
L 2697.560178 -435.308419 
L 2676.696149 -428.495146 
L 2655.832119 -420.980666 
L 2634.968089 -413.032449 
L 2614.10406 -405.090152 
L 2593.24003 -397.546471 
L 2572.376 -390.537324 
L 2551.511971 -383.89025 
L 2530.647941 -377.281313 
L 2509.783911 -370.487069 
L 2488.919882 -363.533194 
L 2468.055852 -356.627471 
L 2447.191822 -349.948226 
L 2426.327793 -343.470527 
L 2405.463763 -336.955697 
L 2384.599733 -330.079232 
L 2363.735704 -322.588058 
L 2342.871674 -314.414824 
L 2322.007644 -305.734527 
L 2301.143615 -296.945809 
L 2280.279585 -288.551272 
L 2259.415555 -280.969319 
L 2238.551526 -274.383752 
L 2217.687496 -268.725214 
L 2196.823466 -263.777263 
L 2175.959437 -259.30865 
L 2155.095407 -255.137782 
L 2134.231377 -251.121844 
L 2113.367348 -247.138653 
L 2092.503318 -243.116952 
L 2071.639288 -239.091936 
L 2050.775259 -235.214327 
L 2029.911229 -231.681478 
L 2009.047199 -228.638805 
L 1988.18317 -226.126492 
L 1967.31914 -224.096668 
L 1946.45511 -222.465067 
L 1925.591081 -221.151588 
L 1904.727051 -220.096204 
L 1883.863021 -219.261096 
L 1862.998992 -218.628337 
L 1842.134962 -218.193745 
L 1821.270932 -217.957336 
L 1800.406903 -217.915555 
L 1779.542873 -218.062281 
L 1758.678843 -218.401381 
L 1737.814814 -218.964438 
L 1716.950784 -219.819719 
L 1696.086754 -221.062655 
L 1675.222725 -222.796 
L 1654.358695 -225.123449 
L 1633.494665 -228.171805 
L 1612.630636 -232.125225 
L 1591.766606 -237.232411 
L 1570.902576 -243.75935 
L 1550.038547 -251.891679 
L 1529.174517 -261.614322 
L 1508.310487 -272.609068 
L 1487.446458 -284.21443 
L 1466.582428 -295.470509 
L 1445.718398 -305.234718 
L 1424.854369 -312.34491 
L 1403.990339 -315.820322 
L 1383.126309 -315.072431 
L 1362.26228 -310.054942 
L 1341.39825 -301.288192 
L 1320.53422 -289.754394 
L 1299.670191 -276.703438 
L 1278.806161 -263.41303 
L 1257.942131 -250.956472 
L 1237.078102 -240.047528 
L 1216.214072 -231.007558 
L 1195.350042 -223.836335 
L 1174.486013 -218.325287 
L 1153.621983 -214.163312 
L 1132.757953 -211.020264 
L 1111.893924 -208.609803 
L 1091.029894 -206.727266 
L 1070.165864 -205.253262 
L 1049.301835 -204.125122 
L 1028.437805 -203.296989 
L 1007.573775 -202.713953 
L 986.709746 -202.310156 
L 965.845716 -202.021692 
L 944.981686 -201.799874 
L 924.117657 -201.617211 
L 903.253627 -201.465027 
L 882.389597 -201.344453 
L 861.525568 -201.255426 
L 840.661538 -201.190467 
L 819.797508 -201.136943 
L 798.933479 -201.084438 
L 778.069449 -201.030026 
L 757.205419 -200.977412 
L 736.34139 -200.931986 
L 715.47736 -200.896652 
L 694.61333 -200.871067 
L 673.749301 -200.853249 
L 652.885271 -200.841209 
L 632.021241 -200.833491 
L 611.157212 -200.82897 
L 590.293182 -200.826628 
L 569.429152 -200.825578 
L 548.565123 -200.825176 
z
" style="stroke: #852d90; stroke-width: 10"/>
    </defs>
    <g>
     <use xlink:href="#mb5c971212e" x="0" y="1589.60875" style="fill: #852d90; stroke: #852d90; stroke-width: 10"/>
    </g>
   </g>
   <g id="matplotlib.axis_7">
    <g id="xtick_28">
     <g id="line2d_34">
      <g>
       <use xlink:href="#md181c5e755" x="390.54832" y="1388.78375" style="stroke: #000000; stroke-width: 0.8"/>
      </g>
     </g>
     <g id="text_4">
      <text style="font: 700 100px 'sans-serif'; text-anchor: middle" x="390.54832" y="1467.361875" transform="rotate(-0, 390.54832, 1467.361875)">−0.4</text>
     </g>
    </g>
    <g id="xtick_29">
     <g id="line2d_35">
      <g>
       <use xlink:href="#md181c5e755" x="835.60082" y="1388.78375" style="stroke: #000000; stroke-width: 0.8"/>
      </g>
     </g>
     <g id="text_5">
      <text style="font: 700 100px 'sans-serif'; text-anchor: middle" x="835.60082" y="1467.361875" transform="rotate(-0, 835.60082, 1467.361875)">−0.2</text>
     </g>
    </g>
    <g id="xtick_30">
     <g id="line2d_36">
      <g>
       <use xlink:href="#md181c5e755" x="1280.65332" y="1388.78375" style="stroke: #000000; stroke-width: 0.8"/>
      </g>
     </g>
     <g id="text_6">
      <text style="font: 700 100px 'sans-serif'; text-anchor: middle" x="1280.65332" y="1467.361875" transform="rotate(-0, 1280.65332, 1467.361875)">0.0</text>
     </g>
    </g>
    <g id="xtick_31">
     <g id="line2d_37">
      <g>
       <use xlink:href="#md181c5e755" x="1725.70582" y="1388.78375" style="stroke: #000000; stroke-width: 0.8"/>
      </g>
     </g>
     <g id="text_7">
      <text style="font: 700 100px 'sans-serif'; text-anchor: middle" x="1725.70582" y="1467.361875" transform="rotate(-0, 1725.70582, 1467.361875)">0.2</text>
     </g>
    </g>
    <g id="xtick_32">
     <g id="line2d_38">
      <g>
       <use xlink:href="#md181c5e755" x="2170.75832" y="1388.78375" style="stroke: #000000; stroke-width: 0.8"/>
      </g>
     </g>
     <g id="text_8">
      <text style="font: 700 100px 'sans-serif'; text-anchor: middle" x="2170.75832" y="1467.361875" transform="rotate(-0, 2170.75832, 1467.361875)">0.4</text>
     </g>
    </g>
    <g id="xtick_33">
     <g id="line2d_39">
      <g>
       <use xlink:href="#md181c5e755" x="2615.81082" y="1388.78375" style="stroke: #000000; stroke-width: 0.8"/>
      </g>
     </g>
     <g id="text_9">
      <text style="font: 700 100px 'sans-serif'; text-anchor: middle" x="2615.81082" y="1467.361875" transform="rotate(-0, 2615.81082, 1467.361875)">0.6</text>
     </g>
    </g>
    <g id="xtick_34">
     <g id="line2d_40">
      <g>
       <use xlink:href="#md181c5e755" x="3060.86332" y="1388.78375" style="stroke: #000000; stroke-width: 0.8"/>
      </g>
     </g>
     <g id="text_10">
      <text style="font: 700 100px 'sans-serif'; text-anchor: middle" x="3060.86332" y="1467.361875" transform="rotate(-0, 3060.86332, 1467.361875)">0.8</text>
     </g>
    </g>
    <g id="xtick_35">
     <g id="line2d_41">
      <g>
       <use xlink:href="#md181c5e755" x="3505.91582" y="1388.78375" style="stroke: #000000; stroke-width: 0.8"/>
      </g>
     </g>
     <g id="text_11">
      <text style="font: 700 100px 'sans-serif'; text-anchor: middle" x="3505.91582" y="1467.361875" transform="rotate(-0, 3505.91582, 1467.361875)">1.0</text>
     </g>
    </g>
    <g id="xtick_36">
     <g id="line2d_42">
      <g>
       <use xlink:href="#md181c5e755" x="3950.96832" y="1388.78375" style="stroke: #000000; stroke-width: 0.8"/>
      </g>
     </g>
     <g id="text_12">
      <text style="font: 700 100px 'sans-serif'; text-anchor: middle" x="3950.96832" y="1467.361875" transform="rotate(-0, 3950.96832, 1467.361875)">1.2</text>
     </g>
    </g>
    <g id="text_13">
     <text style="font: 700 100px 'sans-serif'; text-anchor: middle" x="2170.75832" y="1562.674375" transform="rotate(-0, 2170.75832, 1562.674375)">FRET</text>
    </g>
   </g>
   <g id="matplotlib.axis_8"/>
   <g id="line2d_43">
    <path d="M 548.565123 1388.783574 
L 736.34139 1388.676764 
L 882.389597 1388.264297 
L 944.981686 1387.808876 
L 986.709746 1387.298594 
L 1007.573775 1386.894797 
L 1028.437805 1386.311761 
L 1049.301835 1385.483628 
L 1070.165864 1384.355488 
L 1091.029894 1382.881484 
L 1111.893924 1380.998947 
L 1132.757953 1378.588486 
L 1153.621983 1375.445438 
L 1174.486013 1371.283463 
L 1195.350042 1365.772415 
L 1216.214072 1358.601192 
L 1237.078102 1349.561222 
L 1257.942131 1338.652278 
L 1278.806161 1326.19572 
L 1299.670191 1312.905312 
L 1320.53422 1299.854356 
L 1341.39825 1288.320558 
L 1362.26228 1279.553808 
L 1383.126309 1274.536319 
L 1403.990339 1273.788428 
L 1424.854369 1277.26384 
L 1445.718398 1284.374032 
L 1466.582428 1294.138241 
L 1487.446458 1305.39432 
L 1508.310487 1316.999682 
L 1529.174517 1327.994428 
L 1550.038547 1337.717071 
L 1570.902576 1345.8494 
L 1591.766606 1352.376339 
L 1612.630636 1357.483525 
L 1633.494665 1361.436945 
L 1654.358695 1364.485301 
L 1675.222725 1366.81275 
L 1696.086754 1368.546095 
L 1716.950784 1369.789031 
L 1737.814814 1370.644312 
L 1758.678843 1371.207369 
L 1779.542873 1371.546469 
L 1800.406903 1371.693195 
L 1821.270932 1371.651414 
L 1842.134962 1371.415005 
L 1862.998992 1370.980413 
L 1883.863021 1370.347654 
L 1904.727051 1369.512546 
L 1925.591081 1368.457162 
L 1946.45511 1367.143683 
L 1967.31914 1365.512082 
L 1988.18317 1363.482258 
L 2009.047199 1360.969945 
L 2029.911229 1357.927272 
L 2050.775259 1354.394423 
L 2071.639288 1350.516814 
L 2175.959437 1330.3001 
L 2196.823466 1325.831487 
L 2217.687496 1320.883536 
L 2238.551526 1315.224998 
L 2259.415555 1308.639431 
L 2280.279585 1301.057478 
L 2301.143615 1292.662941 
L 2342.871674 1275.193926 
L 2363.735704 1267.020692 
L 2384.599733 1259.529518 
L 2405.463763 1252.653053 
L 2447.191822 1239.660524 
L 2468.055852 1232.981279 
L 2530.647941 1212.327437 
L 2572.376 1199.071426 
L 2593.24003 1192.062279 
L 2614.10406 1184.518598 
L 2655.832119 1168.628084 
L 2676.696149 1161.113604 
L 2697.560178 1154.300331 
L 2718.424208 1148.186399 
L 2739.288238 1142.563427 
L 2822.744356 1121.030511 
L 2843.608386 1115.452378 
L 2864.472416 1109.549501 
L 2885.336445 1103.082383 
L 2906.200475 1095.866321 
L 2927.064505 1087.924043 
L 2947.928534 1079.582905 
L 2968.792564 1071.445247 
L 2989.656594 1064.240374 
L 3010.520623 1058.631738 
L 3031.384653 1055.05895 
L 3052.248683 1053.663774 
L 3073.112712 1054.311772 
L 3093.976742 1056.681989 
L 3114.840772 1060.367041 
L 3135.704801 1064.931024 
L 3177.432861 1074.848693 
L 3198.29689 1079.293212 
L 3219.16092 1083.036223 
L 3240.02495 1086.319575 
L 3260.888979 1089.971066 
L 3281.753009 1095.231077 
L 3302.617039 1103.275402 
L 3323.481068 1114.714383 
L 3344.345098 1129.417994 
L 3365.209128 1146.755982 
L 3386.073157 1166.006292 
L 3406.937187 1186.617045 
L 3427.801217 1208.219166 
L 3448.665246 1230.493754 
L 3469.529276 1253.027749 
L 3490.393306 1275.234679 
L 3511.257335 1296.381403 
L 3532.121365 1315.719299 
L 3552.985395 1332.651187 
L 3573.849424 1346.842937 
L 3594.713454 1358.241488 
L 3615.577484 1367.024061 
L 3636.441513 1373.522002 
L 3657.305543 1378.148086 
L 3678.169573 1381.336094 
L 3699.033602 1383.489845 
L 3719.897632 1384.94216 
L 3740.761662 1385.934263 
L 3761.625691 1386.623162 
L 3782.489721 1387.107661 
L 3824.21778 1387.711502 
L 3886.809869 1388.231688 
L 3949.401958 1388.498707 
L 4053.722107 1388.552982 
L 4178.906285 1388.599884 
L 4304.090463 1388.740319 
L 4700.507026 1388.783587 
L 4700.507026 1388.783587 
" style="fill: none; stroke: #000000; stroke-width: 10; stroke-linecap: square"/>
   </g>
   <g id="line2d_44">
    <path d="M 390.54832 1388.78375 
L 3950.96832 1388.78375 
" style="fill: none; stroke: #852d90; stroke-width: 2; stroke-linecap: square"/>
   </g>
   <g id="text_14">
    <text style="fill: #852d90; font: 700 100px 'sans-serif'; text-anchor: start" x="168.02207" y="1309.865366" transform="rotate(-0, 168.02207, 1309.865366)">04_A8B1</text>
   </g>
  </g>
 </g>
</svg>
