<?xml version="1.0" encoding="utf-8" standalone="no"?>
<!DOCTYPE svg PUBLIC "-//W3C//DTD SVG 1.1//EN"
  "http://www.w3.org/Graphics/SVG/1.1/DTD/svg11.dtd">
<svg xmlns:xlink="http://www.w3.org/1999/xlink" width="460.8pt" height="345.6pt" viewBox="0 0 460.8 345.6" xmlns="http://www.w3.org/2000/svg" version="1.1">
 <metadata>
  <rdf:RDF xmlns:dc="http://purl.org/dc/elements/1.1/" xmlns:cc="http://creativecommons.org/ns#" xmlns:rdf="http://www.w3.org/1999/02/22-rdf-syntax-ns#">
   <cc:Work>
    <dc:type rdf:resource="http://purl.org/dc/dcmitype/StillImage"/>
    <dc:date>2026-05-26T09:34:43.515977</dc:date>
    <dc:format>image/svg+xml</dc:format>
    <dc:creator>
     <cc:Agent>
      <dc:title>Matplotlib v3.5.1, https://matplotlib.org/</dc:title>
     </cc:Agent>
    </dc:creator>
   </cc:Work>
  </rdf:RDF>
 </metadata>
 <defs>
  <style type="text/css">*{stroke-linejoin: round; stroke-linecap: butt}</style>
 </defs>
 <g id="figure_1">
  <g id="patch_1">
   <path d="M 0 345.6 
L 460.8 345.6 
L 460.8 0 
L 0 0 
z
" style="fill: #ffffff"/>
  </g>
  <g id="axes_1">
   <g id="patch_2">
    <path d="M 57.6 307.584 
L 414.72 307.584 
L 414.72 41.472 
L 57.6 41.472 
z
" style="fill: #ffffff"/>
   </g>
   <g id="PolyCollection_1">
    <path d="M -118.589437 307.584 
L -118.589437 307.584 
L -100.733437 307.584 
L -100.733437 307.584 
L -82.877437 307.584 
L -82.877437 307.584 
L -65.021437 307.584 
L -65.021437 307.584 
L -47.165437 307.584 
L -47.165437 307.584 
L -29.309437 307.584 
L -29.309437 307.584 
L -11.453437 307.584 
L -11.453437 307.584 
L 6.402563 307.584 
L 6.402563 307.584 
L 24.258563 307.584 
L 24.258563 307.584 
L 42.114563 307.584 
L 42.114563 307.584 
L 59.970563 307.584 
L 59.970563 307.584 
L 77.826563 307.584 
L 77.826563 307.584 
L 95.682563 307.584 
L 95.682563 307.584 
L 113.538563 307.584 
L 113.538563 307.584 
L 131.394563 307.584 
L 131.394563 307.584 
L 149.250563 307.584 
L 149.250563 307.584 
L 167.106563 307.584 
L 167.106563 307.584 
L 184.962563 307.584 
L 184.962563 307.584 
L 202.818563 307.584 
L 202.818563 307.584 
L 220.674563 307.584 
L 220.674563 307.584 
L 238.530563 307.584 
L 238.530563 307.584 
L 256.386563 307.584 
L 256.386563 307.584 
L 274.242563 307.584 
L 274.242563 307.584 
L 292.098563 307.584 
L 292.098563 307.584 
L 309.954563 307.584 
L 309.954563 307.584 
L 327.810563 307.584 
L 327.810563 307.584 
L 345.666563 307.584 
L 345.666563 307.584 
L 363.522563 307.584 
L 363.522563 307.584 
L 381.378563 307.584 
L 381.378563 307.584 
L 399.234563 307.584 
L 399.234563 307.584 
L 417.090563 307.584 
L 417.090563 307.584 
L 434.946563 307.584 
L 434.946563 307.584 
L 452.802563 307.584 
L 452.802563 307.584 
L 470.658563 307.584 
L 470.658563 307.584 
L 488.514563 307.584 
L 488.514563 307.584 
L 506.370563 307.584 
L 506.370563 307.584 
L 524.226563 307.584 
L 524.226563 307.584 
L 542.082563 307.584 
L 542.082563 307.584 
L 559.938563 307.584 
L 559.938563 307.584 
L 577.794563 307.584 
L 577.794563 307.584 
L 595.650563 307.584 
L 595.650563 307.584 
L 595.650563 307.573293 
L 595.650563 307.573293 
L 595.650563 307.573293 
L 577.794563 307.573293 
L 577.794563 307.584 
L 559.938563 307.584 
L 559.938563 307.584 
L 542.082563 307.584 
L 542.082563 307.584 
L 524.226563 307.584 
L 524.226563 307.584 
L 506.370563 307.584 
L 506.370563 307.584 
L 488.514563 307.584 
L 488.514563 307.562585 
L 470.658563 307.562585 
L 470.658563 307.530463 
L 452.802563 307.530463 
L 452.802563 307.327022 
L 434.946563 307.327022 
L 434.946563 304.457432 
L 417.090563 304.457432 
L 417.090563 289.477745 
L 399.234563 289.477745 
L 399.234563 281.425762 
L 381.378563 281.425762 
L 381.378563 272.420818 
L 363.522563 272.420818 
L 363.522563 250.931017 
L 345.666563 250.931017 
L 345.666563 208.30476 
L 327.810563 208.30476 
L 327.810563 136.29733 
L 309.954563 136.29733 
L 309.954563 84.012976 
L 292.098563 84.012976 
L 292.098563 119.411722 
L 274.242563 119.411722 
L 274.242563 178.227605 
L 256.386563 178.227605 
L 256.386563 235.501618 
L 238.530563 235.501618 
L 238.530563 261.135193 
L 220.674563 261.135193 
L 220.674563 274.048346 
L 202.818563 274.048346 
L 202.818563 283.877762 
L 184.962563 283.877762 
L 184.962563 295.420366 
L 167.106563 295.420366 
L 167.106563 301.063178 
L 149.250563 301.063178 
L 149.250563 304.510969 
L 131.394563 304.510969 
L 131.394563 303.761449 
L 113.538563 303.761449 
L 113.538563 305.517467 
L 95.682563 305.517467 
L 95.682563 307.112873 
L 77.826563 307.112873 
L 77.826563 307.455511 
L 59.970563 307.455511 
L 59.970563 307.530463 
L 42.114563 307.530463 
L 42.114563 307.584 
L 24.258563 307.584 
L 24.258563 307.584 
L 6.402563 307.584 
L 6.402563 307.584 
L -11.453437 307.584 
L -11.453437 307.584 
L -29.309437 307.584 
L -29.309437 307.584 
L -47.165437 307.584 
L -47.165437 307.584 
L -65.021437 307.584 
L -65.021437 307.584 
L -82.877437 307.584 
L -82.877437 307.584 
L -100.733437 307.584 
L -100.733437 307.584 
L -118.589437 307.584 
z
" clip-path="url(#p6231345778)" style="fill: #852d90; fill-opacity: 0.25; stroke: #852d90; stroke-width: 1.5"/>
   </g>
   <g id="PolyCollection_2">
    <path d="M -118.589437 307.584 
L -118.589437 307.584 
L -100.733437 307.584 
L -100.733437 307.584 
L -82.877437 307.584 
L -82.877437 307.584 
L -65.021437 307.584 
L -65.021437 307.584 
L -47.165437 307.584 
L -47.165437 307.584 
L -29.309437 307.584 
L -29.309437 307.584 
L -11.453437 307.584 
L -11.453437 307.584 
L 6.402563 307.584 
L 6.402563 307.584 
L 24.258563 307.584 
L 24.258563 307.584 
L 42.114563 307.584 
L 42.114563 307.584 
L 59.970563 307.584 
L 59.970563 307.584 
L 77.826563 307.584 
L 77.826563 307.584 
L 95.682563 307.584 
L 95.682563 307.584 
L 113.538563 307.584 
L 113.538563 307.584 
L 131.394563 307.584 
L 131.394563 307.584 
L 149.250563 307.584 
L 149.250563 307.584 
L 167.106563 307.584 
L 167.106563 307.584 
L 184.962563 307.584 
L 184.962563 307.584 
L 202.818563 307.584 
L 202.818563 307.584 
L 220.674563 307.584 
L 220.674563 307.584 
L 238.530563 307.584 
L 238.530563 307.584 
L 256.386563 307.584 
L 256.386563 307.584 
L 274.242563 307.584 
L 274.242563 307.584 
L 292.098563 307.584 
L 292.098563 307.584 
L 309.954563 307.584 
L 309.954563 307.584 
L 327.810563 307.584 
L 327.810563 307.584 
L 345.666563 307.584 
L 345.666563 307.584 
L 363.522563 307.584 
L 363.522563 307.584 
L 381.378563 307.584 
L 381.378563 307.584 
L 399.234563 307.584 
L 399.234563 307.584 
L 417.090563 307.584 
L 417.090563 307.584 
L 434.946563 307.584 
L 434.946563 307.584 
L 452.802563 307.584 
L 452.802563 307.584 
L 470.658563 307.584 
L 470.658563 307.584 
L 488.514563 307.584 
L 488.514563 307.584 
L 506.370563 307.584 
L 506.370563 307.584 
L 524.226563 307.584 
L 524.226563 307.584 
L 542.082563 307.584 
L 542.082563 307.584 
L 559.938563 307.584 
L 559.938563 307.584 
L 577.794563 307.584 
L 577.794563 307.584 
L 595.650563 307.584 
L 595.650563 307.584 
L 595.650563 307.584 
L 595.650563 307.584 
L 595.650563 307.584 
L 577.794563 307.584 
L 577.794563 307.584 
L 559.938563 307.584 
L 559.938563 307.584 
L 542.082563 307.584 
L 542.082563 307.584 
L 524.226563 307.584 
L 524.226563 307.584 
L 506.370563 307.584 
L 506.370563 307.567305 
L 488.514563 307.567305 
L 488.514563 307.567305 
L 470.658563 307.567305 
L 470.658563 307.584 
L 452.802563 307.584 
L 452.802563 307.483828 
L 434.946563 307.483828 
L 434.946563 302.558685 
L 417.090563 302.558685 
L 417.090563 263.892139 
L 399.234563 263.892139 
L 399.234563 207.478383 
L 381.378563 207.478383 
L 381.378563 172.852124 
L 363.522563 172.852124 
L 363.522563 144.653594 
L 345.666563 144.653594 
L 345.666563 153.635719 
L 327.810563 153.635719 
L 327.810563 163.152097 
L 309.954563 163.152097 
L 309.954563 186.993127 
L 292.098563 186.993127 
L 292.098563 212.036227 
L 274.242563 212.036227 
L 274.242563 239.483464 
L 256.386563 239.483464 
L 256.386563 258.91691 
L 238.530563 258.91691 
L 238.530563 275.011275 
L 220.674563 275.011275 
L 220.674563 290.421129 
L 202.818563 290.421129 
L 202.818563 296.615122 
L 184.962563 296.615122 
L 184.962563 300.622018 
L 167.106563 300.622018 
L 167.106563 302.241472 
L 149.250563 302.241472 
L 149.250563 304.612219 
L 131.394563 304.612219 
L 131.394563 306.482104 
L 113.538563 306.482104 
L 113.538563 307.533914 
L 95.682563 307.533914 
L 95.682563 307.550609 
L 77.826563 307.550609 
L 77.826563 307.450437 
L 59.970563 307.450437 
L 59.970563 307.500523 
L 42.114563 307.500523 
L 42.114563 307.584 
L 24.258563 307.584 
L 24.258563 307.584 
L 6.402563 307.584 
L 6.402563 307.584 
L -11.453437 307.584 
L -11.453437 307.584 
L -29.309437 307.584 
L -29.309437 307.584 
L -47.165437 307.584 
L -47.165437 307.584 
L -65.021437 307.584 
L -65.021437 307.584 
L -82.877437 307.584 
L -82.877437 307.584 
L -100.733437 307.584 
L -100.733437 307.584 
L -118.589437 307.584 
z
" clip-path="url(#p6231345778)" style="fill: #8c74b5; fill-opacity: 0.25; stroke: #8c74b5; stroke-width: 1.5"/>
   </g>
   <g id="PolyCollection_3">
    <path d="M -118.589437 307.452826 
L -118.589437 307.584 
L -100.733437 307.584 
L -100.733437 307.584 
L -82.877437 307.584 
L -82.877437 307.584 
L -65.021437 307.584 
L -65.021437 307.584 
L -47.165437 307.584 
L -47.165437 307.584 
L -29.309437 307.584 
L -29.309437 307.584 
L -11.453437 307.584 
L -11.453437 307.584 
L 6.402563 307.584 
L 6.402563 307.584 
L 24.258563 307.584 
L 24.258563 307.584 
L 42.114563 307.584 
L 42.114563 307.584 
L 59.970563 307.584 
L 59.970563 307.584 
L 77.826563 307.584 
L 77.826563 307.584 
L 95.682563 307.584 
L 95.682563 307.584 
L 113.538563 307.584 
L 113.538563 307.584 
L 131.394563 307.584 
L 131.394563 307.584 
L 149.250563 307.584 
L 149.250563 307.584 
L 167.106563 307.584 
L 167.106563 307.584 
L 184.962563 307.584 
L 184.962563 307.584 
L 202.818563 307.584 
L 202.818563 307.584 
L 220.674563 307.584 
L 220.674563 307.584 
L 238.530563 307.584 
L 238.530563 307.584 
L 256.386563 307.584 
L 256.386563 307.584 
L 274.242563 307.584 
L 274.242563 307.584 
L 292.098563 307.584 
L 292.098563 307.584 
L 309.954563 307.584 
L 309.954563 307.584 
L 327.810563 307.584 
L 327.810563 307.584 
L 345.666563 307.584 
L 345.666563 307.584 
L 363.522563 307.584 
L 363.522563 307.584 
L 381.378563 307.584 
L 381.378563 307.584 
L 399.234563 307.584 
L 399.234563 307.584 
L 417.090563 307.584 
L 417.090563 307.584 
L 434.946563 307.584 
L 434.946563 307.584 
L 452.802563 307.584 
L 452.802563 307.584 
L 470.658563 307.584 
L 470.658563 307.584 
L 488.514563 307.584 
L 488.514563 307.584 
L 506.370563 307.584 
L 506.370563 307.584 
L 524.226563 307.584 
L 524.226563 307.584 
L 542.082563 307.584 
L 542.082563 307.584 
L 559.938563 307.584 
L 559.938563 307.584 
L 577.794563 307.584 
L 577.794563 307.584 
L 595.650563 307.584 
L 595.650563 307.584 
L 595.650563 307.584 
L 595.650563 307.584 
L 595.650563 307.584 
L 577.794563 307.584 
L 577.794563 307.584 
L 559.938563 307.584 
L 559.938563 307.584 
L 542.082563 307.584 
L 542.082563 307.584 
L 524.226563 307.584 
L 524.226563 307.584 
L 506.370563 307.584 
L 506.370563 307.584 
L 488.514563 307.584 
L 488.514563 307.584 
L 470.658563 307.584 
L 470.658563 307.584 
L 452.802563 307.584 
L 452.802563 307.494249 
L 434.946563 307.494249 
L 434.946563 305.547343 
L 417.090563 305.547343 
L 417.090563 295.71616 
L 399.234563 295.71616 
L 399.234563 289.661422 
L 381.378563 289.661422 
L 381.378563 279.547178 
L 363.522563 279.547178 
L 363.522563 277.027247 
L 345.666563 277.027247 
L 345.666563 279.070808 
L 327.810563 279.070808 
L 327.810563 279.457427 
L 309.954563 279.457427 
L 309.954563 281.901415 
L 292.098563 281.901415 
L 292.098563 286.520138 
L 274.242563 286.520138 
L 274.242563 287.845691 
L 256.386563 287.845691 
L 256.386563 288.156367 
L 238.530563 288.156367 
L 238.530563 291.076726 
L 220.674563 291.076726 
L 220.674563 292.015659 
L 202.818563 292.015659 
L 202.818563 292.284912 
L 184.962563 292.284912 
L 184.962563 288.58441 
L 167.106563 288.58441 
L 167.106563 283.171737 
L 149.250563 283.171737 
L 149.250563 275.522192 
L 131.394563 275.522192 
L 131.394563 255.714844 
L 113.538563 255.714844 
L 113.538563 192.592298 
L 95.682563 192.592298 
L 95.682563 56.591965 
L 77.826563 56.591965 
L 77.826563 75.853903 
L 59.970563 75.853903 
L 59.970563 205.171241 
L 42.114563 205.171241 
L 42.114563 278.73942 
L 24.258563 278.73942 
L 24.258563 297.587123 
L 6.402563 297.587123 
L 6.402563 303.39332 
L -11.453437 303.39332 
L -11.453437 305.360938 
L -29.309437 305.360938 
L -29.309437 306.513892 
L -47.165437 306.513892 
L -47.165437 307.100726 
L -65.021437 307.100726 
L -65.021437 307.314747 
L -82.877437 307.314747 
L -82.877437 307.411402 
L -100.733437 307.411402 
L -100.733437 307.452826 
L -118.589437 307.452826 
z
" clip-path="url(#p6231345778)" style="fill: #9ab4d6; fill-opacity: 0.25; stroke: #9ab4d6; stroke-width: 1.5"/>
   </g>
   <g id="PolyCollection_4">
    <path d="M -118.589437 307.584 
L -118.589437 307.584 
L -100.733437 307.584 
L -100.733437 307.584 
L -82.877437 307.584 
L -82.877437 307.584 
L -65.021437 307.584 
L -65.021437 307.584 
L -47.165437 307.584 
L -47.165437 307.584 
L -29.309437 307.584 
L -29.309437 307.584 
L -11.453437 307.584 
L -11.453437 307.584 
L 6.402563 307.584 
L 6.402563 307.584 
L 24.258563 307.584 
L 24.258563 307.584 
L 42.114563 307.584 
L 42.114563 307.584 
L 59.970563 307.584 
L 59.970563 307.584 
L 77.826563 307.584 
L 77.826563 307.584 
L 95.682563 307.584 
L 95.682563 307.584 
L 113.538563 307.584 
L 113.538563 307.584 
L 131.394563 307.584 
L 131.394563 307.584 
L 149.250563 307.584 
L 149.250563 307.584 
L 167.106563 307.584 
L 167.106563 307.584 
L 184.962563 307.584 
L 184.962563 307.584 
L 202.818563 307.584 
L 202.818563 307.584 
L 220.674563 307.584 
L 220.674563 307.584 
L 238.530563 307.584 
L 238.530563 307.584 
L 256.386563 307.584 
L 256.386563 307.584 
L 274.242563 307.584 
L 274.242563 307.584 
L 292.098563 307.584 
L 292.098563 307.584 
L 309.954563 307.584 
L 309.954563 307.584 
L 327.810563 307.584 
L 327.810563 307.584 
L 345.666563 307.584 
L 345.666563 307.584 
L 363.522563 307.584 
L 363.522563 307.584 
L 381.378563 307.584 
L 381.378563 307.584 
L 399.234563 307.584 
L 399.234563 307.584 
L 417.090563 307.584 
L 417.090563 307.584 
L 434.946563 307.584 
L 434.946563 307.584 
L 452.802563 307.584 
L 452.802563 307.584 
L 470.658563 307.584 
L 470.658563 307.584 
L 488.514563 307.584 
L 488.514563 307.584 
L 506.370563 307.584 
L 506.370563 307.584 
L 524.226563 307.584 
L 524.226563 307.584 
L 542.082563 307.584 
L 542.082563 307.584 
L 559.938563 307.584 
L 559.938563 307.584 
L 577.794563 307.584 
L 577.794563 307.584 
L 595.650563 307.584 
L 595.650563 307.584 
L 595.650563 307.57787 
L 595.650563 307.57787 
L 595.650563 307.57787 
L 577.794563 307.57787 
L 577.794563 307.57787 
L 559.938563 307.57787 
L 559.938563 307.565611 
L 542.082563 307.565611 
L 542.082563 307.57174 
L 524.226563 307.57174 
L 524.226563 307.479793 
L 506.370563 307.479793 
L 506.370563 307.498182 
L 488.514563 307.498182 
L 488.514563 307.461403 
L 470.658563 307.461403 
L 470.658563 307.124263 
L 452.802563 307.124263 
L 452.802563 305.82474 
L 434.946563 305.82474 
L 434.946563 294.594899 
L 417.090563 294.594899 
L 417.090563 256.258968 
L 399.234563 256.258968 
L 399.234563 213.748626 
L 381.378563 213.748626 
L 381.378563 196.787398 
L 363.522563 196.787398 
L 363.522563 188.26081 
L 345.666563 188.26081 
L 345.666563 184.656473 
L 327.810563 184.656473 
L 327.810563 200.361087 
L 309.954563 200.361087 
L 309.954563 212.259079 
L 292.098563 212.259079 
L 292.098563 222.600095 
L 274.242563 222.600095 
L 274.242563 237.979828 
L 256.386563 237.979828 
L 256.386563 251.054746 
L 238.530563 251.054746 
L 238.530563 264.135795 
L 220.674563 264.135795 
L 220.674563 281.18284 
L 202.818563 281.18284 
L 202.818563 289.421326 
L 184.962563 289.421326 
L 184.962563 297.279763 
L 167.106563 297.279763 
L 167.106563 300.712465 
L 149.250563 300.712465 
L 149.250563 301.399006 
L 131.394563 301.399006 
L 131.394563 300.19756 
L 113.538563 300.19756 
L 113.538563 293.319895 
L 95.682563 293.319895 
L 95.682563 271.099277 
L 77.826563 271.099277 
L 77.826563 266.7471 
L 59.970563 266.7471 
L 59.970563 294.190331 
L 42.114563 294.190331 
L 42.114563 304.40262 
L 24.258563 304.40262 
L 24.258563 306.983277 
L 6.402563 306.983277 
L 6.402563 307.357196 
L -11.453437 307.357196 
L -11.453437 307.485923 
L -29.309437 307.485923 
L -29.309437 307.57787 
L -47.165437 307.57787 
L -47.165437 307.584 
L -65.021437 307.584 
L -65.021437 307.584 
L -82.877437 307.584 
L -82.877437 307.584 
L -100.733437 307.584 
L -100.733437 307.584 
L -118.589437 307.584 
z
" clip-path="url(#p6231345778)" style="fill: #ccddec; fill-opacity: 0.25; stroke: #ccddec; stroke-width: 1.5"/>
   </g>
   <g id="matplotlib.axis_1">
    <g id="xtick_1">
     <g id="line2d_1">
      <defs>
       <path id="mdadeed7849" d="M 0 0 
L 0 3.5 
" style="stroke: #000000; stroke-width: 0.8"/>
      </defs>
      <g>
       <use xlink:href="#mdadeed7849" x="57.6" y="307.584" style="stroke: #000000; stroke-width: 0.8"/>
      </g>
     </g>
     <g id="text_1">
      <text style="font: 12px 'sans-serif'; text-anchor: middle" x="57.6" y="323.173375" transform="rotate(-0, 57.6, 323.173375)">0.0</text>
     </g>
    </g>
    <g id="xtick_2">
     <g id="line2d_2">
      <g>
       <use xlink:href="#mdadeed7849" x="129.024" y="307.584" style="stroke: #000000; stroke-width: 0.8"/>
      </g>
     </g>
     <g id="text_2">
      <text style="font: 12px 'sans-serif'; text-anchor: middle" x="129.024" y="323.173375" transform="rotate(-0, 129.024, 323.173375)">0.2</text>
     </g>
    </g>
    <g id="xtick_3">
     <g id="line2d_3">
      <g>
       <use xlink:href="#mdadeed7849" x="200.448" y="307.584" style="stroke: #000000; stroke-width: 0.8"/>
      </g>
     </g>
     <g id="text_3">
      <text style="font: 12px 'sans-serif'; text-anchor: middle" x="200.448" y="323.173375" transform="rotate(-0, 200.448, 323.173375)">0.4</text>
     </g>
    </g>
    <g id="xtick_4">
     <g id="line2d_4">
      <g>
       <use xlink:href="#mdadeed7849" x="271.872" y="307.584" style="stroke: #000000; stroke-width: 0.8"/>
      </g>
     </g>
     <g id="text_4">
      <text style="font: 12px 'sans-serif'; text-anchor: middle" x="271.872" y="323.173375" transform="rotate(-0, 271.872, 323.173375)">0.6</text>
     </g>
    </g>
    <g id="xtick_5">
     <g id="line2d_5">
      <g>
       <use xlink:href="#mdadeed7849" x="343.296" y="307.584" style="stroke: #000000; stroke-width: 0.8"/>
      </g>
     </g>
     <g id="text_5">
      <text style="font: 12px 'sans-serif'; text-anchor: middle" x="343.296" y="323.173375" transform="rotate(-0, 343.296, 323.173375)">0.8</text>
     </g>
    </g>
    <g id="xtick_6">
     <g id="line2d_6">
      <g>
       <use xlink:href="#mdadeed7849" x="414.72" y="307.584" style="stroke: #000000; stroke-width: 0.8"/>
      </g>
     </g>
     <g id="text_6">
      <text style="font: 12px 'sans-serif'; text-anchor: middle" x="414.72" y="323.173375" transform="rotate(-0, 414.72, 323.173375)">1.0</text>
     </g>
    </g>
    <g id="text_7">
     <text style="font: 12px 'sans-serif'; text-anchor: middle" x="236.16" y="338.14775" transform="rotate(-0, 236.16, 338.14775)">FRET</text>
    </g>
   </g>
   <g id="matplotlib.axis_2">
    <g id="ytick_1">
     <g id="line2d_7">
      <defs>
       <path id="m24aa84e1ae" d="M 0 0 
L -3.5 0 
" style="stroke: #000000; stroke-width: 0.8"/>
      </defs>
      <g>
       <use xlink:href="#m24aa84e1ae" x="57.6" y="307.584" style="stroke: #000000; stroke-width: 0.8"/>
      </g>
     </g>
     <g id="text_8">
      <text style="font: 12px 'sans-serif'; text-anchor: end" x="50.6" y="311.878687" transform="rotate(-0, 50.6, 311.878687)">0</text>
     </g>
    </g>
    <g id="ytick_2">
     <g id="line2d_8">
      <g>
       <use xlink:href="#m24aa84e1ae" x="57.6" y="249.819586" style="stroke: #000000; stroke-width: 0.8"/>
      </g>
     </g>
     <g id="text_9">
      <text style="font: 12px 'sans-serif'; text-anchor: end" x="50.6" y="254.114274" transform="rotate(-0, 50.6, 254.114274)">1</text>
     </g>
    </g>
    <g id="ytick_3">
     <g id="line2d_9">
      <g>
       <use xlink:href="#m24aa84e1ae" x="57.6" y="192.055173" style="stroke: #000000; stroke-width: 0.8"/>
      </g>
     </g>
     <g id="text_10">
      <text style="font: 12px 'sans-serif'; text-anchor: end" x="50.6" y="196.34986" transform="rotate(-0, 50.6, 196.34986)">2</text>
     </g>
    </g>
    <g id="ytick_4">
     <g id="line2d_10">
      <g>
       <use xlink:href="#m24aa84e1ae" x="57.6" y="134.290759" style="stroke: #000000; stroke-width: 0.8"/>
      </g>
     </g>
     <g id="text_11">
      <text style="font: 12px 'sans-serif'; text-anchor: end" x="50.6" y="138.585446" transform="rotate(-0, 50.6, 138.585446)">3</text>
     </g>
    </g>
    <g id="ytick_5">
     <g id="line2d_11">
      <g>
       <use xlink:href="#m24aa84e1ae" x="57.6" y="76.526345" style="stroke: #000000; stroke-width: 0.8"/>
      </g>
     </g>
     <g id="text_12">
      <text style="font: 12px 'sans-serif'; text-anchor: end" x="50.6" y="80.821033" transform="rotate(-0, 50.6, 80.821033)">4</text>
     </g>
    </g>
    <g id="text_13">
     <text style="font: 12px 'sans-serif'; text-anchor: middle" x="37.40125" y="174.528" transform="rotate(-90, 37.40125, 174.528)">Density</text>
    </g>
   </g>
   <g id="line2d_12">
    <path d="M -1 307.584 
L 58.038166 307.483788 
L 82.766031 307.329603 
L 89.831135 306.936421 
L 100.428791 305.99772 
L 107.493896 305.20167 
L 114.559 304.170829 
L 118.091552 303.825486 
L 121.624104 303.750856 
L 128.689208 303.968277 
L 139.286864 304.493709 
L 142.819416 304.448174 
L 146.351968 303.99631 
L 153.417073 302.283415 
L 164.014729 299.729747 
L 167.547281 298.900866 
L 171.079833 297.86241 
L 174.612385 296.443868 
L 178.144937 294.452259 
L 181.677489 291.864357 
L 185.210041 289.006293 
L 188.742593 286.438624 
L 192.275145 284.533051 
L 199.34025 281.440332 
L 206.405354 278.085014 
L 209.937906 275.788826 
L 213.470458 272.80373 
L 220.535562 266.382334 
L 224.068114 263.623503 
L 227.600666 261.474375 
L 234.66577 258.431256 
L 238.198323 255.553091 
L 241.730875 250.21143 
L 245.263427 242.196182 
L 248.795979 232.060794 
L 255.861083 209.320971 
L 262.926187 185.914671 
L 269.991291 161.995238 
L 277.056395 139.056712 
L 280.588947 127.338495 
L 284.1215 116.058432 
L 287.654052 105.857143 
L 291.186604 96.66297 
L 294.719156 88.584469 
L 298.251708 83.103224 
L 301.78426 82.396455 
L 305.316812 87.483665 
L 308.849364 97.301415 
L 312.381916 109.980287 
L 315.914468 124.029711 
L 319.44702 138.753556 
L 326.512124 169.969056 
L 330.044677 184.598426 
L 333.577229 197.745108 
L 337.109781 209.626542 
L 340.642333 220.304436 
L 344.174885 229.850881 
L 347.707437 238.410559 
L 351.239989 245.877256 
L 354.772541 251.882134 
L 358.305093 256.438054 
L 368.902749 268.026367 
L 375.967854 275.973291 
L 379.500406 279.095065 
L 383.032958 280.583632 
L 386.56551 280.783365 
L 390.098062 280.742481 
L 393.630614 281.275621 
L 397.163166 282.40444 
L 400.695718 283.929385 
L 404.22827 286.185981 
L 407.760822 289.395689 
L 414.825926 296.636984 
L 418.358479 299.822917 
L 421.891031 302.363908 
L 425.423583 304.151919 
L 428.956135 305.377289 
L 432.488687 306.24476 
L 436.021239 306.804799 
L 439.553791 307.108067 
L 446.618895 307.390389 
L 457.216551 307.521351 
L 461.8 307.527627 
L 461.8 307.527627 
" clip-path="url(#p6231345778)" style="fill: none; stroke: #852d90; stroke-width: 1.5; stroke-linecap: round"/>
   </g>
   <g id="line2d_13">
    <path d="M -1 307.584 
L 50.973062 307.506197 
L 61.570719 307.377956 
L 93.363687 307.575925 
L 107.493896 307.474999 
L 114.559 307.199755 
L 135.754312 305.438792 
L 139.286864 304.839667 
L 146.351968 303.275001 
L 149.884521 302.712304 
L 153.417073 302.37238 
L 164.014729 301.752722 
L 171.079833 301.281504 
L 174.612385 301.12019 
L 178.144937 300.757355 
L 181.677489 300.122745 
L 185.210041 299.309908 
L 188.742593 298.317781 
L 192.275145 297.084044 
L 199.34025 294.472279 
L 206.405354 292.520388 
L 209.937906 291.295676 
L 213.470458 289.488785 
L 217.00301 287.01429 
L 220.535562 284.029144 
L 224.068114 280.797642 
L 227.600666 277.390984 
L 231.133218 273.679561 
L 234.66577 269.772756 
L 238.198323 266.118679 
L 241.730875 263.029596 
L 248.795979 257.844579 
L 252.328531 254.9443 
L 255.861083 251.578728 
L 259.393635 247.886741 
L 262.926187 243.650215 
L 266.458739 238.386778 
L 269.991291 232.44377 
L 273.523843 226.89157 
L 280.588947 216.963771 
L 287.654052 205.698046 
L 291.186604 201.001266 
L 294.719156 196.955152 
L 298.251708 192.310875 
L 301.78426 186.284321 
L 305.316812 179.443326 
L 308.849364 173.123264 
L 312.381916 168.198103 
L 315.914468 164.606421 
L 319.44702 161.877256 
L 322.979572 159.619621 
L 326.512124 157.618133 
L 330.044677 155.849452 
L 333.577229 154.407962 
L 340.642333 152.418908 
L 344.174885 150.893481 
L 351.239989 146.038851 
L 354.772541 145.201317 
L 358.305093 147.225951 
L 361.837645 152.142985 
L 365.370197 158.983889 
L 368.902749 166.376901 
L 372.435302 172.89774 
L 375.967854 177.803455 
L 379.500406 182.036906 
L 383.032958 187.871511 
L 386.56551 196.886491 
L 393.630614 219.448441 
L 400.695718 239.524267 
L 404.22827 250.548144 
L 407.760822 262.355132 
L 411.293374 273.772746 
L 414.825926 283.719147 
L 418.358479 291.69515 
L 421.891031 297.639865 
L 425.423583 301.729869 
L 428.956135 304.330349 
L 432.488687 305.877096 
L 436.021239 306.737487 
L 439.553791 307.180276 
L 446.618895 307.502472 
L 457.216551 307.582196 
L 461.8 307.58348 
L 461.8 307.58348 
" clip-path="url(#p6231345778)" style="fill: none; stroke: #8c74b5; stroke-width: 1.5; stroke-linecap: round"/>
   </g>
   <g id="line2d_14">
    <path d="M -1 302.621711 
L 1.517333 302.006579 
L 5.049885 300.968785 
L 8.582437 299.701699 
L 12.114989 298.121352 
L 15.647542 296.117367 
L 19.180094 293.553686 
L 22.712646 290.259033 
L 26.245198 286.006641 
L 29.77775 280.49363 
L 33.310302 273.337614 
L 36.842854 264.107181 
L 40.375406 252.393495 
L 43.907958 237.912494 
L 47.44051 220.604708 
L 50.973062 200.687819 
L 54.505614 178.639476 
L 65.103271 107.633575 
L 68.635823 86.321637 
L 72.168375 69.050338 
L 75.700927 57.798744 
L 79.233479 54.144 
L 82.766031 58.759042 
L 86.298583 71.133405 
L 89.831135 89.663445 
L 93.363687 112.077661 
L 100.428791 159.454351 
L 103.961344 181.057252 
L 107.493896 200.079397 
L 111.026448 216.288577 
L 114.559 229.784598 
L 118.091552 240.847062 
L 121.624104 249.819348 
L 125.156656 257.033952 
L 128.689208 262.781363 
L 132.22176 267.314619 
L 135.754312 270.868423 
L 139.286864 273.669716 
L 142.819416 275.929976 
L 146.351968 277.826542 
L 149.884521 279.487283 
L 153.417073 280.988192 
L 160.482177 283.633851 
L 167.547281 285.922211 
L 174.612385 288.030232 
L 181.677489 289.907746 
L 185.210041 290.670572 
L 188.742593 291.283187 
L 192.275145 291.74334 
L 195.807698 292.056562 
L 199.34025 292.22794 
L 202.872802 292.263995 
L 209.937906 292.010606 
L 231.133218 290.702791 
L 238.198323 289.935965 
L 248.795979 288.541301 
L 252.328531 288.228969 
L 259.393635 287.919599 
L 269.991291 287.656761 
L 273.523843 287.429533 
L 277.056395 287.067049 
L 280.588947 286.555583 
L 287.654052 285.145937 
L 298.251708 282.535389 
L 305.316812 280.894057 
L 308.849364 280.272829 
L 312.381916 279.860605 
L 315.914468 279.667166 
L 330.044677 279.609244 
L 337.109781 279.104193 
L 351.239989 277.716976 
L 354.772541 277.494867 
L 358.305093 277.444975 
L 361.837645 277.648656 
L 365.370197 278.174531 
L 368.902749 279.063629 
L 372.435302 280.314746 
L 375.967854 281.871847 
L 390.098062 288.772007 
L 397.163166 291.603965 
L 404.22827 294.53351 
L 411.293374 298.003938 
L 418.358479 301.591725 
L 421.891031 303.174354 
L 425.423583 304.507023 
L 428.956135 305.552642 
L 432.488687 306.314506 
L 436.021239 306.829304 
L 439.553791 307.152797 
L 446.618895 307.451235 
L 457.216551 307.562599 
L 461.8 307.574852 
L 461.8 307.574852 
" clip-path="url(#p6231345778)" style="fill: none; stroke: #9ab4d6; stroke-width: 1.5; stroke-linecap: round"/>
   </g>
   <g id="line2d_15">
    <path d="M -1 307.317144 
L 8.582437 307.102527 
L 15.647542 306.783039 
L 19.180094 306.505171 
L 22.712646 306.113099 
L 26.245198 305.586348 
L 29.77775 304.90165 
L 33.310302 304.01506 
L 36.842854 302.846051 
L 40.375406 301.275954 
L 43.907958 299.16392 
L 47.44051 296.376073 
L 50.973062 292.825199 
L 54.505614 288.521466 
L 58.038166 283.625423 
L 61.570719 278.475907 
L 65.103271 273.56271 
L 68.635823 269.441039 
L 72.168375 266.616782 
L 75.700927 265.437633 
L 79.233479 266.015711 
L 82.766031 268.204972 
L 86.298583 271.646095 
L 89.831135 275.858893 
L 96.896239 284.658951 
L 100.428791 288.495882 
L 103.961344 291.694673 
L 107.493896 294.237686 
L 111.026448 296.201627 
L 114.559 297.700377 
L 118.091552 298.838932 
L 121.624104 299.692821 
L 125.156656 300.313817 
L 128.689208 300.746081 
L 135.754312 301.213862 
L 142.819416 301.329721 
L 149.884521 301.132383 
L 156.949625 300.611641 
L 164.014729 299.732913 
L 167.547281 299.116729 
L 171.079833 298.340944 
L 174.612385 297.369365 
L 178.144937 296.181963 
L 181.677489 294.798989 
L 195.807698 288.64387 
L 202.872802 285.420963 
L 206.405354 283.612351 
L 209.937906 281.560165 
L 213.470458 279.163385 
L 217.00301 276.361398 
L 220.535562 273.194904 
L 227.600666 266.449124 
L 231.133218 263.266542 
L 234.66577 260.35875 
L 238.198323 257.702713 
L 248.795979 250.088945 
L 259.393635 242.141185 
L 266.458739 236.983421 
L 269.991291 234.176852 
L 280.588947 225.103183 
L 284.1215 222.390321 
L 287.654052 219.971717 
L 294.719156 215.685694 
L 305.316812 209.451745 
L 308.849364 207.288998 
L 312.381916 204.982215 
L 315.914468 202.428881 
L 319.44702 199.56386 
L 330.044677 190.186946 
L 333.577229 187.675965 
L 337.109781 185.919735 
L 340.642333 185.039464 
L 344.174885 185.022688 
L 347.707437 185.755099 
L 351.239989 187.069421 
L 354.772541 188.780421 
L 361.837645 192.605039 
L 365.370197 194.326172 
L 368.902749 195.763288 
L 372.435302 197.029137 
L 375.967854 198.49908 
L 379.500406 200.713529 
L 383.032958 204.141129 
L 386.56551 208.962721 
L 390.098062 215.041049 
L 393.630614 222.074139 
L 397.163166 229.775938 
L 400.695718 237.950584 
L 407.760822 255.144121 
L 411.293374 263.784047 
L 414.825926 272.078813 
L 418.358479 279.702559 
L 421.891031 286.381653 
L 425.423583 291.955258 
L 428.956135 296.390342 
L 432.488687 299.759929 
L 436.021239 302.207119 
L 439.553791 303.910522 
L 443.086343 305.055736 
L 446.618895 305.811484 
L 450.151447 306.3115 
L 457.216551 306.87812 
L 461.8 307.071835 
L 461.8 307.071835 
" clip-path="url(#p6231345778)" style="fill: none; stroke: #ccddec; stroke-width: 1.5; stroke-linecap: round"/>
   </g>
   <g id="patch_3">
    <path d="M 57.6 307.584 
L 57.6 41.472 
" style="fill: none; stroke: #000000; stroke-width: 2; stroke-linejoin: miter; stroke-linecap: square"/>
   </g>
   <g id="patch_4">
    <path d="M 414.72 307.584 
L 414.72 41.472 
" style="fill: none; stroke: #000000; stroke-width: 2; stroke-linejoin: miter; stroke-linecap: square"/>
   </g>
   <g id="patch_5">
    <path d="M 57.6 307.584 
L 414.72 307.584 
" style="fill: none; stroke: #000000; stroke-width: 2; stroke-linejoin: miter; stroke-linecap: square"/>
   </g>
   <g id="patch_6">
    <path d="M 57.6 41.472 
L 414.72 41.472 
" style="fill: none; stroke: #000000; stroke-width: 2; stroke-linejoin: miter; stroke-linecap: square"/>
   </g>
   <g id="legend_1">
    <g id="patch_7">
     <path d="M 66 210.403312 
L 175.77375 210.403312 
Q 178.17375 210.403312 178.17375 208.003312 
L 178.17375 141.052687 
Q 178.17375 138.652687 175.77375 138.652687 
L 66 138.652687 
Q 63.6 138.652687 63.6 141.052687 
L 63.6 208.003312 
Q 63.6 210.403312 66 210.403312 
z
" style="fill: #ffffff; opacity: 0.8; stroke: #cccccc; stroke-linejoin: miter"/>
    </g>
    <g id="patch_8">
     <path d="M 68.4 152.077687 
L 92.4 152.077687 
L 92.4 143.677687 
L 68.4 143.677687 
z
" style="fill: #852d90; fill-opacity: 0.25; stroke: #852d90; stroke-width: 1.5; stroke-linejoin: miter"/>
    </g>
    <g id="text_14">
     <text style="fill: #262626; font: 12px 'sans-serif'; text-anchor: start" x="102" y="152.077687" transform="rotate(-0, 102, 152.077687)">01_Native</text>
    </g>
    <g id="line2d_16">
     <path d="M 68.4 164.998312 
L 80.4 164.998312 
L 92.4 164.998312 
" style="fill: none; stroke: #852d90; stroke-width: 1.5; stroke-linecap: round"/>
    </g>
    <g id="text_15">
     <text style="fill: #262626; font: 12px 'sans-serif'; text-anchor: start" x="102" y="169.198312" transform="rotate(-0, 102, 169.198312)">02_Misfolded</text>
    </g>
    <g id="patch_9">
     <path d="M 68.4 186.208312 
L 92.4 186.208312 
L 92.4 177.808312 
L 68.4 177.808312 
z
" style="fill: #8c74b5; fill-opacity: 0.25; stroke: #8c74b5; stroke-width: 1.5; stroke-linejoin: miter"/>
    </g>
    <g id="text_16">
     <text style="fill: #262626; font: 12px 'sans-serif'; text-anchor: start" x="102" y="186.208312" transform="rotate(-0, 102, 186.208312)">03_A8A2</text>
    </g>
    <g id="line2d_17">
     <path d="M 68.4 199.018312 
L 80.4 199.018312 
L 92.4 199.018312 
" style="fill: none; stroke: #8c74b5; stroke-width: 1.5; stroke-linecap: round"/>
    </g>
    <g id="text_17">
     <text style="fill: #262626; font: 12px 'sans-serif'; text-anchor: start" x="102" y="203.218312" transform="rotate(-0, 102, 203.218312)">04_A8B1</text>
    </g>
   </g>
  </g>
 </g>
 <defs>
  <clipPath id="p6231345778">
   <rect x="57.6" y="41.472" width="357.12" height="266.112"/>
  </clipPath>
 </defs>
</svg>
