<?xml version="1.0" encoding="utf-8" standalone="no"?>
<!DOCTYPE svg PUBLIC "-//W3C//DTD SVG 1.1//EN"
  "http://www.w3.org/Graphics/SVG/1.1/DTD/svg11.dtd">
<svg xmlns:xlink="http://www.w3.org/1999/xlink" width="460.8pt" height="345.6pt" viewBox="0 0 460.8 345.6" xmlns="http://www.w3.org/2000/svg" version="1.1">
 <metadata>
  <rdf:RDF xmlns:dc="http://purl.org/dc/elements/1.1/" xmlns:cc="http://creativecommons.org/ns#" xmlns:rdf="http://www.w3.org/1999/02/22-rdf-syntax-ns#">
   <cc:Work>
    <dc:type rdf:resource="http://purl.org/dc/dcmitype/StillImage"/>
    <dc:date>2026-05-26T09:34:46.369453</dc:date>
    <dc:format>image/svg+xml</dc:format>
    <dc:creator>
     <cc:Agent>
      <dc:title>Matplotlib v3.5.1, https://matplotlib.org/</dc:title>
     </cc:Agent>
    </dc:creator>
   </cc:Work>
  </rdf:RDF>
 </metadata>
 <defs>
  <style type="text/css">*{stroke-linejoin: round; stroke-linecap: butt}</style>
 </defs>
 <g id="figure_1">
  <g id="patch_1">
   <path d="M 0 345.6 
L 460.8 345.6 
L 460.8 0 
L 0 0 
z
" style="fill: #ffffff"/>
  </g>
  <g id="axes_1">
   <g id="patch_2">
    <path d="M 57.6 307.584 
L 414.72 307.584 
L 414.72 41.472 
L 57.6 41.472 
z
" style="fill: #ffffff"/>
   </g>
   <g id="matplotlib.axis_1">
    <g id="xtick_1">
     <g id="line2d_1">
      <defs>
       <path id="m6a1408c279" d="M 0 0 
L 0 3.5 
" style="stroke: #262626; stroke-width: 0.8"/>
      </defs>
      <g>
       <use xlink:href="#m6a1408c279" x="102.24" y="307.584" style="fill: #262626; stroke: #262626; stroke-width: 0.8"/>
      </g>
     </g>
     <g id="text_1">
      <text style="fill: #262626; font: 12px 'sans-serif'; text-anchor: middle" x="102.24" y="323.209" transform="rotate(-0, 102.24, 323.209)">01_Native</text>
     </g>
    </g>
    <g id="xtick_2">
     <g id="line2d_2">
      <g>
       <use xlink:href="#m6a1408c279" x="191.52" y="307.584" style="fill: #262626; stroke: #262626; stroke-width: 0.8"/>
      </g>
     </g>
     <g id="text_2">
      <text style="fill: #262626; font: 12px 'sans-serif'; text-anchor: middle" x="191.52" y="323.319625" transform="rotate(-0, 191.52, 323.319625)">02_Misfolded</text>
     </g>
    </g>
    <g id="xtick_3">
     <g id="line2d_3">
      <g>
       <use xlink:href="#m6a1408c279" x="280.8" y="307.584" style="fill: #262626; stroke: #262626; stroke-width: 0.8"/>
      </g>
     </g>
     <g id="text_3">
      <text style="fill: #262626; font: 12px 'sans-serif'; text-anchor: middle" x="280.8" y="323.209" transform="rotate(-0, 280.8, 323.209)">03_A8A2</text>
     </g>
    </g>
    <g id="xtick_4">
     <g id="line2d_4">
      <g>
       <use xlink:href="#m6a1408c279" x="370.08" y="307.584" style="fill: #262626; stroke: #262626; stroke-width: 0.8"/>
      </g>
     </g>
     <g id="text_4">
      <text style="fill: #262626; font: 12px 'sans-serif'; text-anchor: middle" x="370.08" y="323.209" transform="rotate(-0, 370.08, 323.209)">04_A8B1</text>
     </g>
    </g>
   </g>
   <g id="matplotlib.axis_2">
    <g id="ytick_1">
     <g id="line2d_5">
      <defs>
       <path id="m5bde072e86" d="M 0 0 
L -3.5 0 
" style="stroke: #262626; stroke-width: 0.8"/>
      </defs>
      <g>
       <use xlink:href="#m5bde072e86" x="57.6" y="284.276645" style="fill: #262626; stroke: #262626; stroke-width: 0.8"/>
      </g>
     </g>
     <g id="text_5">
      <text style="fill: #262626; font: 12px 'sans-serif'; text-anchor: end" x="50.6" y="288.571332" transform="rotate(-0, 50.6, 288.571332)">−20</text>
     </g>
    </g>
    <g id="ytick_2">
     <g id="line2d_6">
      <g>
       <use xlink:href="#m5bde072e86" x="57.6" y="252.919889" style="fill: #262626; stroke: #262626; stroke-width: 0.8"/>
      </g>
     </g>
     <g id="text_6">
      <text style="fill: #262626; font: 12px 'sans-serif'; text-anchor: end" x="50.6" y="257.214577" transform="rotate(-0, 50.6, 257.214577)">0</text>
     </g>
    </g>
    <g id="ytick_3">
     <g id="line2d_7">
      <g>
       <use xlink:href="#m5bde072e86" x="57.6" y="221.563134" style="fill: #262626; stroke: #262626; stroke-width: 0.8"/>
      </g>
     </g>
     <g id="text_7">
      <text style="fill: #262626; font: 12px 'sans-serif'; text-anchor: end" x="50.6" y="225.857821" transform="rotate(-0, 50.6, 225.857821)">20</text>
     </g>
    </g>
    <g id="ytick_4">
     <g id="line2d_8">
      <g>
       <use xlink:href="#m5bde072e86" x="57.6" y="190.206378" style="fill: #262626; stroke: #262626; stroke-width: 0.8"/>
      </g>
     </g>
     <g id="text_8">
      <text style="fill: #262626; font: 12px 'sans-serif'; text-anchor: end" x="50.6" y="194.501065" transform="rotate(-0, 50.6, 194.501065)">40</text>
     </g>
    </g>
    <g id="ytick_5">
     <g id="line2d_9">
      <g>
       <use xlink:href="#m5bde072e86" x="57.6" y="158.849622" style="fill: #262626; stroke: #262626; stroke-width: 0.8"/>
      </g>
     </g>
     <g id="text_9">
      <text style="fill: #262626; font: 12px 'sans-serif'; text-anchor: end" x="50.6" y="163.14431" transform="rotate(-0, 50.6, 163.14431)">60</text>
     </g>
    </g>
    <g id="ytick_6">
     <g id="line2d_10">
      <g>
       <use xlink:href="#m5bde072e86" x="57.6" y="127.492866" style="fill: #262626; stroke: #262626; stroke-width: 0.8"/>
      </g>
     </g>
     <g id="text_10">
      <text style="fill: #262626; font: 12px 'sans-serif'; text-anchor: end" x="50.6" y="131.787554" transform="rotate(-0, 50.6, 131.787554)">80</text>
     </g>
    </g>
    <g id="ytick_7">
     <g id="line2d_11">
      <g>
       <use xlink:href="#m5bde072e86" x="57.6" y="96.136111" style="fill: #262626; stroke: #262626; stroke-width: 0.8"/>
      </g>
     </g>
     <g id="text_11">
      <text style="fill: #262626; font: 12px 'sans-serif'; text-anchor: end" x="50.6" y="100.430798" transform="rotate(-0, 50.6, 100.430798)">100</text>
     </g>
    </g>
    <g id="ytick_8">
     <g id="line2d_12">
      <g>
       <use xlink:href="#m5bde072e86" x="57.6" y="64.779355" style="fill: #262626; stroke: #262626; stroke-width: 0.8"/>
      </g>
     </g>
     <g id="text_12">
      <text style="fill: #262626; font: 12px 'sans-serif'; text-anchor: end" x="50.6" y="69.074043" transform="rotate(-0, 50.6, 69.074043)">120</text>
     </g>
    </g>
    <g id="text_13">
     <text style="fill: #262626; font: 12px 'sans-serif'; text-anchor: middle" x="23.86" y="174.528" transform="rotate(-90, 23.86, 174.528)">Proportion of time spent &lt; 0.5 FRET</text>
    </g>
   </g>
   <g id="PolyCollection_1">
    <defs>
     <path id="mb577d95659" d="M 106.052645 -65.395345 
L 98.427355 -65.395345 
L 97.029644 -67.530227 
L 95.287336 -69.665109 
L 93.180494 -71.799991 
L 90.711907 -73.934873 
L 87.913351 -76.069755 
L 84.849767 -78.204637 
L 81.620158 -80.339519 
L 78.354358 -82.474401 
L 75.205326 -84.609283 
L 72.337383 -86.744164 
L 69.911573 -88.879046 
L 68.069944 -91.013928 
L 66.920933 -93.14881 
L 66.528 -95.283692 
L 66.903212 -97.418574 
L 68.006724 -99.553456 
L 69.75214 -101.688338 
L 72.016813 -103.82322 
L 74.65541 -105.958102 
L 77.514679 -108.092984 
L 80.447387 -110.227865 
L 83.323721 -112.362747 
L 86.039111 -114.497629 
L 88.518075 -116.632511 
L 90.714374 -118.767393 
L 92.608225 -120.902275 
L 94.201588 -123.037157 
L 95.512556 -125.172039 
L 96.569754 -127.306921 
L 97.407389 -129.441803 
L 98.061309 -131.576685 
L 98.566187 -133.711567 
L 98.953721 -135.846448 
L 99.251671 -137.98133 
L 99.483491 -140.116212 
L 99.668331 -142.251094 
L 99.821257 -144.385976 
L 99.953571 -146.520858 
L 100.073186 -148.65574 
L 100.185042 -150.790622 
L 100.291564 -152.925504 
L 100.393167 -155.060386 
L 100.488809 -157.195268 
L 100.576564 -159.330149 
L 100.654187 -161.465031 
L 100.719632 -163.599913 
L 100.771474 -165.734795 
L 100.809215 -167.869677 
L 100.83343 -170.004559 
L 100.845775 -172.139441 
L 100.848841 -174.274323 
L 100.845891 -176.409205 
L 100.840526 -178.544087 
L 100.836312 -180.678969 
L 100.836425 -182.813851 
L 100.843352 -184.948732 
L 100.858688 -187.083614 
L 100.88303 -189.218496 
L 100.915991 -191.353378 
L 100.956297 -193.48826 
L 101.00195 -195.623142 
L 101.050421 -197.758024 
L 101.098847 -199.892906 
L 101.144182 -202.027788 
L 101.18332 -204.16267 
L 101.213154 -206.297552 
L 101.230608 -208.432433 
L 101.232644 -210.567315 
L 101.216279 -212.702197 
L 101.178643 -214.837079 
L 101.117097 -216.971961 
L 101.029433 -219.106843 
L 100.914155 -221.241725 
L 100.77084 -223.376607 
L 100.600522 -225.511489 
L 100.406075 -227.646371 
L 100.192498 -229.781253 
L 99.967057 -231.916135 
L 99.739184 -234.051016 
L 99.520103 -236.185898 
L 99.32217 -238.32078 
L 99.157938 -240.455662 
L 99.039062 -242.590544 
L 98.975149 -244.725426 
L 98.972717 -246.860308 
L 99.034414 -248.99519 
L 99.158637 -251.130072 
L 99.339608 -253.264954 
L 99.567916 -255.399836 
L 99.831458 -257.534717 
L 100.11663 -259.669599 
L 100.409621 -261.804481 
L 100.697608 -263.939363 
L 100.969733 -266.074245 
L 101.217737 -268.209127 
L 101.436236 -270.344009 
L 101.622647 -272.478891 
L 101.776848 -274.613773 
L 101.900645 -276.748655 
L 102.579355 -276.748655 
L 102.579355 -276.748655 
L 102.703152 -274.613773 
L 102.857353 -272.478891 
L 103.043764 -270.344009 
L 103.262263 -268.209127 
L 103.510267 -266.074245 
L 103.782392 -263.939363 
L 104.070379 -261.804481 
L 104.36337 -259.669599 
L 104.648542 -257.534717 
L 104.912084 -255.399836 
L 105.140392 -253.264954 
L 105.321363 -251.130072 
L 105.445586 -248.99519 
L 105.507283 -246.860308 
L 105.504851 -244.725426 
L 105.440938 -242.590544 
L 105.322062 -240.455662 
L 105.15783 -238.32078 
L 104.959897 -236.185898 
L 104.740816 -234.051016 
L 104.512943 -231.916135 
L 104.287502 -229.781253 
L 104.073925 -227.646371 
L 103.879478 -225.511489 
L 103.70916 -223.376607 
L 103.565845 -221.241725 
L 103.450567 -219.106843 
L 103.362903 -216.971961 
L 103.301357 -214.837079 
L 103.263721 -212.702197 
L 103.247356 -210.567315 
L 103.249392 -208.432433 
L 103.266846 -206.297552 
L 103.29668 -204.16267 
L 103.335818 -202.027788 
L 103.381153 -199.892906 
L 103.429579 -197.758024 
L 103.47805 -195.623142 
L 103.523703 -193.48826 
L 103.564009 -191.353378 
L 103.59697 -189.218496 
L 103.621312 -187.083614 
L 103.636648 -184.948732 
L 103.643575 -182.813851 
L 103.643688 -180.678969 
L 103.639474 -178.544087 
L 103.634109 -176.409205 
L 103.631159 -174.274323 
L 103.634225 -172.139441 
L 103.64657 -170.004559 
L 103.670785 -167.869677 
L 103.708526 -165.734795 
L 103.760368 -163.599913 
L 103.825813 -161.465031 
L 103.903436 -159.330149 
L 103.991191 -157.195268 
L 104.086833 -155.060386 
L 104.188436 -152.925504 
L 104.294958 -150.790622 
L 104.406814 -148.65574 
L 104.526429 -146.520858 
L 104.658743 -144.385976 
L 104.811669 -142.251094 
L 104.996509 -140.116212 
L 105.228329 -137.98133 
L 105.526279 -135.846448 
L 105.913813 -133.711567 
L 106.418691 -131.576685 
L 107.072611 -129.441803 
L 107.910246 -127.306921 
L 108.967444 -125.172039 
L 110.278412 -123.037157 
L 111.871775 -120.902275 
L 113.765626 -118.767393 
L 115.961925 -116.632511 
L 118.440889 -114.497629 
L 121.156279 -112.362747 
L 124.032613 -110.227865 
L 126.965321 -108.092984 
L 129.82459 -105.958102 
L 132.463187 -103.82322 
L 134.72786 -101.688338 
L 136.473276 -99.553456 
L 137.576788 -97.418574 
L 137.952 -95.283692 
L 137.559067 -93.14881 
L 136.410056 -91.013928 
L 134.568427 -88.879046 
L 132.142617 -86.744164 
L 129.274674 -84.609283 
L 126.125642 -82.474401 
L 122.859842 -80.339519 
L 119.630233 -78.204637 
L 116.566649 -76.069755 
L 113.768093 -73.934873 
L 111.299506 -71.799991 
L 109.192664 -69.665109 
L 107.450356 -67.530227 
L 106.052645 -65.395345 
z
" style="stroke: #393939; stroke-width: 1.5"/>
    </defs>
    <g clip-path="url(#p21ca63d51f)">
     <use xlink:href="#mb577d95659" x="0" y="345.6" style="fill: #d0dde8; stroke: #393939; stroke-width: 1.5"/>
    </g>
   </g>
   <g id="PolyCollection_2">
    <defs>
     <path id="m6fa4a3f685" d="M 195.425726 -76.190815 
L 187.614274 -76.190815 
L 185.376247 -78.107607 
L 182.351226 -80.024398 
L 178.535121 -81.94119 
L 174.064067 -83.857982 
L 169.23616 -85.774773 
L 164.493654 -87.691565 
L 160.359513 -89.608356 
L 157.33842 -91.525148 
L 155.808 -93.44194 
L 155.933472 -95.358731 
L 157.633371 -97.275523 
L 160.606945 -99.192315 
L 164.412396 -101.109106 
L 168.568875 -103.025898 
L 172.650512 -104.942689 
L 176.348441 -106.859481 
L 179.491648 -108.776273 
L 182.032287 -110.693064 
L 184.010099 -112.609856 
L 185.511997 -114.526647 
L 186.638561 -116.443439 
L 187.482656 -118.360231 
L 188.119823 -120.277022 
L 188.607015 -122.193814 
L 188.985628 -124.110606 
L 189.285708 -126.027397 
L 189.52956 -127.944189 
L 189.734142 -129.86098 
L 189.912311 -131.777772 
L 190.073276 -133.694564 
L 190.222705 -135.611355 
L 190.362883 -137.528147 
L 190.493216 -139.444938 
L 190.611189 -141.36173 
L 190.713694 -143.278522 
L 190.798441 -145.195313 
L 190.865089 -147.112105 
L 190.915761 -149.028896 
L 190.954775 -150.945688 
L 190.987654 -152.86248 
L 191.019714 -154.779271 
L 191.054653 -156.696063 
L 191.093584 -158.612855 
L 191.134818 -160.529646 
L 191.174438 -162.446438 
L 191.207497 -164.363229 
L 191.229461 -166.280021 
L 191.237457 -168.196813 
L 191.230968 -170.113604 
L 191.2118 -172.030396 
L 191.183382 -173.947187 
L 191.149698 -175.863979 
L 191.114235 -177.780771 
L 191.079344 -179.697562 
L 191.046217 -181.614354 
L 191.015417 -183.531145 
L 190.987688 -185.447937 
L 190.964621 -187.364729 
L 190.948849 -189.28152 
L 190.943637 -191.198312 
L 190.952013 -193.115104 
L 190.975739 -195.031895 
L 191.014515 -196.948687 
L 191.065659 -198.865478 
L 191.124354 -200.78227 
L 191.184373 -202.699062 
L 191.239051 -204.615853 
L 191.2823 -206.532645 
L 191.309488 -208.449436 
L 191.318072 -210.366228 
L 191.307973 -212.28302 
L 191.281628 -214.199811 
L 191.243708 -216.116603 
L 191.200454 -218.033394 
L 191.158656 -219.950186 
L 191.124401 -221.866978 
L 191.101831 -223.783769 
L 191.092215 -225.700561 
L 191.093632 -227.617353 
L 191.10141 -229.534144 
L 191.109288 -231.450936 
L 191.111061 -233.367727 
L 191.102275 -235.284519 
L 191.081562 -237.201311 
L 191.051214 -239.118102 
L 191.016826 -241.034894 
L 190.986064 -242.951685 
L 190.96688 -244.868477 
L 190.965635 -246.785269 
L 190.985638 -248.70206 
L 191.026491 -250.618852 
L 191.084347 -252.535644 
L 191.152967 -254.452435 
L 191.22519 -256.369227 
L 191.294407 -258.286018 
L 191.355638 -260.20281 
L 191.406038 -262.119602 
L 191.444835 -264.036393 
L 191.472859 -265.953185 
L 191.567141 -265.953185 
L 191.567141 -265.953185 
L 191.595165 -264.036393 
L 191.633962 -262.119602 
L 191.684362 -260.20281 
L 191.745593 -258.286018 
L 191.81481 -256.369227 
L 191.887033 -254.452435 
L 191.955653 -252.535644 
L 192.013509 -250.618852 
L 192.054362 -248.70206 
L 192.074365 -246.785269 
L 192.07312 -244.868477 
L 192.053936 -242.951685 
L 192.023174 -241.034894 
L 191.988786 -239.118102 
L 191.958438 -237.201311 
L 191.937725 -235.284519 
L 191.928939 -233.367727 
L 191.930712 -231.450936 
L 191.93859 -229.534144 
L 191.946368 -227.617353 
L 191.947785 -225.700561 
L 191.938169 -223.783769 
L 191.915599 -221.866978 
L 191.881344 -219.950186 
L 191.839546 -218.033394 
L 191.796292 -216.116603 
L 191.758372 -214.199811 
L 191.732027 -212.28302 
L 191.721928 -210.366228 
L 191.730512 -208.449436 
L 191.7577 -206.532645 
L 191.800949 -204.615853 
L 191.855627 -202.699062 
L 191.915646 -200.78227 
L 191.974341 -198.865478 
L 192.025485 -196.948687 
L 192.064261 -195.031895 
L 192.087987 -193.115104 
L 192.096363 -191.198312 
L 192.091151 -189.28152 
L 192.075379 -187.364729 
L 192.052312 -185.447937 
L 192.024583 -183.531145 
L 191.993783 -181.614354 
L 191.960656 -179.697562 
L 191.925765 -177.780771 
L 191.890302 -175.863979 
L 191.856618 -173.947187 
L 191.8282 -172.030396 
L 191.809032 -170.113604 
L 191.802543 -168.196813 
L 191.810539 -166.280021 
L 191.832503 -164.363229 
L 191.865562 -162.446438 
L 191.905182 -160.529646 
L 191.946416 -158.612855 
L 191.985347 -156.696063 
L 192.020286 -154.779271 
L 192.052346 -152.86248 
L 192.085225 -150.945688 
L 192.124239 -149.028896 
L 192.174911 -147.112105 
L 192.241559 -145.195313 
L 192.326306 -143.278522 
L 192.428811 -141.36173 
L 192.546784 -139.444938 
L 192.677117 -137.528147 
L 192.817295 -135.611355 
L 192.966724 -133.694564 
L 193.127689 -131.777772 
L 193.305858 -129.86098 
L 193.51044 -127.944189 
L 193.754292 -126.027397 
L 194.054372 -124.110606 
L 194.432985 -122.193814 
L 194.920177 -120.277022 
L 195.557344 -118.360231 
L 196.401439 -116.443439 
L 197.528003 -114.526647 
L 199.029901 -112.609856 
L 201.007713 -110.693064 
L 203.548352 -108.776273 
L 206.691559 -106.859481 
L 210.389488 -104.942689 
L 214.471125 -103.025898 
L 218.627604 -101.109106 
L 222.433055 -99.192315 
L 225.406629 -97.275523 
L 227.106528 -95.358731 
L 227.232 -93.44194 
L 225.70158 -91.525148 
L 222.680487 -89.608356 
L 218.546346 -87.691565 
L 213.80384 -85.774773 
L 208.975933 -83.857982 
L 204.504879 -81.94119 
L 200.688774 -80.024398 
L 197.663753 -78.107607 
L 195.425726 -76.190815 
z
" style="stroke: #393939; stroke-width: 1.5"/>
    </defs>
    <g clip-path="url(#p21ca63d51f)">
     <use xlink:href="#m6fa4a3f685" x="0" y="345.6" style="fill: #a2b5cf; stroke: #393939; stroke-width: 1.5"/>
    </g>
   </g>
   <g id="PolyCollection_3">
    <defs>
     <path id="me02e256434" d="M 283.240674 -50.112 
L 278.359326 -50.112 
L 277.732321 -52.555636 
L 276.993936 -54.999273 
L 276.138604 -57.442909 
L 275.164431 -59.886545 
L 274.074087 -62.330182 
L 272.875586 -64.773818 
L 271.582822 -67.217455 
L 270.215803 -69.661091 
L 268.800494 -72.104727 
L 267.368233 -74.548364 
L 265.954697 -76.992 
L 264.598455 -79.435636 
L 263.339179 -81.879273 
L 262.21562 -84.322909 
L 261.263495 -86.766545 
L 260.513449 -89.210182 
L 259.989257 -91.653818 
L 259.706413 -94.097455 
L 259.671236 -96.541091 
L 259.880555 -98.984727 
L 260.322014 -101.428364 
L 260.97495 -103.872 
L 261.811772 -106.315636 
L 262.799706 -108.759273 
L 263.902769 -111.202909 
L 265.083792 -113.646545 
L 266.306348 -116.090182 
L 267.53644 -118.533818 
L 268.743861 -120.977455 
L 269.903143 -123.421091 
L 270.994094 -125.864727 
L 272.001923 -128.308364 
L 272.917017 -130.752 
L 273.734433 -133.195636 
L 274.45319 -135.639273 
L 275.075457 -138.082909 
L 275.605696 -140.526545 
L 276.049854 -142.970182 
L 276.414635 -145.413818 
L 276.706889 -147.857455 
L 276.933138 -150.301091 
L 277.099235 -152.744727 
L 277.210141 -155.188364 
L 277.269813 -157.632 
L 277.281154 -160.075636 
L 277.246032 -162.519273 
L 277.165321 -164.962909 
L 277.038949 -167.406545 
L 276.865949 -169.850182 
L 276.644491 -172.293818 
L 276.3719 -174.737455 
L 276.044662 -177.181091 
L 275.658419 -179.624727 
L 275.207978 -182.068364 
L 274.687332 -184.512 
L 274.089735 -186.955636 
L 273.407826 -189.399273 
L 272.633849 -191.842909 
L 271.759961 -194.286545 
L 270.778671 -196.730182 
L 269.683394 -199.173818 
L 268.469129 -201.617455 
L 267.13325 -204.061091 
L 265.676362 -206.504727 
L 264.1032 -208.948364 
L 262.423479 -211.392 
L 260.652635 -213.835636 
L 258.812365 -216.279273 
L 256.930875 -218.722909 
L 255.042746 -221.166545 
L 253.188376 -223.610182 
L 251.412928 -226.053818 
L 249.764818 -228.497455 
L 248.293766 -230.941091 
L 247.048516 -233.384727 
L 246.074342 -235.828364 
L 245.410528 -238.272 
L 245.088 -240.715636 
L 245.127298 -243.159273 
L 245.537077 -245.602909 
L 246.313261 -248.046545 
L 247.438959 -250.490182 
L 248.885147 -252.933818 
L 250.612091 -255.377455 
L 252.571399 -257.821091 
L 254.708551 -260.264727 
L 256.965701 -262.708364 
L 259.284549 -265.152 
L 261.609067 -267.595636 
L 263.887904 -270.039273 
L 266.076304 -272.482909 
L 268.13748 -274.926545 
L 270.043364 -277.370182 
L 271.774778 -279.813818 
L 273.321079 -282.257455 
L 274.679363 -284.701091 
L 275.853366 -287.144727 
L 276.852161 -289.588364 
L 277.688799 -292.032 
L 283.911201 -292.032 
L 283.911201 -292.032 
L 284.747839 -289.588364 
L 285.746634 -287.144727 
L 286.920637 -284.701091 
L 288.278921 -282.257455 
L 289.825222 -279.813818 
L 291.556636 -277.370182 
L 293.46252 -274.926545 
L 295.523696 -272.482909 
L 297.712096 -270.039273 
L 299.990933 -267.595636 
L 302.315451 -265.152 
L 304.634299 -262.708364 
L 306.891449 -260.264727 
L 309.028601 -257.821091 
L 310.987909 -255.377455 
L 312.714853 -252.933818 
L 314.161041 -250.490182 
L 315.286739 -248.046545 
L 316.062923 -245.602909 
L 316.472702 -243.159273 
L 316.512 -240.715636 
L 316.189472 -238.272 
L 315.525658 -235.828364 
L 314.551484 -233.384727 
L 313.306234 -230.941091 
L 311.835182 -228.497455 
L 310.187072 -226.053818 
L 308.411624 -223.610182 
L 306.557254 -221.166545 
L 304.669125 -218.722909 
L 302.787635 -216.279273 
L 300.947365 -213.835636 
L 299.176521 -211.392 
L 297.4968 -208.948364 
L 295.923638 -206.504727 
L 294.46675 -204.061091 
L 293.130871 -201.617455 
L 291.916606 -199.173818 
L 290.821329 -196.730182 
L 289.840039 -194.286545 
L 288.966151 -191.842909 
L 288.192174 -189.399273 
L 287.510265 -186.955636 
L 286.912668 -184.512 
L 286.392022 -182.068364 
L 285.941581 -179.624727 
L 285.555338 -177.181091 
L 285.2281 -174.737455 
L 284.955509 -172.293818 
L 284.734051 -169.850182 
L 284.561051 -167.406545 
L 284.434679 -164.962909 
L 284.353968 -162.519273 
L 284.318846 -160.075636 
L 284.330187 -157.632 
L 284.389859 -155.188364 
L 284.500765 -152.744727 
L 284.666862 -150.301091 
L 284.893111 -147.857455 
L 285.185365 -145.413818 
L 285.550146 -142.970182 
L 285.994304 -140.526545 
L 286.524543 -138.082909 
L 287.14681 -135.639273 
L 287.865567 -133.195636 
L 288.682983 -130.752 
L 289.598077 -128.308364 
L 290.605906 -125.864727 
L 291.696857 -123.421091 
L 292.856139 -120.977455 
L 294.06356 -118.533818 
L 295.293652 -116.090182 
L 296.516208 -113.646545 
L 297.697231 -111.202909 
L 298.800294 -108.759273 
L 299.788228 -106.315636 
L 300.62505 -103.872 
L 301.277986 -101.428364 
L 301.719445 -98.984727 
L 301.928764 -96.541091 
L 301.893587 -94.097455 
L 301.610743 -91.653818 
L 301.086551 -89.210182 
L 300.336505 -86.766545 
L 299.38438 -84.322909 
L 298.260821 -81.879273 
L 297.001545 -79.435636 
L 295.645303 -76.992 
L 294.231767 -74.548364 
L 292.799506 -72.104727 
L 291.384197 -69.661091 
L 290.017178 -67.217455 
L 288.724414 -64.773818 
L 287.525913 -62.330182 
L 286.435569 -59.886545 
L 285.461396 -57.442909 
L 284.606064 -54.999273 
L 283.867679 -52.555636 
L 283.240674 -50.112 
z
" style="stroke: #393939; stroke-width: 1.5"/>
    </defs>
    <g clip-path="url(#p21ca63d51f)">
     <use xlink:href="#me02e256434" x="0" y="345.6" style="fill: #8e7cad; stroke: #393939; stroke-width: 1.5"/>
    </g>
   </g>
   <g id="PolyCollection_4">
    <defs>
     <path id="mf841418217" d="M 373.621051 -71.207744 
L 366.538949 -71.207744 
L 364.922286 -73.225203 
L 362.819335 -75.242663 
L 360.200129 -77.260123 
L 357.082687 -79.277583 
L 353.546408 -81.295042 
L 349.738112 -83.312502 
L 345.867302 -85.329962 
L 342.189039 -87.347421 
L 338.975639 -89.364881 
L 336.481346 -91.382341 
L 334.906439 -93.399801 
L 334.368 -95.41726 
L 334.883477 -97.43472 
L 336.370397 -99.45218 
L 338.661927 -101.469639 
L 341.53448 -103.487099 
L 344.741211 -105.504559 
L 348.044658 -107.522019 
L 351.242821 -109.539478 
L 354.185271 -111.556938 
L 356.778508 -113.574398 
L 358.98209 -115.591858 
L 360.798459 -117.609317 
L 362.259825 -119.626777 
L 363.415058 -121.644237 
L 364.31864 -123.661696 
L 365.022716 -125.679156 
L 365.572394 -127.696616 
L 366.003845 -129.714076 
L 366.344449 -131.731535 
L 366.614141 -133.748995 
L 366.827254 -135.766455 
L 366.994306 -137.783915 
L 367.123423 -139.801374 
L 367.221275 -141.818834 
L 367.293582 -143.836294 
L 367.345319 -145.853753 
L 367.380807 -147.871213 
L 367.403807 -149.888673 
L 367.417699 -151.906133 
L 367.425724 -153.923592 
L 367.431219 -155.941052 
L 367.437737 -157.958512 
L 367.448985 -159.975972 
L 367.468553 -161.993431 
L 367.499487 -164.010891 
L 367.54383 -166.028351 
L 367.602267 -168.04581 
L 367.673994 -170.06327 
L 367.756876 -172.08073 
L 367.847867 -174.09819 
L 367.943585 -176.115649 
L 368.040892 -178.133109 
L 368.137324 -180.150569 
L 368.231267 -182.168028 
L 368.321861 -184.185488 
L 368.408693 -186.202948 
L 368.491403 -188.220408 
L 368.569349 -190.237867 
L 368.641443 -192.255327 
L 368.706229 -194.272787 
L 368.762151 -196.290247 
L 368.807949 -198.307706 
L 368.843032 -200.325166 
L 368.867728 -202.342626 
L 368.883298 -204.360085 
L 368.891724 -206.377545 
L 368.895293 -208.395005 
L 368.896095 -210.412465 
L 368.895551 -212.429924 
L 368.894092 -214.447384 
L 368.891084 -216.464844 
L 368.885006 -218.482304 
L 368.873856 -220.499763 
L 368.855694 -222.517223 
L 368.829211 -224.534683 
L 368.794198 -226.552142 
L 368.751851 -228.569602 
L 368.704844 -230.587062 
L 368.657188 -232.604522 
L 368.613896 -234.621981 
L 368.580509 -236.639441 
L 368.562534 -238.656901 
L 368.564848 -240.674361 
L 368.591123 -242.69182 
L 368.643341 -244.70928 
L 368.721448 -246.72674 
L 368.823238 -248.744199 
L 368.944494 -250.761659 
L 369.079394 -252.779119 
L 369.221153 -254.796579 
L 369.362784 -256.814038 
L 369.497864 -258.831498 
L 369.621171 -260.848958 
L 369.729095 -262.866417 
L 369.819777 -264.883877 
L 369.892991 -266.901337 
L 369.949828 -268.918797 
L 369.992275 -270.936256 
L 370.167725 -270.936256 
L 370.167725 -270.936256 
L 370.210172 -268.918797 
L 370.267009 -266.901337 
L 370.340223 -264.883877 
L 370.430905 -262.866417 
L 370.538829 -260.848958 
L 370.662136 -258.831498 
L 370.797216 -256.814038 
L 370.938847 -254.796579 
L 371.080606 -252.779119 
L 371.215506 -250.761659 
L 371.336762 -248.744199 
L 371.438552 -246.72674 
L 371.516659 -244.70928 
L 371.568877 -242.69182 
L 371.595152 -240.674361 
L 371.597466 -238.656901 
L 371.579491 -236.639441 
L 371.546104 -234.621981 
L 371.502812 -232.604522 
L 371.455156 -230.587062 
L 371.408149 -228.569602 
L 371.365802 -226.552142 
L 371.330789 -224.534683 
L 371.304306 -222.517223 
L 371.286144 -220.499763 
L 371.274994 -218.482304 
L 371.268916 -216.464844 
L 371.265908 -214.447384 
L 371.264449 -212.429924 
L 371.263905 -210.412465 
L 371.264707 -208.395005 
L 371.268276 -206.377545 
L 371.276702 -204.360085 
L 371.292272 -202.342626 
L 371.316968 -200.325166 
L 371.352051 -198.307706 
L 371.397849 -196.290247 
L 371.453771 -194.272787 
L 371.518557 -192.255327 
L 371.590651 -190.237867 
L 371.668597 -188.220408 
L 371.751307 -186.202948 
L 371.838139 -184.185488 
L 371.928733 -182.168028 
L 372.022676 -180.150569 
L 372.119108 -178.133109 
L 372.216415 -176.115649 
L 372.312133 -174.09819 
L 372.403124 -172.08073 
L 372.486006 -170.06327 
L 372.557733 -168.04581 
L 372.61617 -166.028351 
L 372.660513 -164.010891 
L 372.691447 -161.993431 
L 372.711015 -159.975972 
L 372.722263 -157.958512 
L 372.728781 -155.941052 
L 372.734276 -153.923592 
L 372.742301 -151.906133 
L 372.756193 -149.888673 
L 372.779193 -147.871213 
L 372.814681 -145.853753 
L 372.866418 -143.836294 
L 372.938725 -141.818834 
L 373.036577 -139.801374 
L 373.165694 -137.783915 
L 373.332746 -135.766455 
L 373.545859 -133.748995 
L 373.815551 -131.731535 
L 374.156155 -129.714076 
L 374.587606 -127.696616 
L 375.137284 -125.679156 
L 375.84136 -123.661696 
L 376.744942 -121.644237 
L 377.900175 -119.626777 
L 379.361541 -117.609317 
L 381.17791 -115.591858 
L 383.381492 -113.574398 
L 385.974729 -111.556938 
L 388.917179 -109.539478 
L 392.115342 -107.522019 
L 395.418789 -105.504559 
L 398.62552 -103.487099 
L 401.498073 -101.469639 
L 403.789603 -99.45218 
L 405.276523 -97.43472 
L 405.792 -95.41726 
L 405.253561 -93.399801 
L 403.678654 -91.382341 
L 401.184361 -89.364881 
L 397.970961 -87.347421 
L 394.292698 -85.329962 
L 390.421888 -83.312502 
L 386.613592 -81.295042 
L 383.077313 -79.277583 
L 379.959871 -77.260123 
L 377.340665 -75.242663 
L 375.237714 -73.225203 
L 373.621051 -71.207744 
z
" style="stroke: #393939; stroke-width: 1.5"/>
    </defs>
    <g clip-path="url(#p21ca63d51f)">
     <use xlink:href="#mf841418217" x="0" y="345.6" style="fill: #7c3983; stroke: #393939; stroke-width: 1.5"/>
    </g>
   </g>
   <g id="line2d_13">
    <path d="M 102.24 252.919889 
L 102.24 221.495554 
" clip-path="url(#p21ca63d51f)" style="fill: none; stroke: #393939; stroke-width: 1.5; stroke-linecap: round"/>
   </g>
   <g id="line2d_14">
    <path d="M 102.24 252.919889 
L 102.24 239.94732 
" clip-path="url(#p21ca63d51f)" style="fill: none; stroke: #393939; stroke-width: 4.5; stroke-linecap: round"/>
   </g>
   <g id="line2d_15">
    <path d="M 191.52 252.919889 
L 191.52 238.826965 
" clip-path="url(#p21ca63d51f)" style="fill: none; stroke: #393939; stroke-width: 1.5; stroke-linecap: round"/>
   </g>
   <g id="line2d_16">
    <path d="M 191.52 252.919889 
L 191.52 246.974279 
" clip-path="url(#p21ca63d51f)" style="fill: none; stroke: #393939; stroke-width: 4.5; stroke-linecap: round"/>
   </g>
   <g id="line2d_17">
    <path d="M 280.8 252.919889 
L 280.8 96.136111 
" clip-path="url(#p21ca63d51f)" style="fill: none; stroke: #393939; stroke-width: 1.5; stroke-linecap: round"/>
   </g>
   <g id="line2d_18">
    <path d="M 280.8 249.586134 
L 280.8 98.7428 
" clip-path="url(#p21ca63d51f)" style="fill: none; stroke: #393939; stroke-width: 4.5; stroke-linecap: round"/>
   </g>
   <g id="line2d_19">
    <path d="M 370.08 252.919889 
L 370.08 209.53797 
" clip-path="url(#p21ca63d51f)" style="fill: none; stroke: #393939; stroke-width: 1.5; stroke-linecap: round"/>
   </g>
   <g id="line2d_20">
    <path d="M 370.08 252.919889 
L 370.08 235.145231 
" clip-path="url(#p21ca63d51f)" style="fill: none; stroke: #393939; stroke-width: 4.5; stroke-linecap: round"/>
   </g>
   <g id="patch_3">
    <path d="M 57.6 307.584 
L 57.6 41.472 
" style="fill: none; stroke: #262626; stroke-width: 0.8; stroke-linejoin: miter; stroke-linecap: square"/>
   </g>
   <g id="patch_4">
    <path d="M 414.72 307.584 
L 414.72 41.472 
" style="fill: none; stroke: #262626; stroke-width: 0.8; stroke-linejoin: miter; stroke-linecap: square"/>
   </g>
   <g id="patch_5">
    <path d="M 57.6 307.584 
L 414.72 307.584 
" style="fill: none; stroke: #262626; stroke-width: 0.8; stroke-linejoin: miter; stroke-linecap: square"/>
   </g>
   <g id="patch_6">
    <path d="M 57.6 41.472 
L 414.72 41.472 
" style="fill: none; stroke: #262626; stroke-width: 0.8; stroke-linejoin: miter; stroke-linecap: square"/>
   </g>
   <g id="PathCollection_1">
    <defs>
     <path id="mef5bf6bfc8" d="M 0 1.5 
C 0.397805 1.5 0.77937 1.341951 1.06066 1.06066 
C 1.341951 0.77937 1.5 0.397805 1.5 0 
C 1.5 -0.397805 1.341951 -0.77937 1.06066 -1.06066 
C 0.77937 -1.341951 0.397805 -1.5 0 -1.5 
C -0.397805 -1.5 -0.77937 -1.341951 -1.06066 -1.06066 
C -1.341951 -0.77937 -1.5 -0.397805 -1.5 0 
C -1.5 0.397805 -1.341951 0.77937 -1.06066 1.06066 
C -0.77937 1.341951 -0.397805 1.5 0 1.5 
z
" style="stroke: #393939"/>
    </defs>
    <g clip-path="url(#p21ca63d51f)">
     <use xlink:href="#mef5bf6bfc8" x="102.24" y="251.611177" style="fill: #ffffff; stroke: #393939"/>
    </g>
   </g>
   <g id="PathCollection_2">
    <g clip-path="url(#p21ca63d51f)">
     <use xlink:href="#mef5bf6bfc8" x="191.52" y="252.306254" style="fill: #ffffff; stroke: #393939"/>
    </g>
   </g>
   <g id="PathCollection_3">
    <g clip-path="url(#p21ca63d51f)">
     <use xlink:href="#mef5bf6bfc8" x="280.8" y="117.844634" style="fill: #ffffff; stroke: #393939"/>
    </g>
   </g>
   <g id="PathCollection_4">
    <g clip-path="url(#p21ca63d51f)">
     <use xlink:href="#mef5bf6bfc8" x="370.08" y="250.191588" style="fill: #ffffff; stroke: #393939"/>
    </g>
   </g>
  </g>
 </g>
 <defs>
  <clipPath id="p21ca63d51f">
   <rect x="57.6" y="41.472" width="357.12" height="266.112"/>
  </clipPath>
 </defs>
</svg>
