<?xml version="1.0" encoding="utf-8" standalone="no"?>
<!DOCTYPE svg PUBLIC "-//W3C//DTD SVG 1.1//EN"
  "http://www.w3.org/Graphics/SVG/1.1/DTD/svg11.dtd">
<svg xmlns:xlink="http://www.w3.org/1999/xlink" width="460.8pt" height="345.6pt" viewBox="0 0 460.8 345.6" xmlns="http://www.w3.org/2000/svg" version="1.1">
 <metadata>
  <rdf:RDF xmlns:dc="http://purl.org/dc/elements/1.1/" xmlns:cc="http://creativecommons.org/ns#" xmlns:rdf="http://www.w3.org/1999/02/22-rdf-syntax-ns#">
   <cc:Work>
    <dc:type rdf:resource="http://purl.org/dc/dcmitype/StillImage"/>
    <dc:date>2026-05-26T09:35:56.468483</dc:date>
    <dc:format>image/svg+xml</dc:format>
    <dc:creator>
     <cc:Agent>
      <dc:title>Matplotlib v3.5.1, https://matplotlib.org/</dc:title>
     </cc:Agent>
    </dc:creator>
   </cc:Work>
  </rdf:RDF>
 </metadata>
 <defs>
  <style type="text/css">*{stroke-linejoin: round; stroke-linecap: butt}</style>
 </defs>
 <g id="figure_1">
  <g id="patch_1">
   <path d="M 0 345.6 
L 460.8 345.6 
L 460.8 0 
L 0 0 
z
" style="fill: #ffffff"/>
  </g>
  <g id="axes_1">
   <g id="patch_2">
    <path d="M 57.6 307.584 
L 414.72 307.584 
L 414.72 41.472 
L 57.6 41.472 
z
" style="fill: #ffffff"/>
   </g>
   <g id="matplotlib.axis_1">
    <g id="xtick_1">
     <g id="line2d_1">
      <defs>
       <path id="mb45f41882e" d="M 0 0 
L 0 6 
" style="stroke: #262626; stroke-width: 1.25"/>
      </defs>
      <g>
       <use xlink:href="#mb45f41882e" x="73.832727" y="307.584" style="fill: #262626; stroke: #262626; stroke-width: 1.25"/>
      </g>
     </g>
     <g id="text_1">
      <text style="fill: #262626; font: 11px 'sans-serif'; text-anchor: middle" x="73.832727" y="324.957594" transform="rotate(-0, 73.832727, 324.957594)">0</text>
     </g>
    </g>
    <g id="xtick_2">
     <g id="line2d_2">
      <g>
       <use xlink:href="#mb45f41882e" x="124.879039" y="307.584" style="fill: #262626; stroke: #262626; stroke-width: 1.25"/>
      </g>
     </g>
     <g id="text_2">
      <text style="fill: #262626; font: 11px 'sans-serif'; text-anchor: middle" x="124.879039" y="324.957594" transform="rotate(-0, 124.879039, 324.957594)">50</text>
     </g>
    </g>
    <g id="xtick_3">
     <g id="line2d_3">
      <g>
       <use xlink:href="#mb45f41882e" x="175.925352" y="307.584" style="fill: #262626; stroke: #262626; stroke-width: 1.25"/>
      </g>
     </g>
     <g id="text_3">
      <text style="fill: #262626; font: 11px 'sans-serif'; text-anchor: middle" x="175.925352" y="324.957594" transform="rotate(-0, 175.925352, 324.957594)">100</text>
     </g>
    </g>
    <g id="xtick_4">
     <g id="line2d_4">
      <g>
       <use xlink:href="#mb45f41882e" x="226.971664" y="307.584" style="fill: #262626; stroke: #262626; stroke-width: 1.25"/>
      </g>
     </g>
     <g id="text_4">
      <text style="fill: #262626; font: 11px 'sans-serif'; text-anchor: middle" x="226.971664" y="324.957594" transform="rotate(-0, 226.971664, 324.957594)">150</text>
     </g>
    </g>
    <g id="xtick_5">
     <g id="line2d_5">
      <g>
       <use xlink:href="#mb45f41882e" x="278.017976" y="307.584" style="fill: #262626; stroke: #262626; stroke-width: 1.25"/>
      </g>
     </g>
     <g id="text_5">
      <text style="fill: #262626; font: 11px 'sans-serif'; text-anchor: middle" x="278.017976" y="324.957594" transform="rotate(-0, 278.017976, 324.957594)">200</text>
     </g>
    </g>
    <g id="xtick_6">
     <g id="line2d_6">
      <g>
       <use xlink:href="#mb45f41882e" x="329.064288" y="307.584" style="fill: #262626; stroke: #262626; stroke-width: 1.25"/>
      </g>
     </g>
     <g id="text_6">
      <text style="fill: #262626; font: 11px 'sans-serif'; text-anchor: middle" x="329.064288" y="324.957594" transform="rotate(-0, 329.064288, 324.957594)">250</text>
     </g>
    </g>
    <g id="xtick_7">
     <g id="line2d_7">
      <g>
       <use xlink:href="#mb45f41882e" x="380.1106" y="307.584" style="fill: #262626; stroke: #262626; stroke-width: 1.25"/>
      </g>
     </g>
     <g id="text_7">
      <text style="fill: #262626; font: 11px 'sans-serif'; text-anchor: middle" x="380.1106" y="324.957594" transform="rotate(-0, 380.1106, 324.957594)">300</text>
     </g>
    </g>
    <g id="text_8">
     <text style="fill: #262626; font: 12px 'sans-serif'; text-anchor: middle" x="236.16" y="339.879469" transform="rotate(-0, 236.16, 339.879469)">Threshold prior to DnaK release (frames)</text>
    </g>
   </g>
   <g id="matplotlib.axis_2">
    <g id="ytick_1">
     <g id="line2d_8">
      <defs>
       <path id="m7199ed224a" d="M 0 0 
L -6 0 
" style="stroke: #262626; stroke-width: 1.25"/>
      </defs>
      <g>
       <use xlink:href="#m7199ed224a" x="57.6" y="304.582737" style="fill: #262626; stroke: #262626; stroke-width: 1.25"/>
      </g>
     </g>
     <g id="text_9">
      <text style="fill: #262626; font: 11px 'sans-serif'; text-anchor: end" x="48.1" y="308.519534" transform="rotate(-0, 48.1, 308.519534)">0.00</text>
     </g>
    </g>
    <g id="ytick_2">
     <g id="line2d_9">
      <g>
       <use xlink:href="#m7199ed224a" x="57.6" y="273.205895" style="fill: #262626; stroke: #262626; stroke-width: 1.25"/>
      </g>
     </g>
     <g id="text_10">
      <text style="fill: #262626; font: 11px 'sans-serif'; text-anchor: end" x="48.1" y="277.142692" transform="rotate(-0, 48.1, 277.142692)">0.05</text>
     </g>
    </g>
    <g id="ytick_3">
     <g id="line2d_10">
      <g>
       <use xlink:href="#m7199ed224a" x="57.6" y="241.829053" style="fill: #262626; stroke: #262626; stroke-width: 1.25"/>
      </g>
     </g>
     <g id="text_11">
      <text style="fill: #262626; font: 11px 'sans-serif'; text-anchor: end" x="48.1" y="245.76585" transform="rotate(-0, 48.1, 245.76585)">0.10</text>
     </g>
    </g>
    <g id="ytick_4">
     <g id="line2d_11">
      <g>
       <use xlink:href="#m7199ed224a" x="57.6" y="210.452211" style="fill: #262626; stroke: #262626; stroke-width: 1.25"/>
      </g>
     </g>
     <g id="text_12">
      <text style="fill: #262626; font: 11px 'sans-serif'; text-anchor: end" x="48.1" y="214.389007" transform="rotate(-0, 48.1, 214.389007)">0.15</text>
     </g>
    </g>
    <g id="ytick_5">
     <g id="line2d_12">
      <g>
       <use xlink:href="#m7199ed224a" x="57.6" y="179.075368" style="fill: #262626; stroke: #262626; stroke-width: 1.25"/>
      </g>
     </g>
     <g id="text_13">
      <text style="fill: #262626; font: 11px 'sans-serif'; text-anchor: end" x="48.1" y="183.012165" transform="rotate(-0, 48.1, 183.012165)">0.20</text>
     </g>
    </g>
    <g id="ytick_6">
     <g id="line2d_13">
      <g>
       <use xlink:href="#m7199ed224a" x="57.6" y="147.698526" style="fill: #262626; stroke: #262626; stroke-width: 1.25"/>
      </g>
     </g>
     <g id="text_14">
      <text style="fill: #262626; font: 11px 'sans-serif'; text-anchor: end" x="48.1" y="151.635323" transform="rotate(-0, 48.1, 151.635323)">0.25</text>
     </g>
    </g>
    <g id="ytick_7">
     <g id="line2d_14">
      <g>
       <use xlink:href="#m7199ed224a" x="57.6" y="116.321684" style="fill: #262626; stroke: #262626; stroke-width: 1.25"/>
      </g>
     </g>
     <g id="text_15">
      <text style="fill: #262626; font: 11px 'sans-serif'; text-anchor: end" x="48.1" y="120.258481" transform="rotate(-0, 48.1, 120.258481)">0.30</text>
     </g>
    </g>
    <g id="ytick_8">
     <g id="line2d_15">
      <g>
       <use xlink:href="#m7199ed224a" x="57.6" y="84.944842" style="fill: #262626; stroke: #262626; stroke-width: 1.25"/>
      </g>
     </g>
     <g id="text_16">
      <text style="fill: #262626; font: 11px 'sans-serif'; text-anchor: end" x="48.1" y="88.881639" transform="rotate(-0, 48.1, 88.881639)">0.35</text>
     </g>
    </g>
    <g id="ytick_9">
     <g id="line2d_16">
      <g>
       <use xlink:href="#m7199ed224a" x="57.6" y="53.568" style="fill: #262626; stroke: #262626; stroke-width: 1.25"/>
      </g>
     </g>
     <g id="text_17">
      <text style="fill: #262626; font: 11px 'sans-serif'; text-anchor: end" x="48.1" y="57.504797" transform="rotate(-0, 48.1, 57.504797)">0.40</text>
     </g>
    </g>
    <g id="text_18">
     <text style="fill: #262626; font: 12px 'sans-serif'; text-anchor: middle" x="20.167344" y="174.528" transform="rotate(-90, 20.167344, 174.528)">Proportion of transitions (consecutive:non-consecutive)</text>
    </g>
   </g>
   <g id="line2d_17">
    <path d="M 73.832727 125.286496 
L 74.853654 125.286496 
L 75.87458 125.286496 
L 76.895506 125.286496 
L 77.916432 125.286496 
L 78.937358 138.470043 
L 79.958285 138.470043 
L 80.979211 138.470043 
L 82.000137 138.470043 
L 83.021063 152.452593 
L 84.04199 162.880869 
L 85.062916 158.157474 
L 86.083842 158.157474 
L 87.104768 158.157474 
L 88.125695 158.157474 
L 89.146621 158.157474 
L 90.167547 158.157474 
L 91.188473 158.157474 
L 92.2094 158.157474 
L 93.230326 170.110556 
L 94.251252 170.110556 
L 95.272178 165.130105 
L 96.293105 165.130105 
L 97.314031 159.766543 
L 98.334957 159.766543 
L 99.355883 159.766543 
L 100.37681 147.698526 
L 101.397736 147.698526 
L 102.418662 185.05191 
L 103.439588 185.05191 
L 104.460515 185.05191 
L 105.481441 210.452211 
L 106.502367 210.452211 
L 107.523293 210.452211 
L 108.54422 210.452211 
L 109.565146 205.497972 
L 110.586072 205.497972 
L 111.606998 205.497972 
L 112.627925 205.497972 
L 113.648851 199.993263 
L 114.669777 199.993263 
L 115.690703 199.993263 
L 116.71163 199.993263 
L 117.732556 199.993263 
L 118.753482 199.993263 
L 119.774408 199.993263 
L 120.795334 199.993263 
L 121.816261 199.993263 
L 122.837187 193.840941 
L 123.858113 193.840941 
L 124.879039 193.840941 
L 125.899966 193.840941 
L 126.920892 193.840941 
L 127.941818 226.140632 
L 128.962744 262.746947 
L 129.983671 262.746947 
L 131.004597 262.746947 
L 132.025523 262.746947 
L 133.046449 262.746947 
L 134.067376 262.746947 
L 135.088302 262.746947 
L 136.109228 259.758677 
L 137.130154 259.758677 
L 138.151081 259.758677 
L 139.172007 259.758677 
L 140.192933 259.758677 
L 141.213859 259.758677 
L 142.234786 259.758677 
L 143.255712 256.310672 
L 144.276638 256.310672 
L 145.297564 252.288 
L 146.318491 252.288 
" clip-path="url(#pa710d5d5b6)" style="fill: none; stroke: #382a54; stroke-width: 1.5; stroke-linecap: round"/>
   </g>
   <g id="line2d_18">
    <path d="M 73.832727 137.239579 
L 74.853654 137.239579 
L 75.87458 137.239579 
L 76.895506 125.286496 
L 77.916432 125.286496 
L 78.937358 125.286496 
L 79.958285 125.286496 
L 80.979211 111.494478 
L 82.000137 111.494478 
L 83.021063 76.387522 
L 84.04199 76.387522 
L 85.062916 76.387522 
L 86.083842 76.387522 
L 87.104768 116.321684 
L 88.125695 116.321684 
L 89.146621 165.130105 
L 90.167547 147.698526 
L 91.188473 125.286496 
L 92.2094 125.286496 
L 93.230326 125.286496 
L 94.251252 125.286496 
L 95.272178 95.403789 
L 96.293105 95.403789 
L 97.314031 95.403789 
L 98.334957 95.403789 
L 99.355883 95.403789 
L 100.37681 95.403789 
L 101.397736 95.403789 
L 102.418662 95.403789 
L 103.439588 95.403789 
L 104.460515 95.403789 
L 105.481441 95.403789 
L 106.502367 95.403789 
L 107.523293 53.568 
L 108.54422 147.698526 
L 109.565146 147.698526 
L 110.586072 147.698526 
L 111.606998 147.698526 
L 112.627925 147.698526 
L 113.648851 147.698526 
L 114.669777 147.698526 
L 115.690703 147.698526 
L 116.71163 147.698526 
L 117.732556 147.698526 
L 118.753482 147.698526 
L 119.774408 147.698526 
L 120.795334 147.698526 
L 121.816261 95.403789 
L 122.837187 95.403789 
L 123.858113 95.403789 
L 124.879039 95.403789 
L 125.899966 95.403789 
L 126.920892 95.403789 
L 127.941818 95.403789 
L 128.962744 95.403789 
L 129.983671 95.403789 
L 131.004597 95.403789 
L 132.025523 95.403789 
L 133.046449 95.403789 
L 134.067376 95.403789 
L 135.088302 95.403789 
L 136.109228 95.403789 
" clip-path="url(#pa710d5d5b6)" style="fill: none; stroke: #395d9c; stroke-width: 1.5; stroke-linecap: round"/>
   </g>
   <g id="line2d_19">
    <path d="M 73.832727 271.114105 
L 74.853654 270.889484 
L 75.87458 270.431072 
L 76.895506 270.431072 
L 78.937358 278.435368 
L 79.958285 278.435368 
L 82.000137 278.067096 
L 83.021063 277.099371 
L 84.04199 276.692211 
L 87.104768 276.692211 
L 88.125695 276.272804 
L 89.146621 276.272804 
L 90.167547 276.058335 
L 92.2094 276.058335 
L 93.230326 275.619498 
L 94.251252 275.394977 
L 95.272178 274.935327 
L 99.355883 274.935327 
L 100.37681 274.460968 
L 102.418662 274.460968 
L 103.439588 274.218051 
L 106.502367 274.218051 
L 108.54422 273.720269 
L 109.565146 273.720269 
L 110.586072 273.465207 
L 111.606998 272.674084 
L 113.648851 272.674084 
L 114.669777 271.841684 
L 115.690703 276.567699 
L 116.71163 276.567699 
L 117.732556 276.058335 
L 119.774408 276.058335 
L 121.816261 275.530105 
L 122.837187 280.902101 
L 123.858113 280.212374 
L 124.879039 280.212374 
L 125.899966 279.973449 
L 126.920892 279.973449 
L 127.941818 279.729793 
L 128.962744 279.227713 
L 129.983671 279.227713 
L 131.004597 278.704929 
L 132.025523 278.704929 
L 134.067376 278.160133 
L 135.088302 277.298526 
L 138.151081 277.298526 
L 139.172007 276.9987 
L 143.255712 276.9987 
L 144.276638 276.692211 
L 147.339417 276.692211 
L 148.360343 283.42981 
L 151.423122 283.42981 
L 154.485901 282.691917 
L 160.611458 282.691917 
L 161.632384 282.434378 
L 164.695163 282.434378 
L 165.716089 282.170707 
L 172.862573 282.170707 
L 173.883499 281.900682 
L 175.925352 281.900682 
L 177.967204 281.340632 
L 178.98813 281.340632 
L 182.050909 280.446704 
L 183.071835 280.446704 
L 184.092762 280.133249 
L 185.113688 280.133249 
L 186.134614 279.811546 
L 189.197393 279.811546 
L 190.218319 279.481263 
L 192.260172 279.481263 
L 194.302024 278.793552 
L 197.364803 278.793552 
L 198.385729 287.151158 
L 200.427581 286.653113 
L 205.532213 286.653113 
L 206.553139 295.488 
L 208.594991 295.488 
L 209.615918 295.354254 
L 213.699623 295.354254 
L 214.720549 295.216515 
L 225.950738 295.216515 
L 226.971664 295.074603 
L 233.097221 295.074603 
L 235.139074 294.777474 
L 245.348336 294.777474 
L 246.369262 294.621835 
L 258.620377 294.621835 
L 259.641304 294.461175 
L 260.66223 294.461175 
L 261.683156 294.123789 
L 273.934271 294.123789 
L 274.955197 293.946519 
L 275.976123 293.573319 
L 276.99705 293.376722 
L 279.038902 293.376722 
L 280.059828 293.172976 
L 281.080755 293.172976 
L 282.101681 292.961684 
L 284.143533 292.961684 
L 285.16446 292.742419 
L 295.373722 292.742419 
L 296.394648 292.032 
L 310.687616 292.032 
L 311.708542 291.775863 
L 315.792247 291.775863 
L 316.813173 291.509053 
L 327.022436 291.509053 
L 328.043362 291.230889 
L 328.043362 291.230889 
" clip-path="url(#pa710d5d5b6)" style="fill: none; stroke: #3497a9; stroke-width: 1.5; stroke-linecap: round"/>
   </g>
   <g id="line2d_20">
    <path d="M 73.832727 97.090716 
L 74.853654 95.403789 
L 75.87458 91.858384 
L 76.895506 97.222737 
L 80.979211 97.222737 
L 82.000137 101.057275 
L 83.021063 101.214316 
L 84.04199 109.217494 
L 86.083842 105.46047 
L 87.104768 109.619834 
L 88.125695 109.619834 
L 89.146621 113.860755 
L 90.167547 111.972419 
L 91.188473 111.972419 
L 92.2094 104.029725 
L 95.272178 97.629097 
L 96.293105 95.403789 
L 98.334957 95.403789 
L 99.355883 97.702459 
L 100.37681 102.376421 
L 102.418662 97.780823 
L 103.439588 107.565356 
L 104.460515 123.126301 
L 105.481441 120.913417 
L 106.502367 120.913417 
L 107.523293 126.393263 
L 109.565146 133.436325 
L 110.586072 137.239579 
L 111.606998 143.458413 
L 112.627925 163.165984 
L 113.648851 161.145744 
L 115.690703 161.145744 
L 116.71163 156.927009 
L 117.732556 164.089414 
L 118.753482 164.089414 
L 119.774408 157.503789 
L 120.795334 157.503789 
L 121.816261 162.880869 
L 122.837187 162.880869 
L 123.858113 176.948125 
L 124.879039 176.948125 
L 125.899966 183.479136 
L 126.920892 181.316571 
L 127.941818 181.316571 
L 128.962744 176.751158 
L 131.004597 176.751158 
L 132.025523 186.179559 
L 134.067376 186.179559 
L 135.088302 204.176842 
L 138.151081 204.176842 
L 139.172007 202.127742 
L 140.192933 213.066947 
L 142.234786 209.088 
L 144.276638 209.088 
L 145.297564 204.74733 
L 146.318491 202.425576 
L 147.339417 202.425576 
L 149.381269 197.4423 
L 152.444048 197.4423 
L 153.464974 194.763789 
L 161.632384 194.763789 
L 162.65331 191.947919 
L 167.757942 191.947919 
L 168.778868 185.85955 
L 176.946278 185.85955 
L 178.98813 179.075368 
L 180.009057 179.075368 
L 181.029983 175.383975 
L 183.071835 175.383975 
L 184.092762 171.468861 
L 185.113688 183.123993 
L 190.218319 183.123993 
L 191.239245 199.993263 
L 192.260172 199.993263 
L 193.281098 214.934617 
L 194.302024 214.934617 
L 196.343877 208.038607 
L 197.364803 204.176842 
L 198.385729 204.176842 
L 199.406655 199.993263 
L 201.448508 199.993263 
L 202.469434 195.445895 
L 205.532213 195.445895 
L 206.553139 190.485129 
L 212.678696 190.485129 
L 213.699623 185.05191 
L 214.720549 185.05191 
L 215.741475 179.075368 
L 226.971664 179.075368 
L 227.99259 172.469717 
L 236.16 172.469717 
L 237.180926 193.840941 
L 240.243705 193.840941 
L 241.264631 186.919579 
L 242.285557 179.075368 
L 247.390189 179.075368 
L 248.411115 170.110556 
L 249.432041 208.038607 
L 251.473894 208.038607 
L 252.49482 199.993263 
L 258.620377 199.993263 
L 259.641304 247.533933 
L 266.787787 247.533933 
L 267.808714 241.829053 
L 268.82964 226.140632 
L 276.99705 226.140632 
L 278.017976 214.934617 
L 279.038902 199.993263 
L 282.101681 199.993263 
L 283.122607 179.075368 
L 307.624837 179.075368 
L 308.645763 147.698526 
L 398.487273 147.698526 
L 398.487273 147.698526 
" clip-path="url(#pa710d5d5b6)" style="fill: none; stroke: #60ceac; stroke-width: 1.5; stroke-linecap: round"/>
   </g>
   <g id="line2d_21"/>
   <g id="line2d_22"/>
   <g id="line2d_23"/>
   <g id="line2d_24"/>
   <g id="patch_3">
    <path d="M 57.6 307.584 
L 57.6 41.472 
" style="fill: none; stroke: #262626; stroke-width: 1.25; stroke-linejoin: miter; stroke-linecap: square"/>
   </g>
   <g id="patch_4">
    <path d="M 414.72 307.584 
L 414.72 41.472 
" style="fill: none; stroke: #262626; stroke-width: 1.25; stroke-linejoin: miter; stroke-linecap: square"/>
   </g>
   <g id="patch_5">
    <path d="M 57.6 307.584 
L 414.72 307.584 
" style="fill: none; stroke: #262626; stroke-width: 1.25; stroke-linejoin: miter; stroke-linecap: square"/>
   </g>
   <g id="patch_6">
    <path d="M 57.6 41.472 
L 414.72 41.472 
" style="fill: none; stroke: #262626; stroke-width: 1.25; stroke-linejoin: miter; stroke-linecap: square"/>
   </g>
   <g id="legend_1">
    <g id="patch_7">
     <path d="M 306.394063 112.743406 
L 407.02 112.743406 
Q 409.22 112.743406 409.22 110.543406 
L 409.22 49.172 
Q 409.22 46.972 407.02 46.972 
L 306.394063 46.972 
Q 304.194063 46.972 304.194063 49.172 
L 304.194063 110.543406 
Q 304.194063 112.743406 306.394063 112.743406 
z
" style="fill: #ffffff; opacity: 0.8; stroke: #cccccc; stroke-linejoin: miter"/>
    </g>
    <g id="line2d_25">
     <path d="M 308.594063 55.42825 
L 319.594063 55.42825 
L 330.594063 55.42825 
" style="fill: none; stroke: #382a54; stroke-width: 1.5; stroke-linecap: round"/>
    </g>
    <g id="text_19">
     <text style="fill: #262626; font: 11px 'sans-serif'; text-anchor: start" x="339.394063" y="59.27825" transform="rotate(-0, 339.394063, 59.27825)">01_Native</text>
    </g>
    <g id="line2d_26">
     <path d="M 308.594063 71.122156 
L 319.594063 71.122156 
L 330.594063 71.122156 
" style="fill: none; stroke: #395d9c; stroke-width: 1.5; stroke-linecap: round"/>
    </g>
    <g id="text_20">
     <text style="fill: #262626; font: 11px 'sans-serif'; text-anchor: start" x="339.394063" y="74.972156" transform="rotate(-0, 339.394063, 74.972156)">02_Misfolded</text>
    </g>
    <g id="line2d_27">
     <path d="M 308.594063 86.714656 
L 319.594063 86.714656 
L 330.594063 86.714656 
" style="fill: none; stroke: #3497a9; stroke-width: 1.5; stroke-linecap: round"/>
    </g>
    <g id="text_21">
     <text style="fill: #262626; font: 11px 'sans-serif'; text-anchor: start" x="339.394063" y="90.564656" transform="rotate(-0, 339.394063, 90.564656)">03_A8A2</text>
    </g>
    <g id="line2d_28">
     <path d="M 308.594063 102.307156 
L 319.594063 102.307156 
L 330.594063 102.307156 
" style="fill: none; stroke: #60ceac; stroke-width: 1.5; stroke-linecap: round"/>
    </g>
    <g id="text_22">
     <text style="fill: #262626; font: 11px 'sans-serif'; text-anchor: start" x="339.394063" y="106.157156" transform="rotate(-0, 339.394063, 106.157156)">04_A8B1</text>
    </g>
   </g>
  </g>
 </g>
 <defs>
  <clipPath id="pa710d5d5b6">
   <rect x="57.6" y="41.472" width="357.12" height="266.112"/>
  </clipPath>
 </defs>
</svg>
