<?xml version="1.0" encoding="utf-8" standalone="no"?>
<!DOCTYPE svg PUBLIC "-//W3C//DTD SVG 1.1//EN"
  "http://www.w3.org/Graphics/SVG/1.1/DTD/svg11.dtd">
<svg xmlns:xlink="http://www.w3.org/1999/xlink" width="216pt" height="432pt" viewBox="0 0 216 432" xmlns="http://www.w3.org/2000/svg" version="1.1">
 <metadata>
  <rdf:RDF xmlns:dc="http://purl.org/dc/elements/1.1/" xmlns:cc="http://creativecommons.org/ns#" xmlns:rdf="http://www.w3.org/1999/02/22-rdf-syntax-ns#">
   <cc:Work>
    <dc:type rdf:resource="http://purl.org/dc/dcmitype/StillImage"/>
    <dc:date>2026-05-26T09:35:44.623865</dc:date>
    <dc:format>image/svg+xml</dc:format>
    <dc:creator>
     <cc:Agent>
      <dc:title>Matplotlib v3.5.1, https://matplotlib.org/</dc:title>
     </cc:Agent>
    </dc:creator>
   </cc:Work>
  </rdf:RDF>
 </metadata>
 <defs>
  <style type="text/css">*{stroke-linejoin: round; stroke-linecap: butt}</style>
 </defs>
 <g id="figure_1">
  <g id="patch_1">
   <path d="M 0 432 
L 216 432 
L 216 0 
L 0 0 
z
" style="fill: #ffffff"/>
  </g>
  <g id="axes_1">
   <g id="patch_2">
    <path d="M 27 384.48 
L 194.4 384.48 
L 194.4 51.84 
L 27 51.84 
z
" style="fill: #ffffff"/>
   </g>
   <g id="matplotlib.axis_1">
    <g id="xtick_1">
     <g id="line2d_1">
      <defs>
       <path id="m0775f74650" d="M 0 0 
L 0 6 
" style="stroke: #262626; stroke-width: 1.25"/>
      </defs>
      <g>
       <use xlink:href="#m0775f74650" x="50.62823" y="384.48" style="fill: #262626; stroke: #262626; stroke-width: 1.25"/>
      </g>
     </g>
     <g id="text_1">
      <text style="fill: #262626; font: 11px 'sans-serif'" transform="translate(35.139332 434.593009)rotate(-45)">01_Native</text>
     </g>
    </g>
    <g id="xtick_2">
     <g id="line2d_2">
      <g>
       <use xlink:href="#m0775f74650" x="90.676077" y="384.48" style="fill: #262626; stroke: #262626; stroke-width: 1.25"/>
      </g>
     </g>
     <g id="text_2">
      <text style="fill: #262626; font: 11px 'sans-serif'" transform="translate(69.602692 445.905392)rotate(-45)">02_Misfolded</text>
     </g>
    </g>
    <g id="xtick_3">
     <g id="line2d_3">
      <g>
       <use xlink:href="#m0775f74650" x="130.723923" y="384.48" style="fill: #262626; stroke: #262626; stroke-width: 1.25"/>
      </g>
     </g>
     <g id="text_3">
      <text style="fill: #262626; font: 11px 'sans-serif'" transform="translate(116.744478 431.574105)rotate(-45)">03_A8A2</text>
     </g>
    </g>
    <g id="xtick_4">
     <g id="line2d_4">
      <g>
       <use xlink:href="#m0775f74650" x="170.77177" y="384.48" style="fill: #262626; stroke: #262626; stroke-width: 1.25"/>
      </g>
     </g>
     <g id="text_4">
      <text style="fill: #262626; font: 11px 'sans-serif'" transform="translate(156.792325 431.574105)rotate(-45)">04_A8B1</text>
     </g>
    </g>
   </g>
   <g id="matplotlib.axis_2">
    <g id="ytick_1">
     <g id="line2d_5">
      <defs>
       <path id="m2d51d9ec79" d="M 0 0 
L -6 0 
" style="stroke: #262626; stroke-width: 1.25"/>
      </defs>
      <g>
       <use xlink:href="#m2d51d9ec79" x="27" y="384.48" style="fill: #262626; stroke: #262626; stroke-width: 1.25"/>
      </g>
     </g>
     <g id="text_5">
      <text style="fill: #262626; font: 11px 'sans-serif'; text-anchor: end" x="17.5" y="388.416797" transform="rotate(-0, 17.5, 388.416797)">0</text>
     </g>
    </g>
    <g id="ytick_2">
     <g id="line2d_6">
      <g>
       <use xlink:href="#m2d51d9ec79" x="27" y="320.846897" style="fill: #262626; stroke: #262626; stroke-width: 1.25"/>
      </g>
     </g>
     <g id="text_6">
      <text style="fill: #262626; font: 11px 'sans-serif'; text-anchor: end" x="17.5" y="324.783693" transform="rotate(-0, 17.5, 324.783693)">5</text>
     </g>
    </g>
    <g id="ytick_3">
     <g id="line2d_7">
      <g>
       <use xlink:href="#m2d51d9ec79" x="27" y="257.213793" style="fill: #262626; stroke: #262626; stroke-width: 1.25"/>
      </g>
     </g>
     <g id="text_7">
      <text style="fill: #262626; font: 11px 'sans-serif'; text-anchor: end" x="17.5" y="261.15059" transform="rotate(-0, 17.5, 261.15059)">10</text>
     </g>
    </g>
    <g id="ytick_4">
     <g id="line2d_8">
      <g>
       <use xlink:href="#m2d51d9ec79" x="27" y="193.58069" style="fill: #262626; stroke: #262626; stroke-width: 1.25"/>
      </g>
     </g>
     <g id="text_8">
      <text style="fill: #262626; font: 11px 'sans-serif'; text-anchor: end" x="17.5" y="197.517487" transform="rotate(-0, 17.5, 197.517487)">15</text>
     </g>
    </g>
    <g id="ytick_5">
     <g id="line2d_9">
      <g>
       <use xlink:href="#m2d51d9ec79" x="27" y="129.947586" style="fill: #262626; stroke: #262626; stroke-width: 1.25"/>
      </g>
     </g>
     <g id="text_9">
      <text style="fill: #262626; font: 11px 'sans-serif'; text-anchor: end" x="17.5" y="133.884383" transform="rotate(-0, 17.5, 133.884383)">20</text>
     </g>
    </g>
    <g id="ytick_6">
     <g id="line2d_10">
      <g>
       <use xlink:href="#m2d51d9ec79" x="27" y="66.314483" style="fill: #262626; stroke: #262626; stroke-width: 1.25"/>
      </g>
     </g>
     <g id="text_10">
      <text style="fill: #262626; font: 11px 'sans-serif'; text-anchor: end" x="17.5" y="70.25128" transform="rotate(-0, 17.5, 70.25128)">25</text>
     </g>
    </g>
    <g id="text_11">
     <text style="fill: #262626; font: 12px 'sans-serif'; text-anchor: middle" x="-1.259688" y="218.16" transform="rotate(-90, -1.259688, 218.16)">Proportion of transitions (%)</text>
    </g>
   </g>
   <g id="patch_3">
    <path d="M 34.609091 384.48 
L 66.647368 384.48 
L 66.647368 133.804138 
L 34.609091 133.804138 
L 34.609091 384.48 
z
" clip-path="url(#p7db1f680f0)" style="fill: none; stroke: #000000; stroke-linejoin: miter"/>
   </g>
   <g id="patch_4">
    <path d="M 74.656938 384.48 
L 106.695215 384.48 
L 106.695215 153.086897 
L 74.656938 153.086897 
L 74.656938 384.48 
z
" clip-path="url(#p7db1f680f0)" style="fill: none; stroke: #000000; stroke-linejoin: miter"/>
   </g>
   <g id="patch_5">
    <path d="M 114.704785 384.48 
L 146.743062 384.48 
L 146.743062 311.057188 
L 114.704785 311.057188 
L 114.704785 384.48 
z
" clip-path="url(#p7db1f680f0)" style="fill: none; stroke: #000000; stroke-linejoin: miter"/>
   </g>
   <g id="patch_6">
    <path d="M 154.752632 384.48 
L 186.790909 384.48 
L 186.790909 67.68 
L 154.752632 67.68 
L 154.752632 384.48 
z
" clip-path="url(#p7db1f680f0)" style="fill: none; stroke: #000000; stroke-linejoin: miter"/>
   </g>
   <g id="PathCollection_1">
    <defs>
     <path id="C0_0_8c205ae625" d="M 0 7.071068 
C 1.875269 7.071068 3.673985 6.326016 5 5 
C 6.326016 3.673985 7.071068 1.875269 7.071068 -0 
C 7.071068 -1.875269 6.326016 -3.673985 5 -5 
C 3.673985 -6.326016 1.875269 -7.071068 0 -7.071068 
C -1.875269 -7.071068 -3.673985 -6.326016 -5 -5 
C -6.326016 -3.673985 -7.071068 -1.875269 -7.071068 0 
C -7.071068 1.875269 -6.326016 3.673985 -5 5 
C -3.673985 6.326016 -1.875269 7.071068 0 7.071068 
z
"/>
    </defs>
    <g clip-path="url(#p7db1f680f0)">
     <use xlink:href="#C0_0_8c205ae625" x="50.62823" y="133.804138" style="fill: #ccddec; stroke: #000000; stroke-width: 1.131371"/>
    </g>
    <g clip-path="url(#p7db1f680f0)">
     <use xlink:href="#C0_0_8c205ae625" x="90.676077" y="153.086897" style="fill: #9ab4d6; stroke: #000000; stroke-width: 1.131371"/>
    </g>
    <g clip-path="url(#p7db1f680f0)">
     <use xlink:href="#C0_0_8c205ae625" x="170.77177" y="67.68" style="fill: #852d90; stroke: #000000; stroke-width: 1.131371"/>
    </g>
    <g clip-path="url(#p7db1f680f0)">
     <use xlink:href="#C0_0_8c205ae625" x="130.723923" y="311.057188" style="fill: #8c74b5; stroke: #000000; stroke-width: 1.131371"/>
    </g>
   </g>
   <g id="PathCollection_2"/>
   <g id="PathCollection_3"/>
   <g id="PathCollection_4"/>
   <g id="PathCollection_5"/>
   <g id="line2d_11">
    <path clip-path="url(#p7db1f680f0)" style="fill: none; stroke: #000000; stroke-width: 2.7; stroke-linecap: round"/>
   </g>
   <g id="line2d_12">
    <path clip-path="url(#p7db1f680f0)" style="fill: none; stroke: #000000; stroke-width: 2.7; stroke-linecap: round"/>
   </g>
   <g id="line2d_13">
    <path clip-path="url(#p7db1f680f0)" style="fill: none; stroke: #000000; stroke-width: 2.7; stroke-linecap: round"/>
   </g>
   <g id="line2d_14">
    <path clip-path="url(#p7db1f680f0)" style="fill: none; stroke: #000000; stroke-width: 2.7; stroke-linecap: round"/>
   </g>
   <g id="line2d_15">
    <path clip-path="url(#p7db1f680f0)" style="fill: none; stroke: #000000; stroke-width: 2.7; stroke-linecap: round"/>
   </g>
   <g id="line2d_16">
    <path clip-path="url(#p7db1f680f0)" style="fill: none; stroke: #000000; stroke-width: 2.7; stroke-linecap: round"/>
   </g>
   <g id="line2d_17">
    <path clip-path="url(#p7db1f680f0)" style="fill: none; stroke: #000000; stroke-width: 2.7; stroke-linecap: round"/>
   </g>
   <g id="line2d_18">
    <path clip-path="url(#p7db1f680f0)" style="fill: none; stroke: #000000; stroke-width: 2.7; stroke-linecap: round"/>
   </g>
   <g id="line2d_19">
    <path clip-path="url(#p7db1f680f0)" style="fill: none; stroke: #000000; stroke-width: 2.7; stroke-linecap: round"/>
   </g>
   <g id="line2d_20">
    <path clip-path="url(#p7db1f680f0)" style="fill: none; stroke: #000000; stroke-width: 2.7; stroke-linecap: round"/>
   </g>
   <g id="line2d_21">
    <path clip-path="url(#p7db1f680f0)" style="fill: none; stroke: #000000; stroke-width: 2.7; stroke-linecap: round"/>
   </g>
   <g id="line2d_22">
    <path clip-path="url(#p7db1f680f0)" style="fill: none; stroke: #000000; stroke-width: 2.7; stroke-linecap: round"/>
   </g>
   <g id="patch_7">
    <path d="M 27 384.48 
L 27 51.84 
" style="fill: none; stroke: #262626; stroke-width: 1.25; stroke-linejoin: miter; stroke-linecap: square"/>
   </g>
   <g id="patch_8">
    <path d="M 194.4 384.48 
L 194.4 51.84 
" style="fill: none; stroke: #262626; stroke-width: 1.25; stroke-linejoin: miter; stroke-linecap: square"/>
   </g>
   <g id="patch_9">
    <path d="M 27 384.48 
L 194.4 384.48 
" style="fill: none; stroke: #262626; stroke-width: 1.25; stroke-linejoin: miter; stroke-linecap: square"/>
   </g>
   <g id="patch_10">
    <path d="M 27 51.84 
L 194.4 51.84 
" style="fill: none; stroke: #262626; stroke-width: 1.25; stroke-linejoin: miter; stroke-linecap: square"/>
   </g>
   <g id="legend_1">
    <g id="patch_11">
     <path d="M 34.7 123.111406 
L 135.325938 123.111406 
Q 137.525937 123.111406 137.525937 120.911406 
L 137.525937 59.54 
Q 137.525937 57.34 135.325938 57.34 
L 34.7 57.34 
Q 32.5 57.34 32.5 59.54 
L 32.5 120.911406 
Q 32.5 123.111406 34.7 123.111406 
z
" style="fill: #ffffff; opacity: 0.8; stroke: #cccccc; stroke-linejoin: miter"/>
    </g>
    <g id="PathCollection_6">
     <defs>
      <path id="m41be3fd694" d="M 0 3 
C 0.795609 3 1.55874 2.683901 2.12132 2.12132 
C 2.683901 1.55874 3 0.795609 3 0 
C 3 -0.795609 2.683901 -1.55874 2.12132 -2.12132 
C 1.55874 -2.683901 0.795609 -3 0 -3 
C -0.795609 -3 -1.55874 -2.683901 -2.12132 -2.12132 
C -2.683901 -1.55874 -3 -0.795609 -3 0 
C -3 0.795609 -2.683901 1.55874 -2.12132 2.12132 
C -1.55874 2.683901 -0.795609 3 0 3 
z
" style="stroke: #ccddec"/>
     </defs>
     <g>
      <use xlink:href="#m41be3fd694" x="47.9" y="66.75875" style="fill: #ccddec; stroke: #ccddec"/>
     </g>
    </g>
    <g id="text_12">
     <text style="fill: #262626; font: 11px 'sans-serif'; text-anchor: start" x="67.7" y="69.64625" transform="rotate(-0, 67.7, 69.64625)">01_Native</text>
    </g>
    <g id="PathCollection_7">
     <defs>
      <path id="me150170ebe" d="M 0 3 
C 0.795609 3 1.55874 2.683901 2.12132 2.12132 
C 2.683901 1.55874 3 0.795609 3 0 
C 3 -0.795609 2.683901 -1.55874 2.12132 -2.12132 
C 1.55874 -2.683901 0.795609 -3 0 -3 
C -0.795609 -3 -1.55874 -2.683901 -2.12132 -2.12132 
C -2.683901 -1.55874 -3 -0.795609 -3 0 
C -3 0.795609 -2.683901 1.55874 -2.12132 2.12132 
C -1.55874 2.683901 -0.795609 3 0 3 
z
" style="stroke: #9ab4d6"/>
     </defs>
     <g>
      <use xlink:href="#me150170ebe" x="47.9" y="82.452656" style="fill: #9ab4d6; stroke: #9ab4d6"/>
     </g>
    </g>
    <g id="text_13">
     <text style="fill: #262626; font: 11px 'sans-serif'; text-anchor: start" x="67.7" y="85.340156" transform="rotate(-0, 67.7, 85.340156)">02_Misfolded</text>
    </g>
    <g id="PathCollection_8">
     <defs>
      <path id="m7aaaaadd40" d="M 0 3 
C 0.795609 3 1.55874 2.683901 2.12132 2.12132 
C 2.683901 1.55874 3 0.795609 3 0 
C 3 -0.795609 2.683901 -1.55874 2.12132 -2.12132 
C 1.55874 -2.683901 0.795609 -3 0 -3 
C -0.795609 -3 -1.55874 -2.683901 -2.12132 -2.12132 
C -2.683901 -1.55874 -3 -0.795609 -3 0 
C -3 0.795609 -2.683901 1.55874 -2.12132 2.12132 
C -1.55874 2.683901 -0.795609 3 0 3 
z
" style="stroke: #8c74b5"/>
     </defs>
     <g>
      <use xlink:href="#m7aaaaadd40" x="47.9" y="98.045156" style="fill: #8c74b5; stroke: #8c74b5"/>
     </g>
    </g>
    <g id="text_14">
     <text style="fill: #262626; font: 11px 'sans-serif'; text-anchor: start" x="67.7" y="100.932656" transform="rotate(-0, 67.7, 100.932656)">03_A8A2</text>
    </g>
    <g id="PathCollection_9">
     <defs>
      <path id="meb3ea1d928" d="M 0 3 
C 0.795609 3 1.55874 2.683901 2.12132 2.12132 
C 2.683901 1.55874 3 0.795609 3 0 
C 3 -0.795609 2.683901 -1.55874 2.12132 -2.12132 
C 1.55874 -2.683901 0.795609 -3 0 -3 
C -0.795609 -3 -1.55874 -2.683901 -2.12132 -2.12132 
C -2.683901 -1.55874 -3 -0.795609 -3 0 
C -3 0.795609 -2.683901 1.55874 -2.12132 2.12132 
C -1.55874 2.683901 -0.795609 3 0 3 
z
" style="stroke: #852d90"/>
     </defs>
     <g>
      <use xlink:href="#meb3ea1d928" x="47.9" y="113.637656" style="fill: #852d90; stroke: #852d90"/>
     </g>
    </g>
    <g id="text_15">
     <text style="fill: #262626; font: 11px 'sans-serif'; text-anchor: start" x="67.7" y="116.525156" transform="rotate(-0, 67.7, 116.525156)">04_A8B1</text>
    </g>
   </g>
  </g>
 </g>
 <defs>
  <clipPath id="p7db1f680f0">
   <rect x="27" y="51.84" width="167.4" height="332.64"/>
  </clipPath>
 </defs>
</svg>
