<?xml version="1.0" encoding="utf-8" standalone="no"?>
<!DOCTYPE svg PUBLIC "-//W3C//DTD SVG 1.1//EN"
  "http://www.w3.org/Graphics/SVG/1.1/DTD/svg11.dtd">
<svg xmlns:xlink="http://www.w3.org/1999/xlink" width="460.8pt" height="345.6pt" viewBox="0 0 460.8 345.6" xmlns="http://www.w3.org/2000/svg" version="1.1">
 <metadata>
  <rdf:RDF xmlns:dc="http://purl.org/dc/elements/1.1/" xmlns:cc="http://creativecommons.org/ns#" xmlns:rdf="http://www.w3.org/1999/02/22-rdf-syntax-ns#">
   <cc:Work>
    <dc:type rdf:resource="http://purl.org/dc/dcmitype/StillImage"/>
    <dc:date>2026-05-26T09:35:56.748319</dc:date>
    <dc:format>image/svg+xml</dc:format>
    <dc:creator>
     <cc:Agent>
      <dc:title>Matplotlib v3.5.1, https://matplotlib.org/</dc:title>
     </cc:Agent>
    </dc:creator>
   </cc:Work>
  </rdf:RDF>
 </metadata>
 <defs>
  <style type="text/css">*{stroke-linejoin: round; stroke-linecap: butt}</style>
 </defs>
 <g id="figure_1">
  <g id="patch_1">
   <path d="M 0 345.6 
L 460.8 345.6 
L 460.8 0 
L 0 0 
z
" style="fill: #ffffff"/>
  </g>
  <g id="axes_1">
   <g id="patch_2">
    <path d="M 57.6 307.584 
L 414.72 307.584 
L 414.72 41.472 
L 57.6 41.472 
z
" style="fill: #ffffff"/>
   </g>
   <g id="matplotlib.axis_1">
    <g id="xtick_1">
     <g id="line2d_1">
      <defs>
       <path id="m6606b14556" d="M 0 0 
L 0 6 
" style="stroke: #262626; stroke-width: 1.25"/>
      </defs>
      <g>
       <use xlink:href="#m6606b14556" x="102.24" y="307.584" style="fill: #262626; stroke: #262626; stroke-width: 1.25"/>
      </g>
     </g>
     <g id="text_1">
      <text style="fill: #262626; font: 11px 'sans-serif'" transform="translate(86.751102 357.697009)rotate(-45)">01_Native</text>
     </g>
    </g>
    <g id="xtick_2">
     <g id="line2d_2">
      <g>
       <use xlink:href="#m6606b14556" x="191.52" y="307.584" style="fill: #262626; stroke: #262626; stroke-width: 1.25"/>
      </g>
     </g>
     <g id="text_2">
      <text style="fill: #262626; font: 11px 'sans-serif'" transform="translate(170.446616 369.009392)rotate(-45)">02_Misfolded</text>
     </g>
    </g>
    <g id="xtick_3">
     <g id="line2d_3">
      <g>
       <use xlink:href="#m6606b14556" x="280.8" y="307.584" style="fill: #262626; stroke: #262626; stroke-width: 1.25"/>
      </g>
     </g>
     <g id="text_3">
      <text style="fill: #262626; font: 11px 'sans-serif'" transform="translate(266.820554 354.678105)rotate(-45)">03_A8A2</text>
     </g>
    </g>
    <g id="xtick_4">
     <g id="line2d_4">
      <g>
       <use xlink:href="#m6606b14556" x="370.08" y="307.584" style="fill: #262626; stroke: #262626; stroke-width: 1.25"/>
      </g>
     </g>
     <g id="text_4">
      <text style="fill: #262626; font: 11px 'sans-serif'" transform="translate(356.100554 354.678105)rotate(-45)">04_A8B1</text>
     </g>
    </g>
   </g>
   <g id="matplotlib.axis_2">
    <g id="ytick_1">
     <g id="line2d_5">
      <defs>
       <path id="mb8a8b41c23" d="M 0 0 
L -6 0 
" style="stroke: #262626; stroke-width: 1.25"/>
      </defs>
      <g>
       <use xlink:href="#mb8a8b41c23" x="57.6" y="283.398571" style="fill: #262626; stroke: #262626; stroke-width: 1.25"/>
      </g>
     </g>
     <g id="text_5">
      <text style="fill: #262626; font: 11px 'sans-serif'; text-anchor: end" x="48.1" y="287.335368" transform="rotate(-0, 48.1, 287.335368)">0.4</text>
     </g>
    </g>
    <g id="ytick_2">
     <g id="line2d_6">
      <g>
       <use xlink:href="#mb8a8b41c23" x="57.6" y="228.63149" style="fill: #262626; stroke: #262626; stroke-width: 1.25"/>
      </g>
     </g>
     <g id="text_6">
      <text style="fill: #262626; font: 11px 'sans-serif'; text-anchor: end" x="48.1" y="232.568287" transform="rotate(-0, 48.1, 232.568287)">0.6</text>
     </g>
    </g>
    <g id="ytick_3">
     <g id="line2d_7">
      <g>
       <use xlink:href="#mb8a8b41c23" x="57.6" y="173.864409" style="fill: #262626; stroke: #262626; stroke-width: 1.25"/>
      </g>
     </g>
     <g id="text_7">
      <text style="fill: #262626; font: 11px 'sans-serif'; text-anchor: end" x="48.1" y="177.801206" transform="rotate(-0, 48.1, 177.801206)">0.8</text>
     </g>
    </g>
    <g id="ytick_4">
     <g id="line2d_8">
      <g>
       <use xlink:href="#mb8a8b41c23" x="57.6" y="119.097328" style="fill: #262626; stroke: #262626; stroke-width: 1.25"/>
      </g>
     </g>
     <g id="text_8">
      <text style="fill: #262626; font: 11px 'sans-serif'; text-anchor: end" x="48.1" y="123.034124" transform="rotate(-0, 48.1, 123.034124)">1.0</text>
     </g>
    </g>
    <g id="ytick_5">
     <g id="line2d_9">
      <g>
       <use xlink:href="#mb8a8b41c23" x="57.6" y="64.330246" style="fill: #262626; stroke: #262626; stroke-width: 1.25"/>
      </g>
     </g>
     <g id="text_9">
      <text style="fill: #262626; font: 11px 'sans-serif'; text-anchor: end" x="48.1" y="68.267043" transform="rotate(-0, 48.1, 68.267043)">1.2</text>
     </g>
    </g>
    <g id="text_10">
     <text style="fill: #262626; font: 12px 'sans-serif'; text-anchor: middle" x="26.425" y="174.528" transform="rotate(-90, 26.425, 174.528)">FRET state after FRET increase</text>
    </g>
   </g>
   <g id="patch_3">
    <path d="M 102.24 392.932733 
L 102.24 392.932733 
L 102.24 392.932733 
L 102.24 392.932733 
z
" clip-path="url(#p730234ce05)" style="fill: #b0c4d7; stroke: #4f4f4f; stroke-width: 0.75; stroke-linejoin: miter"/>
   </g>
   <g id="PolyCollection_1">
    <defs>
     <path id="ma127e8bfaf" d="M 102.24 -83.001323 
L 100.609025 -83.001323 
L 100.147131 -84.197324 
L 99.585453 -85.393326 
L 98.911695 -86.589328 
L 98.114524 -87.785329 
L 97.184304 -88.981331 
L 96.113876 -90.177332 
L 94.899339 -91.373334 
L 93.540765 -92.569335 
L 92.042792 -93.765337 
L 90.415031 -94.961339 
L 88.672228 -96.15734 
L 86.834148 -97.353342 
L 84.925152 -98.549343 
L 82.973479 -99.745345 
L 81.010261 -100.941347 
L 79.068326 -102.137348 
L 77.180871 -103.33335 
L 75.380096 -104.529351 
L 73.695888 -105.725353 
L 72.154666 -106.921354 
L 70.778441 -108.117356 
L 69.58417 -109.313358 
L 68.583415 -110.509359 
L 67.782318 -111.705361 
L 67.181858 -112.901362 
L 66.778335 -114.097364 
L 66.564038 -115.293366 
L 66.528 -116.489367 
L 66.656801 -117.685369 
L 66.935343 -118.88137 
L 67.347573 -120.077372 
L 67.87712 -121.273374 
L 68.507844 -122.469375 
L 69.224288 -123.665377 
L 70.012062 -124.861378 
L 70.858148 -126.05738 
L 71.751137 -127.253381 
L 72.681417 -128.449383 
L 73.641273 -129.645385 
L 74.624918 -130.841386 
L 75.62843 -132.037388 
L 76.649583 -133.233389 
L 77.687579 -134.429391 
L 78.742675 -135.625393 
L 79.815746 -136.821394 
L 80.907781 -138.017396 
L 82.019382 -139.213397 
L 83.150282 -140.409399 
L 84.298946 -141.6054 
L 85.462271 -142.801402 
L 86.635423 -143.997404 
L 87.811823 -145.193405 
L 88.983282 -146.389407 
L 90.140264 -147.585408 
L 91.272262 -148.78141 
L 92.368247 -149.977412 
L 93.41715 -151.173413 
L 94.408345 -152.369415 
L 95.332092 -153.565416 
L 96.17992 -154.761418 
L 96.944932 -155.957419 
L 97.622012 -157.153421 
L 98.207953 -158.349423 
L 98.701502 -159.545424 
L 99.103329 -160.741426 
L 99.415954 -161.937427 
L 99.643625 -163.133429 
L 99.792175 -164.329431 
L 99.868849 -165.525432 
L 99.882123 -166.721434 
L 99.8415 -167.917435 
L 99.757283 -169.113437 
L 99.640331 -170.309438 
L 99.501776 -171.50544 
L 99.352727 -172.701442 
L 99.203937 -173.897443 
L 99.065478 -175.093445 
L 98.946402 -176.289446 
L 98.854437 -177.485448 
L 98.795723 -178.68145 
L 98.774617 -179.877451 
L 98.793575 -181.073453 
L 98.853129 -182.269454 
L 98.951968 -183.465456 
L 99.087105 -184.661457 
L 99.254137 -185.857459 
L 99.447561 -187.053461 
L 99.661138 -188.249462 
L 99.888272 -189.445464 
L 100.12237 -190.641465 
L 100.357177 -191.837467 
L 100.587048 -193.033469 
L 100.807155 -194.22947 
L 101.013625 -195.425472 
L 101.20359 -196.621473 
L 101.375187 -197.817475 
L 101.527483 -199.013476 
L 101.660372 -200.209478 
L 101.77443 -201.40548 
L 102.24 -201.40548 
L 102.24 -201.40548 
L 102.24 -200.209478 
L 102.24 -199.013476 
L 102.24 -197.817475 
L 102.24 -196.621473 
L 102.24 -195.425472 
L 102.24 -194.22947 
L 102.24 -193.033469 
L 102.24 -191.837467 
L 102.24 -190.641465 
L 102.24 -189.445464 
L 102.24 -188.249462 
L 102.24 -187.053461 
L 102.24 -185.857459 
L 102.24 -184.661457 
L 102.24 -183.465456 
L 102.24 -182.269454 
L 102.24 -181.073453 
L 102.24 -179.877451 
L 102.24 -178.68145 
L 102.24 -177.485448 
L 102.24 -176.289446 
L 102.24 -175.093445 
L 102.24 -173.897443 
L 102.24 -172.701442 
L 102.24 -171.50544 
L 102.24 -170.309438 
L 102.24 -169.113437 
L 102.24 -167.917435 
L 102.24 -166.721434 
L 102.24 -165.525432 
L 102.24 -164.329431 
L 102.24 -163.133429 
L 102.24 -161.937427 
L 102.24 -160.741426 
L 102.24 -159.545424 
L 102.24 -158.349423 
L 102.24 -157.153421 
L 102.24 -155.957419 
L 102.24 -154.761418 
L 102.24 -153.565416 
L 102.24 -152.369415 
L 102.24 -151.173413 
L 102.24 -149.977412 
L 102.24 -148.78141 
L 102.24 -147.585408 
L 102.24 -146.389407 
L 102.24 -145.193405 
L 102.24 -143.997404 
L 102.24 -142.801402 
L 102.24 -141.6054 
L 102.24 -140.409399 
L 102.24 -139.213397 
L 102.24 -138.017396 
L 102.24 -136.821394 
L 102.24 -135.625393 
L 102.24 -134.429391 
L 102.24 -133.233389 
L 102.24 -132.037388 
L 102.24 -130.841386 
L 102.24 -129.645385 
L 102.24 -128.449383 
L 102.24 -127.253381 
L 102.24 -126.05738 
L 102.24 -124.861378 
L 102.24 -123.665377 
L 102.24 -122.469375 
L 102.24 -121.273374 
L 102.24 -120.077372 
L 102.24 -118.88137 
L 102.24 -117.685369 
L 102.24 -116.489367 
L 102.24 -115.293366 
L 102.24 -114.097364 
L 102.24 -112.901362 
L 102.24 -111.705361 
L 102.24 -110.509359 
L 102.24 -109.313358 
L 102.24 -108.117356 
L 102.24 -106.921354 
L 102.24 -105.725353 
L 102.24 -104.529351 
L 102.24 -103.33335 
L 102.24 -102.137348 
L 102.24 -100.941347 
L 102.24 -99.745345 
L 102.24 -98.549343 
L 102.24 -97.353342 
L 102.24 -96.15734 
L 102.24 -94.961339 
L 102.24 -93.765337 
L 102.24 -92.569335 
L 102.24 -91.373334 
L 102.24 -90.177332 
L 102.24 -88.981331 
L 102.24 -87.785329 
L 102.24 -86.589328 
L 102.24 -85.393326 
L 102.24 -84.197324 
L 102.24 -83.001323 
z
" style="stroke: #4f4f4f; stroke-width: 1.5"/>
    </defs>
    <g clip-path="url(#p730234ce05)">
     <use xlink:href="#ma127e8bfaf" x="0" y="345.6" style="fill: #b0c4d7; stroke: #4f4f4f; stroke-width: 1.5"/>
    </g>
   </g>
   <g id="patch_4">
    <path d="M 102.24 392.932733 
L 102.24 392.932733 
L 102.24 392.932733 
L 102.24 392.932733 
z
" clip-path="url(#p730234ce05)" style="fill: #8967a1; stroke: #4f4f4f; stroke-width: 0.75; stroke-linejoin: miter"/>
   </g>
   <g id="PolyCollection_2">
    <defs>
     <path id="m0671c6d773" d="M 105.013584 -91.755752 
L 102.24 -91.755752 
L 102.24 -92.329958 
L 102.24 -92.904164 
L 102.24 -93.478371 
L 102.24 -94.052577 
L 102.24 -94.626783 
L 102.24 -95.200989 
L 102.24 -95.775195 
L 102.24 -96.349401 
L 102.24 -96.923607 
L 102.24 -97.497814 
L 102.24 -98.07202 
L 102.24 -98.646226 
L 102.24 -99.220432 
L 102.24 -99.794638 
L 102.24 -100.368844 
L 102.24 -100.94305 
L 102.24 -101.517257 
L 102.24 -102.091463 
L 102.24 -102.665669 
L 102.24 -103.239875 
L 102.24 -103.814081 
L 102.24 -104.388287 
L 102.24 -104.962494 
L 102.24 -105.5367 
L 102.24 -106.110906 
L 102.24 -106.685112 
L 102.24 -107.259318 
L 102.24 -107.833524 
L 102.24 -108.40773 
L 102.24 -108.981937 
L 102.24 -109.556143 
L 102.24 -110.130349 
L 102.24 -110.704555 
L 102.24 -111.278761 
L 102.24 -111.852967 
L 102.24 -112.427173 
L 102.24 -113.00138 
L 102.24 -113.575586 
L 102.24 -114.149792 
L 102.24 -114.723998 
L 102.24 -115.298204 
L 102.24 -115.87241 
L 102.24 -116.446617 
L 102.24 -117.020823 
L 102.24 -117.595029 
L 102.24 -118.169235 
L 102.24 -118.743441 
L 102.24 -119.317647 
L 102.24 -119.891853 
L 102.24 -120.46606 
L 102.24 -121.040266 
L 102.24 -121.614472 
L 102.24 -122.188678 
L 102.24 -122.762884 
L 102.24 -123.33709 
L 102.24 -123.911296 
L 102.24 -124.485503 
L 102.24 -125.059709 
L 102.24 -125.633915 
L 102.24 -126.208121 
L 102.24 -126.782327 
L 102.24 -127.356533 
L 102.24 -127.930739 
L 102.24 -128.504946 
L 102.24 -129.079152 
L 102.24 -129.653358 
L 102.24 -130.227564 
L 102.24 -130.80177 
L 102.24 -131.375976 
L 102.24 -131.950183 
L 102.24 -132.524389 
L 102.24 -133.098595 
L 102.24 -133.672801 
L 102.24 -134.247007 
L 102.24 -134.821213 
L 102.24 -135.395419 
L 102.24 -135.969626 
L 102.24 -136.543832 
L 102.24 -137.118038 
L 102.24 -137.692244 
L 102.24 -138.26645 
L 102.24 -138.840656 
L 102.24 -139.414862 
L 102.24 -139.989069 
L 102.24 -140.563275 
L 102.24 -141.137481 
L 102.24 -141.711687 
L 102.24 -142.285893 
L 102.24 -142.860099 
L 102.24 -143.434305 
L 102.24 -144.008512 
L 102.24 -144.582718 
L 102.24 -145.156924 
L 102.24 -145.73113 
L 102.24 -146.305336 
L 102.24 -146.879542 
L 102.24 -147.453749 
L 102.24 -148.027955 
L 102.24 -148.602161 
L 104.683015 -148.602161 
L 104.683015 -148.602161 
L 105.019957 -148.027955 
L 105.390413 -147.453749 
L 105.795667 -146.879542 
L 106.236742 -146.305336 
L 106.714358 -145.73113 
L 107.228892 -145.156924 
L 107.780338 -144.582718 
L 108.368281 -144.008512 
L 108.991864 -143.434305 
L 109.64978 -142.860099 
L 110.340261 -142.285893 
L 111.061083 -141.711687 
L 111.809582 -141.137481 
L 112.582683 -140.563275 
L 113.37694 -139.989069 
L 114.188589 -139.414862 
L 115.013609 -138.840656 
L 115.847799 -138.26645 
L 116.68686 -137.692244 
L 117.526481 -137.118038 
L 118.362435 -136.543832 
L 119.190672 -135.969626 
L 120.007407 -135.395419 
L 120.809216 -134.821213 
L 121.593105 -134.247007 
L 122.356587 -133.672801 
L 123.097731 -133.098595 
L 123.815202 -132.524389 
L 124.50828 -131.950183 
L 125.176864 -131.375976 
L 125.821446 -130.80177 
L 126.443074 -130.227564 
L 127.043293 -129.653358 
L 127.624061 -129.079152 
L 128.187659 -128.504946 
L 128.736577 -127.930739 
L 129.273399 -127.356533 
L 129.800674 -126.782327 
L 130.320787 -126.208121 
L 130.835833 -125.633915 
L 131.347496 -125.059709 
L 131.856939 -124.485503 
L 132.364703 -123.911296 
L 132.870634 -123.33709 
L 133.373818 -122.762884 
L 133.87255 -122.188678 
L 134.364319 -121.614472 
L 134.845823 -121.040266 
L 135.313008 -120.46606 
L 135.761131 -119.891853 
L 136.184844 -119.317647 
L 136.5783 -118.743441 
L 136.935282 -118.169235 
L 137.249332 -117.595029 
L 137.513904 -117.020823 
L 137.722517 -116.446617 
L 137.868911 -115.87241 
L 137.947195 -115.298204 
L 137.952 -114.723998 
L 137.878611 -114.149792 
L 137.723088 -113.575586 
L 137.482372 -113.00138 
L 137.154369 -112.427173 
L 136.738014 -111.852967 
L 136.23331 -111.278761 
L 135.641346 -110.704555 
L 134.964291 -110.130349 
L 134.20536 -109.556143 
L 133.36877 -108.981937 
L 132.45966 -108.40773 
L 131.484011 -107.833524 
L 130.448532 -107.259318 
L 129.360551 -106.685112 
L 128.227886 -106.110906 
L 127.058712 -105.5367 
L 125.861428 -104.962494 
L 124.64452 -104.388287 
L 123.416431 -103.814081 
L 122.185437 -103.239875 
L 120.959529 -102.665669 
L 119.746304 -102.091463 
L 118.552878 -101.517257 
L 117.3858 -100.94305 
L 116.250994 -100.368844 
L 115.153703 -99.794638 
L 114.098458 -99.220432 
L 113.089062 -98.646226 
L 112.128581 -98.07202 
L 111.219356 -97.497814 
L 110.363025 -96.923607 
L 109.560555 -96.349401 
L 108.812286 -95.775195 
L 108.117977 -95.200989 
L 107.476865 -94.626783 
L 106.887721 -94.052577 
L 106.34892 -93.478371 
L 105.858493 -92.904164 
L 105.4142 -92.329958 
L 105.013584 -91.755752 
z
" style="stroke: #4f4f4f; stroke-width: 1.5"/>
    </defs>
    <g clip-path="url(#p730234ce05)">
     <use xlink:href="#m0671c6d773" x="0" y="345.6" style="fill: #8967a1; stroke: #4f4f4f; stroke-width: 1.5"/>
    </g>
   </g>
   <g id="PolyCollection_3">
    <defs>
     <path id="mcc5a993710" d="M 191.52 -135.505166 
L 189.224514 -135.505166 
L 188.924496 -135.611646 
L 188.596441 -135.718125 
L 188.239437 -135.824605 
L 187.852796 -135.931084 
L 187.436089 -136.037563 
L 186.98918 -136.144043 
L 186.512253 -136.250522 
L 186.005841 -136.357002 
L 185.470842 -136.463481 
L 184.908538 -136.569961 
L 184.320596 -136.67644 
L 183.709069 -136.782919 
L 183.076385 -136.889399 
L 182.425322 -136.995878 
L 181.758979 -137.102358 
L 181.080732 -137.208837 
L 180.394183 -137.315316 
L 179.703098 -137.421796 
L 179.011335 -137.528275 
L 178.322767 -137.634755 
L 177.641199 -137.741234 
L 176.970279 -137.847713 
L 176.313411 -137.954193 
L 175.673666 -138.060672 
L 175.053699 -138.167152 
L 174.455669 -138.273631 
L 173.881173 -138.380111 
L 173.331185 -138.48659 
L 172.806016 -138.593069 
L 172.305288 -138.699549 
L 171.827922 -138.806028 
L 171.372149 -138.912508 
L 170.935547 -139.018987 
L 170.515085 -139.125466 
L 170.107203 -139.231946 
L 169.707895 -139.338425 
L 169.312826 -139.444905 
L 168.917454 -139.551384 
L 168.517166 -139.657863 
L 168.107425 -139.764343 
L 167.683923 -139.870822 
L 167.242735 -139.977302 
L 166.780464 -140.083781 
L 166.294392 -140.19026 
L 165.782603 -140.29674 
L 165.244098 -140.403219 
L 164.678896 -140.509699 
L 164.088095 -140.616178 
L 163.473923 -140.722658 
L 162.839752 -140.829137 
L 162.190082 -140.935616 
L 161.530497 -141.042096 
L 160.867594 -141.148575 
L 160.208872 -141.255055 
L 159.562609 -141.361534 
L 158.937703 -141.468013 
L 158.343499 -141.574493 
L 157.789603 -141.680972 
L 157.285673 -141.787452 
L 156.84122 -141.893931 
L 156.465397 -142.00041 
L 156.166799 -142.10689 
L 155.953269 -142.213369 
L 155.831724 -142.319849 
L 155.808 -142.426328 
L 155.886717 -142.532808 
L 156.071175 -142.639287 
L 156.363282 -142.745766 
L 156.763505 -142.852246 
L 157.270865 -142.958725 
L 157.882949 -143.065205 
L 158.59597 -143.171684 
L 159.40484 -143.278163 
L 160.303276 -143.384643 
L 161.283933 -143.491122 
L 162.33855 -143.597602 
L 163.458107 -143.704081 
L 164.633006 -143.81056 
L 165.853241 -143.91704 
L 167.108583 -144.023519 
L 168.388751 -144.129999 
L 169.683585 -144.236478 
L 170.983199 -144.342958 
L 172.278128 -144.449437 
L 173.559455 -144.555916 
L 174.818914 -144.662396 
L 176.048987 -144.768875 
L 177.242965 -144.875355 
L 178.394999 -144.981834 
L 179.500125 -145.088313 
L 180.554273 -145.194793 
L 181.554258 -145.301272 
L 182.497752 -145.407752 
L 183.383248 -145.514231 
L 184.210003 -145.62071 
L 184.97798 -145.72719 
L 185.687778 -145.833669 
L 186.340561 -145.940149 
L 186.937978 -146.046628 
L 191.52 -146.046628 
L 191.52 -146.046628 
L 191.52 -145.940149 
L 191.52 -145.833669 
L 191.52 -145.72719 
L 191.52 -145.62071 
L 191.52 -145.514231 
L 191.52 -145.407752 
L 191.52 -145.301272 
L 191.52 -145.194793 
L 191.52 -145.088313 
L 191.52 -144.981834 
L 191.52 -144.875355 
L 191.52 -144.768875 
L 191.52 -144.662396 
L 191.52 -144.555916 
L 191.52 -144.449437 
L 191.52 -144.342958 
L 191.52 -144.236478 
L 191.52 -144.129999 
L 191.52 -144.023519 
L 191.52 -143.91704 
L 191.52 -143.81056 
L 191.52 -143.704081 
L 191.52 -143.597602 
L 191.52 -143.491122 
L 191.52 -143.384643 
L 191.52 -143.278163 
L 191.52 -143.171684 
L 191.52 -143.065205 
L 191.52 -142.958725 
L 191.52 -142.852246 
L 191.52 -142.745766 
L 191.52 -142.639287 
L 191.52 -142.532808 
L 191.52 -142.426328 
L 191.52 -142.319849 
L 191.52 -142.213369 
L 191.52 -142.10689 
L 191.52 -142.00041 
L 191.52 -141.893931 
L 191.52 -141.787452 
L 191.52 -141.680972 
L 191.52 -141.574493 
L 191.52 -141.468013 
L 191.52 -141.361534 
L 191.52 -141.255055 
L 191.52 -141.148575 
L 191.52 -141.042096 
L 191.52 -140.935616 
L 191.52 -140.829137 
L 191.52 -140.722658 
L 191.52 -140.616178 
L 191.52 -140.509699 
L 191.52 -140.403219 
L 191.52 -140.29674 
L 191.52 -140.19026 
L 191.52 -140.083781 
L 191.52 -139.977302 
L 191.52 -139.870822 
L 191.52 -139.764343 
L 191.52 -139.657863 
L 191.52 -139.551384 
L 191.52 -139.444905 
L 191.52 -139.338425 
L 191.52 -139.231946 
L 191.52 -139.125466 
L 191.52 -139.018987 
L 191.52 -138.912508 
L 191.52 -138.806028 
L 191.52 -138.699549 
L 191.52 -138.593069 
L 191.52 -138.48659 
L 191.52 -138.380111 
L 191.52 -138.273631 
L 191.52 -138.167152 
L 191.52 -138.060672 
L 191.52 -137.954193 
L 191.52 -137.847713 
L 191.52 -137.741234 
L 191.52 -137.634755 
L 191.52 -137.528275 
L 191.52 -137.421796 
L 191.52 -137.315316 
L 191.52 -137.208837 
L 191.52 -137.102358 
L 191.52 -136.995878 
L 191.52 -136.889399 
L 191.52 -136.782919 
L 191.52 -136.67644 
L 191.52 -136.569961 
L 191.52 -136.463481 
L 191.52 -136.357002 
L 191.52 -136.250522 
L 191.52 -136.144043 
L 191.52 -136.037563 
L 191.52 -135.931084 
L 191.52 -135.824605 
L 191.52 -135.718125 
L 191.52 -135.611646 
L 191.52 -135.505166 
z
" style="stroke: #4f4f4f; stroke-width: 1.5"/>
    </defs>
    <g clip-path="url(#p730234ce05)">
     <use xlink:href="#mcc5a993710" x="0" y="345.6" style="fill: #b0c4d7; stroke: #4f4f4f; stroke-width: 1.5"/>
    </g>
   </g>
   <g id="PolyCollection_4">
    <defs>
     <path id="mde56d00204" d="M 280.8 -57.344991 
L 279.345832 -57.344991 
L 278.798014 -59.715567 
L 278.09554 -62.086142 
L 277.214534 -64.456718 
L 276.134088 -66.827294 
L 274.838662 -69.19787 
L 273.320567 -71.568446 
L 271.582228 -73.939022 
L 269.637904 -76.309598 
L 267.51455 -78.680173 
L 265.25155 -81.050749 
L 262.899193 -83.421325 
L 260.515891 -85.791901 
L 258.164337 -88.162477 
L 255.906974 -90.533053 
L 253.80126 -92.903629 
L 251.895303 -95.274204 
L 250.224404 -97.64478 
L 248.808963 -100.015356 
L 247.653996 -102.385932 
L 246.750321 -104.756508 
L 246.077195 -107.127084 
L 245.606021 -109.497659 
L 245.304569 -111.868235 
L 245.141125 -114.238811 
L 245.088 -116.609387 
L 245.123997 -118.979963 
L 245.235569 -121.350539 
L 245.416656 -123.721115 
L 245.667352 -126.09169 
L 245.991721 -128.462266 
L 246.395176 -130.832842 
L 246.881811 -133.203418 
L 247.452082 -135.573994 
L 248.101096 -137.94457 
L 248.817657 -140.315146 
L 249.584115 -142.685721 
L 250.376941 -145.056297 
L 251.167894 -147.426873 
L 251.925611 -149.797449 
L 252.617441 -152.168025 
L 253.211372 -154.538601 
L 253.677937 -156.909177 
L 253.992009 -159.279752 
L 254.134446 -161.650328 
L 254.093535 -164.020904 
L 253.866207 -166.39148 
L 253.458952 -168.762056 
L 252.88836 -171.132632 
L 252.18118 -173.503207 
L 251.373795 -175.873783 
L 250.511023 -178.244359 
L 249.644216 -180.614935 
L 248.828702 -182.985511 
L 248.120698 -185.356087 
L 247.573916 -187.726663 
L 247.236158 -190.097238 
L 247.146217 -192.467814 
L 247.331387 -194.83839 
L 247.805831 -197.208966 
L 248.56996 -199.579542 
L 249.610863 -201.950118 
L 250.903684 -204.320694 
L 252.413791 -206.691269 
L 254.099452 -209.061845 
L 255.914743 -211.432421 
L 257.81241 -213.802997 
L 259.746443 -216.173573 
L 261.674191 -218.544149 
L 263.557942 -220.914724 
L 265.365931 -223.2853 
L 267.072839 -225.655876 
L 268.659864 -228.026452 
L 270.114468 -230.397028 
L 271.429904 -232.767604 
L 272.604607 -235.13818 
L 273.641502 -237.508755 
L 274.547271 -239.879331 
L 275.331584 -242.249907 
L 276.006311 -244.620483 
L 276.584719 -246.991059 
L 277.080677 -249.361635 
L 277.50789 -251.732211 
L 277.879222 -254.102786 
L 278.206127 -256.473362 
L 278.498248 -258.843938 
L 278.763191 -261.214514 
L 279.006497 -263.58509 
L 279.231779 -265.955666 
L 279.441009 -268.326241 
L 279.634899 -270.696817 
L 279.813319 -273.067393 
L 279.97571 -275.437969 
L 280.121443 -277.808545 
L 280.250095 -280.179121 
L 280.361624 -282.549697 
L 280.456456 -284.920272 
L 280.535479 -287.290848 
L 280.599973 -289.661424 
L 280.651507 -292.032 
L 280.8 -292.032 
L 280.8 -292.032 
L 280.8 -289.661424 
L 280.8 -287.290848 
L 280.8 -284.920272 
L 280.8 -282.549697 
L 280.8 -280.179121 
L 280.8 -277.808545 
L 280.8 -275.437969 
L 280.8 -273.067393 
L 280.8 -270.696817 
L 280.8 -268.326241 
L 280.8 -265.955666 
L 280.8 -263.58509 
L 280.8 -261.214514 
L 280.8 -258.843938 
L 280.8 -256.473362 
L 280.8 -254.102786 
L 280.8 -251.732211 
L 280.8 -249.361635 
L 280.8 -246.991059 
L 280.8 -244.620483 
L 280.8 -242.249907 
L 280.8 -239.879331 
L 280.8 -237.508755 
L 280.8 -235.13818 
L 280.8 -232.767604 
L 280.8 -230.397028 
L 280.8 -228.026452 
L 280.8 -225.655876 
L 280.8 -223.2853 
L 280.8 -220.914724 
L 280.8 -218.544149 
L 280.8 -216.173573 
L 280.8 -213.802997 
L 280.8 -211.432421 
L 280.8 -209.061845 
L 280.8 -206.691269 
L 280.8 -204.320694 
L 280.8 -201.950118 
L 280.8 -199.579542 
L 280.8 -197.208966 
L 280.8 -194.83839 
L 280.8 -192.467814 
L 280.8 -190.097238 
L 280.8 -187.726663 
L 280.8 -185.356087 
L 280.8 -182.985511 
L 280.8 -180.614935 
L 280.8 -178.244359 
L 280.8 -175.873783 
L 280.8 -173.503207 
L 280.8 -171.132632 
L 280.8 -168.762056 
L 280.8 -166.39148 
L 280.8 -164.020904 
L 280.8 -161.650328 
L 280.8 -159.279752 
L 280.8 -156.909177 
L 280.8 -154.538601 
L 280.8 -152.168025 
L 280.8 -149.797449 
L 280.8 -147.426873 
L 280.8 -145.056297 
L 280.8 -142.685721 
L 280.8 -140.315146 
L 280.8 -137.94457 
L 280.8 -135.573994 
L 280.8 -133.203418 
L 280.8 -130.832842 
L 280.8 -128.462266 
L 280.8 -126.09169 
L 280.8 -123.721115 
L 280.8 -121.350539 
L 280.8 -118.979963 
L 280.8 -116.609387 
L 280.8 -114.238811 
L 280.8 -111.868235 
L 280.8 -109.497659 
L 280.8 -107.127084 
L 280.8 -104.756508 
L 280.8 -102.385932 
L 280.8 -100.015356 
L 280.8 -97.64478 
L 280.8 -95.274204 
L 280.8 -92.903629 
L 280.8 -90.533053 
L 280.8 -88.162477 
L 280.8 -85.791901 
L 280.8 -83.421325 
L 280.8 -81.050749 
L 280.8 -78.680173 
L 280.8 -76.309598 
L 280.8 -73.939022 
L 280.8 -71.568446 
L 280.8 -69.19787 
L 280.8 -66.827294 
L 280.8 -64.456718 
L 280.8 -62.086142 
L 280.8 -59.715567 
L 280.8 -57.344991 
z
" style="stroke: #4f4f4f; stroke-width: 1.5"/>
    </defs>
    <g clip-path="url(#p730234ce05)">
     <use xlink:href="#mde56d00204" x="0" y="345.6" style="fill: #b0c4d7; stroke: #4f4f4f; stroke-width: 1.5"/>
    </g>
   </g>
   <g id="PolyCollection_5">
    <defs>
     <path id="m37dbb831f9" d="M 283.762309 -50.112 
L 280.8 -50.112 
L 280.8 -51.529394 
L 280.8 -52.946789 
L 280.8 -54.364183 
L 280.8 -55.781577 
L 280.8 -57.198972 
L 280.8 -58.616366 
L 280.8 -60.03376 
L 280.8 -61.451155 
L 280.8 -62.868549 
L 280.8 -64.285943 
L 280.8 -65.703338 
L 280.8 -67.120732 
L 280.8 -68.538126 
L 280.8 -69.955521 
L 280.8 -71.372915 
L 280.8 -72.790309 
L 280.8 -74.207703 
L 280.8 -75.625098 
L 280.8 -77.042492 
L 280.8 -78.459886 
L 280.8 -79.877281 
L 280.8 -81.294675 
L 280.8 -82.712069 
L 280.8 -84.129464 
L 280.8 -85.546858 
L 280.8 -86.964252 
L 280.8 -88.381647 
L 280.8 -89.799041 
L 280.8 -91.216435 
L 280.8 -92.63383 
L 280.8 -94.051224 
L 280.8 -95.468618 
L 280.8 -96.886013 
L 280.8 -98.303407 
L 280.8 -99.720801 
L 280.8 -101.138196 
L 280.8 -102.55559 
L 280.8 -103.972984 
L 280.8 -105.390379 
L 280.8 -106.807773 
L 280.8 -108.225167 
L 280.8 -109.642562 
L 280.8 -111.059956 
L 280.8 -112.47735 
L 280.8 -113.894744 
L 280.8 -115.312139 
L 280.8 -116.729533 
L 280.8 -118.146927 
L 280.8 -119.564322 
L 280.8 -120.981716 
L 280.8 -122.39911 
L 280.8 -123.816505 
L 280.8 -125.233899 
L 280.8 -126.651293 
L 280.8 -128.068688 
L 280.8 -129.486082 
L 280.8 -130.903476 
L 280.8 -132.320871 
L 280.8 -133.738265 
L 280.8 -135.155659 
L 280.8 -136.573054 
L 280.8 -137.990448 
L 280.8 -139.407842 
L 280.8 -140.825237 
L 280.8 -142.242631 
L 280.8 -143.660025 
L 280.8 -145.07742 
L 280.8 -146.494814 
L 280.8 -147.912208 
L 280.8 -149.329603 
L 280.8 -150.746997 
L 280.8 -152.164391 
L 280.8 -153.581785 
L 280.8 -154.99918 
L 280.8 -156.416574 
L 280.8 -157.833968 
L 280.8 -159.251363 
L 280.8 -160.668757 
L 280.8 -162.086151 
L 280.8 -163.503546 
L 280.8 -164.92094 
L 280.8 -166.338334 
L 280.8 -167.755729 
L 280.8 -169.173123 
L 280.8 -170.590517 
L 280.8 -172.007912 
L 280.8 -173.425306 
L 280.8 -174.8427 
L 280.8 -176.260095 
L 280.8 -177.677489 
L 280.8 -179.094883 
L 280.8 -180.512278 
L 280.8 -181.929672 
L 280.8 -183.347066 
L 280.8 -184.764461 
L 280.8 -186.181855 
L 280.8 -187.599249 
L 280.8 -189.016644 
L 280.8 -190.434038 
L 284.019404 -190.434038 
L 284.019404 -190.434038 
L 284.502579 -189.016644 
L 285.039667 -187.599249 
L 285.633474 -186.181855 
L 286.286425 -184.764461 
L 287.000462 -183.347066 
L 287.776952 -181.929672 
L 288.616589 -180.512278 
L 289.519305 -179.094883 
L 290.484188 -177.677489 
L 291.509402 -176.260095 
L 292.592141 -174.8427 
L 293.728577 -173.425306 
L 294.913849 -172.007912 
L 296.142062 -170.590517 
L 297.406319 -169.173123 
L 298.698775 -167.755729 
L 300.010727 -166.338334 
L 301.332724 -164.92094 
L 302.654707 -163.503546 
L 303.966177 -162.086151 
L 305.256383 -160.668757 
L 306.514528 -159.251363 
L 307.729988 -157.833968 
L 308.892544 -156.416574 
L 309.992607 -154.99918 
L 311.021446 -153.581785 
L 311.971398 -152.164391 
L 312.836066 -150.746997 
L 313.61048 -149.329603 
L 314.291241 -147.912208 
L 314.876612 -146.494814 
L 315.366579 -145.07742 
L 315.762859 -143.660025 
L 316.068869 -142.242631 
L 316.289639 -140.825237 
L 316.431683 -139.407842 
L 316.502828 -137.990448 
L 316.512 -136.573054 
L 316.468978 -135.155659 
L 316.384121 -133.738265 
L 316.268076 -132.320871 
L 316.131474 -130.903476 
L 315.984627 -129.486082 
L 315.837231 -128.068688 
L 315.698086 -126.651293 
L 315.574844 -125.233899 
L 315.473786 -123.816505 
L 315.399644 -122.39911 
L 315.355467 -120.981716 
L 315.342535 -119.564322 
L 315.360332 -118.146927 
L 315.406564 -116.729533 
L 315.477234 -115.312139 
L 315.566769 -113.894744 
L 315.66819 -112.47735 
L 315.773319 -111.059956 
L 315.873029 -109.642562 
L 315.957507 -108.225167 
L 316.016547 -106.807773 
L 316.039843 -105.390379 
L 316.017285 -103.972984 
L 315.939242 -102.55559 
L 315.796836 -101.138196 
L 315.582178 -99.720801 
L 315.288586 -98.303407 
L 314.910756 -96.886013 
L 314.444894 -95.468618 
L 313.888811 -94.051224 
L 313.241964 -92.63383 
L 312.505457 -91.216435 
L 311.681998 -89.799041 
L 310.775815 -88.381647 
L 309.792541 -86.964252 
L 308.739057 -85.546858 
L 307.623323 -84.129464 
L 306.454176 -82.712069 
L 305.241127 -81.294675 
L 303.994143 -79.877281 
L 302.723432 -78.459886 
L 301.439233 -77.042492 
L 300.151621 -75.625098 
L 298.87032 -74.207703 
L 297.60454 -72.790309 
L 296.36284 -71.372915 
L 295.153008 -69.955521 
L 293.981972 -68.538126 
L 292.855736 -67.120732 
L 291.779344 -65.703338 
L 290.75686 -64.285943 
L 289.791384 -62.868549 
L 288.885076 -61.451155 
L 288.039204 -60.03376 
L 287.254206 -58.616366 
L 286.529763 -57.198972 
L 285.86488 -55.781577 
L 285.257973 -54.364183 
L 284.706957 -52.946789 
L 284.209341 -51.529394 
L 283.762309 -50.112 
z
" style="stroke: #4f4f4f; stroke-width: 1.5"/>
    </defs>
    <g clip-path="url(#p730234ce05)">
     <use xlink:href="#m37dbb831f9" x="0" y="345.6" style="fill: #8967a1; stroke: #4f4f4f; stroke-width: 1.5"/>
    </g>
   </g>
   <g id="PolyCollection_6">
    <defs>
     <path id="md414097e8f" d="M 370.08 -64.278051 
L 369.32631 -64.278051 
L 369.052891 -66.175791 
L 368.704799 -68.073531 
L 368.270555 -69.971272 
L 367.739685 -71.869012 
L 367.103594 -73.766753 
L 366.356426 -75.664493 
L 365.495792 -77.562233 
L 364.523259 -79.459974 
L 363.444486 -81.357714 
L 362.268947 -83.255455 
L 361.009221 -85.153195 
L 359.679907 -87.050935 
L 358.296283 -88.948676 
L 356.872888 -90.846416 
L 355.422231 -92.744157 
L 353.953861 -94.641897 
L 352.473956 -96.539637 
L 350.985551 -98.437378 
L 349.489423 -100.335118 
L 347.985544 -102.232859 
L 346.474909 -104.130599 
L 344.961494 -106.028339 
L 343.454038 -107.92608 
L 341.96737 -109.82382 
L 340.523044 -111.721561 
L 339.149143 -113.619301 
L 337.879204 -115.517041 
L 336.750354 -117.414782 
L 335.800836 -119.312522 
L 335.067184 -121.210263 
L 334.581338 -123.108003 
L 334.368 -125.005743 
L 334.4425 -126.903484 
L 334.809348 -128.801224 
L 335.461598 -130.698965 
L 336.381048 -132.596705 
L 337.539218 -134.494445 
L 338.898991 -136.392186 
L 340.416761 -138.289926 
L 342.044898 -140.187667 
L 343.734357 -142.085407 
L 345.437246 -143.983147 
L 347.109216 -145.880888 
L 348.711527 -147.778628 
L 350.212693 -149.676369 
L 351.58963 -151.574109 
L 352.828249 -153.471849 
L 353.923466 -155.36959 
L 354.878649 -157.26733 
L 355.704529 -159.165071 
L 356.417672 -161.062811 
L 357.038631 -162.960551 
L 357.58993 -164.858292 
L 358.094041 -166.756032 
L 358.571555 -168.653773 
L 359.039672 -170.551513 
L 359.511157 -172.449253 
L 359.993815 -174.346994 
L 360.490508 -176.244734 
L 360.999657 -178.142475 
L 361.516127 -180.040215 
L 362.032363 -181.937955 
L 362.53961 -183.835696 
L 363.029076 -185.733436 
L 363.492901 -187.631177 
L 363.924848 -189.528917 
L 364.320671 -191.426657 
L 364.678181 -193.324398 
L 364.997052 -195.222138 
L 365.278463 -197.119879 
L 365.524668 -199.017619 
L 365.738595 -200.915359 
L 365.923539 -202.8131 
L 366.082994 -204.71084 
L 366.220621 -206.608581 
L 366.340315 -208.506321 
L 366.446313 -210.404061 
L 366.543272 -212.301802 
L 366.636259 -214.199542 
L 366.730605 -216.097283 
L 366.831625 -217.995023 
L 366.944232 -219.892763 
L 367.07249 -221.790504 
L 367.219198 -223.688244 
L 367.385557 -225.585985 
L 367.571 -227.483725 
L 367.773206 -229.381465 
L 367.988312 -231.279206 
L 368.211287 -233.176946 
L 368.436414 -235.074687 
L 368.657825 -236.972427 
L 368.870006 -238.870167 
L 369.068219 -240.767908 
L 369.248806 -242.665648 
L 369.40934 -244.563389 
L 369.548649 -246.461129 
L 369.666709 -248.358869 
L 369.764459 -250.25661 
L 369.843556 -252.15435 
L 370.08 -252.15435 
L 370.08 -252.15435 
L 370.08 -250.25661 
L 370.08 -248.358869 
L 370.08 -246.461129 
L 370.08 -244.563389 
L 370.08 -242.665648 
L 370.08 -240.767908 
L 370.08 -238.870167 
L 370.08 -236.972427 
L 370.08 -235.074687 
L 370.08 -233.176946 
L 370.08 -231.279206 
L 370.08 -229.381465 
L 370.08 -227.483725 
L 370.08 -225.585985 
L 370.08 -223.688244 
L 370.08 -221.790504 
L 370.08 -219.892763 
L 370.08 -217.995023 
L 370.08 -216.097283 
L 370.08 -214.199542 
L 370.08 -212.301802 
L 370.08 -210.404061 
L 370.08 -208.506321 
L 370.08 -206.608581 
L 370.08 -204.71084 
L 370.08 -202.8131 
L 370.08 -200.915359 
L 370.08 -199.017619 
L 370.08 -197.119879 
L 370.08 -195.222138 
L 370.08 -193.324398 
L 370.08 -191.426657 
L 370.08 -189.528917 
L 370.08 -187.631177 
L 370.08 -185.733436 
L 370.08 -183.835696 
L 370.08 -181.937955 
L 370.08 -180.040215 
L 370.08 -178.142475 
L 370.08 -176.244734 
L 370.08 -174.346994 
L 370.08 -172.449253 
L 370.08 -170.551513 
L 370.08 -168.653773 
L 370.08 -166.756032 
L 370.08 -164.858292 
L 370.08 -162.960551 
L 370.08 -161.062811 
L 370.08 -159.165071 
L 370.08 -157.26733 
L 370.08 -155.36959 
L 370.08 -153.471849 
L 370.08 -151.574109 
L 370.08 -149.676369 
L 370.08 -147.778628 
L 370.08 -145.880888 
L 370.08 -143.983147 
L 370.08 -142.085407 
L 370.08 -140.187667 
L 370.08 -138.289926 
L 370.08 -136.392186 
L 370.08 -134.494445 
L 370.08 -132.596705 
L 370.08 -130.698965 
L 370.08 -128.801224 
L 370.08 -126.903484 
L 370.08 -125.005743 
L 370.08 -123.108003 
L 370.08 -121.210263 
L 370.08 -119.312522 
L 370.08 -117.414782 
L 370.08 -115.517041 
L 370.08 -113.619301 
L 370.08 -111.721561 
L 370.08 -109.82382 
L 370.08 -107.92608 
L 370.08 -106.028339 
L 370.08 -104.130599 
L 370.08 -102.232859 
L 370.08 -100.335118 
L 370.08 -98.437378 
L 370.08 -96.539637 
L 370.08 -94.641897 
L 370.08 -92.744157 
L 370.08 -90.846416 
L 370.08 -88.948676 
L 370.08 -87.050935 
L 370.08 -85.153195 
L 370.08 -83.255455 
L 370.08 -81.357714 
L 370.08 -79.459974 
L 370.08 -77.562233 
L 370.08 -75.664493 
L 370.08 -73.766753 
L 370.08 -71.869012 
L 370.08 -69.971272 
L 370.08 -68.073531 
L 370.08 -66.175791 
L 370.08 -64.278051 
z
" style="stroke: #4f4f4f; stroke-width: 1.5"/>
    </defs>
    <g clip-path="url(#p730234ce05)">
     <use xlink:href="#md414097e8f" x="0" y="345.6" style="fill: #b0c4d7; stroke: #4f4f4f; stroke-width: 1.5"/>
    </g>
   </g>
   <g id="PolyCollection_7">
    <defs>
     <path id="m91d67aba2e" d="M 371.203443 -65.398582 
L 370.08 -65.398582 
L 370.08 -66.640146 
L 370.08 -67.881711 
L 370.08 -69.123275 
L 370.08 -70.36484 
L 370.08 -71.606404 
L 370.08 -72.847969 
L 370.08 -74.089533 
L 370.08 -75.331098 
L 370.08 -76.572662 
L 370.08 -77.814226 
L 370.08 -79.055791 
L 370.08 -80.297355 
L 370.08 -81.53892 
L 370.08 -82.780484 
L 370.08 -84.022049 
L 370.08 -85.263613 
L 370.08 -86.505178 
L 370.08 -87.746742 
L 370.08 -88.988306 
L 370.08 -90.229871 
L 370.08 -91.471435 
L 370.08 -92.713 
L 370.08 -93.954564 
L 370.08 -95.196129 
L 370.08 -96.437693 
L 370.08 -97.679258 
L 370.08 -98.920822 
L 370.08 -100.162386 
L 370.08 -101.403951 
L 370.08 -102.645515 
L 370.08 -103.88708 
L 370.08 -105.128644 
L 370.08 -106.370209 
L 370.08 -107.611773 
L 370.08 -108.853338 
L 370.08 -110.094902 
L 370.08 -111.336466 
L 370.08 -112.578031 
L 370.08 -113.819595 
L 370.08 -115.06116 
L 370.08 -116.302724 
L 370.08 -117.544289 
L 370.08 -118.785853 
L 370.08 -120.027418 
L 370.08 -121.268982 
L 370.08 -122.510547 
L 370.08 -123.752111 
L 370.08 -124.993675 
L 370.08 -126.23524 
L 370.08 -127.476804 
L 370.08 -128.718369 
L 370.08 -129.959933 
L 370.08 -131.201498 
L 370.08 -132.443062 
L 370.08 -133.684627 
L 370.08 -134.926191 
L 370.08 -136.167755 
L 370.08 -137.40932 
L 370.08 -138.650884 
L 370.08 -139.892449 
L 370.08 -141.134013 
L 370.08 -142.375578 
L 370.08 -143.617142 
L 370.08 -144.858707 
L 370.08 -146.100271 
L 370.08 -147.341835 
L 370.08 -148.5834 
L 370.08 -149.824964 
L 370.08 -151.066529 
L 370.08 -152.308093 
L 370.08 -153.549658 
L 370.08 -154.791222 
L 370.08 -156.032787 
L 370.08 -157.274351 
L 370.08 -158.515915 
L 370.08 -159.75748 
L 370.08 -160.999044 
L 370.08 -162.240609 
L 370.08 -163.482173 
L 370.08 -164.723738 
L 370.08 -165.965302 
L 370.08 -167.206867 
L 370.08 -168.448431 
L 370.08 -169.689996 
L 370.08 -170.93156 
L 370.08 -172.173124 
L 370.08 -173.414689 
L 370.08 -174.656253 
L 370.08 -175.897818 
L 370.08 -177.139382 
L 370.08 -178.380947 
L 370.08 -179.622511 
L 370.08 -180.864076 
L 370.08 -182.10564 
L 370.08 -183.347204 
L 370.08 -184.588769 
L 370.08 -185.830333 
L 370.08 -187.071898 
L 370.08 -188.313462 
L 370.871232 -188.313462 
L 370.871232 -188.313462 
L 371.049924 -187.071898 
L 371.25939 -185.830333 
L 371.502616 -184.588769 
L 371.782365 -183.347204 
L 372.101052 -182.10564 
L 372.460604 -180.864076 
L 372.86232 -179.622511 
L 373.306731 -178.380947 
L 373.793468 -177.139382 
L 374.321154 -175.897818 
L 374.887308 -174.656253 
L 375.488294 -173.414689 
L 376.119298 -172.173124 
L 376.774365 -170.93156 
L 377.446473 -169.689996 
L 378.12767 -168.448431 
L 378.809264 -167.206867 
L 379.482066 -165.965302 
L 380.136685 -164.723738 
L 380.763863 -163.482173 
L 381.35484 -162.240609 
L 381.90175 -160.999044 
L 382.398001 -159.75748 
L 382.838662 -158.515915 
L 383.220808 -157.274351 
L 383.543811 -156.032787 
L 383.809573 -154.791222 
L 384.02266 -153.549658 
L 384.19034 -152.308093 
L 384.322514 -151.066529 
L 384.431514 -149.824964 
L 384.531791 -148.5834 
L 384.639486 -147.341835 
L 384.771884 -146.100271 
L 384.946788 -144.858707 
L 385.181822 -143.617142 
L 385.493682 -142.375578 
L 385.897387 -141.134013 
L 386.40554 -139.892449 
L 387.027647 -138.650884 
L 387.769524 -137.40932 
L 388.632817 -136.167755 
L 389.614672 -134.926191 
L 390.707575 -133.684627 
L 391.89937 -132.443062 
L 393.173471 -131.201498 
L 394.509267 -129.959933 
L 395.882704 -128.718369 
L 397.267028 -127.476804 
L 398.633667 -126.23524 
L 399.953203 -124.993675 
L 401.196405 -123.752111 
L 402.335268 -122.510547 
L 403.344011 -121.268982 
L 404.199994 -120.027418 
L 404.884494 -118.785853 
L 405.383315 -117.544289 
L 405.687196 -116.302724 
L 405.792 -115.06116 
L 405.698675 -113.819595 
L 405.412998 -112.578031 
L 404.945108 -111.336466 
L 404.308885 -110.094902 
L 403.52118 -108.853338 
L 402.600968 -107.611773 
L 401.568473 -106.370209 
L 400.444304 -105.128644 
L 399.248653 -103.88708 
L 398.000609 -102.645515 
L 396.717599 -101.403951 
L 395.414996 -100.162386 
L 394.105889 -98.920822 
L 392.801015 -97.679258 
L 391.508847 -96.437693 
L 390.235796 -95.196129 
L 388.986516 -93.954564 
L 387.764262 -92.713 
L 386.571279 -91.471435 
L 385.409173 -90.229871 
L 384.279251 -88.988306 
L 383.182795 -87.746742 
L 382.121263 -86.505178 
L 381.096407 -85.263613 
L 380.110312 -84.022049 
L 379.165358 -82.780484 
L 378.264127 -81.53892 
L 377.40926 -80.297355 
L 376.603301 -79.055791 
L 375.848521 -77.814226 
L 375.146766 -76.572662 
L 374.499322 -75.331098 
L 373.906815 -74.089533 
L 373.369156 -72.847969 
L 372.885522 -71.606404 
L 372.454382 -70.36484 
L 372.073558 -69.123275 
L 371.74031 -67.881711 
L 371.451446 -66.640146 
L 371.203443 -65.398582 
z
" style="stroke: #4f4f4f; stroke-width: 1.5"/>
    </defs>
    <g clip-path="url(#p730234ce05)">
     <use xlink:href="#m91d67aba2e" x="0" y="345.6" style="fill: #8967a1; stroke: #4f4f4f; stroke-width: 1.5"/>
    </g>
   </g>
   <g id="line2d_10">
    <path d="M 68.919981 235.028285 
L 102.24 235.028285 
" clip-path="url(#p730234ce05)" style="fill: none; stroke-dasharray: 3.375,3.375; stroke-dashoffset: 0; stroke: #4f4f4f; stroke-width: 1.5"/>
   </g>
   <g id="line2d_11">
    <path d="M 68.845165 223.250213 
L 102.24 223.250213 
" clip-path="url(#p730234ce05)" style="fill: none; stroke-dasharray: 6.75,6.75; stroke-dashoffset: 0; stroke: #4f4f4f; stroke-width: 1.5"/>
   </g>
   <g id="line2d_12">
    <path d="M 76.905488 212.281668 
L 102.24 212.281668 
" clip-path="url(#p730234ce05)" style="fill: none; stroke-dasharray: 3.375,3.375; stroke-dashoffset: 0; stroke: #4f4f4f; stroke-width: 1.5"/>
   </g>
   <g id="line2d_13">
    <path d="M 102.24 232.668371 
L 137.129948 232.668371 
" clip-path="url(#p730234ce05)" style="fill: none; stroke-dasharray: 3.375,3.375; stroke-dashoffset: 0; stroke: #4f4f4f; stroke-width: 1.5"/>
   </g>
   <g id="line2d_14">
    <path d="M 102.24 229.13699 
L 137.367692 229.13699 
" clip-path="url(#p730234ce05)" style="fill: none; stroke-dasharray: 6.75,6.75; stroke-dashoffset: 0; stroke: #4f4f4f; stroke-width: 1.5"/>
   </g>
   <g id="line2d_15">
    <path d="M 102.24 221.889662 
L 132.063456 221.889662 
" clip-path="url(#p730234ce05)" style="fill: none; stroke-dasharray: 3.375,3.375; stroke-dashoffset: 0; stroke: #4f4f4f; stroke-width: 1.5"/>
   </g>
   <g id="line2d_16">
    <path d="M 163.754384 204.824103 
L 191.52 204.824103 
" clip-path="url(#p730234ce05)" style="fill: none; stroke-dasharray: 3.375,3.375; stroke-dashoffset: 0; stroke: #4f4f4f; stroke-width: 1.5"/>
   </g>
   <g id="line2d_17">
    <path d="M 156.425663 202.97722 
L 191.52 202.97722 
" clip-path="url(#p730234ce05)" style="fill: none; stroke-dasharray: 6.75,6.75; stroke-dashoffset: 0; stroke: #4f4f4f; stroke-width: 1.5"/>
   </g>
   <g id="line2d_18">
    <path d="M 156.425663 202.97722 
L 191.52 202.97722 
" clip-path="url(#p730234ce05)" style="fill: none; stroke-dasharray: 3.375,3.375; stroke-dashoffset: 0; stroke: #4f4f4f; stroke-width: 1.5"/>
   </g>
   <g id="line2d_19">
    <path d="M 191.52 228.926958 
L 227.232 228.926958 
" clip-path="url(#p730234ce05)" style="fill: none; stroke: #4f4f4f; stroke-width: 1.5; stroke-linecap: round"/>
   </g>
   <g id="line2d_20">
    <path d="M 245.44512 229.772493 
L 280.8 229.772493 
" clip-path="url(#p730234ce05)" style="fill: none; stroke-dasharray: 3.375,3.375; stroke-dashoffset: 0; stroke: #4f4f4f; stroke-width: 1.5"/>
   </g>
   <g id="line2d_21">
    <path d="M 251.464215 197.940565 
L 280.8 197.940565 
" clip-path="url(#p730234ce05)" style="fill: none; stroke-dasharray: 6.75,6.75; stroke-dashoffset: 0; stroke: #4f4f4f; stroke-width: 1.5"/>
   </g>
   <g id="line2d_22">
    <path d="M 247.571796 154.52006 
L 280.8 154.52006 
" clip-path="url(#p730234ce05)" style="fill: none; stroke-dasharray: 3.375,3.375; stroke-dashoffset: 0; stroke: #4f4f4f; stroke-width: 1.5"/>
   </g>
   <g id="line2d_23">
    <path d="M 280.8 245.948019 
L 315.234357 245.948019 
" clip-path="url(#p730234ce05)" style="fill: none; stroke-dasharray: 3.375,3.375; stroke-dashoffset: 0; stroke: #4f4f4f; stroke-width: 1.5"/>
   </g>
   <g id="line2d_24">
    <path d="M 280.8 224.073226 
L 315.009912 224.073226 
" clip-path="url(#p730234ce05)" style="fill: none; stroke-dasharray: 6.75,6.75; stroke-dashoffset: 0; stroke: #4f4f4f; stroke-width: 1.5"/>
   </g>
   <g id="line2d_25">
    <path d="M 280.8 202.82531 
L 315.716181 202.82531 
" clip-path="url(#p730234ce05)" style="fill: none; stroke-dasharray: 3.375,3.375; stroke-dashoffset: 0; stroke: #4f4f4f; stroke-width: 1.5"/>
   </g>
   <g id="line2d_26">
    <path d="M 337.08365 228.957354 
L 370.08 228.957354 
" clip-path="url(#p730234ce05)" style="fill: none; stroke-dasharray: 3.375,3.375; stroke-dashoffset: 0; stroke: #4f4f4f; stroke-width: 1.5"/>
   </g>
   <g id="line2d_27">
    <path d="M 335.162054 217.43792 
L 370.08 217.43792 
" clip-path="url(#p730234ce05)" style="fill: none; stroke-dasharray: 6.75,6.75; stroke-dashoffset: 0; stroke: #4f4f4f; stroke-width: 1.5"/>
   </g>
   <g id="line2d_28">
    <path d="M 348.925212 198.10425 
L 370.08 198.10425 
" clip-path="url(#p730234ce05)" style="fill: none; stroke-dasharray: 3.375,3.375; stroke-dashoffset: 0; stroke: #4f4f4f; stroke-width: 1.5"/>
   </g>
   <g id="line2d_29">
    <path d="M 370.08 235.732863 
L 403.966597 235.732863 
" clip-path="url(#p730234ce05)" style="fill: none; stroke-dasharray: 3.375,3.375; stroke-dashoffset: 0; stroke: #4f4f4f; stroke-width: 1.5"/>
   </g>
   <g id="line2d_30">
    <path d="M 370.08 228.133109 
L 405.030282 228.133109 
" clip-path="url(#p730234ce05)" style="fill: none; stroke-dasharray: 6.75,6.75; stroke-dashoffset: 0; stroke: #4f4f4f; stroke-width: 1.5"/>
   </g>
   <g id="line2d_31">
    <path d="M 370.08 217.671228 
L 396.995158 217.671228 
" clip-path="url(#p730234ce05)" style="fill: none; stroke-dasharray: 3.375,3.375; stroke-dashoffset: 0; stroke: #4f4f4f; stroke-width: 1.5"/>
   </g>
   <g id="patch_5">
    <path d="M 57.6 307.584 
L 57.6 41.472 
" style="fill: none; stroke: #262626; stroke-width: 1.25; stroke-linejoin: miter; stroke-linecap: square"/>
   </g>
   <g id="patch_6">
    <path d="M 414.72 307.584 
L 414.72 41.472 
" style="fill: none; stroke: #262626; stroke-width: 1.25; stroke-linejoin: miter; stroke-linecap: square"/>
   </g>
   <g id="patch_7">
    <path d="M 57.6 307.584 
L 414.72 307.584 
" style="fill: none; stroke: #262626; stroke-width: 1.25; stroke-linejoin: miter; stroke-linecap: square"/>
   </g>
   <g id="patch_8">
    <path d="M 57.6 41.472 
L 414.72 41.472 
" style="fill: none; stroke: #262626; stroke-width: 1.25; stroke-linejoin: miter; stroke-linecap: square"/>
   </g>
   <g id="legend_1">
    <g id="patch_9">
     <path d="M 344.923281 81.391687 
L 407.02 81.391687 
Q 409.22 81.391687 409.22 79.191688 
L 409.22 49.172 
Q 409.22 46.972 407.02 46.972 
L 344.923281 46.972 
Q 342.723281 46.972 342.723281 49.172 
L 342.723281 79.191688 
Q 342.723281 81.391687 344.923281 81.391687 
z
" style="fill: #ffffff; opacity: 0.8; stroke: #cccccc; stroke-linejoin: miter"/>
    </g>
    <g id="patch_10">
     <path d="M 347.123281 59.245594 
L 369.123281 59.245594 
L 369.123281 51.545594 
L 347.123281 51.545594 
z
" style="fill: #b0c4d7; stroke: #4f4f4f; stroke-width: 0.75; stroke-linejoin: miter"/>
    </g>
    <g id="text_11">
     <text style="fill: #262626; font: 11px 'sans-serif'; text-anchor: start" x="377.923281" y="59.245594" transform="rotate(-0, 377.923281, 59.245594)">False</text>
    </g>
    <g id="patch_11">
     <path d="M 347.123281 74.805438 
L 369.123281 74.805438 
L 369.123281 67.105438 
L 347.123281 67.105438 
z
" style="fill: #8967a1; stroke: #4f4f4f; stroke-width: 0.75; stroke-linejoin: miter"/>
    </g>
    <g id="text_12">
     <text style="fill: #262626; font: 11px 'sans-serif'; text-anchor: start" x="377.923281" y="74.805438" transform="rotate(-0, 377.923281, 74.805438)">True</text>
    </g>
   </g>
  </g>
 </g>
 <defs>
  <clipPath id="p730234ce05">
   <rect x="57.6" y="41.472" width="357.12" height="266.112"/>
  </clipPath>
 </defs>
</svg>
