<?xml version="1.0" encoding="utf-8" standalone="no"?>
<!DOCTYPE svg PUBLIC "-//W3C//DTD SVG 1.1//EN"
  "http://www.w3.org/Graphics/SVG/1.1/DTD/svg11.dtd">
<svg xmlns:xlink="http://www.w3.org/1999/xlink" width="460.8pt" height="345.6pt" viewBox="0 0 460.8 345.6" xmlns="http://www.w3.org/2000/svg" version="1.1">
 <metadata>
  <rdf:RDF xmlns:dc="http://purl.org/dc/elements/1.1/" xmlns:cc="http://creativecommons.org/ns#" xmlns:rdf="http://www.w3.org/1999/02/22-rdf-syntax-ns#">
   <cc:Work>
    <dc:type rdf:resource="http://purl.org/dc/dcmitype/StillImage"/>
    <dc:date>2026-05-26T09:35:44.352020</dc:date>
    <dc:format>image/svg+xml</dc:format>
    <dc:creator>
     <cc:Agent>
      <dc:title>Matplotlib v3.5.1, https://matplotlib.org/</dc:title>
     </cc:Agent>
    </dc:creator>
   </cc:Work>
  </rdf:RDF>
 </metadata>
 <defs>
  <style type="text/css">*{stroke-linejoin: round; stroke-linecap: butt}</style>
 </defs>
 <g id="figure_1">
  <g id="patch_1">
   <path d="M 0 345.6 
L 460.8 345.6 
L 460.8 0 
L 0 0 
z
" style="fill: #ffffff"/>
  </g>
  <g id="axes_1">
   <g id="patch_2">
    <path d="M 57.6 307.584 
L 414.72 307.584 
L 414.72 41.472 
L 57.6 41.472 
z
" style="fill: #ffffff"/>
   </g>
   <g id="matplotlib.axis_1">
    <g id="xtick_1">
     <g id="line2d_1">
      <defs>
       <path id="ma7556142b5" d="M 0 0 
L 0 6 
" style="stroke: #262626; stroke-width: 1.25"/>
      </defs>
      <g>
       <use xlink:href="#ma7556142b5" x="73.832727" y="307.584" style="fill: #262626; stroke: #262626; stroke-width: 1.25"/>
      </g>
     </g>
     <g id="text_1">
      <text style="fill: #262626; font: 11px 'sans-serif'; text-anchor: middle" x="73.832727" y="324.957594" transform="rotate(-0, 73.832727, 324.957594)">−10.0</text>
     </g>
    </g>
    <g id="xtick_2">
     <g id="line2d_2">
      <g>
       <use xlink:href="#ma7556142b5" x="114.414545" y="307.584" style="fill: #262626; stroke: #262626; stroke-width: 1.25"/>
      </g>
     </g>
     <g id="text_2">
      <text style="fill: #262626; font: 11px 'sans-serif'; text-anchor: middle" x="114.414545" y="324.957594" transform="rotate(-0, 114.414545, 324.957594)">−7.5</text>
     </g>
    </g>
    <g id="xtick_3">
     <g id="line2d_3">
      <g>
       <use xlink:href="#ma7556142b5" x="154.996364" y="307.584" style="fill: #262626; stroke: #262626; stroke-width: 1.25"/>
      </g>
     </g>
     <g id="text_3">
      <text style="fill: #262626; font: 11px 'sans-serif'; text-anchor: middle" x="154.996364" y="324.957594" transform="rotate(-0, 154.996364, 324.957594)">−5.0</text>
     </g>
    </g>
    <g id="xtick_4">
     <g id="line2d_4">
      <g>
       <use xlink:href="#ma7556142b5" x="195.578182" y="307.584" style="fill: #262626; stroke: #262626; stroke-width: 1.25"/>
      </g>
     </g>
     <g id="text_4">
      <text style="fill: #262626; font: 11px 'sans-serif'; text-anchor: middle" x="195.578182" y="324.957594" transform="rotate(-0, 195.578182, 324.957594)">−2.5</text>
     </g>
    </g>
    <g id="xtick_5">
     <g id="line2d_5">
      <g>
       <use xlink:href="#ma7556142b5" x="236.16" y="307.584" style="fill: #262626; stroke: #262626; stroke-width: 1.25"/>
      </g>
     </g>
     <g id="text_5">
      <text style="fill: #262626; font: 11px 'sans-serif'; text-anchor: middle" x="236.16" y="324.957594" transform="rotate(-0, 236.16, 324.957594)">0.0</text>
     </g>
    </g>
    <g id="xtick_6">
     <g id="line2d_6">
      <g>
       <use xlink:href="#ma7556142b5" x="276.741818" y="307.584" style="fill: #262626; stroke: #262626; stroke-width: 1.25"/>
      </g>
     </g>
     <g id="text_6">
      <text style="fill: #262626; font: 11px 'sans-serif'; text-anchor: middle" x="276.741818" y="324.957594" transform="rotate(-0, 276.741818, 324.957594)">2.5</text>
     </g>
    </g>
    <g id="xtick_7">
     <g id="line2d_7">
      <g>
       <use xlink:href="#ma7556142b5" x="317.323636" y="307.584" style="fill: #262626; stroke: #262626; stroke-width: 1.25"/>
      </g>
     </g>
     <g id="text_7">
      <text style="fill: #262626; font: 11px 'sans-serif'; text-anchor: middle" x="317.323636" y="324.957594" transform="rotate(-0, 317.323636, 324.957594)">5.0</text>
     </g>
    </g>
    <g id="xtick_8">
     <g id="line2d_8">
      <g>
       <use xlink:href="#ma7556142b5" x="357.905455" y="307.584" style="fill: #262626; stroke: #262626; stroke-width: 1.25"/>
      </g>
     </g>
     <g id="text_8">
      <text style="fill: #262626; font: 11px 'sans-serif'; text-anchor: middle" x="357.905455" y="324.957594" transform="rotate(-0, 357.905455, 324.957594)">7.5</text>
     </g>
    </g>
    <g id="xtick_9">
     <g id="line2d_9">
      <g>
       <use xlink:href="#ma7556142b5" x="398.487273" y="307.584" style="fill: #262626; stroke: #262626; stroke-width: 1.25"/>
      </g>
     </g>
     <g id="text_9">
      <text style="fill: #262626; font: 11px 'sans-serif'; text-anchor: middle" x="398.487273" y="324.957594" transform="rotate(-0, 398.487273, 324.957594)">10.0</text>
     </g>
    </g>
    <g id="text_10">
     <text style="fill: #262626; font: 12px 'sans-serif'; text-anchor: middle" x="236.16" y="339.879469" transform="rotate(-0, 236.16, 339.879469)">Time (s)</text>
    </g>
   </g>
   <g id="matplotlib.axis_2">
    <g id="ytick_1">
     <g id="line2d_10">
      <defs>
       <path id="m746fb1512f" d="M 0 0 
L -6 0 
" style="stroke: #262626; stroke-width: 1.25"/>
      </defs>
      <g>
       <use xlink:href="#m746fb1512f" x="57.6" y="307.584" style="fill: #262626; stroke: #262626; stroke-width: 1.25"/>
      </g>
     </g>
     <g id="text_11">
      <text style="fill: #262626; font: 11px 'sans-serif'; text-anchor: end" x="48.1" y="311.520797" transform="rotate(-0, 48.1, 311.520797)">0.0</text>
     </g>
    </g>
    <g id="ytick_2">
     <g id="line2d_11">
      <g>
       <use xlink:href="#m746fb1512f" x="57.6" y="274.32" style="fill: #262626; stroke: #262626; stroke-width: 1.25"/>
      </g>
     </g>
     <g id="text_12">
      <text style="fill: #262626; font: 11px 'sans-serif'; text-anchor: end" x="48.1" y="278.256797" transform="rotate(-0, 48.1, 278.256797)">0.1</text>
     </g>
    </g>
    <g id="ytick_3">
     <g id="line2d_12">
      <g>
       <use xlink:href="#m746fb1512f" x="57.6" y="241.056" style="fill: #262626; stroke: #262626; stroke-width: 1.25"/>
      </g>
     </g>
     <g id="text_13">
      <text style="fill: #262626; font: 11px 'sans-serif'; text-anchor: end" x="48.1" y="244.992797" transform="rotate(-0, 48.1, 244.992797)">0.2</text>
     </g>
    </g>
    <g id="ytick_4">
     <g id="line2d_13">
      <g>
       <use xlink:href="#m746fb1512f" x="57.6" y="207.792" style="fill: #262626; stroke: #262626; stroke-width: 1.25"/>
      </g>
     </g>
     <g id="text_14">
      <text style="fill: #262626; font: 11px 'sans-serif'; text-anchor: end" x="48.1" y="211.728797" transform="rotate(-0, 48.1, 211.728797)">0.3</text>
     </g>
    </g>
    <g id="ytick_5">
     <g id="line2d_14">
      <g>
       <use xlink:href="#m746fb1512f" x="57.6" y="174.528" style="fill: #262626; stroke: #262626; stroke-width: 1.25"/>
      </g>
     </g>
     <g id="text_15">
      <text style="fill: #262626; font: 11px 'sans-serif'; text-anchor: end" x="48.1" y="178.464797" transform="rotate(-0, 48.1, 178.464797)">0.4</text>
     </g>
    </g>
    <g id="ytick_6">
     <g id="line2d_15">
      <g>
       <use xlink:href="#m746fb1512f" x="57.6" y="141.264" style="fill: #262626; stroke: #262626; stroke-width: 1.25"/>
      </g>
     </g>
     <g id="text_16">
      <text style="fill: #262626; font: 11px 'sans-serif'; text-anchor: end" x="48.1" y="145.200797" transform="rotate(-0, 48.1, 145.200797)">0.5</text>
     </g>
    </g>
    <g id="ytick_7">
     <g id="line2d_16">
      <g>
       <use xlink:href="#m746fb1512f" x="57.6" y="108" style="fill: #262626; stroke: #262626; stroke-width: 1.25"/>
      </g>
     </g>
     <g id="text_17">
      <text style="fill: #262626; font: 11px 'sans-serif'; text-anchor: end" x="48.1" y="111.936797" transform="rotate(-0, 48.1, 111.936797)">0.6</text>
     </g>
    </g>
    <g id="ytick_8">
     <g id="line2d_17">
      <g>
       <use xlink:href="#m746fb1512f" x="57.6" y="74.736" style="fill: #262626; stroke: #262626; stroke-width: 1.25"/>
      </g>
     </g>
     <g id="text_18">
      <text style="fill: #262626; font: 11px 'sans-serif'; text-anchor: end" x="48.1" y="78.672797" transform="rotate(-0, 48.1, 78.672797)">0.7</text>
     </g>
    </g>
    <g id="ytick_9">
     <g id="line2d_18">
      <g>
       <use xlink:href="#m746fb1512f" x="57.6" y="41.472" style="fill: #262626; stroke: #262626; stroke-width: 1.25"/>
      </g>
     </g>
     <g id="text_19">
      <text style="fill: #262626; font: 11px 'sans-serif'; text-anchor: end" x="48.1" y="45.408797" transform="rotate(-0, 48.1, 45.408797)">0.8</text>
     </g>
    </g>
    <g id="text_20">
     <text style="fill: #262626; font: 12px 'sans-serif'; text-anchor: middle" x="26.425" y="174.528" transform="rotate(-90, 26.425, 174.528)">FRET</text>
    </g>
   </g>
   <g id="PolyCollection_1">
    <defs>
     <path id="mb04c9e40a2" d="M 73.832727 -198.109949 
L 73.832727 -174.631447 
L 77.079273 -175.018386 
L 80.325818 -179.239789 
L 83.572364 -177.04317 
L 86.818909 -177.045664 
L 90.065455 -169.902797 
L 93.312 -178.527436 
L 96.558545 -178.505896 
L 99.805091 -178.141192 
L 103.051636 -183.409576 
L 106.298182 -185.07858 
L 109.544727 -183.695708 
L 112.791273 -182.460901 
L 116.037818 -187.281528 
L 119.284364 -186.568025 
L 122.530909 -182.056506 
L 125.777455 -182.129821 
L 129.024 -186.936732 
L 132.270545 -189.093721 
L 135.517091 -183.859026 
L 138.763636 -181.352046 
L 142.010182 -185.174982 
L 145.256727 -181.797617 
L 148.503273 -182.756512 
L 151.749818 -177.663227 
L 154.996364 -176.365006 
L 158.242909 -181.780497 
L 161.489455 -174.300697 
L 164.736 -176.490528 
L 167.982545 -186.829749 
L 171.229091 -189.626754 
L 174.475636 -184.704304 
L 177.722182 -184.693964 
L 180.968727 -191.255952 
L 184.215273 -186.399014 
L 187.461818 -182.068873 
L 190.708364 -184.301567 
L 193.954909 -191.761524 
L 197.201455 -189.617983 
L 200.448 -189.15345 
L 203.694545 -195.14458 
L 206.941091 -196.426345 
L 210.187636 -196.805251 
L 213.434182 -190.028942 
L 216.680727 -193.679201 
L 219.927273 -195.50346 
L 223.173818 -193.78204 
L 226.420364 -190.789079 
L 229.666909 -192.399577 
L 232.913455 -187.677943 
L 236.16 -230.874991 
L 239.406545 -229.038954 
L 242.653091 -224.456785 
L 245.899636 -225.955028 
L 249.146182 -222.154299 
L 252.392727 -227.844511 
L 255.639273 -229.70245 
L 258.885818 -227.162214 
L 262.132364 -224.209861 
L 265.378909 -228.986465 
L 268.625455 -220.211876 
L 271.872 -223.936751 
L 275.118545 -225.641151 
L 278.365091 -223.821311 
L 281.611636 -226.732391 
L 284.858182 -222.781885 
L 288.104727 -226.983431 
L 291.351273 -223.866861 
L 294.597818 -219.725386 
L 297.844364 -218.078015 
L 301.090909 -220.108492 
L 304.337455 -219.338091 
L 307.584 -221.06935 
L 310.830545 -221.995077 
L 314.077091 -212.365062 
L 317.323636 -211.21735 
L 320.570182 -215.196064 
L 323.816727 -215.571838 
L 327.063273 -210.309576 
L 330.309818 -214.804316 
L 333.556364 -209.521234 
L 336.802909 -213.770225 
L 340.049455 -213.186152 
L 343.296 -219.033836 
L 346.542545 -220.910403 
L 349.789091 -219.373251 
L 353.035636 -214.527173 
L 356.282182 -214.382107 
L 359.528727 -204.205094 
L 362.775273 -215.558407 
L 366.021818 -207.371556 
L 369.268364 -207.479279 
L 372.514909 -205.607481 
L 375.761455 -207.38296 
L 379.008 -205.097498 
L 382.254545 -206.645248 
L 385.501091 -209.180601 
L 388.747636 -197.620671 
L 391.994182 -205.273195 
L 395.240727 -202.286838 
L 398.487273 -203.670222 
L 398.487273 -248.315621 
L 398.487273 -248.315621 
L 395.240727 -247.539881 
L 391.994182 -250.484076 
L 388.747636 -244.372624 
L 385.501091 -248.916593 
L 382.254545 -245.654859 
L 379.008 -250.160664 
L 375.761455 -247.711459 
L 372.514909 -249.387636 
L 369.268364 -255.323532 
L 366.021818 -244.031137 
L 362.775273 -252.83555 
L 359.528727 -240.959409 
L 356.282182 -251.068136 
L 353.035636 -249.400977 
L 349.789091 -257.465551 
L 346.542545 -249.989077 
L 343.296 -250.724274 
L 340.049455 -246.464196 
L 336.802909 -250.778726 
L 333.556364 -241.216844 
L 330.309818 -242.730915 
L 327.063273 -239.704525 
L 323.816727 -239.590113 
L 320.570182 -242.241659 
L 317.323636 -240.075559 
L 314.077091 -243.990672 
L 310.830545 -254.204359 
L 307.584 -252.643138 
L 304.337455 -244.623377 
L 301.090909 -248.747159 
L 297.844364 -245.947327 
L 294.597818 -243.311696 
L 291.351273 -247.674332 
L 288.104727 -254.984168 
L 284.858182 -244.591292 
L 281.611636 -251.897238 
L 278.365091 -249.710122 
L 275.118545 -247.721279 
L 271.872 -240.641327 
L 268.625455 -246.392132 
L 265.378909 -255.546326 
L 262.132364 -252.388213 
L 258.885818 -253.455687 
L 255.639273 -255.702028 
L 252.392727 -252.006035 
L 249.146182 -253.7143 
L 245.899636 -254.420365 
L 242.653091 -254.132057 
L 239.406545 -251.849399 
L 236.16 -252.170331 
L 232.913455 -201.888984 
L 229.666909 -204.313548 
L 226.420364 -210.032088 
L 223.173818 -212.830028 
L 219.927273 -211.213658 
L 216.680727 -208.289562 
L 213.434182 -208.06821 
L 210.187636 -210.888969 
L 206.941091 -209.370324 
L 203.694545 -213.222268 
L 200.448 -206.075011 
L 197.201455 -202.364713 
L 193.954909 -208.153391 
L 190.708364 -200.038892 
L 187.461818 -195.592577 
L 184.215273 -199.073388 
L 180.968727 -206.615007 
L 177.722182 -201.246809 
L 174.475636 -202.529811 
L 171.229091 -204.570093 
L 167.982545 -200.958449 
L 164.736 -200.807462 
L 161.489455 -201.737225 
L 158.242909 -198.017934 
L 154.996364 -199.534708 
L 151.749818 -201.633699 
L 148.503273 -204.129514 
L 145.256727 -203.134071 
L 142.010182 -200.325716 
L 138.763636 -203.270176 
L 135.517091 -202.981949 
L 132.270545 -201.627266 
L 129.024 -197.137582 
L 125.777455 -199.38599 
L 122.530909 -195.502796 
L 119.284364 -202.583992 
L 116.037818 -206.27302 
L 112.791273 -197.224722 
L 109.544727 -197.174722 
L 106.298182 -198.972078 
L 103.051636 -201.015154 
L 99.805091 -195.462408 
L 96.558545 -194.826622 
L 93.312 -195.052125 
L 90.065455 -188.268781 
L 86.818909 -195.248882 
L 83.572364 -193.561861 
L 80.325818 -198.792892 
L 77.079273 -197.101386 
L 73.832727 -198.109949 
z
" style="stroke: #382a54; stroke-opacity: 0.2"/>
    </defs>
    <g clip-path="url(#p04489ac690)">
     <use xlink:href="#mb04c9e40a2" x="0" y="345.6" style="fill: #382a54; fill-opacity: 0.2; stroke: #382a54; stroke-opacity: 0.2"/>
    </g>
   </g>
   <g id="PolyCollection_2">
    <defs>
     <path id="m11429fed34" d="M 73.832727 -224.83494 
L 73.832727 -152.724243 
L 77.079273 -178.676594 
L 80.325818 -151.92624 
L 83.572364 -159.374049 
L 86.818909 -151.522415 
L 90.065455 -160.694963 
L 93.312 -156.054635 
L 96.558545 -153.140708 
L 99.805091 -153.024284 
L 103.051636 -151.280585 
L 106.298182 -148.2988 
L 109.544727 -145.248159 
L 112.791273 -146.093397 
L 116.037818 -149.899131 
L 119.284364 -152.035013 
L 122.530909 -156.135133 
L 125.777455 -147.328157 
L 129.024 -157.483989 
L 132.270545 -154.144283 
L 135.517091 -153.499294 
L 138.763636 -152.974056 
L 142.010182 -155.920913 
L 145.256727 -148.158426 
L 148.503273 -157.670267 
L 151.749818 -162.990511 
L 154.996364 -145.135394 
L 158.242909 -156.165071 
L 161.489455 -146.484914 
L 164.736 -158.239081 
L 167.982545 -163.076332 
L 171.229091 -162.784607 
L 174.475636 -159.051056 
L 177.722182 -175.091289 
L 180.968727 -155.563325 
L 184.215273 -153.109107 
L 187.461818 -160.904193 
L 190.708364 -155.323824 
L 193.954909 -160.365982 
L 197.201455 -162.662528 
L 200.448 -200.934756 
L 203.694545 -150.700794 
L 206.941091 -176.640061 
L 210.187636 -163.827433 
L 213.434182 -182.26201 
L 216.680727 -177.775029 
L 219.927273 -152.828027 
L 223.173818 -157.61771 
L 226.420364 -141.390533 
L 229.666909 -157.61904 
L 232.913455 -152.712933 
L 236.16 -237.847152 
L 239.406545 -252.809631 
L 242.653091 -213.887425 
L 245.899636 -197.629978 
L 249.146182 -250.13321 
L 252.392727 -237.073431 
L 255.639273 -211.136825 
L 258.885818 -239.881245 
L 262.132364 -251.865599 
L 265.378909 -235.768152 
L 268.625455 -230.359425 
L 271.872 -190.471565 
L 275.118545 -187.245622 
L 278.365091 -198.544072 
L 281.611636 -195.002787 
L 284.858182 -208.549202 
L 288.104727 -199.491098 
L 291.351273 -200.21958 
L 294.597818 -188.92113 
L 297.844364 -179.253946 
L 301.090909 -213.219151 
L 304.337455 -183.564628 
L 307.584 -219.081266 
L 310.830545 -191.418924 
L 314.077091 -185.674563 
L 317.323636 -231.383624 
L 320.570182 -195.697672 
L 323.816727 -213.596365 
L 327.063273 -204.333339 
L 330.309818 -222.268955 
L 333.556364 -229.407077 
L 336.802909 -218.710372 
L 340.049455 -171.189422 
L 343.296 -188.483043 
L 346.542545 -196.489688 
L 349.789091 -195.460832 
L 353.035636 -199.268562 
L 356.282182 -204.389888 
L 359.528727 -189.853187 
L 362.775273 -188.469405 
L 366.021818 -198.27031 
L 369.268364 -205.440697 
L 372.514909 -210.936908 
L 375.761455 -206.070385 
L 379.008 -201.321284 
L 382.254545 -194.443952 
L 385.501091 -217.874115 
L 388.747636 -210.630879 
L 391.994182 -212.935742 
L 395.240727 -206.396372 
L 398.487273 -231.669029 
L 398.487273 -296.027218 
L 398.487273 -296.027218 
L 395.240727 -264.520555 
L 391.994182 -272.865828 
L 388.747636 -284.292344 
L 385.501091 -283.454091 
L 382.254545 -279.389896 
L 379.008 -279.80869 
L 375.761455 -272.36088 
L 372.514909 -279.165031 
L 369.268364 -279.3879 
L 366.021818 -285.991469 
L 362.775273 -264.412115 
L 359.528727 -278.57393 
L 356.282182 -257.111664 
L 353.035636 -249.839156 
L 349.789091 -275.637384 
L 346.542545 -248.453045 
L 343.296 -260.77902 
L 340.049455 -274.467156 
L 336.802909 -264.476647 
L 333.556364 -271.988323 
L 330.309818 -276.641292 
L 327.063273 -273.933935 
L 323.816727 -271.198303 
L 320.570182 -260.809291 
L 317.323636 -240.87983 
L 314.077091 -229.977222 
L 310.830545 -246.874668 
L 307.584 -251.776784 
L 304.337455 -247.059616 
L 301.090909 -258.486133 
L 297.844364 -235.678339 
L 294.597818 -243.412884 
L 291.351273 -251.456119 
L 288.104727 -256.940355 
L 284.858182 -249.16556 
L 281.611636 -241.148604 
L 278.365091 -247.235583 
L 275.118545 -249.554084 
L 271.872 -267.165376 
L 268.625455 -290.010758 
L 265.378909 -269.672484 
L 262.132364 -254.218362 
L 258.885818 -283.129102 
L 255.639273 -254.241314 
L 252.392727 -269.192151 
L 249.146182 -257.52314 
L 245.899636 -258.979438 
L 242.653091 -297.982809 
L 239.406545 -265.074401 
L 236.16 -265.882383 
L 232.913455 -203.831718 
L 229.666909 -200.579829 
L 226.420364 -194.682455 
L 223.173818 -198.795548 
L 219.927273 -190.155224 
L 216.680727 -192.498008 
L 213.434182 -201.488602 
L 210.187636 -198.14557 
L 206.941091 -221.639268 
L 203.694545 -196.03131 
L 200.448 -212.199277 
L 197.201455 -217.182557 
L 193.954909 -209.689841 
L 190.708364 -210.227054 
L 187.461818 -200.541576 
L 184.215273 -210.576326 
L 180.968727 -210.154306 
L 177.722182 -214.721686 
L 174.475636 -198.308896 
L 171.229091 -193.218839 
L 167.982545 -222.989786 
L 164.736 -201.016918 
L 161.489455 -234.667446 
L 158.242909 -249.802566 
L 154.996364 -247.404564 
L 151.749818 -251.88589 
L 148.503273 -226.492818 
L 145.256727 -240.863864 
L 142.010182 -236.255136 
L 138.763636 -227.588867 
L 135.517091 -251.435163 
L 132.270545 -221.690161 
L 129.024 -253.875077 
L 125.777455 -223.030368 
L 122.530909 -233.147281 
L 119.284364 -199.855561 
L 116.037818 -226.363088 
L 112.791273 -221.686835 
L 109.544727 -220.014321 
L 106.298182 -216.645011 
L 103.051636 -216.426466 
L 99.805091 -234.34412 
L 96.558545 -206.396372 
L 93.312 -212.935742 
L 90.065455 -213.846178 
L 86.818909 -220.205256 
L 83.572364 -225.681509 
L 80.325818 -225.445002 
L 77.079273 -214.52942 
L 73.832727 -224.83494 
z
" style="stroke: #395d9c; stroke-opacity: 0.2"/>
    </defs>
    <g clip-path="url(#p04489ac690)">
     <use xlink:href="#m11429fed34" x="0" y="345.6" style="fill: #395d9c; fill-opacity: 0.2; stroke: #395d9c; stroke-opacity: 0.2"/>
    </g>
   </g>
   <g id="PolyCollection_3">
    <defs>
     <path id="m342174911f" d="M 73.832727 -82.966864 
L 73.832727 -68.426567 
L 77.079273 -67.984674 
L 80.325818 -66.639041 
L 83.572364 -69.143345 
L 86.818909 -68.556206 
L 90.065455 -70.599359 
L 93.312 -70.813696 
L 96.558545 -69.085776 
L 99.805091 -69.570662 
L 103.051636 -69.41252 
L 106.298182 -66.669155 
L 109.544727 -68.457567 
L 112.791273 -68.082665 
L 116.037818 -69.230132 
L 119.284364 -69.138914 
L 122.530909 -68.891253 
L 125.777455 -69.279824 
L 129.024 -69.246635 
L 132.270545 -66.865604 
L 135.517091 -66.892533 
L 138.763636 -69.87688 
L 142.010182 -68.295703 
L 145.256727 -66.706277 
L 148.503273 -69.270415 
L 151.749818 -68.471572 
L 154.996364 -70.893266 
L 158.242909 -69.462141 
L 161.489455 -71.085436 
L 164.736 -70.099487 
L 167.982545 -70.621912 
L 171.229091 -71.176807 
L 174.475636 -70.86322 
L 177.722182 -69.968471 
L 180.968727 -74.12495 
L 184.215273 -75.475223 
L 187.461818 -76.448397 
L 190.708364 -72.811702 
L 193.954909 -70.124049 
L 197.201455 -72.505284 
L 200.448 -72.5382 
L 203.694545 -73.190334 
L 206.941091 -76.95114 
L 210.187636 -72.737207 
L 213.434182 -77.384244 
L 216.680727 -77.729523 
L 219.927273 -79.394644 
L 223.173818 -76.095506 
L 226.420364 -76.185895 
L 229.666909 -75.587473 
L 232.913455 -74.879287 
L 236.16 -248.942704 
L 239.406545 -236.681861 
L 242.653091 -237.683435 
L 245.899636 -226.822809 
L 249.146182 -223.516523 
L 252.392727 -218.480186 
L 255.639273 -207.029055 
L 258.885818 -205.292415 
L 262.132364 -196.632802 
L 265.378909 -192.411097 
L 268.625455 -191.651955 
L 271.872 -188.910738 
L 275.118545 -188.701877 
L 278.365091 -183.828718 
L 281.611636 -178.610527 
L 284.858182 -173.628368 
L 288.104727 -171.149327 
L 291.351273 -163.013034 
L 294.597818 -159.32035 
L 297.844364 -158.007845 
L 301.090909 -156.818336 
L 304.337455 -155.379161 
L 307.584 -159.979993 
L 310.830545 -155.295757 
L 314.077091 -151.467119 
L 317.323636 -146.555807 
L 320.570182 -144.849189 
L 323.816727 -139.16692 
L 327.063273 -135.448594 
L 330.309818 -133.262586 
L 333.556364 -127.749696 
L 336.802909 -129.426569 
L 340.049455 -125.65552 
L 343.296 -122.716972 
L 346.542545 -121.750314 
L 349.789091 -118.72319 
L 353.035636 -116.666225 
L 356.282182 -123.329976 
L 359.528727 -119.509702 
L 362.775273 -116.478946 
L 366.021818 -116.594647 
L 369.268364 -117.131509 
L 372.514909 -123.145853 
L 375.761455 -121.196815 
L 379.008 -120.523025 
L 382.254545 -120.496386 
L 385.501091 -118.361905 
L 388.747636 -116.196982 
L 391.994182 -120.502234 
L 395.240727 -119.813744 
L 398.487273 -119.663935 
L 398.487273 -154.173445 
L 398.487273 -154.173445 
L 395.240727 -157.525134 
L 391.994182 -157.158039 
L 388.747636 -154.206114 
L 385.501091 -155.163916 
L 382.254545 -155.890509 
L 379.008 -156.12455 
L 375.761455 -156.206577 
L 372.514909 -157.96587 
L 369.268364 -152.211064 
L 366.021818 -154.462624 
L 362.775273 -153.913565 
L 359.528727 -153.457587 
L 356.282182 -159.514102 
L 353.035636 -153.703837 
L 349.789091 -155.357007 
L 346.542545 -156.883522 
L 343.296 -159.385756 
L 340.049455 -162.930699 
L 336.802909 -166.068948 
L 333.556364 -166.400614 
L 330.309818 -171.734749 
L 327.063273 -172.215037 
L 323.816727 -175.047464 
L 320.570182 -184.526786 
L 317.323636 -186.734361 
L 314.077091 -191.724972 
L 310.830545 -196.273931 
L 307.584 -199.263917 
L 304.337455 -195.16192 
L 301.090909 -195.816038 
L 297.844364 -197.45302 
L 294.597818 -198.942204 
L 291.351273 -202.677826 
L 288.104727 -209.312099 
L 284.858182 -212.470571 
L 281.611636 -219.821324 
L 278.365091 -223.199793 
L 275.118545 -228.211449 
L 271.872 -230.591016 
L 268.625455 -230.546108 
L 265.378909 -230.92064 
L 262.132364 -237.435446 
L 258.885818 -241.342885 
L 255.639273 -243.493997 
L 252.392727 -254.755924 
L 249.146182 -257.755644 
L 245.899636 -258.86474 
L 242.653091 -269.538267 
L 239.406545 -266.066656 
L 236.16 -272.848926 
L 232.913455 -90.404286 
L 229.666909 -91.054163 
L 226.420364 -91.670544 
L 223.173818 -94.547292 
L 219.927273 -94.807217 
L 216.680727 -94.163835 
L 213.434182 -93.15977 
L 210.187636 -89.778988 
L 206.941091 -92.395393 
L 203.694545 -88.020433 
L 200.448 -86.406355 
L 197.201455 -85.707638 
L 193.954909 -83.984521 
L 190.708364 -87.341017 
L 187.461818 -90.260243 
L 184.215273 -90.365167 
L 180.968727 -88.107907 
L 177.722182 -85.071895 
L 174.475636 -85.966972 
L 171.229091 -85.747092 
L 167.982545 -85.092987 
L 164.736 -84.031063 
L 161.489455 -84.789688 
L 158.242909 -83.663005 
L 154.996364 -86.01333 
L 151.749818 -82.928155 
L 148.503273 -84.549242 
L 145.256727 -82.261552 
L 142.010182 -82.476595 
L 138.763636 -85.226297 
L 135.517091 -81.241857 
L 132.270545 -81.996794 
L 129.024 -85.375293 
L 125.777455 -83.966551 
L 122.530909 -83.829816 
L 119.284364 -83.906186 
L 116.037818 -84.511272 
L 112.791273 -81.804588 
L 109.544727 -82.71346 
L 106.298182 -81.20565 
L 103.051636 -84.316249 
L 99.805091 -85.717029 
L 96.558545 -84.485274 
L 93.312 -84.664589 
L 90.065455 -85.08605 
L 86.818909 -84.541794 
L 83.572364 -84.655345 
L 80.325818 -81.265663 
L 77.079273 -84.018921 
L 73.832727 -82.966864 
z
" style="stroke: #3497a9; stroke-opacity: 0.2"/>
    </defs>
    <g clip-path="url(#p04489ac690)">
     <use xlink:href="#m342174911f" x="0" y="345.6" style="fill: #3497a9; fill-opacity: 0.2; stroke: #3497a9; stroke-opacity: 0.2"/>
    </g>
   </g>
   <g id="PolyCollection_4">
    <defs>
     <path id="mc8eea3746d" d="M 73.832727 -166.765626 
L 73.832727 -137.66799 
L 77.079273 -136.513667 
L 80.325818 -138.913344 
L 83.572364 -136.636678 
L 86.818909 -138.353051 
L 90.065455 -136.249609 
L 93.312 -135.415132 
L 96.558545 -136.507878 
L 99.805091 -140.045139 
L 103.051636 -136.209978 
L 106.298182 -140.592412 
L 109.544727 -135.899798 
L 112.791273 -135.968891 
L 116.037818 -137.584473 
L 119.284364 -138.632683 
L 122.530909 -139.429532 
L 125.777455 -137.134229 
L 129.024 -135.439249 
L 132.270545 -137.444654 
L 135.517091 -140.17967 
L 138.763636 -137.378494 
L 142.010182 -138.455418 
L 145.256727 -138.299432 
L 148.503273 -135.613986 
L 151.749818 -131.308597 
L 154.996364 -137.567451 
L 158.242909 -135.698654 
L 161.489455 -130.526254 
L 164.736 -132.173341 
L 167.982545 -134.758528 
L 171.229091 -133.838544 
L 174.475636 -139.515747 
L 177.722182 -136.464493 
L 180.968727 -140.194235 
L 184.215273 -140.021919 
L 187.461818 -138.710521 
L 190.708364 -141.447668 
L 193.954909 -142.20875 
L 197.201455 -140.96521 
L 200.448 -144.816415 
L 203.694545 -141.925156 
L 206.941091 -141.241491 
L 210.187636 -145.261031 
L 213.434182 -142.981855 
L 216.680727 -144.186066 
L 219.927273 -150.239906 
L 223.173818 -152.77002 
L 226.420364 -152.455737 
L 229.666909 -141.72542 
L 232.913455 -143.695936 
L 236.16 -239.315953 
L 239.406545 -237.706254 
L 242.653091 -230.490421 
L 245.899636 -225.063223 
L 249.146182 -231.404408 
L 252.392727 -229.48939 
L 255.639273 -223.15306 
L 258.885818 -229.131186 
L 262.132364 -235.268424 
L 265.378909 -234.804504 
L 268.625455 -228.455217 
L 271.872 -223.851 
L 275.118545 -225.329017 
L 278.365091 -221.253287 
L 281.611636 -221.14776 
L 284.858182 -222.369697 
L 288.104727 -215.180194 
L 291.351273 -219.647033 
L 294.597818 -217.3778 
L 297.844364 -211.001066 
L 301.090909 -213.546445 
L 304.337455 -213.703071 
L 307.584 -204.548406 
L 310.830545 -205.131934 
L 314.077091 -212.553665 
L 317.323636 -209.307701 
L 320.570182 -204.326184 
L 323.816727 -208.722545 
L 327.063273 -204.78239 
L 330.309818 -211.125637 
L 333.556364 -211.064783 
L 336.802909 -205.407965 
L 340.049455 -208.814683 
L 343.296 -209.774458 
L 346.542545 -207.044698 
L 349.789091 -212.563885 
L 353.035636 -206.847184 
L 356.282182 -207.780144 
L 359.528727 -210.842097 
L 362.775273 -211.387206 
L 366.021818 -204.358409 
L 369.268364 -211.860891 
L 372.514909 -208.994039 
L 375.761455 -208.294177 
L 379.008 -205.271194 
L 382.254545 -204.154814 
L 385.501091 -210.415654 
L 388.747636 -208.686199 
L 391.994182 -208.964151 
L 395.240727 -212.633646 
L 398.487273 -201.939354 
L 398.487273 -237.242842 
L 398.487273 -237.242842 
L 395.240727 -244.92701 
L 391.994182 -244.385866 
L 388.747636 -241.752503 
L 385.501091 -245.466349 
L 382.254545 -237.845657 
L 379.008 -241.014104 
L 375.761455 -242.371713 
L 372.514909 -242.631529 
L 369.268364 -246.474338 
L 366.021818 -239.945216 
L 362.775273 -245.420099 
L 359.528727 -243.282458 
L 356.282182 -241.171721 
L 353.035636 -242.886949 
L 349.789091 -246.524899 
L 346.542545 -242.484244 
L 343.296 -243.534705 
L 340.049455 -243.46088 
L 336.802909 -239.911422 
L 333.556364 -246.827634 
L 330.309818 -243.746986 
L 327.063273 -242.345893 
L 323.816727 -245.212901 
L 320.570182 -240.245535 
L 317.323636 -243.057566 
L 314.077091 -246.425677 
L 310.830545 -239.229488 
L 307.584 -238.318372 
L 304.337455 -246.203714 
L 301.090909 -247.269322 
L 297.844364 -246.269204 
L 294.597818 -250.108551 
L 291.351273 -253.525651 
L 288.104727 -248.167651 
L 284.858182 -254.233527 
L 281.611636 -253.333299 
L 278.365091 -253.521912 
L 275.118545 -255.52477 
L 271.872 -254.766804 
L 268.625455 -256.325904 
L 265.378909 -261.214317 
L 262.132364 -261.86598 
L 258.885818 -256.282548 
L 255.639273 -254.043538 
L 252.392727 -255.099643 
L 249.146182 -258.023677 
L 245.899636 -252.669854 
L 242.653091 -257.19576 
L 239.406545 -262.694325 
L 236.16 -264.628186 
L 232.913455 -171.757556 
L 229.666909 -169.489855 
L 226.420364 -181.966296 
L 223.173818 -184.309202 
L 219.927273 -178.28785 
L 216.680727 -173.509602 
L 213.434182 -173.472057 
L 210.187636 -174.206176 
L 206.941091 -170.597312 
L 203.694545 -172.166514 
L 200.448 -175.357259 
L 197.201455 -171.13085 
L 193.954909 -169.719808 
L 190.708364 -168.908597 
L 187.461818 -164.311353 
L 184.215273 -169.45642 
L 180.968727 -166.906894 
L 177.722182 -163.664933 
L 174.475636 -167.728525 
L 171.229091 -161.936956 
L 167.982545 -162.365441 
L 164.736 -159.233167 
L 161.489455 -159.019735 
L 158.242909 -162.114378 
L 154.996364 -163.77868 
L 151.749818 -159.130483 
L 148.503273 -163.004184 
L 145.256727 -164.027791 
L 142.010182 -168.297295 
L 138.763636 -164.251784 
L 135.517091 -167.529815 
L 132.270545 -165.369218 
L 129.024 -163.14788 
L 125.777455 -165.997851 
L 122.530909 -166.065815 
L 119.284364 -165.747481 
L 116.037818 -165.600111 
L 112.791273 -164.173306 
L 109.544727 -163.72698 
L 106.298182 -168.696897 
L 103.051636 -165.313235 
L 99.805091 -169.612068 
L 96.558545 -163.484128 
L 93.312 -164.133054 
L 90.065455 -164.079972 
L 86.818909 -167.152743 
L 83.572364 -166.009292 
L 80.325818 -167.07897 
L 77.079273 -165.260771 
L 73.832727 -166.765626 
z
" style="stroke: #60ceac; stroke-opacity: 0.2"/>
    </defs>
    <g clip-path="url(#p04489ac690)">
     <use xlink:href="#mc8eea3746d" x="0" y="345.6" style="fill: #60ceac; fill-opacity: 0.2; stroke: #60ceac; stroke-opacity: 0.2"/>
    </g>
   </g>
   <g id="line2d_19">
    <path d="M 73.832727 158.534392 
L 77.079273 159.799569 
L 80.325818 156.893405 
L 83.572364 160.465219 
L 86.818909 159.320346 
L 90.065455 165.711377 
L 93.312 158.44395 
L 96.558545 159.100859 
L 99.805091 159.41999 
L 103.051636 153.325693 
L 106.298182 153.816522 
L 109.544727 155.443852 
L 112.791273 156.154075 
L 116.037818 149.780194 
L 119.284364 151.905283 
L 122.530909 156.598187 
L 125.777455 154.585086 
L 129.024 153.415672 
L 132.270545 150.379907 
L 135.517091 151.204762 
L 138.763636 154.550048 
L 142.010182 152.754162 
L 145.256727 152.519983 
L 148.503273 151.560594 
L 151.749818 155.751322 
L 154.996364 157.397299 
L 158.242909 155.670953 
L 161.489455 157.177516 
L 164.736 156.90684 
L 167.982545 152.137965 
L 171.229091 148.570974 
L 174.475636 151.575304 
L 177.722182 152.919059 
L 180.968727 146.773461 
L 184.215273 153.159816 
L 187.461818 156.548586 
L 190.708364 153.407781 
L 193.954909 145.683695 
L 197.201455 149.856091 
L 200.448 148.204072 
L 203.694545 141.901874 
L 206.941091 143.047856 
L 210.187636 141.918451 
L 213.434182 146.732435 
L 216.680727 144.231112 
L 219.927273 141.832722 
L 223.173818 142.317212 
L 226.420364 145.643889 
L 229.666909 147.484368 
L 232.913455 150.629036 
L 236.16 104.747113 
L 239.406545 106.365924 
L 242.653091 108.087152 
L 245.899636 107.214711 
L 249.146182 108.698526 
L 252.392727 105.384673 
L 255.639273 104.214723 
L 258.885818 106.356537 
L 262.132364 109.664309 
L 265.378909 104.439329 
L 268.625455 112.599302 
L 271.872 113.671494 
L 275.118545 109.603768 
L 278.365091 110.700168 
L 281.611636 107.887364 
L 284.858182 112.300407 
L 288.104727 105.582021 
L 291.351273 110.61468 
L 294.597818 113.678516 
L 297.844364 114.494667 
L 301.090909 112.333006 
L 304.337455 114.295212 
L 307.584 110.009183 
L 310.830545 107.209777 
L 314.077091 117.684555 
L 317.323636 120.547902 
L 320.570182 118.224226 
L 323.816727 118.238789 
L 327.063273 121.07107 
L 330.309818 116.939755 
L 333.556364 120.475275 
L 336.802909 113.039921 
L 340.049455 116.47964 
L 343.296 110.828623 
L 346.542545 109.702285 
L 349.789091 107.887143 
L 353.035636 114.005815 
L 356.282182 113.329392 
L 359.528727 123.193702 
L 362.775273 111.72263 
L 366.021818 119.760136 
L 369.268364 113.120716 
L 372.514909 118.671313 
L 375.761455 119.176279 
L 379.008 117.812326 
L 382.254545 119.533534 
L 385.501091 117.14967 
L 388.747636 124.805232 
L 391.994182 119.030028 
L 395.240727 119.933312 
L 398.487273 119.189474 
" clip-path="url(#p04489ac690)" style="fill: none; stroke: #382a54; stroke-width: 1.5; stroke-linecap: round"/>
   </g>
   <g id="line2d_20">
    <path d="M 73.832727 151.616422 
L 77.079273 149.118407 
L 80.325818 149.358794 
L 83.572364 147.468845 
L 86.818909 154.042809 
L 90.065455 152.832554 
L 93.312 166.487537 
L 96.558545 170.056875 
L 99.805091 156.612675 
L 103.051636 155.565081 
L 106.298182 170.136819 
L 109.544727 172.318051 
L 112.791273 165.478307 
L 116.037818 164.229909 
L 119.284364 166.662395 
L 122.530909 157.519008 
L 125.777455 161.657715 
L 129.024 146.848028 
L 132.270545 161.340931 
L 135.517091 148.6312 
L 138.763636 156.731095 
L 142.010182 151.744599 
L 145.256727 155.465843 
L 148.503273 162.867083 
L 151.749818 150.925972 
L 154.996364 160.627529 
L 158.242909 147.354971 
L 161.489455 161.953432 
L 164.736 168.395005 
L 167.982545 145.256345 
L 171.229091 169.840437 
L 174.475636 162.458601 
L 177.722182 151.630726 
L 180.968727 159.691923 
L 184.215273 163.018102 
L 187.461818 159.775749 
L 190.708364 161.34836 
L 193.954909 160.850287 
L 197.201455 153.170738 
L 200.448 140.78012 
L 203.694545 164.863921 
L 206.941091 146.82441 
L 210.187636 163.737158 
L 213.434182 153.219192 
L 216.680727 160.086324 
L 219.927273 171.085841 
L 223.173818 172.140754 
L 226.420364 180.387897 
L 229.666909 166.529449 
L 232.913455 159.845714 
L 236.16 90.241903 
L 239.406545 88.247172 
L 242.653091 90.469318 
L 245.899636 119.760931 
L 249.146182 92.16678 
L 252.392727 92.711644 
L 255.639273 109.899264 
L 258.885818 84.429462 
L 262.132364 92.397188 
L 265.378909 91.457369 
L 268.625455 85.803265 
L 271.872 112.647535 
L 275.118545 117.557745 
L 278.365091 120.504936 
L 281.611636 125.182187 
L 284.858182 121.822855 
L 288.104727 113.470487 
L 291.351273 114.366286 
L 294.597818 122.171129 
L 297.844364 131.584287 
L 301.090909 107.343812 
L 304.337455 135.101179 
L 307.584 115.597276 
L 310.830545 126.123669 
L 314.077091 130.5174 
L 317.323636 109.402854 
L 320.570182 122.812903 
L 323.816727 109.969451 
L 327.063273 113.71542 
L 330.309818 99.350251 
L 333.556364 100.03926 
L 336.802909 105.777965 
L 340.049455 124.942464 
L 343.296 118.218812 
L 346.542545 120.180057 
L 349.789091 116.061974 
L 353.035636 122.316826 
L 356.282182 114.708462 
L 359.528727 108.335856 
L 362.775273 121.896147 
L 366.021818 110.382257 
L 369.268364 111.591625 
L 372.514909 107.287707 
L 375.761455 114.855932 
L 379.008 110.075008 
L 382.254545 112.428215 
L 385.501091 105.088846 
L 388.747636 109.343533 
L 391.994182 110.579734 
L 395.240727 114.35542 
L 398.487273 91.586544 
" clip-path="url(#p04489ac690)" style="fill: none; stroke: #395d9c; stroke-width: 1.5; stroke-linecap: round"/>
   </g>
   <g id="line2d_21">
    <path d="M 73.832727 269.907258 
L 77.079273 269.968016 
L 80.325818 271.95632 
L 83.572364 268.774559 
L 86.818909 269.08402 
L 90.065455 268.4234 
L 93.312 268.218518 
L 96.558545 268.959823 
L 99.805091 268.669602 
L 103.051636 269.142039 
L 106.298182 272.013139 
L 109.544727 270.375269 
L 112.791273 270.779993 
L 116.037818 269.220119 
L 119.284364 269.352962 
L 122.530909 269.783581 
L 125.777455 269.57368 
L 129.024 268.64252 
L 132.270545 271.198389 
L 135.517091 271.203553 
L 138.763636 268.050666 
L 142.010182 270.29932 
L 145.256727 270.935224 
L 148.503273 269.121767 
L 151.749818 269.613578 
L 154.996364 267.466498 
L 158.242909 269.350765 
L 161.489455 267.519824 
L 164.736 268.844157 
L 167.982545 267.710825 
L 171.229091 267.819917 
L 174.475636 267.573597 
L 177.722182 268.077501 
L 180.968727 265.082148 
L 184.215273 262.840607 
L 187.461818 262.354934 
L 190.708364 265.369416 
L 193.954909 268.184112 
L 197.201455 266.574756 
L 200.448 266.325137 
L 203.694545 265.229399 
L 206.941091 261.246116 
L 210.187636 264.355646 
L 213.434182 260.918452 
L 216.680727 259.610051 
L 219.927273 258.670488 
L 223.173818 260.569668 
L 226.420364 262.06864 
L 229.666909 262.483998 
L 232.913455 262.868304 
L 236.16 84.701319 
L 239.406545 93.540205 
L 242.653091 91.736699 
L 245.899636 102.368296 
L 249.146182 104.544206 
L 252.392727 107.762612 
L 255.639273 119.550853 
L 258.885818 121.965318 
L 262.132364 129.307329 
L 265.378909 134.078204 
L 268.625455 134.146968 
L 271.872 136.080613 
L 275.118545 136.805454 
L 278.365091 143.064278 
L 281.611636 146.634773 
L 284.858182 151.642297 
L 288.104727 155.827884 
L 291.351273 162.936167 
L 294.597818 166.867827 
L 297.844364 168.472409 
L 301.090909 168.897574 
L 304.337455 170.741109 
L 307.584 165.793225 
L 310.830545 169.767919 
L 314.077091 173.449183 
L 317.323636 177.689893 
L 320.570182 179.94324 
L 323.816727 188.860571 
L 327.063273 191.630116 
L 330.309818 193.018659 
L 333.556364 198.966987 
L 336.802909 197.98399 
L 340.049455 201.337181 
L 343.296 205.205495 
L 346.542545 205.47411 
L 349.789091 207.378275 
L 353.035636 210.748044 
L 356.282182 204.470129 
L 359.528727 209.663198 
L 362.775273 210.672384 
L 366.021818 210.021059 
L 369.268364 210.649645 
L 372.514909 205.365743 
L 375.761455 207.17218 
L 379.008 207.26572 
L 382.254545 208.471922 
L 385.501091 209.657707 
L 388.747636 210.167213 
L 391.994182 207.511557 
L 395.240727 207.930624 
L 398.487273 208.281766 
" clip-path="url(#p04489ac690)" style="fill: none; stroke: #3497a9; stroke-width: 1.5; stroke-linecap: round"/>
   </g>
   <g id="line2d_22">
    <path d="M 73.832727 192.269975 
L 77.079273 194.262117 
L 80.325818 192.097635 
L 83.572364 193.948322 
L 86.818909 192.913717 
L 90.065455 195.472278 
L 93.312 195.153704 
L 96.558545 195.406848 
L 99.805091 190.462953 
L 103.051636 194.103764 
L 106.298182 191.038171 
L 109.544727 195.114657 
L 112.791273 195.425737 
L 116.037818 193.707618 
L 119.284364 193.338997 
L 122.530909 192.440342 
L 125.777455 193.723036 
L 129.024 196.149883 
L 132.270545 194.06423 
L 135.517091 191.864947 
L 138.763636 195.242252 
L 142.010182 191.926979 
L 145.256727 194.828853 
L 148.503273 196.281653 
L 151.749818 200.229956 
L 154.996364 194.922763 
L 158.242909 196.544111 
L 161.489455 200.378957 
L 164.736 198.832436 
L 167.982545 197.508373 
L 171.229091 197.215501 
L 174.475636 191.105569 
L 177.722182 194.977227 
L 180.968727 191.515969 
L 184.215273 190.816782 
L 187.461818 193.239238 
L 190.708364 189.17853 
L 193.954909 189.823131 
L 197.201455 188.970636 
L 200.448 185.411016 
L 203.694545 187.050055 
L 206.941091 189.021358 
L 210.187636 186.00673 
L 213.434182 186.4716 
L 216.680727 187.259014 
L 219.927273 180.881296 
L 223.173818 176.53663 
L 226.420364 178.316426 
L 229.666909 188.641671 
L 232.913455 187.931213 
L 236.16 94.011374 
L 239.406545 95.307977 
L 242.653091 101.677451 
L 245.899636 106.803233 
L 249.146182 101.076647 
L 252.392727 103.081391 
L 255.639273 106.187461 
L 258.885818 103.572778 
L 262.132364 97.658034 
L 265.378909 97.343789 
L 268.625455 102.83695 
L 271.872 105.510223 
L 275.118545 105.735947 
L 278.365091 107.416211 
L 281.611636 108.307221 
L 284.858182 106.001787 
L 288.104727 113.838287 
L 291.351273 107.769636 
L 294.597818 111.347506 
L 297.844364 116.8199 
L 301.090909 114.615417 
L 304.337455 116.217466 
L 307.584 123.318394 
L 310.830545 123.05884 
L 314.077091 116.455105 
L 317.323636 119.570882 
L 320.570182 123.888949 
L 323.816727 119.772473 
L 327.063273 122.34311 
L 330.309818 118.185054 
L 333.556364 116.858419 
L 336.802909 122.167038 
L 340.049455 118.240799 
L 343.296 118.740136 
L 346.542545 120.704874 
L 349.789091 115.532167 
L 353.035636 121.081212 
L 356.282182 120.793833 
L 359.528727 118.30644 
L 362.775273 117.032911 
L 366.021818 123.597761 
L 369.268364 116.142051 
L 372.514909 119.83216 
L 375.761455 120.179608 
L 379.008 121.829602 
L 382.254545 123.573395 
L 385.501091 117.716309 
L 388.747636 120.598607 
L 391.994182 118.610074 
L 395.240727 116.260327 
L 398.487273 124.86492 
" clip-path="url(#p04489ac690)" style="fill: none; stroke: #60ceac; stroke-width: 1.5; stroke-linecap: round"/>
   </g>
   <g id="line2d_23"/>
   <g id="line2d_24"/>
   <g id="line2d_25"/>
   <g id="line2d_26"/>
   <g id="patch_3">
    <path d="M 57.6 307.584 
L 57.6 41.472 
" style="fill: none; stroke: #262626; stroke-width: 1.25; stroke-linejoin: miter; stroke-linecap: square"/>
   </g>
   <g id="patch_4">
    <path d="M 414.72 307.584 
L 414.72 41.472 
" style="fill: none; stroke: #262626; stroke-width: 1.25; stroke-linejoin: miter; stroke-linecap: square"/>
   </g>
   <g id="patch_5">
    <path d="M 57.6 307.584 
L 414.72 307.584 
" style="fill: none; stroke: #262626; stroke-width: 1.25; stroke-linejoin: miter; stroke-linecap: square"/>
   </g>
   <g id="patch_6">
    <path d="M 57.6 41.472 
L 414.72 41.472 
" style="fill: none; stroke: #262626; stroke-width: 1.25; stroke-linejoin: miter; stroke-linecap: square"/>
   </g>
   <g id="legend_1">
    <g id="patch_7">
     <path d="M 65.3 112.743406 
L 165.925938 112.743406 
Q 168.125937 112.743406 168.125937 110.543406 
L 168.125937 49.172 
Q 168.125937 46.972 165.925938 46.972 
L 65.3 46.972 
Q 63.1 46.972 63.1 49.172 
L 63.1 110.543406 
Q 63.1 112.743406 65.3 112.743406 
z
" style="fill: #ffffff; opacity: 0.8; stroke: #cccccc; stroke-linejoin: miter"/>
    </g>
    <g id="line2d_27">
     <path d="M 67.5 55.42825 
L 78.5 55.42825 
L 89.5 55.42825 
" style="fill: none; stroke: #382a54; stroke-width: 1.5; stroke-linecap: round"/>
    </g>
    <g id="text_21">
     <text style="fill: #262626; font: 11px 'sans-serif'; text-anchor: start" x="98.3" y="59.27825" transform="rotate(-0, 98.3, 59.27825)">01_Native</text>
    </g>
    <g id="line2d_28">
     <path d="M 67.5 71.122156 
L 78.5 71.122156 
L 89.5 71.122156 
" style="fill: none; stroke: #395d9c; stroke-width: 1.5; stroke-linecap: round"/>
    </g>
    <g id="text_22">
     <text style="fill: #262626; font: 11px 'sans-serif'; text-anchor: start" x="98.3" y="74.972156" transform="rotate(-0, 98.3, 74.972156)">02_Misfolded</text>
    </g>
    <g id="line2d_29">
     <path d="M 67.5 86.714656 
L 78.5 86.714656 
L 89.5 86.714656 
" style="fill: none; stroke: #3497a9; stroke-width: 1.5; stroke-linecap: round"/>
    </g>
    <g id="text_23">
     <text style="fill: #262626; font: 11px 'sans-serif'; text-anchor: start" x="98.3" y="90.564656" transform="rotate(-0, 98.3, 90.564656)">03_A8A2</text>
    </g>
    <g id="line2d_30">
     <path d="M 67.5 102.307156 
L 78.5 102.307156 
L 89.5 102.307156 
" style="fill: none; stroke: #60ceac; stroke-width: 1.5; stroke-linecap: round"/>
    </g>
    <g id="text_24">
     <text style="fill: #262626; font: 11px 'sans-serif'; text-anchor: start" x="98.3" y="106.157156" transform="rotate(-0, 98.3, 106.157156)">04_A8B1</text>
    </g>
   </g>
  </g>
 </g>
 <defs>
  <clipPath id="p04489ac690">
   <rect x="57.6" y="41.472" width="357.12" height="266.112"/>
  </clipPath>
 </defs>
</svg>
