<?xml version="1.0" encoding="utf-8" standalone="no"?>
<!DOCTYPE svg PUBLIC "-//W3C//DTD SVG 1.1//EN"
  "http://www.w3.org/Graphics/SVG/1.1/DTD/svg11.dtd">
<svg xmlns:xlink="http://www.w3.org/1999/xlink" width="460.8pt" height="345.6pt" viewBox="0 0 460.8 345.6" xmlns="http://www.w3.org/2000/svg" version="1.1">
 <metadata>
  <rdf:RDF xmlns:dc="http://purl.org/dc/elements/1.1/" xmlns:cc="http://creativecommons.org/ns#" xmlns:rdf="http://www.w3.org/1999/02/22-rdf-syntax-ns#">
   <cc:Work>
    <dc:type rdf:resource="http://purl.org/dc/dcmitype/StillImage"/>
    <dc:date>2026-05-26T09:35:27.839923</dc:date>
    <dc:format>image/svg+xml</dc:format>
    <dc:creator>
     <cc:Agent>
      <dc:title>Matplotlib v3.5.1, https://matplotlib.org/</dc:title>
     </cc:Agent>
    </dc:creator>
   </cc:Work>
  </rdf:RDF>
 </metadata>
 <defs>
  <style type="text/css">*{stroke-linejoin: round; stroke-linecap: butt}</style>
 </defs>
 <g id="figure_1">
  <g id="patch_1">
   <path d="M 0 345.6 
L 460.8 345.6 
L 460.8 0 
L 0 0 
z
" style="fill: #ffffff"/>
  </g>
  <g id="axes_1">
   <g id="patch_2">
    <path d="M 57.6 307.584 
L 414.72 307.584 
L 414.72 41.472 
L 57.6 41.472 
z
" style="fill: #ffffff"/>
   </g>
   <g id="matplotlib.axis_1">
    <g id="xtick_1">
     <g id="line2d_1">
      <defs>
       <path id="m14792cd331" d="M 0 0 
L 0 6 
" style="stroke: #262626; stroke-width: 1.25"/>
      </defs>
      <g>
       <use xlink:href="#m14792cd331" x="73.832727" y="307.584" style="fill: #262626; stroke: #262626; stroke-width: 1.25"/>
      </g>
     </g>
     <g id="text_1">
      <text style="fill: #262626; font: 11px 'sans-serif'; text-anchor: middle" x="73.832727" y="324.957594" transform="rotate(-0, 73.832727, 324.957594)">−10.0</text>
     </g>
    </g>
    <g id="xtick_2">
     <g id="line2d_2">
      <g>
       <use xlink:href="#m14792cd331" x="114.414545" y="307.584" style="fill: #262626; stroke: #262626; stroke-width: 1.25"/>
      </g>
     </g>
     <g id="text_2">
      <text style="fill: #262626; font: 11px 'sans-serif'; text-anchor: middle" x="114.414545" y="324.957594" transform="rotate(-0, 114.414545, 324.957594)">−7.5</text>
     </g>
    </g>
    <g id="xtick_3">
     <g id="line2d_3">
      <g>
       <use xlink:href="#m14792cd331" x="154.996364" y="307.584" style="fill: #262626; stroke: #262626; stroke-width: 1.25"/>
      </g>
     </g>
     <g id="text_3">
      <text style="fill: #262626; font: 11px 'sans-serif'; text-anchor: middle" x="154.996364" y="324.957594" transform="rotate(-0, 154.996364, 324.957594)">−5.0</text>
     </g>
    </g>
    <g id="xtick_4">
     <g id="line2d_4">
      <g>
       <use xlink:href="#m14792cd331" x="195.578182" y="307.584" style="fill: #262626; stroke: #262626; stroke-width: 1.25"/>
      </g>
     </g>
     <g id="text_4">
      <text style="fill: #262626; font: 11px 'sans-serif'; text-anchor: middle" x="195.578182" y="324.957594" transform="rotate(-0, 195.578182, 324.957594)">−2.5</text>
     </g>
    </g>
    <g id="xtick_5">
     <g id="line2d_5">
      <g>
       <use xlink:href="#m14792cd331" x="236.16" y="307.584" style="fill: #262626; stroke: #262626; stroke-width: 1.25"/>
      </g>
     </g>
     <g id="text_5">
      <text style="fill: #262626; font: 11px 'sans-serif'; text-anchor: middle" x="236.16" y="324.957594" transform="rotate(-0, 236.16, 324.957594)">0.0</text>
     </g>
    </g>
    <g id="xtick_6">
     <g id="line2d_6">
      <g>
       <use xlink:href="#m14792cd331" x="276.741818" y="307.584" style="fill: #262626; stroke: #262626; stroke-width: 1.25"/>
      </g>
     </g>
     <g id="text_6">
      <text style="fill: #262626; font: 11px 'sans-serif'; text-anchor: middle" x="276.741818" y="324.957594" transform="rotate(-0, 276.741818, 324.957594)">2.5</text>
     </g>
    </g>
    <g id="xtick_7">
     <g id="line2d_7">
      <g>
       <use xlink:href="#m14792cd331" x="317.323636" y="307.584" style="fill: #262626; stroke: #262626; stroke-width: 1.25"/>
      </g>
     </g>
     <g id="text_7">
      <text style="fill: #262626; font: 11px 'sans-serif'; text-anchor: middle" x="317.323636" y="324.957594" transform="rotate(-0, 317.323636, 324.957594)">5.0</text>
     </g>
    </g>
    <g id="xtick_8">
     <g id="line2d_8">
      <g>
       <use xlink:href="#m14792cd331" x="357.905455" y="307.584" style="fill: #262626; stroke: #262626; stroke-width: 1.25"/>
      </g>
     </g>
     <g id="text_8">
      <text style="fill: #262626; font: 11px 'sans-serif'; text-anchor: middle" x="357.905455" y="324.957594" transform="rotate(-0, 357.905455, 324.957594)">7.5</text>
     </g>
    </g>
    <g id="xtick_9">
     <g id="line2d_9">
      <g>
       <use xlink:href="#m14792cd331" x="398.487273" y="307.584" style="fill: #262626; stroke: #262626; stroke-width: 1.25"/>
      </g>
     </g>
     <g id="text_9">
      <text style="fill: #262626; font: 11px 'sans-serif'; text-anchor: middle" x="398.487273" y="324.957594" transform="rotate(-0, 398.487273, 324.957594)">10.0</text>
     </g>
    </g>
    <g id="text_10">
     <text style="fill: #262626; font: 12px 'sans-serif'; text-anchor: middle" x="236.16" y="339.879469" transform="rotate(-0, 236.16, 339.879469)">Time (s)</text>
    </g>
   </g>
   <g id="matplotlib.axis_2">
    <g id="ytick_1">
     <g id="line2d_10">
      <defs>
       <path id="mdbe3ad5d49" d="M 0 0 
L -6 0 
" style="stroke: #262626; stroke-width: 1.25"/>
      </defs>
      <g>
       <use xlink:href="#mdbe3ad5d49" x="57.6" y="307.584" style="fill: #262626; stroke: #262626; stroke-width: 1.25"/>
      </g>
     </g>
     <g id="text_11">
      <text style="fill: #262626; font: 11px 'sans-serif'; text-anchor: end" x="48.1" y="311.520797" transform="rotate(-0, 48.1, 311.520797)">0.0</text>
     </g>
    </g>
    <g id="ytick_2">
     <g id="line2d_11">
      <g>
       <use xlink:href="#mdbe3ad5d49" x="57.6" y="274.32" style="fill: #262626; stroke: #262626; stroke-width: 1.25"/>
      </g>
     </g>
     <g id="text_12">
      <text style="fill: #262626; font: 11px 'sans-serif'; text-anchor: end" x="48.1" y="278.256797" transform="rotate(-0, 48.1, 278.256797)">0.1</text>
     </g>
    </g>
    <g id="ytick_3">
     <g id="line2d_12">
      <g>
       <use xlink:href="#mdbe3ad5d49" x="57.6" y="241.056" style="fill: #262626; stroke: #262626; stroke-width: 1.25"/>
      </g>
     </g>
     <g id="text_13">
      <text style="fill: #262626; font: 11px 'sans-serif'; text-anchor: end" x="48.1" y="244.992797" transform="rotate(-0, 48.1, 244.992797)">0.2</text>
     </g>
    </g>
    <g id="ytick_4">
     <g id="line2d_13">
      <g>
       <use xlink:href="#mdbe3ad5d49" x="57.6" y="207.792" style="fill: #262626; stroke: #262626; stroke-width: 1.25"/>
      </g>
     </g>
     <g id="text_14">
      <text style="fill: #262626; font: 11px 'sans-serif'; text-anchor: end" x="48.1" y="211.728797" transform="rotate(-0, 48.1, 211.728797)">0.3</text>
     </g>
    </g>
    <g id="ytick_5">
     <g id="line2d_14">
      <g>
       <use xlink:href="#mdbe3ad5d49" x="57.6" y="174.528" style="fill: #262626; stroke: #262626; stroke-width: 1.25"/>
      </g>
     </g>
     <g id="text_15">
      <text style="fill: #262626; font: 11px 'sans-serif'; text-anchor: end" x="48.1" y="178.464797" transform="rotate(-0, 48.1, 178.464797)">0.4</text>
     </g>
    </g>
    <g id="ytick_6">
     <g id="line2d_15">
      <g>
       <use xlink:href="#mdbe3ad5d49" x="57.6" y="141.264" style="fill: #262626; stroke: #262626; stroke-width: 1.25"/>
      </g>
     </g>
     <g id="text_16">
      <text style="fill: #262626; font: 11px 'sans-serif'; text-anchor: end" x="48.1" y="145.200797" transform="rotate(-0, 48.1, 145.200797)">0.5</text>
     </g>
    </g>
    <g id="ytick_7">
     <g id="line2d_16">
      <g>
       <use xlink:href="#mdbe3ad5d49" x="57.6" y="108" style="fill: #262626; stroke: #262626; stroke-width: 1.25"/>
      </g>
     </g>
     <g id="text_17">
      <text style="fill: #262626; font: 11px 'sans-serif'; text-anchor: end" x="48.1" y="111.936797" transform="rotate(-0, 48.1, 111.936797)">0.6</text>
     </g>
    </g>
    <g id="ytick_8">
     <g id="line2d_17">
      <g>
       <use xlink:href="#mdbe3ad5d49" x="57.6" y="74.736" style="fill: #262626; stroke: #262626; stroke-width: 1.25"/>
      </g>
     </g>
     <g id="text_18">
      <text style="fill: #262626; font: 11px 'sans-serif'; text-anchor: end" x="48.1" y="78.672797" transform="rotate(-0, 48.1, 78.672797)">0.7</text>
     </g>
    </g>
    <g id="ytick_9">
     <g id="line2d_18">
      <g>
       <use xlink:href="#mdbe3ad5d49" x="57.6" y="41.472" style="fill: #262626; stroke: #262626; stroke-width: 1.25"/>
      </g>
     </g>
     <g id="text_19">
      <text style="fill: #262626; font: 11px 'sans-serif'; text-anchor: end" x="48.1" y="45.408797" transform="rotate(-0, 48.1, 45.408797)">0.8</text>
     </g>
    </g>
    <g id="text_20">
     <text style="fill: #262626; font: 12px 'sans-serif'; text-anchor: middle" x="26.425" y="174.528" transform="rotate(-90, 26.425, 174.528)">FRET</text>
    </g>
   </g>
   <g id="PolyCollection_1">
    <defs>
     <path id="mc3c46d8333" d="M 73.832727 -259.329632 
L 73.832727 -233.507868 
L 77.079273 -236.407577 
L 80.325818 -241.267558 
L 83.572364 -233.562204 
L 86.818909 -239.853606 
L 90.065455 -238.964056 
L 93.312 -234.721808 
L 96.558545 -236.893922 
L 99.805091 -236.552439 
L 103.051636 -237.98146 
L 106.298182 -238.328728 
L 109.544727 -240.836282 
L 112.791273 -238.833538 
L 116.037818 -237.475783 
L 119.284364 -237.459649 
L 122.530909 -237.12194 
L 125.777455 -238.535928 
L 129.024 -237.742193 
L 132.270545 -240.934266 
L 135.517091 -240.892104 
L 138.763636 -240.086554 
L 142.010182 -235.930878 
L 145.256727 -239.331401 
L 148.503273 -239.101926 
L 151.749818 -239.122909 
L 154.996364 -238.598964 
L 158.242909 -238.766442 
L 161.489455 -239.130942 
L 164.736 -242.44374 
L 167.982545 -240.088197 
L 171.229091 -236.145839 
L 174.475636 -238.155526 
L 177.722182 -239.96104 
L 180.968727 -237.418379 
L 184.215273 -235.968381 
L 187.461818 -238.859483 
L 190.708364 -237.36689 
L 193.954909 -236.722775 
L 197.201455 -233.120587 
L 200.448 -237.018293 
L 203.694545 -233.76697 
L 206.941091 -232.804075 
L 210.187636 -235.486852 
L 213.434182 -232.95403 
L 216.680727 -233.326942 
L 219.927273 -234.363132 
L 223.173818 -232.780464 
L 226.420364 -232.010142 
L 229.666909 -230.707747 
L 232.913455 -234.474626 
L 236.16 -173.43758 
L 239.406545 -186.973823 
L 242.653091 -181.355741 
L 245.899636 -189.243137 
L 249.146182 -189.494255 
L 252.392727 -192.613339 
L 255.639273 -196.424654 
L 258.885818 -191.254706 
L 262.132364 -194.32961 
L 265.378909 -198.138381 
L 268.625455 -202.630455 
L 271.872 -197.204248 
L 275.118545 -205.166051 
L 278.365091 -205.320126 
L 281.611636 -204.873358 
L 284.858182 -199.700576 
L 288.104727 -206.697395 
L 291.351273 -205.193154 
L 294.597818 -203.229429 
L 297.844364 -204.779994 
L 301.090909 -209.29186 
L 304.337455 -203.131253 
L 307.584 -208.845664 
L 310.830545 -210.447719 
L 314.077091 -212.332496 
L 317.323636 -206.12231 
L 320.570182 -207.514006 
L 323.816727 -207.51405 
L 327.063273 -209.471035 
L 330.309818 -212.167175 
L 333.556364 -213.084337 
L 336.802909 -208.397863 
L 340.049455 -211.854125 
L 343.296 -206.524627 
L 346.542545 -207.131439 
L 349.789091 -209.236367 
L 353.035636 -208.543979 
L 356.282182 -211.042274 
L 359.528727 -208.982694 
L 362.775273 -210.276065 
L 366.021818 -208.675371 
L 369.268364 -211.284626 
L 372.514909 -203.277271 
L 375.761455 -208.136335 
L 379.008 -204.152447 
L 382.254545 -208.374962 
L 385.501091 -206.844779 
L 388.747636 -202.774979 
L 391.994182 -209.302087 
L 395.240727 -209.483549 
L 398.487273 -207.963643 
L 398.487273 -243.798447 
L 398.487273 -243.798447 
L 395.240727 -243.073928 
L 391.994182 -242.83282 
L 388.747636 -237.651379 
L 385.501091 -242.20114 
L 382.254545 -241.528014 
L 379.008 -239.939984 
L 375.761455 -242.98041 
L 372.514909 -239.419593 
L 369.268364 -244.659163 
L 366.021818 -243.362226 
L 362.775273 -243.141652 
L 359.528727 -242.84128 
L 356.282182 -245.886136 
L 353.035636 -243.770189 
L 349.789091 -244.521493 
L 346.542545 -243.212116 
L 343.296 -242.328863 
L 340.049455 -244.317557 
L 336.802909 -244.527246 
L 333.556364 -248.100306 
L 330.309818 -247.414683 
L 327.063273 -242.061194 
L 323.816727 -240.029364 
L 320.570182 -241.830951 
L 317.323636 -240.811559 
L 314.077091 -248.030836 
L 310.830545 -243.759515 
L 307.584 -240.688866 
L 304.337455 -238.720039 
L 301.090909 -241.534156 
L 297.844364 -236.509558 
L 294.597818 -235.246561 
L 291.351273 -236.72723 
L 288.104727 -237.701802 
L 284.858182 -234.110646 
L 281.611636 -237.933589 
L 278.365091 -234.470684 
L 275.118545 -234.769335 
L 271.872 -227.343547 
L 268.625455 -231.088644 
L 265.378909 -229.184542 
L 262.132364 -225.861227 
L 258.885818 -219.031933 
L 255.639273 -224.958024 
L 252.392727 -222.128843 
L 249.146182 -217.93273 
L 245.899636 -211.039258 
L 242.653091 -204.995474 
L 239.406545 -211.04081 
L 236.16 -191.511418 
L 232.913455 -254.854324 
L 229.666909 -252.752513 
L 226.420364 -252.375334 
L 223.173818 -251.567472 
L 219.927273 -253.127341 
L 216.680727 -254.201882 
L 213.434182 -255.034101 
L 210.187636 -257.373293 
L 206.941091 -254.813317 
L 203.694545 -254.872391 
L 200.448 -259.456961 
L 197.201455 -254.379897 
L 193.954909 -256.808091 
L 190.708364 -257.963198 
L 187.461818 -259.073132 
L 184.215273 -254.926453 
L 180.968727 -255.540114 
L 177.722182 -259.607573 
L 174.475636 -259.150789 
L 171.229091 -256.053786 
L 167.982545 -262.657615 
L 164.736 -263.400578 
L 161.489455 -260.049826 
L 158.242909 -260.487017 
L 154.996364 -260.716145 
L 151.749818 -259.670108 
L 148.503273 -262.52308 
L 145.256727 -260.582204 
L 142.010182 -260.211067 
L 138.763636 -262.859474 
L 135.517091 -262.487158 
L 132.270545 -263.229037 
L 129.024 -260.28137 
L 125.777455 -260.470557 
L 122.530909 -259.979715 
L 119.284364 -260.948345 
L 116.037818 -261.753057 
L 112.791273 -261.105549 
L 109.544727 -262.376802 
L 106.298182 -260.057734 
L 103.051636 -260.457053 
L 99.805091 -260.671247 
L 96.558545 -259.482259 
L 93.312 -257.242381 
L 90.065455 -260.739434 
L 86.818909 -261.818148 
L 83.572364 -255.46978 
L 80.325818 -264.108122 
L 77.079273 -262.068532 
L 73.832727 -259.329632 
z
" style="stroke: #382a54; stroke-opacity: 0.2"/>
    </defs>
    <g clip-path="url(#pf36e838499)">
     <use xlink:href="#mc3c46d8333" x="0" y="345.6" style="fill: #382a54; fill-opacity: 0.2; stroke: #382a54; stroke-opacity: 0.2"/>
    </g>
   </g>
   <g id="PolyCollection_2">
    <defs>
     <path id="m89b78ef749" d="M 73.832727 -282.469665 
L 73.832727 -252.763288 
L 77.079273 -244.562584 
L 80.325818 -256.543654 
L 83.572364 -257.403649 
L 86.818909 -255.70803 
L 90.065455 -257.45916 
L 93.312 -253.787095 
L 96.558545 -252.707809 
L 99.805091 -256.408697 
L 103.051636 -259.271023 
L 106.298182 -247.870574 
L 109.544727 -260.260659 
L 112.791273 -259.953978 
L 116.037818 -248.570845 
L 119.284364 -259.983715 
L 122.530909 -248.861383 
L 125.777455 -247.42829 
L 129.024 -263.203985 
L 132.270545 -259.023636 
L 135.517091 -266.307145 
L 138.763636 -260.315368 
L 142.010182 -252.495475 
L 145.256727 -263.966879 
L 148.503273 -261.311974 
L 151.749818 -264.33842 
L 154.996364 -262.576552 
L 158.242909 -269.729544 
L 161.489455 -270.665869 
L 164.736 -272.678383 
L 167.982545 -275.272935 
L 171.229091 -268.930478 
L 174.475636 -272.016123 
L 177.722182 -269.298571 
L 180.968727 -263.218613 
L 184.215273 -265.331825 
L 187.461818 -259.727345 
L 190.708364 -264.061664 
L 193.954909 -256.55126 
L 197.201455 -269.729029 
L 200.448 -255.821693 
L 203.694545 -261.322739 
L 206.941091 -263.321313 
L 210.187636 -261.598828 
L 213.434182 -234.849849 
L 216.680727 -251.942641 
L 219.927273 -263.754426 
L 223.173818 -267.52466 
L 226.420364 -250.212642 
L 229.666909 -258.17857 
L 232.913455 -262.180248 
L 236.16 -170.672007 
L 239.406545 -166.498318 
L 242.653091 -161.656772 
L 245.899636 -159.193525 
L 249.146182 -156.887784 
L 252.392727 -169.155109 
L 255.639273 -161.563854 
L 258.885818 -154.47694 
L 262.132364 -158.846235 
L 265.378909 -170.599644 
L 268.625455 -185.352292 
L 271.872 -175.698153 
L 275.118545 -169.560625 
L 278.365091 -176.367247 
L 281.611636 -183.025838 
L 284.858182 -181.716845 
L 288.104727 -196.070173 
L 291.351273 -204.566506 
L 294.597818 -196.890154 
L 297.844364 -186.56878 
L 301.090909 -186.981423 
L 304.337455 -190.536642 
L 307.584 -202.848045 
L 310.830545 -191.105788 
L 314.077091 -195.394654 
L 317.323636 -204.235704 
L 320.570182 -192.572717 
L 323.816727 -188.996058 
L 327.063273 -189.787886 
L 330.309818 -204.337341 
L 333.556364 -192.503358 
L 336.802909 -195.999548 
L 340.049455 -201.204473 
L 343.296 -195.698802 
L 346.542545 -190.695493 
L 349.789091 -205.302402 
L 353.035636 -201.246943 
L 356.282182 -204.849094 
L 359.528727 -206.387839 
L 362.775273 -215.712229 
L 366.021818 -212.358546 
L 369.268364 -218.028286 
L 372.514909 -223.312314 
L 375.761455 -211.064589 
L 379.008 -218.694862 
L 382.254545 -237.81591 
L 385.501091 -238.13265 
L 388.747636 -224.214061 
L 391.994182 -236.890638 
L 395.240727 -233.690312 
L 398.487273 -238.377082 
L 398.487273 -297.282238 
L 398.487273 -297.282238 
L 395.240727 -291.702399 
L 391.994182 -298.106146 
L 388.747636 -280.515439 
L 385.501091 -291.182551 
L 382.254545 -287.579573 
L 379.008 -276.239819 
L 375.761455 -265.890333 
L 372.514909 -275.443919 
L 369.268364 -276.099743 
L 366.021818 -271.620314 
L 362.775273 -281.054679 
L 359.528727 -272.522941 
L 356.282182 -270.215915 
L 353.035636 -262.970069 
L 349.789091 -269.587139 
L 346.542545 -254.204076 
L 343.296 -254.75323 
L 340.049455 -263.326822 
L 336.802909 -261.433339 
L 333.556364 -253.31118 
L 330.309818 -257.043154 
L 327.063273 -255.789331 
L 323.816727 -231.047291 
L 320.570182 -231.747858 
L 317.323636 -245.38811 
L 314.077091 -241.807379 
L 310.830545 -236.226449 
L 307.584 -242.511766 
L 304.337455 -234.4946 
L 301.090909 -222.624297 
L 297.844364 -224.61739 
L 294.597818 -230.579293 
L 291.351273 -235.606494 
L 288.104727 -229.972798 
L 284.858182 -223.661971 
L 281.611636 -215.947329 
L 278.365091 -220.707693 
L 275.118545 -210.741409 
L 271.872 -217.985614 
L 268.625455 -223.770952 
L 265.378909 -219.732188 
L 262.132364 -194.936434 
L 258.885818 -182.488797 
L 255.639273 -194.129441 
L 252.392727 -190.212855 
L 249.146182 -194.712055 
L 245.899636 -200.147202 
L 242.653091 -209.157645 
L 239.406545 -222.27092 
L 236.16 -199.807097 
L 232.913455 -298.009384 
L 229.666909 -305.827991 
L 226.420364 -297.068923 
L 223.173818 -297.431903 
L 219.927273 -307.172379 
L 216.680727 -297.855516 
L 213.434182 -288.154186 
L 210.187636 -310.257426 
L 206.941091 -301.848189 
L 203.694545 -303.806485 
L 200.448 -301.7033 
L 197.201455 -304.393924 
L 193.954909 -292.740179 
L 190.708364 -301.110286 
L 187.461818 -295.878914 
L 184.215273 -308.10913 
L 180.968727 -307.029425 
L 177.722182 -311.124597 
L 174.475636 -308.616856 
L 171.229091 -313.463226 
L 167.982545 -315.096738 
L 164.736 -313.060927 
L 161.489455 -314.309263 
L 158.242909 -305.658463 
L 154.996364 -304.66861 
L 151.749818 -310.224792 
L 148.503273 -306.379336 
L 145.256727 -306.304545 
L 142.010182 -299.985971 
L 138.763636 -302.392164 
L 135.517091 -305.352115 
L 132.270545 -299.6431 
L 129.024 -302.843425 
L 125.777455 -294.321466 
L 122.530909 -289.92285 
L 119.284364 -293.08087 
L 116.037818 -292.495969 
L 112.791273 -297.868406 
L 109.544727 -297.945138 
L 106.298182 -281.736205 
L 103.051636 -295.892228 
L 99.805091 -291.390153 
L 96.558545 -290.95787 
L 93.312 -288.062117 
L 90.065455 -280.874157 
L 86.818909 -289.167859 
L 83.572364 -287.060624 
L 80.325818 -290.858252 
L 77.079273 -276.274507 
L 73.832727 -282.469665 
z
" style="stroke: #395d9c; stroke-opacity: 0.2"/>
    </defs>
    <g clip-path="url(#pf36e838499)">
     <use xlink:href="#m89b78ef749" x="0" y="345.6" style="fill: #395d9c; fill-opacity: 0.2; stroke: #395d9c; stroke-opacity: 0.2"/>
    </g>
   </g>
   <g id="PolyCollection_3">
    <defs>
     <path id="m67ad7a9c8d" d="M 73.832727 -277.402124 
L 73.832727 -244.822414 
L 77.079273 -249.502067 
L 80.325818 -247.396069 
L 83.572364 -241.992249 
L 86.818909 -249.24755 
L 90.065455 -250.827474 
L 93.312 -248.622688 
L 96.558545 -251.090546 
L 99.805091 -247.755598 
L 103.051636 -250.448186 
L 106.298182 -251.150729 
L 109.544727 -256.294528 
L 112.791273 -252.577052 
L 116.037818 -254.046887 
L 119.284364 -248.003524 
L 122.530909 -251.269948 
L 125.777455 -257.53302 
L 129.024 -252.501088 
L 132.270545 -249.646217 
L 135.517091 -257.490816 
L 138.763636 -250.753776 
L 142.010182 -254.011612 
L 145.256727 -252.710187 
L 148.503273 -253.19288 
L 151.749818 -251.260989 
L 154.996364 -249.629843 
L 158.242909 -251.87447 
L 161.489455 -245.812181 
L 164.736 -250.030939 
L 167.982545 -247.828972 
L 171.229091 -245.025379 
L 174.475636 -244.578592 
L 177.722182 -251.271308 
L 180.968727 -250.7063 
L 184.215273 -244.207668 
L 187.461818 -244.498119 
L 190.708364 -244.203841 
L 193.954909 -248.74129 
L 197.201455 -246.773035 
L 200.448 -246.297093 
L 203.694545 -238.649828 
L 206.941091 -244.179361 
L 210.187636 -251.704187 
L 213.434182 -237.863268 
L 216.680727 -240.471735 
L 219.927273 -243.278513 
L 223.173818 -238.986865 
L 226.420364 -243.701026 
L 229.666909 -247.447124 
L 232.913455 -247.096993 
L 236.16 -100.156705 
L 239.406545 -95.647012 
L 242.653091 -97.28233 
L 245.899636 -99.194545 
L 249.146182 -95.051554 
L 252.392727 -101.956777 
L 255.639273 -112.607315 
L 258.885818 -117.532511 
L 262.132364 -117.754091 
L 265.378909 -109.919538 
L 268.625455 -115.392089 
L 271.872 -110.445771 
L 275.118545 -114.245503 
L 278.365091 -110.265267 
L 281.611636 -113.627265 
L 284.858182 -121.643038 
L 288.104727 -115.924349 
L 291.351273 -112.904173 
L 294.597818 -119.766435 
L 297.844364 -115.803041 
L 301.090909 -120.026595 
L 304.337455 -115.297845 
L 307.584 -110.918285 
L 310.830545 -113.405925 
L 314.077091 -116.667856 
L 317.323636 -116.313235 
L 320.570182 -114.115216 
L 323.816727 -108.817463 
L 327.063273 -118.599208 
L 330.309818 -114.251898 
L 333.556364 -112.940899 
L 336.802909 -119.534358 
L 340.049455 -119.51345 
L 343.296 -120.157507 
L 346.542545 -113.802864 
L 349.789091 -114.624716 
L 353.035636 -108.103044 
L 356.282182 -108.774213 
L 359.528727 -109.869398 
L 362.775273 -109.561565 
L 366.021818 -110.127885 
L 369.268364 -111.021227 
L 372.514909 -115.430275 
L 375.761455 -112.079472 
L 379.008 -114.329237 
L 382.254545 -111.340366 
L 385.501091 -111.812346 
L 388.747636 -114.804578 
L 391.994182 -117.702073 
L 395.240727 -112.353494 
L 398.487273 -119.816622 
L 398.487273 -178.645499 
L 398.487273 -178.645499 
L 395.240727 -175.467256 
L 391.994182 -176.86142 
L 388.747636 -173.535187 
L 385.501091 -169.715146 
L 382.254545 -172.373283 
L 379.008 -178.756364 
L 375.761455 -171.131085 
L 372.514909 -176.876742 
L 369.268364 -173.06963 
L 366.021818 -171.281649 
L 362.775273 -171.364621 
L 359.528727 -171.294025 
L 356.282182 -171.442011 
L 353.035636 -169.751122 
L 349.789091 -176.162237 
L 346.542545 -180.967723 
L 343.296 -181.292724 
L 340.049455 -180.936077 
L 336.802909 -180.211329 
L 333.556364 -174.280788 
L 330.309818 -177.413002 
L 327.063273 -177.345864 
L 323.816727 -171.976783 
L 320.570182 -176.158351 
L 317.323636 -176.693626 
L 314.077091 -179.478283 
L 310.830545 -176.685776 
L 307.584 -173.936934 
L 304.337455 -176.924296 
L 301.090909 -181.575379 
L 297.844364 -173.254568 
L 294.597818 -177.410889 
L 291.351273 -168.408908 
L 288.104727 -171.472835 
L 284.858182 -181.042949 
L 281.611636 -171.491869 
L 278.365091 -163.233007 
L 275.118545 -168.846729 
L 271.872 -164.048808 
L 268.625455 -169.459686 
L 265.378909 -173.128402 
L 262.132364 -179.594964 
L 258.885818 -174.286224 
L 255.639273 -172.662633 
L 252.392727 -157.532194 
L 249.146182 -149.319298 
L 245.899636 -146.904288 
L 242.653091 -144.114911 
L 239.406545 -145.088878 
L 236.16 -144.984493 
L 232.913455 -277.40675 
L 229.666909 -282.217389 
L 226.420364 -277.80617 
L 223.173818 -271.124353 
L 219.927273 -279.908689 
L 216.680727 -272.137594 
L 213.434182 -274.052004 
L 210.187636 -283.752211 
L 206.941091 -276.173317 
L 203.694545 -277.950446 
L 200.448 -283.767939 
L 197.201455 -282.309965 
L 193.954909 -282.564797 
L 190.708364 -280.880307 
L 187.461818 -280.235353 
L 184.215273 -281.46365 
L 180.968727 -284.956905 
L 177.722182 -284.490559 
L 174.475636 -281.16421 
L 171.229091 -278.269568 
L 167.982545 -279.727236 
L 164.736 -281.649291 
L 161.489455 -277.301042 
L 158.242909 -281.594695 
L 154.996364 -279.562818 
L 151.749818 -283.188517 
L 148.503273 -282.60842 
L 145.256727 -283.513505 
L 142.010182 -286.834765 
L 138.763636 -283.129383 
L 135.517091 -287.308713 
L 132.270545 -280.765669 
L 129.024 -282.943859 
L 125.777455 -285.6333 
L 122.530909 -283.86808 
L 119.284364 -282.172028 
L 116.037818 -285.26918 
L 112.791273 -285.398867 
L 109.544727 -289.862873 
L 106.298182 -279.800132 
L 103.051636 -283.323638 
L 99.805091 -281.643902 
L 96.558545 -282.291463 
L 93.312 -282.5032 
L 90.065455 -282.64924 
L 86.818909 -283.206477 
L 83.572364 -279.967367 
L 80.325818 -283.376422 
L 77.079273 -285.284374 
L 73.832727 -277.402124 
z
" style="stroke: #3497a9; stroke-opacity: 0.2"/>
    </defs>
    <g clip-path="url(#pf36e838499)">
     <use xlink:href="#m67ad7a9c8d" x="0" y="345.6" style="fill: #3497a9; fill-opacity: 0.2; stroke: #3497a9; stroke-opacity: 0.2"/>
    </g>
   </g>
   <g id="PolyCollection_4">
    <defs>
     <path id="m8ad4cd63c0" d="M 73.832727 -283.199761 
L 73.832727 -260.439763 
L 77.079273 -262.560636 
L 80.325818 -260.427186 
L 83.572364 -259.676752 
L 86.818909 -259.302828 
L 90.065455 -262.334609 
L 93.312 -261.866386 
L 96.558545 -262.302119 
L 99.805091 -259.407305 
L 103.051636 -263.247197 
L 106.298182 -262.031254 
L 109.544727 -262.499742 
L 112.791273 -262.811885 
L 116.037818 -259.492839 
L 119.284364 -260.747755 
L 122.530909 -257.180109 
L 125.777455 -256.213846 
L 129.024 -260.09744 
L 132.270545 -259.322085 
L 135.517091 -258.677472 
L 138.763636 -255.253756 
L 142.010182 -258.46562 
L 145.256727 -255.314032 
L 148.503273 -261.431402 
L 151.749818 -255.148154 
L 154.996364 -259.873186 
L 158.242909 -261.577969 
L 161.489455 -261.161172 
L 164.736 -262.643024 
L 167.982545 -261.306165 
L 171.229091 -260.655387 
L 174.475636 -260.869466 
L 177.722182 -260.277831 
L 180.968727 -257.521739 
L 184.215273 -253.495659 
L 187.461818 -260.742525 
L 190.708364 -255.031838 
L 193.954909 -258.282783 
L 197.201455 -258.223139 
L 200.448 -252.39295 
L 203.694545 -257.876867 
L 206.941091 -254.228597 
L 210.187636 -257.398672 
L 213.434182 -252.230394 
L 216.680727 -251.148048 
L 219.927273 -255.603618 
L 223.173818 -251.861336 
L 226.420364 -250.514549 
L 229.666909 -254.621583 
L 232.913455 -260.064156 
L 236.16 -159.113962 
L 239.406545 -166.958708 
L 242.653091 -165.880865 
L 245.899636 -168.964721 
L 249.146182 -166.744654 
L 252.392727 -159.871403 
L 255.639273 -157.914089 
L 258.885818 -161.232926 
L 262.132364 -162.058715 
L 265.378909 -166.841203 
L 268.625455 -172.983971 
L 271.872 -177.484484 
L 275.118545 -170.726066 
L 278.365091 -174.341752 
L 281.611636 -173.354839 
L 284.858182 -174.919804 
L 288.104727 -170.593639 
L 291.351273 -164.479277 
L 294.597818 -175.654255 
L 297.844364 -175.772419 
L 301.090909 -169.825613 
L 304.337455 -187.502602 
L 307.584 -184.530933 
L 310.830545 -187.248062 
L 314.077091 -187.77979 
L 317.323636 -190.061708 
L 320.570182 -188.036295 
L 323.816727 -186.095208 
L 327.063273 -188.619771 
L 330.309818 -200.404964 
L 333.556364 -198.084994 
L 336.802909 -201.909657 
L 340.049455 -204.425268 
L 343.296 -206.867226 
L 346.542545 -206.452311 
L 349.789091 -204.200987 
L 353.035636 -203.353741 
L 356.282182 -205.402746 
L 359.528727 -208.870649 
L 362.775273 -210.150766 
L 366.021818 -210.970792 
L 369.268364 -213.637851 
L 372.514909 -219.354251 
L 375.761455 -215.707448 
L 379.008 -215.132947 
L 382.254545 -212.954176 
L 385.501091 -216.038082 
L 388.747636 -212.772934 
L 391.994182 -211.30291 
L 395.240727 -216.133922 
L 398.487273 -214.221965 
L 398.487273 -252.14473 
L 398.487273 -252.14473 
L 395.240727 -254.057295 
L 391.994182 -249.528148 
L 388.747636 -251.042631 
L 385.501091 -255.704918 
L 382.254545 -254.049129 
L 379.008 -252.549345 
L 375.761455 -252.052659 
L 372.514909 -257.03949 
L 369.268364 -252.331459 
L 366.021818 -250.511733 
L 362.775273 -248.788165 
L 359.528727 -246.815408 
L 356.282182 -244.147203 
L 353.035636 -242.129962 
L 349.789091 -245.422748 
L 346.542545 -248.075993 
L 343.296 -244.415874 
L 340.049455 -242.785728 
L 336.802909 -241.965781 
L 333.556364 -239.069516 
L 330.309818 -238.529329 
L 327.063273 -231.403299 
L 323.816727 -227.99064 
L 320.570182 -227.625196 
L 317.323636 -229.341309 
L 314.077091 -228.616739 
L 310.830545 -228.755546 
L 307.584 -224.357357 
L 304.337455 -228.710019 
L 301.090909 -213.269919 
L 297.844364 -218.052222 
L 294.597818 -217.823744 
L 291.351273 -206.277405 
L 288.104727 -207.125203 
L 284.858182 -213.134638 
L 281.611636 -211.107589 
L 278.365091 -213.666513 
L 275.118545 -211.644659 
L 271.872 -212.90315 
L 268.625455 -207.854462 
L 265.378909 -203.329215 
L 262.132364 -197.458437 
L 258.885818 -195.487783 
L 255.639273 -192.983667 
L 252.392727 -197.921801 
L 249.146182 -203.880229 
L 245.899636 -208.082316 
L 242.653091 -201.64824 
L 239.406545 -202.756723 
L 236.16 -188.880726 
L 232.913455 -279.256341 
L 229.666909 -277.41724 
L 226.420364 -274.115561 
L 223.173818 -274.825746 
L 219.927273 -279.459889 
L 216.680727 -274.914759 
L 213.434182 -276.097888 
L 210.187636 -280.555733 
L 206.941091 -277.76592 
L 203.694545 -281.754526 
L 200.448 -273.391552 
L 197.201455 -280.426665 
L 193.954909 -280.542532 
L 190.708364 -277.766678 
L 187.461818 -282.298648 
L 184.215273 -276.872195 
L 180.968727 -278.438101 
L 177.722182 -281.332296 
L 174.475636 -282.466502 
L 171.229091 -281.912003 
L 167.982545 -283.824171 
L 164.736 -284.534496 
L 161.489455 -283.40305 
L 158.242909 -283.72182 
L 154.996364 -280.743342 
L 151.749818 -279.188225 
L 148.503273 -284.254375 
L 145.256727 -279.807097 
L 142.010182 -281.758909 
L 138.763636 -277.123679 
L 135.517091 -280.395974 
L 132.270545 -282.081916 
L 129.024 -282.222122 
L 125.777455 -279.957455 
L 122.530909 -280.155985 
L 119.284364 -284.559854 
L 116.037818 -280.567817 
L 112.791273 -285.249527 
L 109.544727 -285.39873 
L 106.298182 -283.201906 
L 103.051636 -285.863439 
L 99.805091 -282.285615 
L 96.558545 -283.965381 
L 93.312 -285.411925 
L 90.065455 -284.086755 
L 86.818909 -282.575203 
L 83.572364 -282.250248 
L 80.325818 -284.199571 
L 77.079273 -285.324584 
L 73.832727 -283.199761 
z
" style="stroke: #60ceac; stroke-opacity: 0.2"/>
    </defs>
    <g clip-path="url(#pf36e838499)">
     <use xlink:href="#m8ad4cd63c0" x="0" y="345.6" style="fill: #60ceac; fill-opacity: 0.2; stroke: #60ceac; stroke-opacity: 0.2"/>
    </g>
   </g>
   <g id="line2d_19">
    <path d="M 73.832727 99.479288 
L 77.079273 97.126848 
L 80.325818 93.434434 
L 83.572364 101.300843 
L 86.818909 95.248412 
L 90.065455 96.635937 
L 93.312 99.963686 
L 96.558545 98.184145 
L 99.805091 97.371607 
L 103.051636 96.953515 
L 106.298182 96.021569 
L 109.544727 94.342947 
L 112.791273 96.144415 
L 116.037818 97.210646 
L 119.284364 96.845343 
L 122.530909 97.042995 
L 125.777455 96.484752 
L 129.024 97.199872 
L 132.270545 94.373596 
L 135.517091 94.558396 
L 138.763636 94.676927 
L 142.010182 97.760047 
L 145.256727 96.501615 
L 148.503273 95.263797 
L 151.749818 96.668175 
L 154.996364 96.521416 
L 158.242909 96.262317 
L 161.489455 96.14192 
L 164.736 93.102893 
L 167.982545 94.583862 
L 171.229091 99.701122 
L 174.475636 97.033959 
L 177.722182 96.438681 
L 180.968727 99.712413 
L 184.215273 100.274898 
L 187.461818 97.175765 
L 190.708364 98.184366 
L 193.954909 99.250903 
L 197.201455 101.758897 
L 200.448 98.325988 
L 203.694545 101.256334 
L 206.941091 102.294476 
L 210.187636 99.411263 
L 213.434182 101.803665 
L 216.680727 102.357612 
L 219.927273 102.065564 
L 223.173818 103.384167 
L 226.420364 103.161243 
L 229.666909 103.964356 
L 232.913455 101.137239 
L 236.16 163.114613 
L 239.406545 146.552311 
L 242.653091 151.819212 
L 245.899636 145.709946 
L 249.146182 142.021809 
L 252.392727 138.862321 
L 255.639273 135.692188 
L 258.885818 140.911568 
L 262.132364 137.038714 
L 265.378909 132.605603 
L 268.625455 128.938367 
L 271.872 134.112785 
L 275.118545 126.797764 
L 278.365091 125.849841 
L 281.611636 124.7306 
L 284.858182 129.510711 
L 288.104727 123.369012 
L 291.351273 124.750004 
L 294.597818 126.81592 
L 297.844364 125.579765 
L 301.090909 120.829112 
L 304.337455 124.733926 
L 307.584 122.044135 
L 310.830545 119.252352 
L 314.077091 115.819184 
L 317.323636 122.363959 
L 320.570182 121.717122 
L 323.816727 121.885465 
L 327.063273 120.480912 
L 330.309818 117.459201 
L 333.556364 115.801896 
L 336.802909 120.453302 
L 340.049455 118.011734 
L 343.296 121.073972 
L 346.542545 121.164025 
L 349.789091 120.331649 
L 353.035636 119.424059 
L 356.282182 117.43258 
L 359.528727 120.617931 
L 362.775273 119.31024 
L 366.021818 120.65345 
L 369.268364 118.28449 
L 372.514909 124.143952 
L 375.761455 121.3276 
L 379.008 124.185237 
L 382.254545 121.425849 
L 385.501091 122.875883 
L 388.747636 126.427692 
L 391.994182 120.280986 
L 395.240727 120.085172 
L 398.487273 119.876163 
" clip-path="url(#pf36e838499)" style="fill: none; stroke: #382a54; stroke-width: 1.5; stroke-linecap: round"/>
   </g>
   <g id="line2d_20">
    <path d="M 73.832727 78.434735 
L 77.079273 85.709572 
L 80.325818 71.244638 
L 83.572364 73.83133 
L 86.818909 74.211233 
L 90.065455 76.999089 
L 93.312 75.217441 
L 96.558545 73.87352 
L 99.805091 72.110084 
L 103.051636 69.063296 
L 106.298182 81.23889 
L 109.544727 66.815925 
L 112.791273 67.008385 
L 116.037818 76.162139 
L 119.284364 69.073525 
L 122.530909 76.909886 
L 125.777455 75.493588 
L 129.024 61.985798 
L 132.270545 65.464547 
L 135.517091 59.698732 
L 138.763636 64.176232 
L 142.010182 68.65182 
L 145.256727 61.055404 
L 148.503273 62.239325 
L 151.749818 57.64066 
L 154.996364 62.184966 
L 158.242909 58.162988 
L 161.489455 53.35501 
L 164.736 53.910796 
L 167.982545 50.065782 
L 171.229091 54.902479 
L 174.475636 55.154343 
L 177.722182 54.948466 
L 180.968727 60.648003 
L 184.215273 58.798774 
L 187.461818 67.036548 
L 190.708364 63.762428 
L 193.954909 70.963419 
L 197.201455 58.464249 
L 200.448 68.467261 
L 203.694545 62.927973 
L 206.941091 63.747598 
L 210.187636 60.292494 
L 213.434182 85.589932 
L 216.680727 69.805832 
L 219.927273 61.022583 
L 223.173818 63.18843 
L 226.420364 72.396099 
L 229.666909 63.470509 
L 232.913455 65.418255 
L 236.16 159.339879 
L 239.406545 152.641619 
L 242.653091 161.597729 
L 245.899636 166.331584 
L 249.146182 169.313951 
L 252.392727 164.718557 
L 255.639273 167.87082 
L 258.885818 175.874166 
L 262.132364 169.348573 
L 265.378909 150.563339 
L 268.625455 141.894658 
L 271.872 148.819031 
L 275.118545 154.975449 
L 278.365091 146.468485 
L 281.611636 147.041375 
L 284.858182 142.152038 
L 288.104727 132.912962 
L 291.351273 126.173759 
L 294.597818 131.720946 
L 297.844364 139.632761 
L 301.090909 141.131554 
L 304.337455 134.134361 
L 307.584 123.643061 
L 310.830545 132.629469 
L 314.077091 126.973952 
L 317.323636 119.958602 
L 320.570182 131.631217 
L 323.816727 135.457686 
L 327.063273 125.200509 
L 330.309818 116.85471 
L 333.556364 124.812125 
L 336.802909 119.036857 
L 340.049455 115.443568 
L 343.296 121.414734 
L 346.542545 125.130988 
L 349.789091 109.93566 
L 353.035636 116.079964 
L 356.282182 108.825751 
L 359.528727 107.095358 
L 362.775273 97.764834 
L 366.021818 103.099021 
L 369.268364 99.782933 
L 372.514909 96.421384 
L 375.761455 107.567346 
L 379.008 98.192664 
L 382.254545 82.659263 
L 385.501091 81.348828 
L 388.747636 92.638158 
L 391.994182 78.876841 
L 395.240727 81.782563 
L 398.487273 76.284023 
" clip-path="url(#pf36e838499)" style="fill: none; stroke: #395d9c; stroke-width: 1.5; stroke-linecap: round"/>
   </g>
   <g id="line2d_21">
    <path d="M 73.832727 85.019557 
L 77.079273 78.238861 
L 80.325818 80.215749 
L 83.572364 85.763408 
L 86.818909 80.499849 
L 90.065455 79.26526 
L 93.312 80.074488 
L 96.558545 79.087801 
L 99.805091 81.276291 
L 103.051636 78.427408 
L 106.298182 80.238812 
L 109.544727 72.118243 
L 112.791273 76.892863 
L 116.037818 76.32114 
L 119.284364 79.77866 
L 122.530909 77.405214 
L 125.777455 73.648028 
L 129.024 78.147471 
L 132.270545 79.931948 
L 135.517091 72.978535 
L 138.763636 78.447247 
L 142.010182 75.441495 
L 145.256727 77.451716 
L 148.503273 77.69015 
L 151.749818 79.56943 
L 154.996364 81.833446 
L 158.242909 78.183003 
L 161.489455 84.15396 
L 164.736 79.828983 
L 167.982545 82.051052 
L 171.229091 84.667863 
L 174.475636 82.886158 
L 177.722182 77.755186 
L 180.968727 78.953781 
L 184.215273 82.711598 
L 187.461818 83.882167 
L 190.708364 84.664579 
L 193.954909 80.167815 
L 197.201455 81.443532 
L 200.448 81.583207 
L 203.694545 86.808879 
L 206.941091 85.504734 
L 210.187636 78.210246 
L 213.434182 89.850488 
L 216.680727 89.926748 
L 219.927273 84.995539 
L 223.173818 90.664731 
L 226.420364 84.181083 
L 229.666909 81.194538 
L 232.913455 82.841004 
L 236.16 223.111061 
L 239.406545 225.62785 
L 242.653091 225.515281 
L 245.899636 223.896518 
L 249.146182 223.762678 
L 252.392727 217.213687 
L 255.639273 203.562107 
L 258.885818 200.859509 
L 262.132364 196.830915 
L 265.378909 204.957088 
L 268.625455 204.791971 
L 271.872 209.13375 
L 275.118545 205.266128 
L 278.365091 209.293921 
L 281.611636 203.390269 
L 284.858182 194.585032 
L 288.104727 202.207972 
L 291.351273 205.742102 
L 294.597818 198.219133 
L 297.844364 202.079189 
L 301.090909 194.623081 
L 304.337455 198.92386 
L 307.584 205.185868 
L 310.830545 200.245942 
L 314.077091 198.637611 
L 317.323636 198.222399 
L 320.570182 200.769125 
L 323.816727 204.342617 
L 327.063273 199.062349 
L 330.309818 200.479191 
L 333.556364 202.223658 
L 336.802909 196.633079 
L 340.049455 195.360672 
L 343.296 196.011247 
L 346.542545 200.258011 
L 349.789091 201.519476 
L 353.035636 207.602395 
L 356.282182 206.429771 
L 359.528727 205.197502 
L 362.775273 205.214961 
L 366.021818 204.09869 
L 369.268364 206.008018 
L 372.514909 200.530068 
L 375.761455 202.957129 
L 379.008 201.86752 
L 382.254545 204.538968 
L 385.501091 206.081207 
L 388.747636 203.166803 
L 391.994182 200.189376 
L 395.240727 203.607721 
L 398.487273 197.273659 
" clip-path="url(#pf36e838499)" style="fill: none; stroke: #3497a9; stroke-width: 1.5; stroke-linecap: round"/>
   </g>
   <g id="line2d_22">
    <path d="M 73.832727 74.216137 
L 77.079273 71.724159 
L 80.325818 73.290041 
L 83.572364 74.778916 
L 86.818909 75.295683 
L 90.065455 72.830343 
L 93.312 71.396187 
L 96.558545 72.643571 
L 99.805091 74.835229 
L 103.051636 71.91304 
L 106.298182 73.064666 
L 109.544727 71.834081 
L 112.791273 71.283621 
L 116.037818 76.265221 
L 119.284364 73.127519 
L 122.530909 77.745786 
L 125.777455 76.858152 
L 129.024 74.181618 
L 132.270545 75.40466 
L 135.517091 76.226211 
L 138.763636 79.05804 
L 142.010182 75.451283 
L 145.256727 78.498035 
L 148.503273 73.528801 
L 151.749818 78.544481 
L 154.996364 75.811892 
L 158.242909 72.535286 
L 161.489455 73.302499 
L 164.736 71.864807 
L 167.982545 73.174829 
L 171.229091 74.388499 
L 174.475636 74.395425 
L 177.722182 74.903511 
L 180.968727 77.38514 
L 184.215273 80.008119 
L 187.461818 74.561466 
L 190.708364 79.153851 
L 193.954909 76.42947 
L 197.201455 76.286376 
L 200.448 82.801871 
L 203.694545 76.339829 
L 206.941091 79.62789 
L 210.187636 76.998773 
L 213.434182 81.190375 
L 216.680727 83.220198 
L 219.927273 78.186137 
L 223.173818 82.197072 
L 226.420364 83.582094 
L 229.666909 79.364487 
L 232.913455 75.739918 
L 236.16 172.15977 
L 239.406545 161.301874 
L 242.653091 162.080933 
L 245.899636 158.230867 
L 249.146182 160.321981 
L 252.392727 166.819519 
L 255.639273 169.598345 
L 258.885818 168.108166 
L 262.132364 164.92765 
L 265.378909 160.216303 
L 268.625455 155.978883 
L 271.872 151.004128 
L 275.118545 153.742067 
L 278.365091 151.228113 
L 281.611636 152.83205 
L 284.858182 151.474277 
L 288.104727 156.663982 
L 291.351273 159.004877 
L 294.597818 149.13504 
L 297.844364 149.348064 
L 301.090909 153.804474 
L 304.337455 137.469136 
L 307.584 141.234701 
L 310.830545 137.115802 
L 314.077091 136.541322 
L 317.323636 135.469325 
L 320.570182 137.151153 
L 323.816727 138.187563 
L 327.063273 135.346962 
L 330.309818 125.455246 
L 333.556364 126.296836 
L 336.802909 123.689824 
L 340.049455 121.743773 
L 343.296 120.3652 
L 346.542545 118.983499 
L 349.789091 119.711396 
L 353.035636 122.950902 
L 356.282182 120.498964 
L 359.528727 116.950049 
L 362.775273 116.432623 
L 366.021818 114.412607 
L 369.268364 112.664482 
L 372.514909 108.249281 
L 375.761455 110.983641 
L 379.008 111.873764 
L 382.254545 111.43623 
L 385.501091 109.816252 
L 388.747636 113.329263 
L 391.994182 114.589437 
L 395.240727 110.816844 
L 398.487273 112.153965 
" clip-path="url(#pf36e838499)" style="fill: none; stroke: #60ceac; stroke-width: 1.5; stroke-linecap: round"/>
   </g>
   <g id="line2d_23"/>
   <g id="line2d_24"/>
   <g id="line2d_25"/>
   <g id="line2d_26"/>
   <g id="patch_3">
    <path d="M 57.6 307.584 
L 57.6 41.472 
" style="fill: none; stroke: #262626; stroke-width: 1.25; stroke-linejoin: miter; stroke-linecap: square"/>
   </g>
   <g id="patch_4">
    <path d="M 414.72 307.584 
L 414.72 41.472 
" style="fill: none; stroke: #262626; stroke-width: 1.25; stroke-linejoin: miter; stroke-linecap: square"/>
   </g>
   <g id="patch_5">
    <path d="M 57.6 307.584 
L 414.72 307.584 
" style="fill: none; stroke: #262626; stroke-width: 1.25; stroke-linejoin: miter; stroke-linecap: square"/>
   </g>
   <g id="patch_6">
    <path d="M 57.6 41.472 
L 414.72 41.472 
" style="fill: none; stroke: #262626; stroke-width: 1.25; stroke-linejoin: miter; stroke-linecap: square"/>
   </g>
   <g id="legend_1">
    <g id="patch_7">
     <path d="M 65.3 302.084 
L 165.925938 302.084 
Q 168.125937 302.084 168.125937 299.884 
L 168.125937 238.512594 
Q 168.125937 236.312594 165.925938 236.312594 
L 65.3 236.312594 
Q 63.1 236.312594 63.1 238.512594 
L 63.1 299.884 
Q 63.1 302.084 65.3 302.084 
z
" style="fill: #ffffff; opacity: 0.8; stroke: #cccccc; stroke-linejoin: miter"/>
    </g>
    <g id="line2d_27">
     <path d="M 67.5 244.768844 
L 78.5 244.768844 
L 89.5 244.768844 
" style="fill: none; stroke: #382a54; stroke-width: 1.5; stroke-linecap: round"/>
    </g>
    <g id="text_21">
     <text style="fill: #262626; font: 11px 'sans-serif'; text-anchor: start" x="98.3" y="248.618844" transform="rotate(-0, 98.3, 248.618844)">01_Native</text>
    </g>
    <g id="line2d_28">
     <path d="M 67.5 260.46275 
L 78.5 260.46275 
L 89.5 260.46275 
" style="fill: none; stroke: #395d9c; stroke-width: 1.5; stroke-linecap: round"/>
    </g>
    <g id="text_22">
     <text style="fill: #262626; font: 11px 'sans-serif'; text-anchor: start" x="98.3" y="264.31275" transform="rotate(-0, 98.3, 264.31275)">02_Misfolded</text>
    </g>
    <g id="line2d_29">
     <path d="M 67.5 276.05525 
L 78.5 276.05525 
L 89.5 276.05525 
" style="fill: none; stroke: #3497a9; stroke-width: 1.5; stroke-linecap: round"/>
    </g>
    <g id="text_23">
     <text style="fill: #262626; font: 11px 'sans-serif'; text-anchor: start" x="98.3" y="279.90525" transform="rotate(-0, 98.3, 279.90525)">03_A8A2</text>
    </g>
    <g id="line2d_30">
     <path d="M 67.5 291.64775 
L 78.5 291.64775 
L 89.5 291.64775 
" style="fill: none; stroke: #60ceac; stroke-width: 1.5; stroke-linecap: round"/>
    </g>
    <g id="text_24">
     <text style="fill: #262626; font: 11px 'sans-serif'; text-anchor: start" x="98.3" y="295.49775" transform="rotate(-0, 98.3, 295.49775)">04_A8B1</text>
    </g>
   </g>
  </g>
 </g>
 <defs>
  <clipPath id="pf36e838499">
   <rect x="57.6" y="41.472" width="357.12" height="266.112"/>
  </clipPath>
 </defs>
</svg>
