<?xml version="1.0" encoding="utf-8" standalone="no"?>
<!DOCTYPE svg PUBLIC "-//W3C//DTD SVG 1.1//EN"
  "http://www.w3.org/Graphics/SVG/1.1/DTD/svg11.dtd">
<svg xmlns:xlink="http://www.w3.org/1999/xlink" width="460.8pt" height="345.6pt" viewBox="0 0 460.8 345.6" xmlns="http://www.w3.org/2000/svg" version="1.1">
 <metadata>
  <rdf:RDF xmlns:dc="http://purl.org/dc/elements/1.1/" xmlns:cc="http://creativecommons.org/ns#" xmlns:rdf="http://www.w3.org/1999/02/22-rdf-syntax-ns#">
   <cc:Work>
    <dc:type rdf:resource="http://purl.org/dc/dcmitype/StillImage"/>
    <dc:date>2026-05-26T09:35:19.522905</dc:date>
    <dc:format>image/svg+xml</dc:format>
    <dc:creator>
     <cc:Agent>
      <dc:title>Matplotlib v3.5.1, https://matplotlib.org/</dc:title>
     </cc:Agent>
    </dc:creator>
   </cc:Work>
  </rdf:RDF>
 </metadata>
 <defs>
  <style type="text/css">*{stroke-linejoin: round; stroke-linecap: butt}</style>
 </defs>
 <g id="figure_1">
  <g id="patch_1">
   <path d="M 0 345.6 
L 460.8 345.6 
L 460.8 0 
L 0 0 
z
" style="fill: #ffffff"/>
  </g>
  <g id="axes_1">
   <g id="patch_2">
    <path d="M 57.6 307.584 
L 414.72 307.584 
L 414.72 41.472 
L 57.6 41.472 
z
" style="fill: #ffffff"/>
   </g>
   <g id="matplotlib.axis_1">
    <g id="xtick_1">
     <g id="line2d_1">
      <defs>
       <path id="m5e94287c10" d="M 0 0 
L 0 3.5 
" style="stroke: #262626; stroke-width: 0.8"/>
      </defs>
      <g>
       <use xlink:href="#m5e94287c10" x="73.832727" y="307.584" style="fill: #262626; stroke: #262626; stroke-width: 0.8"/>
      </g>
     </g>
     <g id="text_1">
      <text style="fill: #262626; font: 12px 'sans-serif'; text-anchor: middle" x="73.832727" y="323.173375" transform="rotate(-0, 73.832727, 323.173375)">−10.0</text>
     </g>
    </g>
    <g id="xtick_2">
     <g id="line2d_2">
      <g>
       <use xlink:href="#m5e94287c10" x="114.414545" y="307.584" style="fill: #262626; stroke: #262626; stroke-width: 0.8"/>
      </g>
     </g>
     <g id="text_2">
      <text style="fill: #262626; font: 12px 'sans-serif'; text-anchor: middle" x="114.414545" y="323.173375" transform="rotate(-0, 114.414545, 323.173375)">−7.5</text>
     </g>
    </g>
    <g id="xtick_3">
     <g id="line2d_3">
      <g>
       <use xlink:href="#m5e94287c10" x="154.996364" y="307.584" style="fill: #262626; stroke: #262626; stroke-width: 0.8"/>
      </g>
     </g>
     <g id="text_3">
      <text style="fill: #262626; font: 12px 'sans-serif'; text-anchor: middle" x="154.996364" y="323.173375" transform="rotate(-0, 154.996364, 323.173375)">−5.0</text>
     </g>
    </g>
    <g id="xtick_4">
     <g id="line2d_4">
      <g>
       <use xlink:href="#m5e94287c10" x="195.578182" y="307.584" style="fill: #262626; stroke: #262626; stroke-width: 0.8"/>
      </g>
     </g>
     <g id="text_4">
      <text style="fill: #262626; font: 12px 'sans-serif'; text-anchor: middle" x="195.578182" y="323.173375" transform="rotate(-0, 195.578182, 323.173375)">−2.5</text>
     </g>
    </g>
    <g id="xtick_5">
     <g id="line2d_5">
      <g>
       <use xlink:href="#m5e94287c10" x="236.16" y="307.584" style="fill: #262626; stroke: #262626; stroke-width: 0.8"/>
      </g>
     </g>
     <g id="text_5">
      <text style="fill: #262626; font: 12px 'sans-serif'; text-anchor: middle" x="236.16" y="323.173375" transform="rotate(-0, 236.16, 323.173375)">0.0</text>
     </g>
    </g>
    <g id="xtick_6">
     <g id="line2d_6">
      <g>
       <use xlink:href="#m5e94287c10" x="276.741818" y="307.584" style="fill: #262626; stroke: #262626; stroke-width: 0.8"/>
      </g>
     </g>
     <g id="text_6">
      <text style="fill: #262626; font: 12px 'sans-serif'; text-anchor: middle" x="276.741818" y="323.173375" transform="rotate(-0, 276.741818, 323.173375)">2.5</text>
     </g>
    </g>
    <g id="xtick_7">
     <g id="line2d_7">
      <g>
       <use xlink:href="#m5e94287c10" x="317.323636" y="307.584" style="fill: #262626; stroke: #262626; stroke-width: 0.8"/>
      </g>
     </g>
     <g id="text_7">
      <text style="fill: #262626; font: 12px 'sans-serif'; text-anchor: middle" x="317.323636" y="323.173375" transform="rotate(-0, 317.323636, 323.173375)">5.0</text>
     </g>
    </g>
    <g id="xtick_8">
     <g id="line2d_8">
      <g>
       <use xlink:href="#m5e94287c10" x="357.905455" y="307.584" style="fill: #262626; stroke: #262626; stroke-width: 0.8"/>
      </g>
     </g>
     <g id="text_8">
      <text style="fill: #262626; font: 12px 'sans-serif'; text-anchor: middle" x="357.905455" y="323.173375" transform="rotate(-0, 357.905455, 323.173375)">7.5</text>
     </g>
    </g>
    <g id="xtick_9">
     <g id="line2d_9">
      <g>
       <use xlink:href="#m5e94287c10" x="398.487273" y="307.584" style="fill: #262626; stroke: #262626; stroke-width: 0.8"/>
      </g>
     </g>
     <g id="text_9">
      <text style="fill: #262626; font: 12px 'sans-serif'; text-anchor: middle" x="398.487273" y="323.173375" transform="rotate(-0, 398.487273, 323.173375)">10.0</text>
     </g>
    </g>
    <g id="text_10">
     <text style="fill: #262626; font: 12px 'sans-serif'; text-anchor: middle" x="236.16" y="338.294" transform="rotate(-0, 236.16, 338.294)">Time (s)</text>
    </g>
   </g>
   <g id="matplotlib.axis_2">
    <g id="ytick_1">
     <g id="line2d_10">
      <defs>
       <path id="m83ee9a956c" d="M 0 0 
L -3.5 0 
" style="stroke: #262626; stroke-width: 0.8"/>
      </defs>
      <g>
       <use xlink:href="#m83ee9a956c" x="57.6" y="307.584" style="fill: #262626; stroke: #262626; stroke-width: 0.8"/>
      </g>
     </g>
     <g id="text_11">
      <text style="fill: #262626; font: 12px 'sans-serif'; text-anchor: end" x="50.6" y="311.878687" transform="rotate(-0, 50.6, 311.878687)">0.0</text>
     </g>
    </g>
    <g id="ytick_2">
     <g id="line2d_11">
      <g>
       <use xlink:href="#m83ee9a956c" x="57.6" y="274.32" style="fill: #262626; stroke: #262626; stroke-width: 0.8"/>
      </g>
     </g>
     <g id="text_12">
      <text style="fill: #262626; font: 12px 'sans-serif'; text-anchor: end" x="50.6" y="278.614687" transform="rotate(-0, 50.6, 278.614687)">0.1</text>
     </g>
    </g>
    <g id="ytick_3">
     <g id="line2d_12">
      <g>
       <use xlink:href="#m83ee9a956c" x="57.6" y="241.056" style="fill: #262626; stroke: #262626; stroke-width: 0.8"/>
      </g>
     </g>
     <g id="text_13">
      <text style="fill: #262626; font: 12px 'sans-serif'; text-anchor: end" x="50.6" y="245.350687" transform="rotate(-0, 50.6, 245.350687)">0.2</text>
     </g>
    </g>
    <g id="ytick_4">
     <g id="line2d_13">
      <g>
       <use xlink:href="#m83ee9a956c" x="57.6" y="207.792" style="fill: #262626; stroke: #262626; stroke-width: 0.8"/>
      </g>
     </g>
     <g id="text_14">
      <text style="fill: #262626; font: 12px 'sans-serif'; text-anchor: end" x="50.6" y="212.086687" transform="rotate(-0, 50.6, 212.086687)">0.3</text>
     </g>
    </g>
    <g id="ytick_5">
     <g id="line2d_14">
      <g>
       <use xlink:href="#m83ee9a956c" x="57.6" y="174.528" style="fill: #262626; stroke: #262626; stroke-width: 0.8"/>
      </g>
     </g>
     <g id="text_15">
      <text style="fill: #262626; font: 12px 'sans-serif'; text-anchor: end" x="50.6" y="178.822687" transform="rotate(-0, 50.6, 178.822687)">0.4</text>
     </g>
    </g>
    <g id="ytick_6">
     <g id="line2d_15">
      <g>
       <use xlink:href="#m83ee9a956c" x="57.6" y="141.264" style="fill: #262626; stroke: #262626; stroke-width: 0.8"/>
      </g>
     </g>
     <g id="text_16">
      <text style="fill: #262626; font: 12px 'sans-serif'; text-anchor: end" x="50.6" y="145.558687" transform="rotate(-0, 50.6, 145.558687)">0.5</text>
     </g>
    </g>
    <g id="ytick_7">
     <g id="line2d_16">
      <g>
       <use xlink:href="#m83ee9a956c" x="57.6" y="108" style="fill: #262626; stroke: #262626; stroke-width: 0.8"/>
      </g>
     </g>
     <g id="text_17">
      <text style="fill: #262626; font: 12px 'sans-serif'; text-anchor: end" x="50.6" y="112.294687" transform="rotate(-0, 50.6, 112.294687)">0.6</text>
     </g>
    </g>
    <g id="ytick_8">
     <g id="line2d_17">
      <g>
       <use xlink:href="#m83ee9a956c" x="57.6" y="74.736" style="fill: #262626; stroke: #262626; stroke-width: 0.8"/>
      </g>
     </g>
     <g id="text_18">
      <text style="fill: #262626; font: 12px 'sans-serif'; text-anchor: end" x="50.6" y="79.030687" transform="rotate(-0, 50.6, 79.030687)">0.7</text>
     </g>
    </g>
    <g id="ytick_9">
     <g id="line2d_18">
      <g>
       <use xlink:href="#m83ee9a956c" x="57.6" y="41.472" style="fill: #262626; stroke: #262626; stroke-width: 0.8"/>
      </g>
     </g>
     <g id="text_19">
      <text style="fill: #262626; font: 12px 'sans-serif'; text-anchor: end" x="50.6" y="45.766687" transform="rotate(-0, 50.6, 45.766687)">0.8</text>
     </g>
    </g>
    <g id="text_20">
     <text style="fill: #262626; font: 12px 'sans-serif'; text-anchor: middle" x="27.535" y="174.528" transform="rotate(-90, 27.535, 174.528)">FRET</text>
    </g>
   </g>
   <g id="PolyCollection_1">
    <defs>
     <path id="mb308561f95" d="M 73.832727 -196.143322 
L 73.832727 -173.741146 
L 77.079273 -171.434687 
L 80.325818 -177.174032 
L 83.572364 -172.810577 
L 86.818909 -169.215219 
L 90.065455 -168.674619 
L 93.312 -177.533472 
L 96.558545 -174.14283 
L 99.805091 -178.484583 
L 103.051636 -183.932761 
L 106.298182 -185.928859 
L 109.544727 -182.467247 
L 112.791273 -181.542995 
L 116.037818 -180.321897 
L 119.284364 -187.657377 
L 122.530909 -180.187803 
L 125.777455 -182.980876 
L 129.024 -190.223726 
L 132.270545 -191.085692 
L 135.517091 -187.986921 
L 138.763636 -181.290587 
L 142.010182 -188.934228 
L 145.256727 -187.122381 
L 148.503273 -183.790109 
L 151.749818 -181.25629 
L 154.996364 -175.315481 
L 158.242909 -182.809996 
L 161.489455 -175.481764 
L 164.736 -180.613233 
L 167.982545 -187.499435 
L 171.229091 -189.34337 
L 174.475636 -183.745668 
L 177.722182 -187.970136 
L 180.968727 -194.293689 
L 184.215273 -186.622566 
L 187.461818 -180.711197 
L 190.708364 -185.632827 
L 193.954909 -191.930381 
L 197.201455 -188.328187 
L 200.448 -191.516278 
L 203.694545 -192.871994 
L 206.941091 -194.604701 
L 210.187636 -196.481851 
L 213.434182 -189.224292 
L 216.680727 -191.620357 
L 219.927273 -192.165207 
L 223.173818 -193.416519 
L 226.420364 -193.432193 
L 229.666909 -190.166212 
L 232.913455 -188.479078 
L 236.16 -232.94095 
L 239.406545 -232.332597 
L 242.653091 -227.060954 
L 245.899636 -231.112758 
L 249.146182 -227.719117 
L 252.392727 -227.289772 
L 255.639273 -229.997578 
L 258.885818 -227.951055 
L 262.132364 -227.504742 
L 265.378909 -230.893507 
L 268.625455 -220.264058 
L 271.872 -222.595461 
L 275.118545 -224.406341 
L 278.365091 -226.982 
L 281.611636 -225.586348 
L 284.858182 -225.929058 
L 288.104727 -226.377104 
L 291.351273 -224.861544 
L 294.597818 -221.625096 
L 297.844364 -220.186947 
L 301.090909 -221.878766 
L 304.337455 -223.183542 
L 307.584 -221.401143 
L 310.830545 -223.767736 
L 314.077091 -215.51573 
L 317.323636 -214.573353 
L 320.570182 -216.788806 
L 323.816727 -218.825128 
L 327.063273 -216.183989 
L 330.309818 -219.243257 
L 333.556364 -212.695071 
L 336.802909 -218.96064 
L 340.049455 -213.538419 
L 343.296 -221.285631 
L 346.542545 -223.216989 
L 349.789091 -221.713757 
L 353.035636 -218.502913 
L 356.282182 -217.257838 
L 359.528727 -207.086511 
L 362.775273 -220.513994 
L 366.021818 -212.050582 
L 369.268364 -214.78493 
L 372.514909 -209.071123 
L 375.761455 -212.56371 
L 379.008 -211.877626 
L 382.254545 -211.721592 
L 385.501091 -212.767608 
L 388.747636 -205.773517 
L 391.994182 -210.367799 
L 395.240727 -209.949454 
L 398.487273 -210.583915 
L 398.487273 -251.26435 
L 398.487273 -251.26435 
L 395.240727 -253.424266 
L 391.994182 -252.658073 
L 388.747636 -247.026289 
L 385.501091 -254.394439 
L 382.254545 -245.638252 
L 379.008 -251.62714 
L 375.761455 -249.500253 
L 372.514909 -246.853661 
L 369.268364 -256.903224 
L 366.021818 -245.980114 
L 362.775273 -253.311057 
L 359.528727 -239.802783 
L 356.282182 -250.555819 
L 353.035636 -247.994627 
L 349.789091 -254.766089 
L 346.542545 -248.736288 
L 343.296 -249.554235 
L 340.049455 -244.909558 
L 336.802909 -249.614958 
L 333.556364 -241.475393 
L 330.309818 -244.413287 
L 327.063273 -241.292559 
L 323.816727 -240.331785 
L 320.570182 -241.208934 
L 317.323636 -241.784362 
L 314.077091 -242.727506 
L 310.830545 -250.847812 
L 307.584 -250.006814 
L 304.337455 -246.265702 
L 301.090909 -247.147677 
L 297.844364 -246.103292 
L 294.597818 -242.932458 
L 291.351273 -246.186176 
L 288.104727 -250.837952 
L 284.858182 -245.12664 
L 281.611636 -248.725999 
L 278.365091 -248.81365 
L 275.118545 -246.296189 
L 271.872 -239.440797 
L 268.625455 -243.123618 
L 265.378909 -254.414271 
L 262.132364 -252.917809 
L 258.885818 -258.070982 
L 255.639273 -254.889743 
L 252.392727 -250.525947 
L 249.146182 -257.65316 
L 245.899636 -259.25892 
L 242.653091 -251.318469 
L 239.406545 -253.390313 
L 236.16 -251.176007 
L 232.913455 -201.638506 
L 229.666909 -202.716227 
L 226.420364 -210.707337 
L 223.173818 -214.170282 
L 219.927273 -209.321061 
L 216.680727 -208.191564 
L 213.434182 -206.274356 
L 210.187636 -210.535282 
L 206.941091 -209.425946 
L 203.694545 -211.467721 
L 200.448 -207.496949 
L 197.201455 -202.021237 
L 193.954909 -211.095043 
L 190.708364 -202.223569 
L 187.461818 -196.990791 
L 184.215273 -201.647361 
L 180.968727 -209.775877 
L 177.722182 -204.161052 
L 174.475636 -202.165523 
L 171.229091 -205.622244 
L 167.982545 -201.441029 
L 164.736 -203.570732 
L 161.489455 -200.098024 
L 158.242909 -201.127294 
L 154.996364 -196.69925 
L 151.749818 -204.840083 
L 148.503273 -202.075751 
L 145.256727 -207.567679 
L 142.010182 -204.281719 
L 138.763636 -200.475228 
L 135.517091 -205.992576 
L 132.270545 -204.635971 
L 129.024 -202.128829 
L 125.777455 -200.339074 
L 122.530909 -194.232843 
L 119.284364 -202.911078 
L 116.037818 -201.111825 
L 112.791273 -195.418545 
L 109.544727 -195.359387 
L 106.298182 -198.288558 
L 103.051636 -199.894207 
L 99.805091 -195.254809 
L 96.558545 -191.498372 
L 93.312 -194.655401 
L 90.065455 -187.467601 
L 86.818909 -192.710404 
L 83.572364 -190.244169 
L 80.325818 -195.935616 
L 77.079273 -194.56054 
L 73.832727 -196.143322 
z
" style="stroke: #382a54; stroke-opacity: 0.2"/>
    </defs>
    <g clip-path="url(#p849495ba18)">
     <use xlink:href="#mb308561f95" x="0" y="345.6" style="fill: #382a54; fill-opacity: 0.2; stroke: #382a54; stroke-opacity: 0.2"/>
    </g>
   </g>
   <g id="PolyCollection_2">
    <defs>
     <path id="m0fc34332ba" d="M 73.832727 -214.613245 
L 73.832727 -155.325321 
L 77.079273 -161.972965 
L 80.325818 -167.359571 
L 83.572364 -171.865014 
L 86.818909 -164.377786 
L 90.065455 -157.905277 
L 93.312 -159.127729 
L 96.558545 -155.059708 
L 99.805091 -159.666606 
L 103.051636 -155.470186 
L 106.298182 -150.09306 
L 109.544727 -148.650817 
L 112.791273 -155.05738 
L 116.037818 -152.568567 
L 119.284364 -154.049481 
L 122.530909 -155.096631 
L 125.777455 -155.852377 
L 129.024 -164.727807 
L 132.270545 -159.843903 
L 135.517091 -161.617456 
L 138.763636 -161.24149 
L 142.010182 -159.302365 
L 145.256727 -159.445733 
L 148.503273 -160.852967 
L 151.749818 -165.083648 
L 154.996364 -153.756425 
L 158.242909 -164.315666 
L 161.489455 -156.325819 
L 164.736 -163.007143 
L 167.982545 -176.048461 
L 171.229091 -167.029925 
L 174.475636 -168.865516 
L 177.722182 -183.593069 
L 180.968727 -165.359241 
L 184.215273 -160.846896 
L 187.461818 -166.99217 
L 190.708364 -163.371966 
L 193.954909 -162.671842 
L 197.201455 -167.227347 
L 200.448 -198.552222 
L 203.694545 -162.033423 
L 206.941091 -155.137213 
L 210.187636 -144.175977 
L 213.434182 -171.366969 
L 216.680727 -179.220017 
L 219.927273 -159.760826 
L 223.173818 -159.204403 
L 226.420364 -137.517605 
L 229.666909 -162.967476 
L 232.913455 -164.714252 
L 236.16 -229.519842 
L 239.406545 -237.515925 
L 242.653091 -220.184134 
L 245.899636 -205.762693 
L 249.146182 -225.907455 
L 252.392727 -232.623539 
L 255.639273 -218.783636 
L 258.885818 -233.753517 
L 262.132364 -217.127089 
L 265.378909 -226.984293 
L 268.625455 -213.983392 
L 271.872 -209.645018 
L 275.118545 -196.962535 
L 278.365091 -200.063738 
L 281.611636 -202.527603 
L 284.858182 -211.082937 
L 288.104727 -213.853413 
L 291.351273 -210.671046 
L 294.597818 -201.178997 
L 297.844364 -193.360044 
L 301.090909 -220.680183 
L 304.337455 -192.218424 
L 307.584 -219.115694 
L 310.830545 -205.777163 
L 314.077091 -196.750228 
L 317.323636 -233.757675 
L 320.570182 -203.776001 
L 323.816727 -217.846673 
L 327.063273 -207.59662 
L 330.309818 -231.053977 
L 333.556364 -232.346949 
L 336.802909 -223.102551 
L 340.049455 -191.082791 
L 343.296 -206.557037 
L 346.542545 -209.480527 
L 349.789091 -206.488347 
L 353.035636 -204.636873 
L 356.282182 -217.570332 
L 359.528727 -205.88552 
L 362.775273 -203.349722 
L 366.021818 -209.83088 
L 369.268364 -211.318613 
L 372.514909 -217.885924 
L 375.761455 -209.935662 
L 379.008 -213.383143 
L 382.254545 -210.06273 
L 385.501091 -219.039686 
L 388.747636 -212.238528 
L 391.994182 -216.097485 
L 395.240727 -214.606593 
L 398.487273 -233.006574 
L 398.487273 -287.073547 
L 398.487273 -287.073547 
L 395.240727 -269.461423 
L 391.994182 -284.025068 
L 388.747636 -295.551377 
L 385.501091 -294.211336 
L 382.254545 -281.76295 
L 379.008 -279.847276 
L 375.761455 -301.373839 
L 372.514909 -298.850334 
L 369.268364 -308.510199 
L 366.021818 -300.014407 
L 362.775273 -259.502847 
L 359.528727 -269.771777 
L 356.282182 -271.024 
L 353.035636 -260.154988 
L 349.789091 -281.669145 
L 346.542545 -252.170131 
L 343.296 -273.596305 
L 340.049455 -268.541092 
L 336.802909 -270.832898 
L 333.556364 -265.650201 
L 330.309818 -269.386746 
L 327.063273 -272.525537 
L 323.816727 -269.151736 
L 320.570182 -274.831397 
L 317.323636 -267.771446 
L 314.077091 -239.944613 
L 310.830545 -250.384353 
L 307.584 -263.520307 
L 304.337455 -263.89619 
L 301.090909 -273.487864 
L 297.844364 -254.854037 
L 294.597818 -243.171778 
L 291.351273 -248.084231 
L 288.104727 -265.644463 
L 284.858182 -257.116488 
L 281.611636 -254.392249 
L 278.365091 -238.370561 
L 275.118545 -248.997327 
L 271.872 -266.264587 
L 268.625455 -274.529953 
L 265.378909 -263.32987 
L 262.132364 -253.871418 
L 258.885818 -277.472143 
L 255.639273 -249.430508 
L 252.392727 -260.804985 
L 249.146182 -255.675658 
L 245.899636 -249.461527 
L 242.653091 -280.107317 
L 239.406545 -262.008208 
L 236.16 -264.11357 
L 232.913455 -202.974837 
L 229.666909 -195.146321 
L 226.420364 -181.359474 
L 223.173818 -190.087781 
L 219.927273 -188.331359 
L 216.680727 -190.940504 
L 213.434182 -197.440206 
L 210.187636 -190.880546 
L 206.941091 -210.389466 
L 203.694545 -197.031641 
L 200.448 -209.383147 
L 197.201455 -207.312629 
L 193.954909 -198.511806 
L 190.708364 -204.471301 
L 187.461818 -198.28428 
L 184.215273 -203.94731 
L 180.968727 -219.084592 
L 177.722182 -212.03146 
L 174.475636 -202.001283 
L 171.229091 -200.399871 
L 167.982545 -219.760683 
L 164.736 -193.852435 
L 161.489455 -218.44742 
L 158.242909 -234.543787 
L 154.996364 -226.147787 
L 151.749818 -231.200838 
L 148.503273 -210.87853 
L 145.256727 -225.992943 
L 142.010182 -224.53889 
L 138.763636 -216.39736 
L 135.517091 -234.039671 
L 132.270545 -209.135912 
L 129.024 -237.021123 
L 125.777455 -208.155871 
L 122.530909 -213.894244 
L 119.284364 -200.107647 
L 116.037818 -208.581817 
L 112.791273 -209.411338 
L 109.544727 -203.683304 
L 106.298182 -201.352718 
L 103.051636 -209.412086 
L 99.805091 -214.014161 
L 96.558545 -195.001456 
L 93.312 -201.412593 
L 90.065455 -208.803688 
L 86.818909 -211.750213 
L 83.572364 -217.509708 
L 80.325818 -218.398689 
L 77.079273 -214.165179 
L 73.832727 -214.613245 
z
" style="stroke: #395d9c; stroke-opacity: 0.2"/>
    </defs>
    <g clip-path="url(#p849495ba18)">
     <use xlink:href="#m0fc34332ba" x="0" y="345.6" style="fill: #395d9c; fill-opacity: 0.2; stroke: #395d9c; stroke-opacity: 0.2"/>
    </g>
   </g>
   <g id="PolyCollection_3">
    <defs>
     <path id="mb8415253ea" d="M 73.832727 -84.742084 
L 73.832727 -69.987298 
L 77.079273 -69.34113 
L 80.325818 -67.634031 
L 83.572364 -70.610809 
L 86.818909 -70.007259 
L 90.065455 -71.496728 
L 93.312 -71.908704 
L 96.558545 -70.693299 
L 99.805091 -71.824264 
L 103.051636 -71.085484 
L 106.298182 -67.767206 
L 109.544727 -69.703194 
L 112.791273 -69.400072 
L 116.037818 -70.382649 
L 119.284364 -70.55607 
L 122.530909 -69.575153 
L 125.777455 -70.823489 
L 129.024 -71.188158 
L 132.270545 -69.306746 
L 135.517091 -68.97345 
L 138.763636 -71.642726 
L 142.010182 -69.939043 
L 145.256727 -68.742313 
L 148.503273 -70.889409 
L 151.749818 -70.622049 
L 154.996364 -72.353843 
L 158.242909 -70.760225 
L 161.489455 -72.442525 
L 164.736 -70.83577 
L 167.982545 -72.632859 
L 171.229091 -72.295712 
L 174.475636 -72.34574 
L 177.722182 -72.441732 
L 180.968727 -74.42755 
L 184.215273 -77.120479 
L 187.461818 -77.98969 
L 190.708364 -74.674931 
L 193.954909 -72.843296 
L 197.201455 -74.693741 
L 200.448 -74.803982 
L 203.694545 -74.044701 
L 206.941091 -78.552995 
L 210.187636 -74.48728 
L 213.434182 -78.613559 
L 216.680727 -79.411358 
L 219.927273 -80.850479 
L 223.173818 -78.290958 
L 226.420364 -77.756458 
L 229.666909 -76.973927 
L 232.913455 -76.165952 
L 236.16 -248.382642 
L 239.406545 -237.876831 
L 242.653091 -235.779204 
L 245.899636 -227.835877 
L 249.146182 -225.609948 
L 252.392727 -220.043788 
L 255.639273 -207.237077 
L 258.885818 -205.943982 
L 262.132364 -197.033113 
L 265.378909 -193.892051 
L 268.625455 -192.888861 
L 271.872 -190.823146 
L 275.118545 -191.510939 
L 278.365091 -183.961966 
L 281.611636 -179.984371 
L 284.858182 -177.619288 
L 288.104727 -171.151661 
L 291.351273 -166.639773 
L 294.597818 -161.616737 
L 297.844364 -161.009763 
L 301.090909 -160.195418 
L 304.337455 -157.620698 
L 307.584 -162.875212 
L 310.830545 -159.853543 
L 314.077091 -155.598748 
L 317.323636 -150.738334 
L 320.570182 -148.726821 
L 323.816727 -141.036576 
L 327.063273 -137.920803 
L 330.309818 -138.001954 
L 333.556364 -131.153269 
L 336.802909 -133.470127 
L 340.049455 -130.247958 
L 343.296 -125.729444 
L 346.542545 -124.817642 
L 349.789091 -121.899953 
L 353.035636 -119.303968 
L 356.282182 -124.774904 
L 359.528727 -119.847463 
L 362.775273 -118.855547 
L 366.021818 -118.712216 
L 369.268364 -118.36345 
L 372.514909 -125.203376 
L 375.761455 -124.152082 
L 379.008 -123.047926 
L 382.254545 -120.255697 
L 385.501091 -119.150353 
L 388.747636 -118.757248 
L 391.994182 -121.750907 
L 395.240727 -120.729489 
L 398.487273 -121.503904 
L 398.487273 -156.839524 
L 398.487273 -156.839524 
L 395.240727 -156.038927 
L 391.994182 -155.626458 
L 388.747636 -154.242297 
L 385.501091 -154.714388 
L 382.254545 -156.924383 
L 379.008 -158.056502 
L 375.761455 -157.125028 
L 372.514909 -158.549907 
L 369.268364 -153.058078 
L 366.021818 -154.128784 
L 362.775273 -155.553587 
L 359.528727 -155.062524 
L 356.282182 -161.056993 
L 353.035636 -154.29858 
L 349.789091 -157.549421 
L 346.542545 -160.830173 
L 343.296 -162.526238 
L 340.049455 -165.620469 
L 336.802909 -170.766938 
L 333.556364 -166.957251 
L 330.309818 -174.224383 
L 327.063273 -175.500488 
L 323.816727 -176.595603 
L 320.570182 -186.644096 
L 317.323636 -190.534725 
L 314.077091 -193.645826 
L 310.830545 -198.072213 
L 307.584 -202.247776 
L 304.337455 -198.035593 
L 301.090909 -200.811021 
L 297.844364 -198.123506 
L 294.597818 -202.763564 
L 291.351273 -204.902286 
L 288.104727 -210.542786 
L 284.858182 -216.65623 
L 281.611636 -220.131459 
L 278.365091 -222.238959 
L 275.118545 -228.553467 
L 271.872 -227.839797 
L 268.625455 -231.285821 
L 265.378909 -229.926801 
L 262.132364 -235.586854 
L 258.885818 -242.247805 
L 255.639273 -244.162535 
L 252.392727 -255.601986 
L 249.146182 -255.326541 
L 245.899636 -258.064165 
L 242.653091 -268.078862 
L 239.406545 -265.743789 
L 236.16 -273.017263 
L 232.913455 -92.868003 
L 229.666909 -93.806438 
L 226.420364 -92.877471 
L 223.173818 -96.348736 
L 219.927273 -97.627157 
L 216.680727 -95.761576 
L 213.434182 -94.115445 
L 210.187636 -90.478967 
L 206.941091 -94.356185 
L 203.694545 -89.301299 
L 200.448 -88.001706 
L 197.201455 -88.991425 
L 193.954909 -86.96798 
L 190.708364 -89.700708 
L 187.461818 -92.579798 
L 184.215273 -91.770815 
L 180.968727 -90.185244 
L 177.722182 -87.416569 
L 174.475636 -88.042233 
L 171.229091 -86.80235 
L 167.982545 -86.691495 
L 164.736 -86.303638 
L 161.489455 -86.737678 
L 158.242909 -85.197596 
L 154.996364 -87.238679 
L 151.749818 -85.322311 
L 148.503273 -85.881529 
L 145.256727 -84.084335 
L 142.010182 -84.310899 
L 138.763636 -87.251301 
L 135.517091 -83.668194 
L 132.270545 -83.711024 
L 129.024 -85.662602 
L 125.777455 -85.08345 
L 122.530909 -84.66192 
L 119.284364 -85.128985 
L 116.037818 -85.7475 
L 112.791273 -83.792808 
L 109.544727 -83.52849 
L 106.298182 -83.107408 
L 103.051636 -86.436133 
L 99.805091 -86.920806 
L 96.558545 -86.406814 
L 93.312 -86.520996 
L 90.065455 -86.013429 
L 86.818909 -86.233961 
L 83.572364 -87.237014 
L 80.325818 -82.53413 
L 77.079273 -84.827497 
L 73.832727 -84.742084 
z
" style="stroke: #3497a9; stroke-opacity: 0.2"/>
    </defs>
    <g clip-path="url(#p849495ba18)">
     <use xlink:href="#mb8415253ea" x="0" y="345.6" style="fill: #3497a9; fill-opacity: 0.2; stroke: #3497a9; stroke-opacity: 0.2"/>
    </g>
   </g>
   <g id="PolyCollection_4">
    <defs>
     <path id="mbb93469516" d="M 73.832727 -168.566481 
L 73.832727 -142.496479 
L 77.079273 -141.814558 
L 80.325818 -141.696263 
L 83.572364 -140.543082 
L 86.818909 -141.176081 
L 90.065455 -141.207904 
L 93.312 -140.267433 
L 96.558545 -142.697107 
L 99.805091 -144.667963 
L 103.051636 -141.813699 
L 106.298182 -144.04683 
L 109.544727 -140.375753 
L 112.791273 -140.531304 
L 116.037818 -142.635415 
L 119.284364 -142.520424 
L 122.530909 -143.540128 
L 125.777455 -141.881831 
L 129.024 -139.802991 
L 132.270545 -140.944795 
L 135.517091 -142.897348 
L 138.763636 -140.931369 
L 142.010182 -142.634152 
L 145.256727 -137.835699 
L 148.503273 -137.589413 
L 151.749818 -136.01627 
L 154.996364 -141.814246 
L 158.242909 -138.890129 
L 161.489455 -136.428544 
L 164.736 -136.57434 
L 167.982545 -138.719115 
L 171.229091 -138.423415 
L 174.475636 -143.24159 
L 177.722182 -142.226329 
L 180.968727 -143.984717 
L 184.215273 -144.143458 
L 187.461818 -142.035215 
L 190.708364 -146.15792 
L 193.954909 -145.015547 
L 197.201455 -144.173162 
L 200.448 -148.817194 
L 203.694545 -147.222032 
L 206.941091 -145.602715 
L 210.187636 -148.866857 
L 213.434182 -148.356426 
L 216.680727 -147.125897 
L 219.927273 -154.54845 
L 223.173818 -154.56581 
L 226.420364 -155.152648 
L 229.666909 -147.023406 
L 232.913455 -146.640171 
L 236.16 -239.460368 
L 239.406545 -239.576816 
L 242.653091 -228.488688 
L 245.899636 -224.040271 
L 249.146182 -233.137836 
L 252.392727 -229.723149 
L 255.639273 -232.55639 
L 258.885818 -236.691771 
L 262.132364 -237.189628 
L 265.378909 -238.80632 
L 268.625455 -234.493699 
L 271.872 -229.055295 
L 275.118545 -231.592548 
L 278.365091 -226.854632 
L 281.611636 -226.835192 
L 284.858182 -229.689409 
L 288.104727 -220.085782 
L 291.351273 -228.667626 
L 294.597818 -226.360773 
L 297.844364 -218.374464 
L 301.090909 -221.291785 
L 304.337455 -222.747593 
L 307.584 -216.419513 
L 310.830545 -214.057951 
L 314.077091 -219.933032 
L 317.323636 -218.170316 
L 320.570182 -215.469773 
L 323.816727 -214.51231 
L 327.063273 -214.772329 
L 330.309818 -219.716346 
L 333.556364 -219.655639 
L 336.802909 -214.172419 
L 340.049455 -219.70484 
L 343.296 -218.010218 
L 346.542545 -215.377527 
L 349.789091 -222.785492 
L 353.035636 -216.971842 
L 356.282182 -215.579696 
L 359.528727 -221.872176 
L 362.775273 -222.066031 
L 366.021818 -216.021043 
L 369.268364 -223.675216 
L 372.514909 -217.112479 
L 375.761455 -216.228518 
L 379.008 -215.689571 
L 382.254545 -215.57743 
L 385.501091 -220.724943 
L 388.747636 -215.069036 
L 391.994182 -218.327671 
L 395.240727 -220.870779 
L 398.487273 -213.009775 
L 398.487273 -243.836443 
L 398.487273 -243.836443 
L 395.240727 -249.924521 
L 391.994182 -250.601674 
L 388.747636 -247.894451 
L 385.501091 -252.944716 
L 382.254545 -246.562673 
L 379.008 -249.504622 
L 375.761455 -248.001311 
L 372.514909 -248.577804 
L 369.268364 -255.308524 
L 366.021818 -247.091814 
L 362.775273 -252.434923 
L 359.528727 -250.98736 
L 356.282182 -248.801583 
L 353.035636 -247.831658 
L 349.789091 -253.655995 
L 346.542545 -249.629196 
L 343.296 -249.332874 
L 340.049455 -252.164371 
L 336.802909 -247.650801 
L 333.556364 -251.441018 
L 330.309818 -249.124056 
L 327.063273 -248.024796 
L 323.816727 -250.440086 
L 320.570182 -248.058148 
L 317.323636 -247.668503 
L 314.077091 -250.690525 
L 310.830545 -246.597341 
L 307.584 -245.722007 
L 304.337455 -251.68932 
L 301.090909 -250.382993 
L 297.844364 -248.976621 
L 294.597818 -254.879831 
L 291.351273 -256.843428 
L 288.104727 -250.508169 
L 284.858182 -258.690726 
L 281.611636 -256.010178 
L 278.365091 -255.616833 
L 275.118545 -260.366503 
L 271.872 -258.979888 
L 268.625455 -260.42316 
L 265.378909 -262.861859 
L 262.132364 -262.480049 
L 258.885818 -261.379196 
L 255.639273 -259.345824 
L 252.392727 -253.2009 
L 249.146182 -255.774586 
L 245.899636 -248.76594 
L 242.653091 -252.72944 
L 239.406545 -260.603676 
L 236.16 -261.831854 
L 232.913455 -169.679003 
L 229.666909 -171.104156 
L 226.420364 -181.300411 
L 223.173818 -181.003664 
L 219.927273 -180.269887 
L 216.680727 -173.330087 
L 213.434182 -175.105748 
L 210.187636 -173.635021 
L 206.941091 -169.125925 
L 203.694545 -171.922995 
L 200.448 -175.203039 
L 197.201455 -170.824885 
L 193.954909 -169.020869 
L 190.708364 -170.867269 
L 187.461818 -167.855835 
L 184.215273 -169.758222 
L 180.968727 -167.160003 
L 177.722182 -164.964578 
L 174.475636 -166.458696 
L 171.229091 -162.599621 
L 167.982545 -163.046522 
L 164.736 -158.645756 
L 161.489455 -159.680265 
L 158.242909 -163.100266 
L 154.996364 -165.040426 
L 151.749818 -160.031183 
L 148.503273 -162.866238 
L 145.256727 -162.376563 
L 142.010182 -166.728657 
L 138.763636 -163.916118 
L 135.517091 -166.97321 
L 132.270545 -165.768885 
L 129.024 -164.09937 
L 125.777455 -166.771718 
L 122.530909 -166.956378 
L 119.284364 -168.144121 
L 116.037818 -167.374617 
L 112.791273 -165.389932 
L 109.544727 -165.642285 
L 106.298182 -170.026303 
L 103.051636 -166.18717 
L 99.805091 -169.703341 
L 96.558545 -167.578568 
L 93.312 -164.767955 
L 90.065455 -166.262472 
L 86.818909 -168.333475 
L 83.572364 -164.994823 
L 80.325818 -166.68271 
L 77.079273 -166.596668 
L 73.832727 -168.566481 
z
" style="stroke: #60ceac; stroke-opacity: 0.2"/>
    </defs>
    <g clip-path="url(#p849495ba18)">
     <use xlink:href="#mbb93469516" x="0" y="345.6" style="fill: #60ceac; fill-opacity: 0.2; stroke: #60ceac; stroke-opacity: 0.2"/>
    </g>
   </g>
   <g id="line2d_19">
    <path d="M 73.832727 160.513243 
L 77.079273 162.366238 
L 80.325818 158.874674 
L 83.572364 163.800788 
L 86.818909 164.059281 
L 90.065455 167.18502 
L 93.312 159.271625 
L 96.558545 162.451774 
L 99.805091 158.78323 
L 103.051636 153.789337 
L 106.298182 153.509033 
L 109.544727 156.805004 
L 112.791273 156.97644 
L 116.037818 154.454617 
L 119.284364 150.859524 
L 122.530909 158.607248 
L 125.777455 154.075962 
L 129.024 149.742883 
L 132.270545 147.738109 
L 135.517091 148.459272 
L 138.763636 154.788065 
L 142.010182 149.098892 
L 145.256727 148.277683 
L 148.503273 151.771844 
L 151.749818 152.846699 
L 154.996364 159.836606 
L 158.242909 153.791254 
L 161.489455 156.898112 
L 164.736 153.822633 
L 167.982545 151.617578 
L 171.229091 147.936758 
L 174.475636 152.239441 
L 177.722182 150.312442 
L 180.968727 144.225716 
L 184.215273 151.678182 
L 187.461818 156.832043 
L 190.708364 151.967579 
L 193.954909 144.091408 
L 197.201455 150.383959 
L 200.448 146.38702 
L 203.694545 143.833723 
L 206.941091 143.422707 
L 210.187636 142.089422 
L 213.434182 147.396377 
L 216.680727 145.785766 
L 219.927273 144.265363 
L 223.173818 142.354331 
L 226.420364 143.503792 
L 229.666909 149.013181 
L 232.913455 150.178863 
L 236.16 103.813092 
L 239.406545 103.924986 
L 242.653091 107.047747 
L 245.899636 101.820705 
L 249.146182 103.459084 
L 252.392727 107.556353 
L 255.639273 103.226442 
L 258.885818 103.755228 
L 262.132364 106.441471 
L 265.378909 103.927789 
L 268.625455 113.803538 
L 271.872 114.860431 
L 275.118545 111.091018 
L 278.365091 109.100769 
L 281.611636 109.143268 
L 284.858182 110.498744 
L 288.104727 107.288768 
L 291.351273 111.020609 
L 294.597818 114.029068 
L 297.844364 112.911936 
L 301.090909 111.058767 
L 304.337455 111.425875 
L 307.584 110.693624 
L 310.830545 108.887547 
L 314.077091 115.938517 
L 317.323636 118.275218 
L 320.570182 117.06764 
L 323.816727 116.232998 
L 327.063273 117.164184 
L 330.309818 114.230569 
L 333.556364 118.739013 
L 336.802909 111.12821 
L 340.049455 116.883975 
L 343.296 109.948637 
L 346.542545 109.328833 
L 349.789091 106.801023 
L 353.035636 112.694406 
L 356.282182 112.000091 
L 359.528727 121.706748 
L 362.775273 108.850861 
L 366.021818 115.728399 
L 369.268364 109.995951 
L 372.514909 117.694508 
L 375.761455 115.118623 
L 379.008 115.194259 
L 382.254545 115.808154 
L 385.501091 111.219258 
L 388.747636 118.376736 
L 391.994182 114.37655 
L 395.240727 113.495213 
L 398.487273 114.783068 
" clip-path="url(#p849495ba18)" style="fill: none; stroke: #382a54; stroke-width: 1.5; stroke-linecap: round"/>
   </g>
   <g id="line2d_20">
    <path d="M 73.832727 160.630717 
L 77.079273 157.530928 
L 80.325818 152.72087 
L 83.572364 149.021248 
L 86.818909 155.335836 
L 90.065455 162.245517 
L 93.312 169.554866 
L 96.558545 173.738479 
L 99.805091 160.689677 
L 103.051636 163.158864 
L 106.298182 175.133654 
L 109.544727 175.923841 
L 112.791273 165.021398 
L 116.037818 170.762931 
L 119.284364 172.380809 
L 122.530909 166.024724 
L 125.777455 166.760191 
L 129.024 149.921205 
L 132.270545 164.537407 
L 135.517091 152.410101 
L 138.763636 158.242611 
L 142.010182 159.537495 
L 145.256727 154.672469 
L 148.503273 162.807097 
L 151.749818 156.753714 
L 154.996364 159.349055 
L 158.242909 151.587981 
L 161.489455 161.40294 
L 164.736 168.368422 
L 167.982545 142.823915 
L 171.229091 161.885102 
L 174.475636 156.915544 
L 177.722182 147.787736 
L 180.968727 153.378084 
L 184.215273 164.005932 
L 187.461818 159.917786 
L 190.708364 160.532172 
L 193.954909 165.793289 
L 197.201455 158.330012 
L 200.448 142.545579 
L 203.694545 160.660405 
L 206.941091 163.109716 
L 210.187636 176.445503 
L 213.434182 160.308056 
L 216.680727 161.298491 
L 219.927273 168.087507 
L 223.173818 172.921349 
L 226.420364 188.279753 
L 229.666909 166.585638 
L 232.913455 156.183237 
L 236.16 98.783294 
L 239.406545 94.594608 
L 242.653091 97.631778 
L 245.899636 118.680488 
L 249.146182 101.067034 
L 252.392727 98.890321 
L 255.639273 110.074925 
L 258.885818 92.815649 
L 262.132364 104.449234 
L 265.378909 100.442918 
L 268.625455 101.009654 
L 271.872 104.544702 
L 275.118545 118.03999 
L 278.365091 126.382851 
L 281.611636 114.281158 
L 284.858182 111.500288 
L 288.104727 104.366407 
L 291.351273 112.682573 
L 294.597818 117.297205 
L 297.844364 119.063107 
L 301.090909 96.000511 
L 304.337455 117.542693 
L 307.584 104.282 
L 310.830545 117.519242 
L 314.077091 121.810049 
L 317.323636 98.88899 
L 320.570182 106.296301 
L 323.816727 102.100796 
L 327.063273 103.907281 
L 330.309818 95.379638 
L 333.556364 96.601425 
L 336.802909 96.436186 
L 340.049455 117.416124 
L 343.296 103.460711 
L 346.542545 112.563239 
L 349.789091 101.521254 
L 353.035636 110.519914 
L 356.282182 101.354435 
L 359.528727 104.156262 
L 362.775273 114.173715 
L 366.021818 90.677356 
L 369.268364 85.685594 
L 372.514909 87.231871 
L 375.761455 90.124342 
L 379.008 98.984791 
L 382.254545 100.082669 
L 385.501091 88.974489 
L 388.747636 91.705047 
L 391.994182 95.538723 
L 395.240727 103.565992 
L 398.487273 85.559939 
" clip-path="url(#p849495ba18)" style="fill: none; stroke: #395d9c; stroke-width: 1.5; stroke-linecap: round"/>
   </g>
   <g id="line2d_21">
    <path d="M 73.832727 268.219029 
L 77.079273 268.702315 
L 80.325818 270.153982 
L 83.572364 267.38476 
L 86.818909 267.756223 
L 90.065455 267.007168 
L 93.312 266.99154 
L 96.558545 267.577197 
L 99.805091 266.50852 
L 103.051636 267.298814 
L 106.298182 270.401556 
L 109.544727 269.082266 
L 112.791273 269.459588 
L 116.037818 267.996033 
L 119.284364 268.129646 
L 122.530909 268.679595 
L 125.777455 268.133062 
L 129.024 267.458133 
L 132.270545 269.559164 
L 135.517091 269.590868 
L 138.763636 266.487883 
L 142.010182 268.745653 
L 145.256727 269.512948 
L 148.503273 267.528708 
L 151.749818 267.583153 
L 154.996364 265.692076 
L 158.242909 267.970465 
L 161.489455 265.668184 
L 164.736 267.351931 
L 167.982545 266.092012 
L 171.229091 266.657508 
L 174.475636 265.828836 
L 177.722182 266.274233 
L 180.968727 263.480759 
L 184.215273 261.576525 
L 187.461818 260.626637 
L 190.708364 263.480149 
L 193.954909 265.842429 
L 197.201455 264.391467 
L 200.448 264.397491 
L 203.694545 263.762408 
L 206.941091 259.5029 
L 210.187636 262.951416 
L 213.434182 259.231172 
L 216.680727 258.463001 
L 219.927273 257.196538 
L 223.173818 258.60846 
L 226.420364 260.208302 
L 229.666909 260.716254 
L 232.913455 261.284971 
L 236.16 85.035606 
L 239.406545 93.917532 
L 242.653091 92.71092 
L 245.899636 102.228572 
L 249.146182 104.812686 
L 252.392727 107.849908 
L 255.639273 119.021153 
L 258.885818 121.612392 
L 262.132364 128.641278 
L 265.378909 133.620643 
L 268.625455 133.227191 
L 271.872 135.416426 
L 275.118545 135.992007 
L 278.365091 142.180434 
L 281.611636 145.578523 
L 284.858182 149.785207 
L 288.104727 153.556149 
L 291.351273 160.449128 
L 294.597818 164.364803 
L 297.844364 165.986911 
L 301.090909 166.461559 
L 304.337455 168.109394 
L 307.584 163.616959 
L 310.830545 167.308553 
L 314.077091 170.658438 
L 317.323636 174.996677 
L 320.570182 176.965979 
L 323.816727 186.042988 
L 327.063273 188.441539 
L 330.309818 190.521669 
L 333.556364 195.717403 
L 336.802909 193.905819 
L 340.049455 197.969819 
L 343.296 201.239594 
L 346.542545 201.849254 
L 349.789091 205.447078 
L 353.035636 209.481109 
L 356.282182 203.273196 
L 359.528727 208.248876 
L 362.775273 209.146771 
L 366.021818 208.955514 
L 369.268364 209.176302 
L 372.514909 203.920738 
L 375.761455 206.323938 
L 379.008 205.981018 
L 382.254545 206.645855 
L 385.501091 208.28841 
L 388.747636 208.958273 
L 391.994182 206.322045 
L 395.240727 206.597284 
L 398.487273 207.075346 
" clip-path="url(#p849495ba18)" style="fill: none; stroke: #3497a9; stroke-width: 1.5; stroke-linecap: round"/>
   </g>
   <g id="line2d_22">
    <path d="M 73.832727 189.912017 
L 77.079273 191.218267 
L 80.325818 190.766573 
L 83.572364 192.037463 
L 86.818909 190.361901 
L 90.065455 191.69648 
L 93.312 192.431131 
L 96.558545 191.19351 
L 99.805091 188.407409 
L 103.051636 190.989155 
L 106.298182 187.860712 
L 109.544727 191.699077 
L 112.791273 191.945076 
L 116.037818 190.406944 
L 119.284364 190.388858 
L 122.530909 189.630977 
L 125.777455 191.255755 
L 129.024 193.680874 
L 132.270545 192.63812 
L 135.517091 190.28507 
L 138.763636 193.111585 
L 142.010182 190.648436 
L 145.256727 194.557312 
L 148.503273 194.78322 
L 151.749818 197.464635 
L 154.996364 192.374696 
L 158.242909 194.278272 
L 161.489455 196.645908 
L 164.736 197.662141 
L 167.982545 194.946418 
L 171.229091 195.132751 
L 174.475636 190.274991 
L 177.722182 192.011513 
L 180.968727 189.851463 
L 184.215273 188.720045 
L 187.461818 190.19245 
L 190.708364 186.808353 
L 193.954909 188.014324 
L 197.201455 188.044448 
L 200.448 183.659091 
L 203.694545 186.376104 
L 206.941091 187.547252 
L 210.187636 183.749738 
L 213.434182 184.077516 
L 216.680727 184.695515 
L 219.927273 178.395118 
L 223.173818 176.757772 
L 226.420364 177.67621 
L 229.666909 186.643501 
L 232.913455 186.877433 
L 236.16 94.375344 
L 239.406545 95.625364 
L 242.653091 105.065272 
L 245.899636 108.756442 
L 249.146182 101.110916 
L 252.392727 104.058198 
L 255.639273 98.924533 
L 258.885818 96.418459 
L 262.132364 96.183283 
L 265.378909 94.50094 
L 268.625455 98.14354 
L 271.872 101.285776 
L 275.118545 99.669865 
L 278.365091 104.199693 
L 281.611636 103.57998 
L 284.858182 102.276747 
L 288.104727 109.415734 
L 291.351273 102.767828 
L 294.597818 104.46575 
L 297.844364 110.637047 
L 301.090909 109.969561 
L 304.337455 108.517542 
L 307.584 114.360145 
L 310.830545 116.106405 
L 314.077091 109.516711 
L 317.323636 112.14859 
L 320.570182 114.427753 
L 323.816727 112.415272 
L 327.063273 114.114707 
L 330.309818 111.085724 
L 333.556364 109.792866 
L 336.802909 113.741717 
L 340.049455 109.933326 
L 343.296 111.822726 
L 346.542545 113.039245 
L 349.789091 107.486819 
L 353.035636 112.842828 
L 356.282182 113.359815 
L 359.528727 109.306482 
L 362.775273 108.659056 
L 366.021818 113.666222 
L 369.268364 106.20543 
L 372.514909 112.996608 
L 375.761455 112.809997 
L 379.008 112.780985 
L 382.254545 113.826764 
L 385.501091 108.449542 
L 388.747636 113.884001 
L 391.994182 110.911047 
L 395.240727 109.669557 
L 398.487273 116.993857 
" clip-path="url(#p849495ba18)" style="fill: none; stroke: #60ceac; stroke-width: 1.5; stroke-linecap: round"/>
   </g>
   <g id="line2d_23"/>
   <g id="line2d_24"/>
   <g id="line2d_25"/>
   <g id="line2d_26"/>
   <g id="patch_3">
    <path d="M 57.6 307.584 
L 57.6 41.472 
" style="fill: none; stroke: #262626; stroke-width: 0.8; stroke-linejoin: miter; stroke-linecap: square"/>
   </g>
   <g id="patch_4">
    <path d="M 414.72 307.584 
L 414.72 41.472 
" style="fill: none; stroke: #262626; stroke-width: 0.8; stroke-linejoin: miter; stroke-linecap: square"/>
   </g>
   <g id="patch_5">
    <path d="M 57.6 307.584 
L 414.72 307.584 
" style="fill: none; stroke: #262626; stroke-width: 0.8; stroke-linejoin: miter; stroke-linecap: square"/>
   </g>
   <g id="patch_6">
    <path d="M 57.6 41.472 
L 414.72 41.472 
" style="fill: none; stroke: #262626; stroke-width: 0.8; stroke-linejoin: miter; stroke-linecap: square"/>
   </g>
   <g id="legend_1">
    <g id="patch_7">
     <path d="M 65.3 112.743406 
L 165.925938 112.743406 
Q 168.125937 112.743406 168.125937 110.543406 
L 168.125937 49.172 
Q 168.125937 46.972 165.925938 46.972 
L 65.3 46.972 
Q 63.1 46.972 63.1 49.172 
L 63.1 110.543406 
Q 63.1 112.743406 65.3 112.743406 
z
" style="fill: #ffffff; opacity: 0.8; stroke: #cccccc; stroke-linejoin: miter"/>
    </g>
    <g id="line2d_27">
     <path d="M 67.5 55.42825 
L 78.5 55.42825 
L 89.5 55.42825 
" style="fill: none; stroke: #382a54; stroke-width: 1.5; stroke-linecap: round"/>
    </g>
    <g id="text_21">
     <text style="fill: #262626; font: 11px 'sans-serif'; text-anchor: start" x="98.3" y="59.27825" transform="rotate(-0, 98.3, 59.27825)">01_Native</text>
    </g>
    <g id="line2d_28">
     <path d="M 67.5 71.122156 
L 78.5 71.122156 
L 89.5 71.122156 
" style="fill: none; stroke: #395d9c; stroke-width: 1.5; stroke-linecap: round"/>
    </g>
    <g id="text_22">
     <text style="fill: #262626; font: 11px 'sans-serif'; text-anchor: start" x="98.3" y="74.972156" transform="rotate(-0, 98.3, 74.972156)">02_Misfolded</text>
    </g>
    <g id="line2d_29">
     <path d="M 67.5 86.714656 
L 78.5 86.714656 
L 89.5 86.714656 
" style="fill: none; stroke: #3497a9; stroke-width: 1.5; stroke-linecap: round"/>
    </g>
    <g id="text_23">
     <text style="fill: #262626; font: 11px 'sans-serif'; text-anchor: start" x="98.3" y="90.564656" transform="rotate(-0, 98.3, 90.564656)">03_A8A2</text>
    </g>
    <g id="line2d_30">
     <path d="M 67.5 102.307156 
L 78.5 102.307156 
L 89.5 102.307156 
" style="fill: none; stroke: #60ceac; stroke-width: 1.5; stroke-linecap: round"/>
    </g>
    <g id="text_24">
     <text style="fill: #262626; font: 11px 'sans-serif'; text-anchor: start" x="98.3" y="106.157156" transform="rotate(-0, 98.3, 106.157156)">04_A8B1</text>
    </g>
   </g>
  </g>
 </g>
 <defs>
  <clipPath id="p849495ba18">
   <rect x="57.6" y="41.472" width="357.12" height="266.112"/>
  </clipPath>
 </defs>
</svg>
