<?xml version="1.0" encoding="utf-8" standalone="no"?>
<!DOCTYPE svg PUBLIC "-//W3C//DTD SVG 1.1//EN"
  "http://www.w3.org/Graphics/SVG/1.1/DTD/svg11.dtd">
<svg xmlns:xlink="http://www.w3.org/1999/xlink" width="432pt" height="288pt" viewBox="0 0 432 288" xmlns="http://www.w3.org/2000/svg" version="1.1">
 <metadata>
  <rdf:RDF xmlns:dc="http://purl.org/dc/elements/1.1/" xmlns:cc="http://creativecommons.org/ns#" xmlns:rdf="http://www.w3.org/1999/02/22-rdf-syntax-ns#">
   <cc:Work>
    <dc:type rdf:resource="http://purl.org/dc/dcmitype/StillImage"/>
    <dc:date>2026-05-26T09:36:45.263216</dc:date>
    <dc:format>image/svg+xml</dc:format>
    <dc:creator>
     <cc:Agent>
      <dc:title>Matplotlib v3.5.1, https://matplotlib.org/</dc:title>
     </cc:Agent>
    </dc:creator>
   </cc:Work>
  </rdf:RDF>
 </metadata>
 <defs>
  <style type="text/css">*{stroke-linejoin: round; stroke-linecap: butt}</style>
 </defs>
 <g id="figure_1">
  <g id="patch_1">
   <path d="M 0 288 
L 432 288 
L 432 0 
L 0 0 
z
" style="fill: #ffffff"/>
  </g>
  <g id="axes_1">
   <g id="patch_2">
    <path d="M 54 256.32 
L 206.181818 256.32 
L 206.181818 34.56 
L 54 34.56 
z
" style="fill: #ffffff"/>
   </g>
   <g id="matplotlib.axis_1">
    <g id="xtick_1">
     <g id="line2d_1">
      <defs>
       <path id="m0b895cdde0" d="M 0 0 
L 0 6 
" style="stroke: #262626; stroke-width: 1.25"/>
      </defs>
      <g>
       <use xlink:href="#m0b895cdde0" x="60.917355" y="256.32" style="fill: #262626; stroke: #262626; stroke-width: 1.25"/>
      </g>
     </g>
     <g id="text_1">
      <text style="fill: #262626; font: 11px 'sans-serif'; text-anchor: middle" x="60.917355" y="273.693594" transform="rotate(-0, 60.917355, 273.693594)">−10</text>
     </g>
    </g>
    <g id="xtick_2">
     <g id="line2d_2">
      <g>
       <use xlink:href="#m0b895cdde0" x="130.090909" y="256.32" style="fill: #262626; stroke: #262626; stroke-width: 1.25"/>
      </g>
     </g>
     <g id="text_2">
      <text style="fill: #262626; font: 11px 'sans-serif'; text-anchor: middle" x="130.090909" y="273.693594" transform="rotate(-0, 130.090909, 273.693594)">0</text>
     </g>
    </g>
    <g id="xtick_3">
     <g id="line2d_3">
      <g>
       <use xlink:href="#m0b895cdde0" x="199.264463" y="256.32" style="fill: #262626; stroke: #262626; stroke-width: 1.25"/>
      </g>
     </g>
     <g id="text_3">
      <text style="fill: #262626; font: 11px 'sans-serif'; text-anchor: middle" x="199.264463" y="273.693594" transform="rotate(-0, 199.264463, 273.693594)">10</text>
     </g>
    </g>
    <g id="text_4">
     <text style="fill: #262626; font: 12px 'sans-serif'; text-anchor: middle" x="130.090909" y="288.615469" transform="rotate(-0, 130.090909, 288.615469)">Time (s)</text>
    </g>
   </g>
   <g id="matplotlib.axis_2">
    <g id="ytick_1">
     <g id="line2d_4">
      <defs>
       <path id="m12631a89f6" d="M 0 0 
L -6 0 
" style="stroke: #262626; stroke-width: 1.25"/>
      </defs>
      <g>
       <use xlink:href="#m12631a89f6" x="54" y="214.837369" style="fill: #262626; stroke: #262626; stroke-width: 1.25"/>
      </g>
     </g>
     <g id="text_5">
      <text style="fill: #262626; font: 11px 'sans-serif'; text-anchor: end" x="44.5" y="218.774166" transform="rotate(-0, 44.5, 218.774166)">0.4</text>
     </g>
    </g>
    <g id="ytick_2">
     <g id="line2d_5">
      <g>
       <use xlink:href="#m12631a89f6" x="54" y="167.842626" style="fill: #262626; stroke: #262626; stroke-width: 1.25"/>
      </g>
     </g>
     <g id="text_6">
      <text style="fill: #262626; font: 11px 'sans-serif'; text-anchor: end" x="44.5" y="171.779423" transform="rotate(-0, 44.5, 171.779423)">0.5</text>
     </g>
    </g>
    <g id="ytick_3">
     <g id="line2d_6">
      <g>
       <use xlink:href="#m12631a89f6" x="54" y="120.847883" style="fill: #262626; stroke: #262626; stroke-width: 1.25"/>
      </g>
     </g>
     <g id="text_7">
      <text style="fill: #262626; font: 11px 'sans-serif'; text-anchor: end" x="44.5" y="124.784679" transform="rotate(-0, 44.5, 124.784679)">0.6</text>
     </g>
    </g>
    <g id="ytick_4">
     <g id="line2d_7">
      <g>
       <use xlink:href="#m12631a89f6" x="54" y="73.853139" style="fill: #262626; stroke: #262626; stroke-width: 1.25"/>
      </g>
     </g>
     <g id="text_8">
      <text style="fill: #262626; font: 11px 'sans-serif'; text-anchor: end" x="44.5" y="77.789936" transform="rotate(-0, 44.5, 77.789936)">0.7</text>
     </g>
    </g>
    <g id="text_9">
     <text style="fill: #262626; font: 12px 'sans-serif'; text-anchor: middle" x="22.825" y="145.44" transform="rotate(-90, 22.825, 145.44)">FRET</text>
    </g>
   </g>
   <g id="PolyCollection_1">
    <defs>
     <path id="m66b7bbbd2a" d="M 60.917355 -192.480282 
L 60.917355 -164.982629 
L 62.300826 -163.751899 
L 63.684298 -163.508787 
L 65.067769 -158.568846 
L 66.45124 -163.010088 
L 67.834711 -162.948991 
L 69.218182 -155.250275 
L 70.601653 -154.356183 
L 71.985124 -158.650571 
L 73.368595 -156.007629 
L 74.752066 -158.036687 
L 76.135537 -157.480847 
L 77.519008 -158.435325 
L 78.902479 -160.643262 
L 80.28595 -160.907751 
L 81.669421 -159.605812 
L 83.052893 -159.301792 
L 84.436364 -162.821694 
L 85.819835 -160.332877 
L 87.203306 -168.360148 
L 88.586777 -165.839325 
L 89.970248 -161.775755 
L 91.353719 -161.188868 
L 92.73719 -167.182142 
L 94.120661 -160.793853 
L 95.504132 -161.94836 
L 96.887603 -161.351275 
L 98.271074 -162.909407 
L 99.654545 -169.291059 
L 101.038017 -166.349253 
L 102.421488 -164.462981 
L 103.804959 -165.645933 
L 105.18843 -166.13199 
L 106.571901 -163.944127 
L 107.955372 -162.469391 
L 109.338843 -162.861008 
L 110.722314 -162.431633 
L 112.105785 -163.996049 
L 113.489256 -158.778224 
L 114.872727 -166.713631 
L 116.256198 -159.565323 
L 117.639669 -162.523857 
L 119.02314 -163.878032 
L 120.406612 -159.901106 
L 121.790083 -166.83531 
L 123.173554 -161.391205 
L 124.557025 -159.500287 
L 125.940496 -164.366102 
L 127.323967 -167.288228 
L 128.707438 -169.95497 
L 130.090909 -80.175908 
L 131.47438 -98.534772 
L 132.857851 -90.028507 
L 134.241322 -97.483507 
L 135.624793 -97.660734 
L 137.008264 -99.986524 
L 138.391736 -100.914048 
L 139.775207 -92.801046 
L 141.158678 -95.78927 
L 142.542149 -103.09986 
L 143.92562 -114.156325 
L 145.309091 -109.629215 
L 146.692562 -112.555773 
L 148.076033 -114.170988 
L 149.459504 -114.142018 
L 150.842975 -109.307895 
L 152.226446 -109.392181 
L 153.609917 -113.805017 
L 154.993388 -117.389677 
L 156.37686 -117.593778 
L 157.760331 -125.757761 
L 159.143802 -119.674827 
L 160.527273 -124.264568 
L 161.910744 -128.048702 
L 163.294215 -128.189014 
L 164.677686 -120.154239 
L 166.061157 -126.994056 
L 167.444628 -131.939288 
L 168.828099 -126.525597 
L 170.21157 -129.732111 
L 171.595041 -132.849242 
L 172.978512 -127.544655 
L 174.361983 -134.300154 
L 175.745455 -125.334028 
L 177.128926 -129.871899 
L 178.512397 -129.63511 
L 179.895868 -132.882707 
L 181.279339 -134.82066 
L 182.66281 -132.425229 
L 184.046281 -136.896741 
L 185.429752 -139.775082 
L 186.813223 -139.803776 
L 188.196694 -135.280937 
L 189.580165 -133.209666 
L 190.963636 -134.326643 
L 192.347107 -131.295131 
L 193.730579 -133.382078 
L 195.11405 -132.242202 
L 196.497521 -134.529718 
L 197.880992 -137.579934 
L 199.264463 -135.088508 
L 199.264463 -167.247217 
L 199.264463 -167.247217 
L 197.880992 -167.223273 
L 196.497521 -164.520264 
L 195.11405 -162.795259 
L 193.730579 -164.287116 
L 192.347107 -159.771174 
L 190.963636 -163.986068 
L 189.580165 -163.824633 
L 188.196694 -167.352447 
L 186.813223 -168.0533 
L 185.429752 -171.200477 
L 184.046281 -166.663623 
L 182.66281 -162.025527 
L 181.279339 -163.321745 
L 179.895868 -163.077795 
L 178.512397 -161.908663 
L 177.128926 -160.245625 
L 175.745455 -156.603523 
L 174.361983 -165.194643 
L 172.978512 -158.251449 
L 171.595041 -163.338538 
L 170.21157 -162.755086 
L 168.828099 -158.373752 
L 167.444628 -159.708409 
L 166.061157 -155.553206 
L 164.677686 -150.609884 
L 163.294215 -159.796405 
L 161.910744 -160.213967 
L 160.527273 -155.163703 
L 159.143802 -151.550529 
L 157.760331 -157.139813 
L 156.37686 -149.99417 
L 154.993388 -149.530678 
L 153.609917 -144.917267 
L 152.226446 -141.080349 
L 150.842975 -140.81998 
L 149.459504 -145.702708 
L 148.076033 -142.634017 
L 146.692562 -139.861886 
L 145.309091 -136.312463 
L 143.92562 -141.976899 
L 142.542149 -130.732596 
L 141.158678 -124.901123 
L 139.775207 -119.026821 
L 138.391736 -125.708236 
L 137.008264 -125.059108 
L 135.624793 -123.222489 
L 134.241322 -120.357274 
L 132.857851 -112.955817 
L 131.47438 -120.243574 
L 130.090909 -98.369105 
L 128.707438 -189.281759 
L 127.323967 -188.273426 
L 125.940496 -184.772029 
L 124.557025 -180.012579 
L 123.173554 -180.081552 
L 121.790083 -185.680695 
L 120.406612 -181.901279 
L 119.02314 -183.469435 
L 117.639669 -183.984521 
L 116.256198 -180.442698 
L 114.872727 -186.758731 
L 113.489256 -178.55377 
L 112.105785 -183.761271 
L 110.722314 -183.739051 
L 109.338843 -182.597449 
L 107.955372 -184.000169 
L 106.571901 -184.49069 
L 105.18843 -186.850673 
L 103.804959 -188.044356 
L 102.421488 -186.829819 
L 101.038017 -189.638901 
L 99.654545 -191.312295 
L 98.271074 -188.088445 
L 96.887603 -188.713511 
L 95.504132 -188.919543 
L 94.120661 -187.965557 
L 92.73719 -195.602274 
L 91.353719 -189.026141 
L 89.970248 -193.285449 
L 88.586777 -192.690948 
L 87.203306 -193.291565 
L 85.819835 -187.988676 
L 84.436364 -189.494002 
L 83.052893 -186.289968 
L 81.669421 -189.065164 
L 80.28595 -190.872525 
L 78.902479 -189.61996 
L 77.519008 -188.195212 
L 76.135537 -185.851199 
L 74.752066 -189.120367 
L 73.368595 -188.337725 
L 71.985124 -188.512081 
L 70.601653 -185.335294 
L 69.218182 -187.452468 
L 67.834711 -190.949487 
L 66.45124 -190.862311 
L 65.067769 -187.639896 
L 63.684298 -192.473512 
L 62.300826 -192.99956 
L 60.917355 -192.480282 
z
" style="stroke: #382a54; stroke-opacity: 0.2"/>
    </defs>
    <g clip-path="url(#p0b2bf69a1b)">
     <use xlink:href="#m66b7bbbd2a" x="0" y="288" style="fill: #382a54; fill-opacity: 0.2; stroke: #382a54; stroke-opacity: 0.2"/>
    </g>
   </g>
   <g id="PolyCollection_2">
    <defs>
     <path id="m2907672311" d="M 60.917355 -210.352008 
L 60.917355 -159.109342 
L 62.300826 -153.752774 
L 63.684298 -163.925513 
L 65.067769 -163.443901 
L 66.45124 -162.122111 
L 67.834711 -162.922009 
L 69.218182 -160.79596 
L 70.601653 -155.865175 
L 71.985124 -149.197185 
L 73.368595 -163.199829 
L 74.752066 -148.896261 
L 76.135537 -161.530019 
L 77.519008 -157.283721 
L 78.902479 -154.630248 
L 80.28595 -156.190884 
L 81.669421 -149.030428 
L 83.052893 -155.172094 
L 84.436364 -153.461138 
L 85.819835 -153.197067 
L 87.203306 -154.930459 
L 88.586777 -158.884784 
L 89.970248 -162.208901 
L 91.353719 -160.150907 
L 92.73719 -158.917604 
L 94.120661 -159.158697 
L 95.504132 -157.296685 
L 96.887603 -166.054348 
L 98.271074 -175.700235 
L 99.654545 -172.982013 
L 101.038017 -187.9421 
L 102.421488 -180.617692 
L 103.804959 -180.829668 
L 105.18843 -175.8502 
L 106.571901 -172.774786 
L 107.955372 -176.340657 
L 109.338843 -188.578589 
L 110.722314 -180.838376 
L 112.105785 -187.859344 
L 113.489256 -197.992917 
L 114.872727 -183.376705 
L 116.256198 -187.099192 
L 117.639669 -188.189369 
L 119.02314 -192.240093 
L 120.406612 -185.946999 
L 121.790083 -193.988121 
L 123.173554 -183.492179 
L 124.557025 -196.655262 
L 125.940496 -184.94093 
L 127.323967 -197.964756 
L 128.707438 -200.797975 
L 130.090909 -65.136596 
L 131.47438 -56.229769 
L 132.857851 -72.308381 
L 134.241322 -60.236711 
L 135.624793 -84.849094 
L 137.008264 -85.713574 
L 138.391736 -78.735099 
L 139.775207 -73.142587 
L 141.158678 -82.466963 
L 142.542149 -87.676234 
L 143.92562 -97.662206 
L 145.309091 -95.573623 
L 146.692562 -95.723379 
L 148.076033 -93.691251 
L 149.459504 -97.958569 
L 150.842975 -111.264872 
L 152.226446 -119.917028 
L 153.609917 -122.778499 
L 154.993388 -116.420884 
L 156.37686 -109.334309 
L 157.760331 -104.768146 
L 159.143802 -111.802538 
L 160.527273 -123.218069 
L 161.910744 -114.477102 
L 163.294215 -126.102987 
L 164.677686 -129.727736 
L 166.061157 -123.883987 
L 167.444628 -123.787005 
L 168.828099 -122.883559 
L 170.21157 -135.346178 
L 171.595041 -127.468125 
L 172.978512 -138.944354 
L 174.361983 -135.373826 
L 175.745455 -117.780252 
L 177.128926 -122.17632 
L 178.512397 -132.144391 
L 179.895868 -120.454617 
L 181.279339 -127.532851 
L 182.66281 -130.260159 
L 184.046281 -126.827643 
L 185.429752 -131.499595 
L 186.813223 -136.128596 
L 188.196694 -136.085821 
L 189.580165 -123.989539 
L 190.963636 -134.856779 
L 192.347107 -147.590291 
L 193.730579 -145.199455 
L 195.11405 -145.402101 
L 196.497521 -158.629827 
L 197.880992 -158.283094 
L 199.264463 -162.966078 
L 199.264463 -228.570284 
L 199.264463 -228.570284 
L 197.880992 -222.726298 
L 196.497521 -219.913564 
L 195.11405 -207.265555 
L 193.730579 -214.307151 
L 192.347107 -212.996607 
L 190.963636 -201.430656 
L 189.580165 -192.912122 
L 188.196694 -207.317091 
L 186.813223 -201.944337 
L 185.429752 -201.789718 
L 184.046281 -199.423479 
L 182.66281 -200.628258 
L 181.279339 -197.535253 
L 179.895868 -189.111963 
L 178.512397 -202.558638 
L 177.128926 -191.362456 
L 175.745455 -184.860283 
L 174.361983 -201.512654 
L 172.978512 -203.726542 
L 171.595041 -195.513125 
L 170.21157 -199.632344 
L 168.828099 -190.06082 
L 167.444628 -182.634831 
L 166.061157 -190.401938 
L 164.677686 -189.835553 
L 163.294215 -190.149667 
L 161.910744 -179.053219 
L 160.527273 -185.1795 
L 159.143802 -172.023448 
L 157.760331 -166.663834 
L 156.37686 -170.84143 
L 154.993388 -173.930979 
L 153.609917 -178.084062 
L 152.226446 -174.223372 
L 150.842975 -172.501343 
L 149.459504 -158.6031 
L 148.076033 -157.714175 
L 146.692562 -158.653099 
L 145.309091 -158.081486 
L 143.92562 -163.302584 
L 142.542149 -155.310634 
L 141.158678 -144.795289 
L 139.775207 -142.254756 
L 138.391736 -140.405973 
L 137.008264 -140.044337 
L 135.624793 -142.456127 
L 134.241322 -123.13491 
L 132.857851 -132.349129 
L 131.47438 -109.226243 
L 130.090909 -106.138732 
L 128.707438 -242.287585 
L 127.323967 -240.639698 
L 125.940496 -227.269798 
L 124.557025 -235.415013 
L 123.173554 -226.768842 
L 121.790083 -233.916808 
L 120.406612 -228.108239 
L 119.02314 -242.433923 
L 117.639669 -235.176428 
L 116.256198 -237.239666 
L 114.872727 -234.029199 
L 113.489256 -243.100412 
L 112.105785 -228.807276 
L 110.722314 -235.01287 
L 109.338843 -237.91354 
L 107.955372 -233.399237 
L 106.571901 -227.740303 
L 105.18843 -236.083421 
L 103.804959 -233.684564 
L 102.421488 -235.188428 
L 101.038017 -243.36 
L 99.654545 -231.168321 
L 98.271074 -234.848983 
L 96.887603 -221.083932 
L 95.504132 -210.820006 
L 94.120661 -221.351241 
L 92.73719 -212.676908 
L 91.353719 -214.067385 
L 89.970248 -211.636976 
L 88.586777 -216.364808 
L 87.203306 -214.524571 
L 85.819835 -209.057674 
L 84.436364 -207.935851 
L 83.052893 -207.886492 
L 81.669421 -204.990562 
L 80.28595 -209.89582 
L 78.902479 -203.50388 
L 77.519008 -205.195924 
L 76.135537 -211.251538 
L 74.752066 -193.739586 
L 73.368595 -212.422754 
L 71.985124 -203.333672 
L 70.601653 -207.267685 
L 69.218182 -209.733222 
L 67.834711 -211.844171 
L 66.45124 -214.133533 
L 65.067769 -213.222391 
L 63.684298 -213.689213 
L 62.300826 -203.530947 
L 60.917355 -210.352008 
z
" style="stroke: #395d9c; stroke-opacity: 0.2"/>
    </defs>
    <g clip-path="url(#p0b2bf69a1b)">
     <use xlink:href="#m2907672311" x="0" y="288" style="fill: #395d9c; fill-opacity: 0.2; stroke: #395d9c; stroke-opacity: 0.2"/>
    </g>
   </g>
   <g id="PolyCollection_3">
    <defs>
     <path id="m2cf8c2af54" d="M 60.917355 -158.268093 
L 60.917355 -101.557957 
L 62.300826 -101.27183 
L 63.684298 -97.157722 
L 65.067769 -100.014052 
L 66.45124 -105.672053 
L 67.834711 -105.114454 
L 69.218182 -104.045267 
L 70.601653 -105.177004 
L 71.985124 -104.712119 
L 73.368595 -104.301575 
L 74.752066 -109.695076 
L 76.135537 -119.244738 
L 77.519008 -120.10262 
L 78.902479 -114.816234 
L 80.28595 -119.077827 
L 81.669421 -125.659638 
L 83.052893 -121.678977 
L 84.436364 -126.561433 
L 85.819835 -126.384745 
L 87.203306 -129.191702 
L 88.586777 -135.345896 
L 89.970248 -134.877672 
L 91.353719 -130.318677 
L 92.73719 -128.931233 
L 94.120661 -129.641218 
L 95.504132 -129.276442 
L 96.887603 -136.316057 
L 98.271074 -140.192372 
L 99.654545 -145.540573 
L 101.038017 -150.444477 
L 102.421488 -148.902844 
L 103.804959 -152.684593 
L 105.18843 -155.54562 
L 106.571901 -154.934696 
L 107.955372 -158.554341 
L 109.338843 -164.474365 
L 110.722314 -163.840496 
L 112.105785 -173.323649 
L 113.489256 -169.802723 
L 114.872727 -172.348353 
L 116.256198 -179.564868 
L 117.639669 -167.334163 
L 119.02314 -172.763151 
L 120.406612 -174.119833 
L 121.790083 -185.735507 
L 123.173554 -183.036955 
L 124.557025 -185.249382 
L 125.940496 -187.680663 
L 127.323967 -193.300103 
L 128.707438 -195.480459 
L 130.090909 -61.13643 
L 131.47438 -72.368653 
L 132.857851 -71.362197 
L 134.241322 -83.571893 
L 135.624793 -82.51871 
L 137.008264 -74.639852 
L 138.391736 -76.154287 
L 139.775207 -74.004173 
L 141.158678 -78.824421 
L 142.542149 -68.602543 
L 143.92562 -69.948895 
L 145.309091 -61.46628 
L 146.692562 -67.898393 
L 148.076033 -70.876418 
L 149.459504 -79.102457 
L 150.842975 -69.085282 
L 152.226446 -69.867793 
L 153.609917 -73.989685 
L 154.993388 -72.602403 
L 156.37686 -83.897895 
L 157.760331 -78.177363 
L 159.143802 -72.465718 
L 160.527273 -75.683017 
L 161.910744 -78.624496 
L 163.294215 -89.127628 
L 164.677686 -87.284848 
L 166.061157 -83.919396 
L 167.444628 -79.403116 
L 168.828099 -82.095392 
L 170.21157 -84.4788 
L 171.595041 -82.798704 
L 172.978512 -85.533006 
L 174.361983 -86.173633 
L 175.745455 -85.101311 
L 177.128926 -82.647202 
L 178.512397 -79.466416 
L 179.895868 -80.46922 
L 181.279339 -79.883134 
L 182.66281 -81.298111 
L 184.046281 -81.366096 
L 185.429752 -69.403386 
L 186.813223 -75.233065 
L 188.196694 -76.062153 
L 189.580165 -75.543982 
L 190.963636 -69.325982 
L 192.347107 -68.88118 
L 193.730579 -66.871552 
L 195.11405 -68.868825 
L 196.497521 -65.977888 
L 197.880992 -70.739986 
L 199.264463 -67.91585 
L 199.264463 -129.235152 
L 199.264463 -129.235152 
L 197.880992 -128.651073 
L 196.497521 -123.97785 
L 195.11405 -119.326808 
L 193.730579 -125.263162 
L 192.347107 -126.756267 
L 190.963636 -128.320226 
L 189.580165 -128.315985 
L 188.196694 -135.126631 
L 186.813223 -130.166617 
L 185.429752 -123.519205 
L 184.046281 -132.295596 
L 182.66281 -136.87813 
L 181.279339 -130.371249 
L 179.895868 -133.858366 
L 178.512397 -130.226765 
L 177.128926 -136.621129 
L 175.745455 -138.847271 
L 174.361983 -137.676657 
L 172.978512 -140.844458 
L 171.595041 -134.976025 
L 170.21157 -139.247745 
L 168.828099 -134.047983 
L 167.444628 -134.086383 
L 166.061157 -134.754135 
L 164.677686 -137.06276 
L 163.294215 -140.402207 
L 161.910744 -133.685403 
L 160.527273 -127.840538 
L 159.143802 -125.19628 
L 157.760331 -131.210189 
L 156.37686 -133.975158 
L 154.993388 -122.404576 
L 153.609917 -122.989245 
L 152.226446 -119.163454 
L 150.842975 -113.843791 
L 149.459504 -127.118419 
L 148.076033 -116.81911 
L 146.692562 -112.321827 
L 145.309091 -112.372965 
L 143.92562 -113.20304 
L 142.542149 -115.292633 
L 141.158678 -125.497929 
L 139.775207 -121.209707 
L 138.391736 -122.267479 
L 137.008264 -121.472958 
L 135.624793 -126.76976 
L 134.241322 -128.685915 
L 132.857851 -119.055817 
L 131.47438 -109.65081 
L 130.090909 -95.115008 
L 128.707438 -225.909005 
L 127.323967 -230.418334 
L 125.940496 -226.522626 
L 124.557025 -222.050844 
L 123.173554 -218.814028 
L 121.790083 -223.055646 
L 120.406612 -220.334972 
L 119.02314 -217.587241 
L 117.639669 -212.085233 
L 116.256198 -225.553881 
L 114.872727 -220.091784 
L 113.489256 -216.162812 
L 112.105785 -223.352049 
L 110.722314 -214.217017 
L 109.338843 -216.821505 
L 107.955372 -206.501015 
L 106.571901 -208.542106 
L 105.18843 -208.035351 
L 103.804959 -203.151931 
L 102.421488 -199.935901 
L 101.038017 -203.330537 
L 99.654545 -197.850967 
L 98.271074 -193.4229 
L 96.887603 -194.514958 
L 95.504132 -185.671761 
L 94.120661 -184.510939 
L 92.73719 -184.930967 
L 91.353719 -184.374523 
L 89.970248 -192.416178 
L 88.586777 -188.794462 
L 87.203306 -181.722624 
L 85.819835 -180.906884 
L 84.436364 -187.481087 
L 83.052893 -184.413375 
L 81.669421 -183.833555 
L 80.28595 -177.69571 
L 78.902479 -172.464565 
L 77.519008 -177.929749 
L 76.135537 -180.784305 
L 74.752066 -168.886663 
L 73.368595 -166.09594 
L 71.985124 -162.829516 
L 70.601653 -165.682127 
L 69.218182 -165.583088 
L 67.834711 -166.353774 
L 66.45124 -165.278498 
L 65.067769 -162.20446 
L 63.684298 -157.143059 
L 62.300826 -164.324905 
L 60.917355 -158.268093 
z
" style="stroke: #3497a9; stroke-opacity: 0.2"/>
    </defs>
    <g clip-path="url(#p0b2bf69a1b)">
     <use xlink:href="#m2cf8c2af54" x="0" y="288" style="fill: #3497a9; fill-opacity: 0.2; stroke: #3497a9; stroke-opacity: 0.2"/>
    </g>
   </g>
   <g id="PolyCollection_4">
    <defs>
     <path id="m5dea983330" d="M 60.917355 -179.392692 
L 60.917355 -153.413949 
L 62.300826 -155.351479 
L 63.684298 -151.641337 
L 65.067769 -154.136805 
L 66.45124 -153.693514 
L 67.834711 -159.028205 
L 69.218182 -157.531514 
L 70.601653 -152.56158 
L 71.985124 -156.21359 
L 73.368595 -157.701636 
L 74.752066 -156.556873 
L 76.135537 -156.229057 
L 77.519008 -159.008207 
L 78.902479 -151.047278 
L 80.28595 -160.181284 
L 81.669421 -156.073282 
L 83.052893 -161.315891 
L 84.436364 -158.649721 
L 85.819835 -159.840597 
L 87.203306 -162.476333 
L 88.586777 -159.669565 
L 89.970248 -164.640805 
L 91.353719 -169.897686 
L 92.73719 -171.126884 
L 94.120661 -166.666478 
L 95.504132 -168.253616 
L 96.887603 -164.894125 
L 98.271074 -173.096661 
L 99.654545 -172.607821 
L 101.038017 -172.995908 
L 102.421488 -173.593463 
L 103.804959 -171.414359 
L 105.18843 -171.855452 
L 106.571901 -171.19383 
L 107.955372 -174.414844 
L 109.338843 -171.705615 
L 110.722314 -169.11827 
L 112.105785 -173.88836 
L 113.489256 -173.060587 
L 114.872727 -173.27094 
L 116.256198 -179.148921 
L 117.639669 -181.777361 
L 119.02314 -182.794684 
L 120.406612 -185.72566 
L 121.790083 -182.555398 
L 123.173554 -180.205787 
L 124.557025 -185.952231 
L 125.940496 -184.042446 
L 127.323967 -189.124145 
L 128.707438 -199.155314 
L 130.090909 -84.721513 
L 131.47438 -87.056371 
L 132.857851 -97.088949 
L 134.241322 -103.682019 
L 135.624793 -98.640255 
L 137.008264 -91.720344 
L 138.391736 -99.314557 
L 139.775207 -98.71613 
L 141.158678 -102.019951 
L 142.542149 -106.344947 
L 143.92562 -109.501817 
L 145.309091 -110.103441 
L 146.692562 -113.007688 
L 148.076033 -116.156392 
L 149.459504 -117.312077 
L 150.842975 -110.833116 
L 152.226446 -109.874543 
L 153.609917 -115.122411 
L 154.993388 -115.476449 
L 156.37686 -115.244901 
L 157.760331 -117.107609 
L 159.143802 -121.874525 
L 160.527273 -119.851049 
L 161.910744 -123.777266 
L 163.294215 -125.616752 
L 164.677686 -123.651876 
L 166.061157 -123.973796 
L 167.444628 -124.407816 
L 168.828099 -126.130717 
L 170.21157 -133.100505 
L 171.595041 -130.243932 
L 172.978512 -131.211751 
L 174.361983 -136.193351 
L 175.745455 -135.034656 
L 177.128926 -136.738375 
L 178.512397 -136.962338 
L 179.895868 -141.350296 
L 181.279339 -138.329774 
L 182.66281 -139.179785 
L 184.046281 -140.306535 
L 185.429752 -139.167432 
L 186.813223 -140.783987 
L 188.196694 -145.291208 
L 189.580165 -140.681548 
L 190.963636 -141.757852 
L 192.347107 -143.849484 
L 193.730579 -145.748358 
L 195.11405 -143.71889 
L 196.497521 -143.494501 
L 197.880992 -143.340105 
L 199.264463 -148.347316 
L 199.264463 -171.957999 
L 199.264463 -171.957999 
L 197.880992 -168.459839 
L 196.497521 -167.258421 
L 195.11405 -168.485683 
L 193.730579 -170.073438 
L 192.347107 -167.437301 
L 190.963636 -165.9809 
L 189.580165 -165.936508 
L 188.196694 -169.481099 
L 186.813223 -164.44123 
L 185.429752 -164.693671 
L 184.046281 -163.670766 
L 182.66281 -163.869314 
L 181.279339 -162.460951 
L 179.895868 -165.078664 
L 178.512397 -162.980669 
L 177.128926 -161.938006 
L 175.745455 -159.142297 
L 174.361983 -159.68426 
L 172.978512 -156.470705 
L 171.595041 -154.766673 
L 170.21157 -156.103885 
L 168.828099 -151.174887 
L 167.444628 -148.389754 
L 166.061157 -146.98413 
L 164.677686 -147.099226 
L 163.294215 -147.97764 
L 161.910744 -147.980766 
L 160.527273 -144.84974 
L 159.143802 -144.42903 
L 157.760331 -140.150229 
L 156.37686 -139.005102 
L 154.993388 -138.480149 
L 153.609917 -136.671498 
L 152.226446 -131.367452 
L 150.842975 -132.628139 
L 149.459504 -138.860076 
L 148.076033 -136.853617 
L 146.692562 -133.957067 
L 145.309091 -129.706766 
L 143.92562 -129.590875 
L 142.542149 -127.393555 
L 141.158678 -123.195589 
L 139.775207 -120.10944 
L 138.391736 -120.171855 
L 137.008264 -113.467294 
L 135.624793 -119.350519 
L 134.241322 -122.394393 
L 132.857851 -114.946069 
L 131.47438 -103.956986 
L 130.090909 -100.265844 
L 128.707438 -214.52838 
L 127.323967 -205.548796 
L 125.940496 -202.739252 
L 124.557025 -203.050736 
L 123.173554 -198.06294 
L 121.790083 -199.428306 
L 120.406612 -200.990854 
L 119.02314 -199.519803 
L 117.639669 -199.426876 
L 116.256198 -197.167061 
L 114.872727 -192.19448 
L 113.489256 -192.219167 
L 112.105785 -193.631813 
L 110.722314 -189.945564 
L 109.338843 -191.989372 
L 107.955372 -194.251432 
L 106.571901 -191.864292 
L 105.18843 -191.721041 
L 103.804959 -193.137236 
L 102.421488 -195.128872 
L 101.038017 -195.155588 
L 99.654545 -194.806065 
L 98.271074 -194.465488 
L 96.887603 -187.53457 
L 95.504132 -190.978704 
L 94.120661 -189.72005 
L 92.73719 -194.045081 
L 91.353719 -192.639167 
L 89.970248 -188.499322 
L 88.586777 -181.721234 
L 87.203306 -185.126171 
L 85.819835 -182.697517 
L 84.436364 -181.491062 
L 83.052893 -183.592728 
L 81.669421 -180.670454 
L 80.28595 -183.376392 
L 78.902479 -175.348559 
L 77.519008 -182.260478 
L 76.135537 -180.126331 
L 74.752066 -180.422563 
L 73.368595 -181.04511 
L 71.985124 -180.46642 
L 70.601653 -177.153931 
L 69.218182 -182.302785 
L 67.834711 -184.162907 
L 66.45124 -177.028001 
L 65.067769 -179.877168 
L 63.684298 -179.100845 
L 62.300826 -180.982004 
L 60.917355 -179.392692 
z
" style="stroke: #60ceac; stroke-opacity: 0.2"/>
    </defs>
    <g clip-path="url(#p0b2bf69a1b)">
     <use xlink:href="#m5dea983330" x="0" y="288" style="fill: #60ceac; fill-opacity: 0.2; stroke: #60ceac; stroke-opacity: 0.2"/>
    </g>
   </g>
   <g id="line2d_8">
    <path d="M 60.917355 109.656664 
L 62.300826 109.425407 
L 63.684298 110.095144 
L 65.067769 115.284004 
L 66.45124 111.15858 
L 67.834711 110.96451 
L 69.218182 116.955888 
L 70.601653 118.226986 
L 71.985124 114.568512 
L 73.368595 115.596672 
L 74.752066 114.743839 
L 76.135537 116.533509 
L 77.519008 114.723699 
L 78.902479 112.984441 
L 80.28595 111.867456 
L 81.669421 113.853148 
L 83.052893 116.093601 
L 84.436364 111.310342 
L 85.819835 115.175031 
L 87.203306 107.14781 
L 88.586777 108.951774 
L 89.970248 110.493323 
L 91.353719 112.885661 
L 92.73719 107.222495 
L 94.120661 113.967193 
L 95.504132 112.442342 
L 96.887603 112.330171 
L 98.271074 112.478212 
L 99.654545 108.105103 
L 101.038017 109.694064 
L 102.421488 112.169901 
L 103.804959 110.582277 
L 105.18843 111.522264 
L 106.571901 113.50663 
L 107.955372 114.923546 
L 109.338843 115.131628 
L 110.722314 114.826687 
L 112.105785 114.470319 
L 113.489256 119.489821 
L 114.872727 112.04654 
L 116.256198 117.658665 
L 117.639669 115.345992 
L 119.02314 114.451039 
L 120.406612 116.82201 
L 121.790083 112.211448 
L 123.173554 117.200107 
L 124.557025 118.288116 
L 125.940496 113.111076 
L 127.323967 110.242987 
L 128.707438 109.27453 
L 130.090909 198.66602 
L 131.47438 178.941572 
L 132.857851 186.408666 
L 134.241322 178.739105 
L 135.624793 177.390672 
L 137.008264 175.875029 
L 138.391736 174.906919 
L 139.775207 181.409408 
L 141.158678 176.893597 
L 142.542149 172.036505 
L 143.92562 160.589834 
L 145.309091 165.27539 
L 146.692562 162.392398 
L 148.076033 159.508714 
L 149.459504 158.577594 
L 150.842975 163.072647 
L 152.226446 161.886358 
L 153.609917 159.033566 
L 154.993388 155.141857 
L 156.37686 154.35618 
L 157.760331 145.98171 
L 159.143802 152.099715 
L 160.527273 148.914263 
L 161.910744 145.145024 
L 163.294215 144.177978 
L 164.677686 153.396572 
L 166.061157 146.681913 
L 167.444628 142.392524 
L 168.828099 146.036422 
L 170.21157 141.425347 
L 171.595041 140.31049 
L 172.978512 144.122307 
L 174.361983 139.131113 
L 175.745455 146.831369 
L 177.128926 143.955674 
L 178.512397 142.996536 
L 179.895868 140.327024 
L 181.279339 139.948735 
L 182.66281 140.613612 
L 184.046281 136.232589 
L 185.429752 133.170028 
L 186.813223 134.681336 
L 188.196694 137.402251 
L 189.580165 139.501648 
L 190.963636 139.073285 
L 192.347107 142.735827 
L 193.730579 139.768455 
L 195.11405 140.826801 
L 196.497521 138.890958 
L 197.880992 136.334153 
L 199.264463 137.646339 
" clip-path="url(#p0b2bf69a1b)" style="fill: none; stroke: #382a54; stroke-width: 1.5; stroke-linecap: round"/>
   </g>
   <g id="line2d_9">
    <path d="M 60.917355 103.446854 
L 62.300826 110.745893 
L 63.684298 97.443762 
L 65.067769 99.98695 
L 66.45124 99.083778 
L 67.834711 99.712014 
L 69.218182 103.423893 
L 70.601653 106.279395 
L 71.985124 111.392272 
L 73.368595 98.863507 
L 74.752066 117.048727 
L 76.135537 100.921709 
L 77.519008 106.408227 
L 78.902479 108.629988 
L 80.28595 104.207212 
L 81.669421 111.531813 
L 83.052893 107.168367 
L 84.436364 107.52452 
L 85.819835 106.499229 
L 87.203306 102.333716 
L 88.586777 99.983257 
L 89.970248 100.973671 
L 91.353719 99.884098 
L 92.73719 101.907306 
L 94.120661 95.763263 
L 95.504132 103.546583 
L 96.887603 93.445164 
L 98.271074 81.291743 
L 99.654545 83.924194 
L 101.038017 72.282137 
L 102.421488 79.679256 
L 103.804959 78.559225 
L 105.18843 80.836007 
L 106.571901 84.752517 
L 107.955372 82.387287 
L 109.338843 73.704944 
L 110.722314 78.7456 
L 112.105785 78.462124 
L 113.489256 67.230672 
L 114.872727 79.084983 
L 116.256198 74.992616 
L 117.639669 74.74847 
L 119.02314 68.570736 
L 120.406612 80.88775 
L 121.790083 73.901463 
L 123.173554 83.365037 
L 124.557025 71.141883 
L 125.940496 81.865808 
L 127.323967 68.895324 
L 128.707438 67.531034 
L 130.090909 201.541811 
L 131.47438 204.251593 
L 132.857851 187.120712 
L 134.241322 195.801597 
L 135.624793 176.006164 
L 137.008264 176.649117 
L 138.391736 180.786469 
L 139.775207 181.314544 
L 141.158678 174.524744 
L 142.542149 166.433448 
L 143.92562 159.65619 
L 145.309091 161.707446 
L 146.692562 162.488158 
L 148.076033 162.004518 
L 149.459504 160.518576 
L 150.842975 147.16442 
L 152.226446 142.414402 
L 153.609917 138.047683 
L 154.993388 142.407223 
L 156.37686 147.384664 
L 157.760331 153.013499 
L 159.143802 147.279444 
L 160.527273 133.789733 
L 161.910744 140.494602 
L 163.294215 130.158578 
L 164.677686 128.79437 
L 166.061157 132.562052 
L 167.444628 135.96183 
L 168.828099 132.3427 
L 170.21157 118.891119 
L 171.595041 127.176405 
L 172.978512 115.956961 
L 174.361983 120.50709 
L 175.745455 139.158169 
L 177.128926 131.85269 
L 178.512397 123.46886 
L 179.895868 132.867566 
L 181.279339 126.214115 
L 182.66281 123.470141 
L 184.046281 124.42791 
L 185.429752 121.09488 
L 186.813223 117.494176 
L 188.196694 114.178697 
L 189.580165 129.562442 
L 190.963636 119.434183 
L 192.347107 106.345321 
L 193.730579 108.715201 
L 195.11405 113.205711 
L 196.497521 99.704818 
L 197.880992 95.817964 
L 199.264463 90.352815 
" clip-path="url(#p0b2bf69a1b)" style="fill: none; stroke: #395d9c; stroke-width: 1.5; stroke-linecap: round"/>
   </g>
   <g id="line2d_10">
    <path d="M 60.917355 158.837437 
L 62.300826 154.8973 
L 63.684298 160.267319 
L 65.067769 157.855801 
L 66.45124 150.878499 
L 67.834711 152.808538 
L 69.218182 151.799126 
L 70.601653 152.475001 
L 71.985124 155.311955 
L 73.368595 151.848505 
L 74.752066 148.483394 
L 76.135537 138.934195 
L 77.519008 139.402375 
L 78.902479 143.338641 
L 80.28595 137.884501 
L 81.669421 133.604998 
L 83.052893 134.700509 
L 84.436364 130.66702 
L 85.819835 134.148482 
L 87.203306 132.039239 
L 88.586777 125.374178 
L 89.970248 124.76164 
L 91.353719 130.306788 
L 92.73719 130.75671 
L 94.120661 129.621794 
L 95.504132 131.191924 
L 96.887603 122.050688 
L 98.271074 119.861821 
L 99.654545 115.225403 
L 101.038017 110.988056 
L 102.421488 112.794527 
L 103.804959 109.463764 
L 105.18843 105.65195 
L 106.571901 105.863805 
L 107.955372 105.617279 
L 109.338843 97.577482 
L 110.722314 98.575145 
L 112.105785 90.444563 
L 113.489256 94.451517 
L 114.872727 90.817912 
L 116.256198 85.344974 
L 117.639669 96.468286 
L 119.02314 92.621893 
L 120.406612 89.639684 
L 121.790083 83.805812 
L 123.173554 86.762665 
L 124.557025 85.566986 
L 125.940496 80.86399 
L 127.323967 76.228317 
L 128.707438 77.977307 
L 130.090909 209.824784 
L 131.47438 195.990513 
L 132.857851 193.243334 
L 134.241322 181.770528 
L 135.624793 183.086668 
L 137.008264 189.734222 
L 138.391736 189.400959 
L 139.775207 190.196861 
L 141.158678 184.567845 
L 142.542149 195.685594 
L 143.92562 195.95996 
L 145.309091 200.85463 
L 146.692562 198.931472 
L 148.076033 193.912293 
L 149.459504 185.126107 
L 150.842975 194.61558 
L 152.226446 193.714796 
L 153.609917 188.109326 
L 154.993388 189.647254 
L 156.37686 180.243122 
L 157.760331 182.366183 
L 159.143802 189.129456 
L 160.527273 186.271166 
L 161.910744 182.262198 
L 163.294215 172.96142 
L 164.677686 175.901804 
L 166.061157 179.895964 
L 167.444628 182.151087 
L 168.828099 180.481406 
L 170.21157 176.74942 
L 171.595041 179.514794 
L 172.978512 174.75443 
L 174.361983 174.975755 
L 175.745455 176.337746 
L 177.128926 178.37238 
L 178.512397 184.400929 
L 179.895868 181.027443 
L 181.279339 183.757108 
L 182.66281 178.838814 
L 184.046281 181.52826 
L 185.429752 192.244218 
L 186.813223 185.730172 
L 188.196694 182.825167 
L 189.580165 185.637936 
L 190.963636 189.975628 
L 192.347107 190.692354 
L 193.730579 191.957515 
L 195.11405 193.756362 
L 196.497521 193.112043 
L 197.880992 188.503675 
L 199.264463 189.384069 
" clip-path="url(#p0b2bf69a1b)" style="fill: none; stroke: #3497a9; stroke-width: 1.5; stroke-linecap: round"/>
   </g>
   <g id="line2d_11">
    <path d="M 60.917355 121.367675 
L 62.300826 118.936995 
L 63.684298 122.909198 
L 65.067769 120.841144 
L 66.45124 122.969707 
L 67.834711 116.42682 
L 69.218182 118.011623 
L 70.601653 122.806674 
L 71.985124 119.364953 
L 73.368595 118.576419 
L 74.752066 118.884309 
L 76.135537 119.214503 
L 77.519008 117.55826 
L 78.902479 124.677012 
L 80.28595 115.870629 
L 81.669421 120.163973 
L 83.052893 115.214203 
L 84.436364 118.021514 
L 85.819835 116.309214 
L 87.203306 114.064676 
L 88.586777 116.940501 
L 89.970248 111.387819 
L 91.353719 107.059408 
L 92.73719 105.63733 
L 94.120661 109.452953 
L 95.504132 108.643314 
L 96.887603 111.183106 
L 98.271074 104.225534 
L 99.654545 104.447528 
L 101.038017 103.473466 
L 102.421488 103.59589 
L 103.804959 105.847554 
L 105.18843 105.715799 
L 106.571901 106.466737 
L 107.955372 103.853195 
L 109.338843 106.323442 
L 110.722314 108.842687 
L 112.105785 104.26011 
L 113.489256 105.228521 
L 114.872727 105.155343 
L 116.256198 99.940098 
L 117.639669 96.963921 
L 119.02314 97.196201 
L 120.406612 94.488581 
L 121.790083 97.264262 
L 123.173554 98.465527 
L 124.557025 93.590896 
L 125.940496 94.55726 
L 127.323967 90.669309 
L 128.707438 80.901246 
L 130.090909 195.399241 
L 131.47438 192.152021 
L 132.857851 182.258137 
L 134.241322 174.58901 
L 135.624793 178.844847 
L 137.008264 185.343888 
L 138.391736 178.309419 
L 139.775207 178.767031 
L 141.158678 175.321367 
L 142.542149 171.2924 
L 143.92562 168.426348 
L 145.309091 167.989662 
L 146.692562 164.655159 
L 148.076033 162.3775 
L 149.459504 160.229289 
L 150.842975 166.48689 
L 152.226446 167.362387 
L 153.609917 162.34687 
L 154.993388 161.345617 
L 156.37686 161.366686 
L 157.760331 159.183184 
L 159.143802 155.235728 
L 160.527273 155.808529 
L 161.910744 151.996101 
L 163.294215 151.684628 
L 164.677686 152.349807 
L 166.061157 152.939546 
L 167.444628 151.142123 
L 168.828099 149.501787 
L 170.21157 143.342394 
L 171.595041 144.834183 
L 172.978512 144.17088 
L 174.361983 140.72523 
L 175.745455 140.669588 
L 177.128926 138.517622 
L 178.512397 138.027078 
L 179.895868 134.996416 
L 181.279339 137.587105 
L 182.66281 136.404526 
L 184.046281 135.451969 
L 185.429752 136.182451 
L 186.813223 135.231953 
L 188.196694 130.51014 
L 189.580165 134.513248 
L 190.963636 134.468381 
L 192.347107 132.337415 
L 193.730579 130.337345 
L 195.11405 131.996813 
L 196.497521 132.09831 
L 197.880992 132.247572 
L 199.264463 127.949716 
" clip-path="url(#p0b2bf69a1b)" style="fill: none; stroke: #60ceac; stroke-width: 1.5; stroke-linecap: round"/>
   </g>
   <g id="line2d_12"/>
   <g id="line2d_13"/>
   <g id="line2d_14"/>
   <g id="line2d_15"/>
   <g id="patch_3">
    <path d="M 54 256.32 
L 54 34.56 
" style="fill: none; stroke: #262626; stroke-width: 1.25; stroke-linejoin: miter; stroke-linecap: square"/>
   </g>
   <g id="patch_4">
    <path d="M 206.181818 256.32 
L 206.181818 34.56 
" style="fill: none; stroke: #262626; stroke-width: 1.25; stroke-linejoin: miter; stroke-linecap: square"/>
   </g>
   <g id="patch_5">
    <path d="M 54 256.32 
L 206.181818 256.32 
" style="fill: none; stroke: #262626; stroke-width: 1.25; stroke-linejoin: miter; stroke-linecap: square"/>
   </g>
   <g id="patch_6">
    <path d="M 54 34.56 
L 206.181818 34.56 
" style="fill: none; stroke: #262626; stroke-width: 1.25; stroke-linejoin: miter; stroke-linecap: square"/>
   </g>
   <g id="legend_1">
    <g id="patch_7">
     <path d="M 61.7 48.86 
L 66.1 48.86 
Q 68.3 48.86 68.3 46.66 
L 68.3 42.26 
Q 68.3 40.06 66.1 40.06 
L 61.7 40.06 
Q 59.5 40.06 59.5 42.26 
L 59.5 46.66 
Q 59.5 48.86 61.7 48.86 
z
" style="fill: #ffffff; opacity: 0.8; stroke: #cccccc; stroke-linejoin: miter"/>
    </g>
   </g>
  </g>
  <g id="axes_2">
   <g id="patch_8">
    <path d="M 236.618182 256.32 
L 388.8 256.32 
L 388.8 34.56 
L 236.618182 34.56 
z
" style="fill: #ffffff"/>
   </g>
   <g id="matplotlib.axis_3">
    <g id="xtick_4">
     <g id="line2d_16">
      <g>
       <use xlink:href="#m0b895cdde0" x="243.535537" y="256.32" style="fill: #262626; stroke: #262626; stroke-width: 1.25"/>
      </g>
     </g>
     <g id="text_10">
      <text style="fill: #262626; font: 11px 'sans-serif'; text-anchor: middle" x="243.535537" y="273.693594" transform="rotate(-0, 243.535537, 273.693594)">−10</text>
     </g>
    </g>
    <g id="xtick_5">
     <g id="line2d_17">
      <g>
       <use xlink:href="#m0b895cdde0" x="312.709091" y="256.32" style="fill: #262626; stroke: #262626; stroke-width: 1.25"/>
      </g>
     </g>
     <g id="text_11">
      <text style="fill: #262626; font: 11px 'sans-serif'; text-anchor: middle" x="312.709091" y="273.693594" transform="rotate(-0, 312.709091, 273.693594)">0</text>
     </g>
    </g>
    <g id="xtick_6">
     <g id="line2d_18">
      <g>
       <use xlink:href="#m0b895cdde0" x="381.882645" y="256.32" style="fill: #262626; stroke: #262626; stroke-width: 1.25"/>
      </g>
     </g>
     <g id="text_12">
      <text style="fill: #262626; font: 11px 'sans-serif'; text-anchor: middle" x="381.882645" y="273.693594" transform="rotate(-0, 381.882645, 273.693594)">10</text>
     </g>
    </g>
    <g id="text_13">
     <text style="fill: #262626; font: 12px 'sans-serif'; text-anchor: middle" x="312.709091" y="288.615469" transform="rotate(-0, 312.709091, 288.615469)">Time (s)</text>
    </g>
   </g>
   <g id="matplotlib.axis_4">
    <g id="ytick_5">
     <g id="line2d_19">
      <g>
       <use xlink:href="#m12631a89f6" x="236.618182" y="214.837369" style="fill: #262626; stroke: #262626; stroke-width: 1.25"/>
      </g>
     </g>
    </g>
    <g id="ytick_6">
     <g id="line2d_20">
      <g>
       <use xlink:href="#m12631a89f6" x="236.618182" y="167.842626" style="fill: #262626; stroke: #262626; stroke-width: 1.25"/>
      </g>
     </g>
    </g>
    <g id="ytick_7">
     <g id="line2d_21">
      <g>
       <use xlink:href="#m12631a89f6" x="236.618182" y="120.847883" style="fill: #262626; stroke: #262626; stroke-width: 1.25"/>
      </g>
     </g>
    </g>
    <g id="ytick_8">
     <g id="line2d_22">
      <g>
       <use xlink:href="#m12631a89f6" x="236.618182" y="73.853139" style="fill: #262626; stroke: #262626; stroke-width: 1.25"/>
      </g>
     </g>
    </g>
   </g>
   <g id="PolyCollection_5">
    <defs>
     <path id="md5d238eab8" d="M 243.535537 -173.343728 
L 243.535537 -138.788822 
L 244.919008 -131.112137 
L 246.302479 -125.84656 
L 247.68595 -128.494831 
L 249.069421 -132.20799 
L 250.452893 -127.579683 
L 251.836364 -131.991572 
L 253.219835 -136.886895 
L 254.603306 -132.214018 
L 255.986777 -137.246291 
L 257.370248 -137.076253 
L 258.753719 -138.507379 
L 260.13719 -138.581656 
L 261.520661 -131.876366 
L 262.904132 -137.759414 
L 264.287603 -132.016356 
L 265.671074 -131.175928 
L 267.054545 -129.876059 
L 268.438017 -133.161913 
L 269.821488 -131.644684 
L 271.204959 -133.440248 
L 272.58843 -129.410905 
L 273.971901 -119.688035 
L 275.355372 -121.34131 
L 276.738843 -110.030292 
L 278.122314 -108.161742 
L 279.505785 -116.245957 
L 280.889256 -109.272719 
L 282.272727 -111.07737 
L 283.656198 -110.013548 
L 285.039669 -113.255803 
L 286.42314 -104.847051 
L 287.806612 -107.181691 
L 289.190083 -107.639858 
L 290.573554 -105.35791 
L 291.957025 -100.729297 
L 293.340496 -100.753606 
L 294.723967 -113.31433 
L 296.107438 -105.166036 
L 297.490909 -101.993729 
L 298.87438 -102.358188 
L 300.257851 -98.739893 
L 301.641322 -99.464484 
L 303.024793 -92.125187 
L 304.408264 -89.614036 
L 305.791736 -89.877683 
L 307.175207 -97.946291 
L 308.558678 -95.109433 
L 309.942149 -87.139899 
L 311.32562 -78.345558 
L 312.709091 -169.387105 
L 314.092562 -165.03621 
L 315.476033 -163.715407 
L 316.859504 -161.709045 
L 318.242975 -162.711449 
L 319.626446 -161.412291 
L 321.009917 -163.622548 
L 322.393388 -168.983883 
L 323.77686 -169.190672 
L 325.160331 -166.509914 
L 326.543802 -169.36911 
L 327.927273 -165.580178 
L 329.310744 -166.458679 
L 330.694215 -167.373643 
L 332.077686 -164.733643 
L 333.461157 -168.578436 
L 334.844628 -166.805702 
L 336.228099 -166.059327 
L 337.61157 -159.495793 
L 338.995041 -160.277844 
L 340.378512 -159.989793 
L 341.761983 -158.730972 
L 343.145455 -160.607429 
L 344.528926 -161.562435 
L 345.912397 -159.049446 
L 347.295868 -154.616398 
L 348.679339 -157.166468 
L 350.06281 -153.66778 
L 351.446281 -155.819205 
L 352.829752 -155.940461 
L 354.213223 -155.183469 
L 355.596694 -161.411941 
L 356.980165 -156.63904 
L 358.363636 -152.533915 
L 359.747107 -156.057075 
L 361.130579 -154.5712 
L 362.51405 -157.143469 
L 363.897521 -154.61546 
L 365.280992 -150.324207 
L 366.664463 -156.977092 
L 368.047934 -154.146228 
L 369.431405 -153.312696 
L 370.814876 -143.667749 
L 372.198347 -152.079164 
L 373.581818 -150.928683 
L 374.965289 -152.699043 
L 376.34876 -150.888393 
L 377.732231 -146.432865 
L 379.115702 -149.052542 
L 380.499174 -152.474116 
L 381.882645 -144.705133 
L 381.882645 -179.976312 
L 381.882645 -179.976312 
L 380.499174 -183.635201 
L 379.115702 -181.233422 
L 377.732231 -179.315036 
L 376.34876 -181.270948 
L 374.965289 -180.795936 
L 373.581818 -183.84636 
L 372.198347 -184.975419 
L 370.814876 -174.545028 
L 369.431405 -183.501848 
L 368.047934 -182.629524 
L 366.664463 -185.122597 
L 365.280992 -176.06142 
L 363.897521 -184.764657 
L 362.51405 -183.321445 
L 361.130579 -182.008603 
L 359.747107 -181.025841 
L 358.363636 -180.003052 
L 356.980165 -182.693217 
L 355.596694 -188.395083 
L 354.213223 -180.748087 
L 352.829752 -183.499165 
L 351.446281 -181.552071 
L 350.06281 -179.910089 
L 348.679339 -183.523074 
L 347.295868 -181.088293 
L 345.912397 -184.596367 
L 344.528926 -186.884774 
L 343.145455 -186.107811 
L 341.761983 -186.092696 
L 340.378512 -188.118472 
L 338.995041 -184.753882 
L 337.61157 -182.017908 
L 336.228099 -188.624971 
L 334.844628 -190.84357 
L 333.461157 -190.790055 
L 332.077686 -188.871916 
L 330.694215 -192.410409 
L 329.310744 -190.010644 
L 327.927273 -190.988171 
L 326.543802 -194.74308 
L 325.160331 -191.181927 
L 323.77686 -192.102243 
L 322.393388 -194.244955 
L 321.009917 -186.040186 
L 319.626446 -179.987432 
L 318.242975 -183.868963 
L 316.859504 -181.549473 
L 315.476033 -183.090336 
L 314.092562 -185.856174 
L 312.709091 -187.750366 
L 311.32562 -99.905984 
L 309.942149 -107.317178 
L 308.558678 -114.084182 
L 307.175207 -119.058648 
L 305.791736 -111.926369 
L 304.408264 -112.179574 
L 303.024793 -111.798394 
L 301.641322 -120.956983 
L 300.257851 -122.725917 
L 298.87438 -123.583355 
L 297.490909 -126.966504 
L 296.107438 -125.17967 
L 294.723967 -135.542652 
L 293.340496 -126.668804 
L 291.957025 -125.791429 
L 290.573554 -128.300574 
L 289.190083 -134.076002 
L 287.806612 -131.402208 
L 286.42314 -130.041007 
L 285.039669 -138.123272 
L 283.656198 -132.726126 
L 282.272727 -135.348349 
L 280.889256 -139.52094 
L 279.505785 -140.617054 
L 278.122314 -133.635369 
L 276.738843 -136.680703 
L 275.355372 -148.782681 
L 273.971901 -146.079932 
L 272.58843 -160.416587 
L 271.204959 -163.481307 
L 269.821488 -162.334344 
L 268.438017 -158.127726 
L 267.054545 -158.028228 
L 265.671074 -162.098076 
L 264.287603 -162.835323 
L 262.904132 -166.999886 
L 261.520661 -166.190811 
L 260.13719 -168.579446 
L 258.753719 -170.277881 
L 257.370248 -166.241974 
L 255.986777 -168.785309 
L 254.603306 -165.483317 
L 253.219835 -169.458207 
L 251.836364 -163.403943 
L 250.452893 -163.730542 
L 249.069421 -166.601128 
L 247.68595 -161.765631 
L 246.302479 -163.291694 
L 244.919008 -166.757725 
L 243.535537 -173.343728 
z
" style="stroke: #382a54; stroke-opacity: 0.2"/>
    </defs>
    <g clip-path="url(#pf1edfcc3ed)">
     <use xlink:href="#md5d238eab8" x="0" y="288" style="fill: #382a54; fill-opacity: 0.2; stroke: #382a54; stroke-opacity: 0.2"/>
    </g>
   </g>
   <g id="PolyCollection_6">
    <defs>
     <path id="m6621257539" d="M 243.535537 -190.667867 
L 243.535537 -140.998219 
L 244.919008 -157.667535 
L 246.302479 -145.63896 
L 247.68595 -139.627029 
L 249.069421 -136.136093 
L 250.452893 -131.433502 
L 251.836364 -134.900064 
L 253.219835 -123.302519 
L 254.603306 -125.772678 
L 255.986777 -136.454898 
L 257.370248 -128.004964 
L 258.753719 -122.403913 
L 260.13719 -126.121159 
L 261.520661 -128.351873 
L 262.904132 -131.723936 
L 264.287603 -136.800377 
L 265.671074 -134.041005 
L 267.054545 -131.585582 
L 268.438017 -139.079277 
L 269.821488 -133.202384 
L 271.204959 -135.150886 
L 272.58843 -125.038895 
L 273.971901 -127.44612 
L 275.355372 -125.58518 
L 276.738843 -130.89845 
L 278.122314 -120.887706 
L 279.505785 -120.600416 
L 280.889256 -113.55729 
L 282.272727 -132.883684 
L 283.656198 -138.862502 
L 285.039669 -115.439624 
L 286.42314 -129.561024 
L 287.806612 -132.354412 
L 289.190083 -135.951869 
L 290.573554 -123.081267 
L 291.957025 -120.240247 
L 293.340496 -104.169323 
L 294.723967 -101.000163 
L 296.107438 -92.981677 
L 297.490909 -99.28288 
L 298.87438 -89.003083 
L 300.257851 -83.404504 
L 301.641322 -64.825708 
L 303.024793 -76.019634 
L 304.408264 -74.009017 
L 305.791736 -87.784966 
L 307.175207 -82.207801 
L 308.558678 -82.143964 
L 309.942149 -50.56785 
L 311.32562 -52.146853 
L 312.709091 -171.252018 
L 314.092562 -175.691872 
L 315.476033 -174.280148 
L 316.859504 -172.648345 
L 318.242975 -171.571809 
L 319.626446 -162.441772 
L 321.009917 -162.569689 
L 322.393388 -167.380607 
L 323.77686 -168.405651 
L 325.160331 -171.434623 
L 326.543802 -157.851549 
L 327.927273 -165.345301 
L 329.310744 -160.028557 
L 330.694215 -156.068515 
L 332.077686 -152.551037 
L 333.461157 -165.937681 
L 334.844628 -174.950851 
L 336.228099 -164.626231 
L 337.61157 -168.20663 
L 338.995041 -175.116058 
L 340.378512 -171.245641 
L 341.761983 -167.46579 
L 343.145455 -172.51248 
L 344.528926 -175.035592 
L 345.912397 -164.882194 
L 347.295868 -166.904603 
L 348.679339 -169.536143 
L 350.06281 -161.535064 
L 351.446281 -161.417531 
L 352.829752 -164.982872 
L 354.213223 -136.994347 
L 355.596694 -137.812273 
L 356.980165 -146.813605 
L 358.363636 -142.367631 
L 359.747107 -157.943924 
L 361.130579 -157.288652 
L 362.51405 -154.014335 
L 363.897521 -158.398929 
L 365.280992 -148.807289 
L 366.664463 -162.399808 
L 368.047934 -163.944561 
L 369.431405 -155.034218 
L 370.814876 -156.784356 
L 372.198347 -163.036057 
L 373.581818 -163.372277 
L 374.965289 -166.819731 
L 376.34876 -169.189353 
L 377.732231 -166.021006 
L 379.115702 -162.657817 
L 380.499174 -161.574105 
L 381.882645 -165.888337 
L 381.882645 -235.002675 
L 381.882645 -235.002675 
L 380.499174 -234.477501 
L 379.115702 -234.96747 
L 377.732231 -238.727 
L 376.34876 -233.441755 
L 374.965289 -238.473892 
L 373.581818 -233.483674 
L 372.198347 -233.061806 
L 370.814876 -226.485144 
L 369.431405 -233.930013 
L 368.047934 -237.137132 
L 366.664463 -233.180557 
L 365.280992 -221.767233 
L 363.897521 -234.58918 
L 362.51405 -224.917349 
L 361.130579 -232.447634 
L 359.747107 -224.766311 
L 358.363636 -215.032572 
L 356.980165 -216.781767 
L 355.596694 -211.438031 
L 354.213223 -204.523284 
L 352.829752 -220.87781 
L 351.446281 -218.828759 
L 350.06281 -223.977488 
L 348.679339 -229.970578 
L 347.295868 -217.15098 
L 345.912397 -222.100818 
L 344.528926 -226.095785 
L 343.145455 -223.412723 
L 341.761983 -216.660073 
L 340.378512 -226.768634 
L 338.995041 -219.658709 
L 337.61157 -215.783317 
L 336.228099 -212.891243 
L 334.844628 -212.798269 
L 333.461157 -203.298949 
L 332.077686 -185.595225 
L 330.694215 -194.187682 
L 329.310744 -202.601284 
L 327.927273 -210.828967 
L 326.543802 -199.23711 
L 325.160331 -209.271863 
L 323.77686 -207.019199 
L 322.393388 -210.733114 
L 321.009917 -206.757542 
L 319.626446 -204.751642 
L 318.242975 -214.068997 
L 316.859504 -208.755245 
L 315.476033 -199.921095 
L 314.092562 -198.438546 
L 312.709091 -199.181835 
L 311.32562 -99.911113 
L 309.942149 -100.5644 
L 308.558678 -140.936035 
L 307.175207 -142.493636 
L 305.791736 -146.14299 
L 304.408264 -120.608414 
L 303.024793 -132.60885 
L 301.641322 -133.237939 
L 300.257851 -149.034133 
L 298.87438 -159.228318 
L 297.490909 -164.90676 
L 296.107438 -170.152298 
L 294.723967 -166.657282 
L 293.340496 -173.113813 
L 291.957025 -189.868167 
L 290.573554 -182.416734 
L 289.190083 -202.529739 
L 287.806612 -191.93284 
L 286.42314 -189.429334 
L 285.039669 -176.793117 
L 283.656198 -209.729219 
L 282.272727 -198.716912 
L 280.889256 -188.702301 
L 279.505785 -184.363823 
L 278.122314 -200.654633 
L 276.738843 -202.029808 
L 275.355372 -193.05683 
L 273.971901 -201.556697 
L 272.58843 -190.795858 
L 271.204959 -201.318121 
L 269.821488 -198.517391 
L 268.438017 -214.076539 
L 267.054545 -192.495047 
L 265.671074 -198.565658 
L 264.287603 -204.62869 
L 262.904132 -204.591577 
L 261.520661 -200.29911 
L 260.13719 -195.232091 
L 258.753719 -193.013316 
L 257.370248 -191.823661 
L 255.986777 -197.296112 
L 254.603306 -196.632105 
L 253.219835 -185.957702 
L 251.836364 -193.929693 
L 250.452893 -194.062618 
L 249.069421 -190.067217 
L 247.68595 -195.802728 
L 246.302479 -204.182708 
L 244.919008 -213.313764 
L 243.535537 -190.667867 
z
" style="stroke: #395d9c; stroke-opacity: 0.2"/>
    </defs>
    <g clip-path="url(#pf1edfcc3ed)">
     <use xlink:href="#m6621257539" x="0" y="288" style="fill: #395d9c; fill-opacity: 0.2; stroke: #395d9c; stroke-opacity: 0.2"/>
    </g>
   </g>
   <g id="PolyCollection_7">
    <defs>
     <path id="m41ec63979e" d="M 243.535537 -99.951759 
L 243.535537 -41.911266 
L 244.919008 -45.005128 
L 246.302479 -41.76 
L 247.68595 -47.292731 
L 249.069421 -42.446471 
L 250.452893 -52.587046 
L 251.836364 -57.957136 
L 253.219835 -62.511244 
L 254.603306 -54.501559 
L 255.986777 -66.09549 
L 257.370248 -63.069358 
L 258.753719 -60.136922 
L 260.13719 -61.475066 
L 261.520661 -69.836923 
L 262.904132 -72.084935 
L 264.287603 -76.214483 
L 265.671074 -76.99747 
L 267.054545 -77.0401 
L 268.438017 -78.082876 
L 269.821488 -77.121273 
L 271.204959 -76.588114 
L 272.58843 -62.688712 
L 273.971901 -65.825383 
L 275.355372 -68.515662 
L 276.738843 -70.643145 
L 278.122314 -71.620587 
L 279.505785 -77.026492 
L 280.889256 -71.491618 
L 282.272727 -70.687752 
L 283.656198 -65.982177 
L 285.039669 -74.522741 
L 286.42314 -83.821688 
L 287.806612 -83.585871 
L 289.190083 -72.248942 
L 290.573554 -78.560231 
L 291.957025 -66.546817 
L 293.340496 -64.842303 
L 294.723967 -70.503207 
L 296.107438 -69.167048 
L 297.490909 -63.497329 
L 298.87438 -74.817633 
L 300.257851 -72.657502 
L 301.641322 -76.513562 
L 303.024793 -69.531446 
L 304.408264 -69.647776 
L 305.791736 -70.054836 
L 307.175207 -70.79624 
L 308.558678 -64.097226 
L 309.942149 -69.341853 
L 311.32562 -69.263939 
L 312.709091 -198.804714 
L 314.092562 -185.623669 
L 315.476033 -189.149658 
L 316.859504 -173.25555 
L 318.242975 -156.969775 
L 319.626446 -159.528043 
L 321.009917 -152.631541 
L 322.393388 -155.532972 
L 323.77686 -137.963113 
L 325.160331 -132.674698 
L 326.543802 -136.986993 
L 327.927273 -142.661222 
L 329.310744 -134.56965 
L 330.694215 -143.048706 
L 332.077686 -134.549001 
L 333.461157 -132.456585 
L 334.844628 -135.33823 
L 336.228099 -138.598096 
L 337.61157 -136.291634 
L 338.995041 -131.53099 
L 340.378512 -123.908137 
L 341.761983 -129.617421 
L 343.145455 -124.831709 
L 344.528926 -132.085492 
L 345.912397 -125.547881 
L 347.295868 -132.779113 
L 348.679339 -128.209191 
L 350.06281 -134.294763 
L 351.446281 -127.741565 
L 352.829752 -131.987911 
L 354.213223 -128.427066 
L 355.596694 -131.332602 
L 356.980165 -119.836459 
L 358.363636 -122.555924 
L 359.747107 -120.486504 
L 361.130579 -121.640454 
L 362.51405 -116.639118 
L 363.897521 -111.400372 
L 365.280992 -105.2597 
L 366.664463 -105.449273 
L 368.047934 -101.310298 
L 369.431405 -101.432316 
L 370.814876 -104.698969 
L 372.198347 -109.481938 
L 373.581818 -101.313339 
L 374.965289 -98.878781 
L 376.34876 -100.282878 
L 377.732231 -99.285247 
L 379.115702 -89.655397 
L 380.499174 -90.109234 
L 381.882645 -82.283632 
L 381.882645 -140.643475 
L 381.882645 -140.643475 
L 380.499174 -149.120014 
L 379.115702 -142.559323 
L 377.732231 -151.488003 
L 376.34876 -152.551317 
L 374.965289 -149.141555 
L 373.581818 -152.244536 
L 372.198347 -162.720931 
L 370.814876 -158.416388 
L 369.431405 -156.899427 
L 368.047934 -157.262065 
L 366.664463 -157.791694 
L 365.280992 -156.509819 
L 363.897521 -163.066535 
L 362.51405 -166.523149 
L 361.130579 -169.391438 
L 359.747107 -169.092515 
L 358.363636 -175.836077 
L 356.980165 -170.481452 
L 355.596694 -180.496375 
L 354.213223 -177.851743 
L 352.829752 -176.927325 
L 351.446281 -178.126816 
L 350.06281 -183.895999 
L 348.679339 -178.116451 
L 347.295868 -180.029015 
L 345.912397 -176.561931 
L 344.528926 -183.057751 
L 343.145455 -175.546134 
L 341.761983 -179.372327 
L 340.378512 -176.466848 
L 338.995041 -181.283573 
L 337.61157 -183.636065 
L 336.228099 -185.527922 
L 334.844628 -186.04943 
L 333.461157 -182.046009 
L 332.077686 -185.74798 
L 330.694215 -191.024977 
L 329.310744 -185.791977 
L 327.927273 -190.302347 
L 326.543802 -185.267915 
L 325.160331 -184.275125 
L 323.77686 -187.142874 
L 322.393388 -199.64474 
L 321.009917 -201.615339 
L 319.626446 -202.859162 
L 318.242975 -198.404026 
L 316.859504 -210.24365 
L 315.476033 -221.886518 
L 314.092562 -217.042102 
L 312.709091 -228.501244 
L 311.32562 -95.962947 
L 309.942149 -106.53448 
L 308.558678 -107.007169 
L 307.175207 -110.875305 
L 305.791736 -109.022091 
L 304.408264 -116.93045 
L 303.024793 -118.682063 
L 301.641322 -127.175059 
L 300.257851 -121.356803 
L 298.87438 -123.062769 
L 297.490909 -118.375922 
L 296.107438 -118.709083 
L 294.723967 -119.750075 
L 293.340496 -115.51311 
L 291.957025 -114.611668 
L 290.573554 -123.977411 
L 289.190083 -123.242394 
L 287.806612 -134.072251 
L 286.42314 -133.873712 
L 285.039669 -126.947615 
L 283.656198 -121.867211 
L 282.272727 -124.552285 
L 280.889256 -125.624738 
L 279.505785 -130.824036 
L 278.122314 -127.253211 
L 276.738843 -124.397382 
L 275.355372 -119.171934 
L 273.971901 -119.109123 
L 272.58843 -118.493884 
L 271.204959 -128.562724 
L 269.821488 -128.903283 
L 268.438017 -131.89187 
L 267.054545 -130.760901 
L 265.671074 -130.506896 
L 264.287603 -132.282795 
L 262.904132 -124.874649 
L 261.520661 -125.162079 
L 260.13719 -118.795532 
L 258.753719 -115.37961 
L 257.370248 -120.160945 
L 255.986777 -124.025127 
L 254.603306 -110.989801 
L 253.219835 -118.211364 
L 251.836364 -111.306749 
L 250.452893 -111.046808 
L 249.069421 -102.173812 
L 247.68595 -102.971995 
L 246.302479 -97.55867 
L 244.919008 -102.949406 
L 243.535537 -99.951759 
z
" style="stroke: #3497a9; stroke-opacity: 0.2"/>
    </defs>
    <g clip-path="url(#pf1edfcc3ed)">
     <use xlink:href="#m41ec63979e" x="0" y="288" style="fill: #3497a9; fill-opacity: 0.2; stroke: #3497a9; stroke-opacity: 0.2"/>
    </g>
   </g>
   <g id="PolyCollection_8">
    <defs>
     <path id="m56a9cf8d9c" d="M 243.535537 -153.406828 
L 243.535537 -126.169842 
L 244.919008 -123.204003 
L 246.302479 -118.934179 
L 247.68595 -120.278843 
L 249.069421 -122.897819 
L 250.452893 -122.526432 
L 251.836364 -113.472866 
L 253.219835 -119.735358 
L 254.603306 -116.20447 
L 255.986777 -121.293651 
L 257.370248 -117.714019 
L 258.753719 -116.326821 
L 260.13719 -116.565629 
L 261.520661 -112.98305 
L 262.904132 -113.678394 
L 264.287603 -114.499116 
L 265.671074 -114.935396 
L 267.054545 -110.738203 
L 268.438017 -114.650768 
L 269.821488 -113.475613 
L 271.204959 -110.646296 
L 272.58843 -110.797758 
L 273.971901 -111.381368 
L 275.355372 -107.973292 
L 276.738843 -109.047016 
L 278.122314 -111.375779 
L 279.505785 -110.282509 
L 280.889256 -109.108005 
L 282.272727 -106.565766 
L 283.656198 -104.985224 
L 285.039669 -107.736124 
L 286.42314 -104.645373 
L 287.806612 -103.895178 
L 289.190083 -102.432064 
L 290.573554 -102.443394 
L 291.957025 -103.858331 
L 293.340496 -101.207408 
L 294.723967 -101.210276 
L 296.107438 -100.545403 
L 297.490909 -102.234325 
L 298.87438 -103.693794 
L 300.257851 -94.16887 
L 301.641322 -99.590584 
L 303.024793 -95.423597 
L 304.408264 -95.237312 
L 305.791736 -97.510294 
L 307.175207 -97.500872 
L 308.558678 -97.906203 
L 309.942149 -87.428976 
L 311.32562 -81.186432 
L 312.709091 -183.998861 
L 314.092562 -180.868697 
L 315.476033 -175.003678 
L 316.859504 -177.268882 
L 318.242975 -173.609688 
L 319.626446 -175.294483 
L 321.009917 -179.532283 
L 322.393388 -172.301739 
L 323.77686 -167.542416 
L 325.160331 -170.162074 
L 326.543802 -173.859815 
L 327.927273 -167.619369 
L 329.310744 -170.335009 
L 330.694215 -167.333901 
L 332.077686 -169.1677 
L 333.461157 -170.989481 
L 334.844628 -163.204273 
L 336.228099 -166.734333 
L 337.61157 -168.035868 
L 338.995041 -159.938656 
L 340.378512 -164.336059 
L 341.761983 -164.451131 
L 343.145455 -162.12353 
L 344.528926 -161.035304 
L 345.912397 -162.539359 
L 347.295868 -158.644396 
L 348.679339 -158.901046 
L 350.06281 -164.527066 
L 351.446281 -162.663287 
L 352.829752 -160.342505 
L 354.213223 -157.031916 
L 355.596694 -151.437108 
L 356.980165 -151.761315 
L 358.363636 -152.527241 
L 359.747107 -153.91536 
L 361.130579 -156.877919 
L 362.51405 -153.55438 
L 363.897521 -154.963776 
L 365.280992 -153.550358 
L 366.664463 -155.226141 
L 368.047934 -153.986753 
L 369.431405 -160.020752 
L 370.814876 -155.295895 
L 372.198347 -155.626735 
L 373.581818 -156.086476 
L 374.965289 -153.844382 
L 376.34876 -155.373169 
L 377.732231 -153.247253 
L 379.115702 -156.192188 
L 380.499174 -151.637001 
L 381.882645 -151.69513 
L 381.882645 -176.092636 
L 381.882645 -176.092636 
L 380.499174 -178.225774 
L 379.115702 -180.834113 
L 377.732231 -178.005355 
L 376.34876 -181.027514 
L 374.965289 -180.158542 
L 373.581818 -182.780703 
L 372.198347 -180.988691 
L 370.814876 -180.487901 
L 369.431405 -185.785928 
L 368.047934 -178.203245 
L 366.664463 -179.474188 
L 365.280992 -178.739597 
L 363.897521 -177.878816 
L 362.51405 -178.532231 
L 361.130579 -181.443676 
L 359.747107 -177.885331 
L 358.363636 -178.345428 
L 356.980165 -176.092646 
L 355.596694 -176.315054 
L 354.213223 -182.006143 
L 352.829752 -184.075876 
L 351.446281 -186.892779 
L 350.06281 -188.032082 
L 348.679339 -183.95443 
L 347.295868 -182.172412 
L 345.912397 -186.443803 
L 344.528926 -184.413247 
L 343.145455 -186.234281 
L 341.761983 -186.551731 
L 340.378512 -187.059809 
L 338.995041 -182.273952 
L 337.61157 -190.038698 
L 336.228099 -189.291766 
L 334.844628 -185.182713 
L 333.461157 -190.866338 
L 332.077686 -190.214055 
L 330.694215 -188.837873 
L 329.310744 -193.403651 
L 327.927273 -187.927373 
L 326.543802 -193.679077 
L 325.160331 -190.712115 
L 323.77686 -187.548592 
L 322.393388 -191.998086 
L 321.009917 -197.476497 
L 319.626446 -192.94614 
L 318.242975 -190.440827 
L 316.859504 -192.248475 
L 315.476033 -190.582888 
L 314.092562 -197.350412 
L 312.709091 -197.496527 
L 311.32562 -96.455588 
L 309.942149 -104.526012 
L 308.558678 -118.446133 
L 307.175207 -117.463265 
L 305.791736 -116.4634 
L 304.408264 -113.722697 
L 303.024793 -115.286908 
L 301.641322 -119.520418 
L 300.257851 -113.610989 
L 298.87438 -124.641449 
L 297.490909 -125.002887 
L 296.107438 -123.007669 
L 294.723967 -123.922555 
L 293.340496 -125.223264 
L 291.957025 -126.539029 
L 290.573554 -124.226929 
L 289.190083 -126.244428 
L 287.806612 -126.6816 
L 286.42314 -129.508959 
L 285.039669 -133.039887 
L 283.656198 -128.251916 
L 282.272727 -129.388659 
L 280.889256 -134.190209 
L 279.505785 -134.59106 
L 278.122314 -133.123671 
L 276.738843 -134.086654 
L 275.355372 -131.422636 
L 273.971901 -135.378282 
L 272.58843 -136.09239 
L 271.204959 -135.426726 
L 269.821488 -137.361891 
L 268.438017 -138.476261 
L 267.054545 -135.013225 
L 265.671074 -139.889078 
L 264.287603 -141.412532 
L 262.904132 -138.345957 
L 261.520661 -138.356084 
L 260.13719 -142.169864 
L 258.753719 -141.250041 
L 257.370248 -143.558344 
L 255.986777 -148.701687 
L 254.603306 -143.696979 
L 253.219835 -146.644898 
L 251.836364 -138.53214 
L 250.452893 -149.146704 
L 249.069421 -148.292987 
L 247.68595 -149.156163 
L 246.302479 -145.229172 
L 244.919008 -148.806135 
L 243.535537 -153.406828 
z
" style="stroke: #60ceac; stroke-opacity: 0.2"/>
    </defs>
    <g clip-path="url(#pf1edfcc3ed)">
     <use xlink:href="#m56a9cf8d9c" x="0" y="288" style="fill: #60ceac; fill-opacity: 0.2; stroke: #60ceac; stroke-opacity: 0.2"/>
    </g>
   </g>
   <g id="line2d_23">
    <path d="M 243.535537 132.344264 
L 244.919008 138.995415 
L 246.302479 142.64695 
L 247.68595 143.227655 
L 249.069421 137.646054 
L 250.452893 142.308353 
L 251.836364 140.107268 
L 253.219835 134.961529 
L 254.603306 139.397021 
L 255.986777 135.154514 
L 257.370248 136.782518 
L 258.753719 133.778678 
L 260.13719 135.20148 
L 261.520661 139.316354 
L 262.904132 135.265784 
L 264.287603 141.532227 
L 265.671074 141.660024 
L 267.054545 144.030439 
L 268.438017 142.589623 
L 269.821488 141.19608 
L 271.204959 140.511259 
L 272.58843 143.159406 
L 273.971901 155.313557 
L 275.355372 153.147939 
L 276.738843 164.279712 
L 278.122314 167.004111 
L 279.505785 159.766017 
L 280.889256 163.687942 
L 282.272727 164.463469 
L 283.656198 166.644075 
L 285.039669 162.095033 
L 286.42314 170.612389 
L 287.806612 168.729887 
L 289.190083 167.204736 
L 290.573554 171.108013 
L 291.957025 175.031511 
L 293.340496 173.745223 
L 294.723967 164.078724 
L 296.107438 172.704439 
L 297.490909 173.816178 
L 298.87438 174.954291 
L 300.257851 177.330274 
L 301.641322 177.593394 
L 303.024793 186.037289 
L 304.408264 187.277202 
L 305.791736 187.101015 
L 307.175207 179.541497 
L 308.558678 183.888604 
L 309.942149 190.869723 
L 311.32562 198.523294 
L 312.709091 109.508713 
L 314.092562 112.942676 
L 315.476033 114.698499 
L 316.859504 116.345644 
L 318.242975 114.854465 
L 319.626446 117.15651 
L 321.009917 113.049746 
L 322.393388 106.984027 
L 323.77686 108.204538 
L 325.160331 109.506136 
L 326.543802 106.859733 
L 327.927273 110.63077 
L 329.310744 109.718466 
L 330.694215 108.674742 
L 332.077686 111.761257 
L 333.461157 108.876192 
L 334.844628 109.360495 
L 336.228099 110.605129 
L 337.61157 117.562181 
L 338.995041 115.087424 
L 340.378512 113.769513 
L 341.761983 115.646113 
L 343.145455 114.826702 
L 344.528926 113.441888 
L 345.912397 116.521853 
L 347.295868 120.808663 
L 348.679339 117.257071 
L 350.06281 121.848002 
L 351.446281 119.657257 
L 352.829752 118.83764 
L 354.213223 120.337142 
L 355.596694 113.203782 
L 356.980165 118.247749 
L 358.363636 121.638413 
L 359.747107 119.578021 
L 361.130579 118.910332 
L 362.51405 117.679988 
L 363.897521 117.696736 
L 365.280992 124.785572 
L 366.664463 116.542395 
L 368.047934 120.038754 
L 369.431405 118.93944 
L 370.814876 127.980211 
L 372.198347 119.991496 
L 373.581818 120.649985 
L 374.965289 121.485815 
L 376.34876 122.470875 
L 377.732231 125.53637 
L 379.115702 122.716251 
L 380.499174 119.91325 
L 381.882645 126.18823 
" clip-path="url(#pf1edfcc3ed)" style="fill: none; stroke: #382a54; stroke-width: 1.5; stroke-linecap: round"/>
   </g>
   <g id="line2d_24">
    <path d="M 243.535537 122.255461 
L 244.919008 103.118112 
L 246.302479 112.50215 
L 247.68595 117.968792 
L 249.069421 124.079113 
L 250.452893 125.381252 
L 251.836364 122.944104 
L 253.219835 132.232146 
L 254.603306 125.843787 
L 255.986777 120.259295 
L 257.370248 128.167912 
L 258.753719 130.615676 
L 260.13719 126.045715 
L 261.520661 123.260422 
L 262.904132 116.674023 
L 264.287603 117.424956 
L 265.671074 120.92882 
L 267.054545 125.197246 
L 268.438017 111.964124 
L 269.821488 121.257143 
L 271.204959 119.254739 
L 272.58843 131.640076 
L 273.971901 122.177257 
L 275.355372 127.961135 
L 276.738843 122.550267 
L 278.122314 127.029037 
L 279.505785 134.359427 
L 280.889256 136.132004 
L 282.272727 122.487486 
L 283.656198 113.672853 
L 285.039669 141.605226 
L 286.42314 129.175372 
L 287.806612 124.883022 
L 289.190083 119.069516 
L 290.573554 134.874275 
L 291.957025 133.866238 
L 293.340496 149.442048 
L 294.723967 154.541383 
L 296.107438 156.284461 
L 297.490909 156.884627 
L 298.87438 164.353181 
L 300.257851 172.647069 
L 301.641322 187.359671 
L 303.024793 183.988076 
L 304.408264 191.756542 
L 305.791736 172.312018 
L 307.175207 175.846429 
L 308.558678 175.775039 
L 309.942149 212.855387 
L 311.32562 210.664386 
L 312.709091 103.948744 
L 314.092562 100.937385 
L 315.476033 101.590099 
L 316.859504 97.878945 
L 318.242975 95.408944 
L 319.626446 104.744322 
L 321.009917 103.5297 
L 322.393388 99.608502 
L 323.77686 101.588668 
L 325.160331 97.895073 
L 326.543802 108.283347 
L 327.927273 97.91417 
L 329.310744 107.839588 
L 330.694215 113.310737 
L 332.077686 118.438526 
L 333.461157 103.115057 
L 334.844628 94.316466 
L 336.228099 98.916376 
L 337.61157 96.216506 
L 338.995041 90.888007 
L 340.378512 87.981532 
L 341.761983 95.476574 
L 343.145455 90.59224 
L 344.528926 89.406712 
L 345.912397 93.217387 
L 347.295868 95.801415 
L 348.679339 86.647052 
L 350.06281 92.753699 
L 351.446281 97.6736 
L 352.829752 96.090518 
L 354.213223 115.264886 
L 355.596694 110.928318 
L 356.980165 105.935062 
L 358.363636 106.142181 
L 359.747107 96.958532 
L 361.130579 91.680189 
L 362.51405 99.364449 
L 363.897521 92.109807 
L 365.280992 101.484788 
L 366.664463 90.117037 
L 368.047934 87.304252 
L 369.431405 91.35458 
L 370.814876 96.249873 
L 372.198347 88.905043 
L 373.581818 88.90421 
L 374.965289 84.865588 
L 376.34876 83.527285 
L 377.732231 84.080904 
L 379.115702 87.091687 
L 380.499174 88.304642 
L 381.882645 88.401516 
" clip-path="url(#pf1edfcc3ed)" style="fill: none; stroke: #395d9c; stroke-width: 1.5; stroke-linecap: round"/>
   </g>
   <g id="line2d_25">
    <path d="M 243.535537 217.081435 
L 244.919008 213.771683 
L 246.302479 217.60209 
L 247.68595 212.564945 
L 249.069421 215.669398 
L 250.452893 205.825906 
L 251.836364 203.629378 
L 253.219835 197.539027 
L 254.603306 204.168146 
L 255.986777 194.146107 
L 257.370248 195.797395 
L 258.753719 197.999831 
L 260.13719 197.106152 
L 261.520661 191.870353 
L 262.904132 190.273908 
L 264.287603 184.265395 
L 265.671074 184.657023 
L 267.054545 183.028742 
L 268.438017 183.51162 
L 269.821488 185.189091 
L 271.204959 186.304544 
L 272.58843 199.979598 
L 273.971901 196.678795 
L 275.355372 193.529798 
L 276.738843 191.836524 
L 278.122314 187.516089 
L 279.505785 185.180141 
L 280.889256 188.440529 
L 282.272727 190.414825 
L 283.656198 192.418621 
L 285.039669 187.493162 
L 286.42314 179.829481 
L 287.806612 179.083064 
L 289.190083 189.36926 
L 290.573554 186.476619 
L 291.957025 197.897664 
L 293.340496 198.161513 
L 294.723967 193.4202 
L 296.107438 193.338711 
L 297.490909 198.342584 
L 298.87438 188.330004 
L 300.257851 192.042898 
L 301.641322 184.548149 
L 303.024793 193.555927 
L 304.408264 194.051003 
L 305.791736 199.354964 
L 307.175207 196.769153 
L 308.558678 202.066131 
L 309.942149 200.600466 
L 311.32562 205.321001 
L 312.709091 74.766093 
L 314.092562 86.681059 
L 315.476033 82.926649 
L 316.859504 96.099941 
L 318.242975 109.511925 
L 319.626446 106.769768 
L 321.009917 109.878692 
L 322.393388 110.48632 
L 323.77686 125.439873 
L 325.160331 127.702616 
L 326.543802 126.598475 
L 327.927273 120.545599 
L 329.310744 127.559148 
L 330.694215 121.704181 
L 332.077686 127.876027 
L 333.461157 130.862436 
L 334.844628 127.634998 
L 336.228099 127.394009 
L 337.61157 127.703657 
L 338.995041 130.849223 
L 340.378512 137.469661 
L 341.761983 134.586782 
L 343.145455 136.691818 
L 344.528926 130.468646 
L 345.912397 136.621702 
L 347.295868 130.584025 
L 348.679339 134.96221 
L 350.06281 131.13189 
L 351.446281 134.932093 
L 352.829752 133.749537 
L 354.213223 134.863239 
L 355.596694 133.49257 
L 356.980165 141.914438 
L 358.363636 138.561927 
L 359.747107 143.215783 
L 361.130579 142.182704 
L 362.51405 145.908689 
L 363.897521 151.472396 
L 365.280992 156.913743 
L 366.664463 155.938199 
L 368.047934 157.908609 
L 369.431405 158.265742 
L 370.814876 156.745334 
L 372.198347 153.596109 
L 373.581818 160.24514 
L 374.965289 164.001383 
L 376.34876 162.081037 
L 377.732231 162.683718 
L 379.115702 171.401242 
L 380.499174 168.443575 
L 381.882645 177.518374 
" clip-path="url(#pf1edfcc3ed)" style="fill: none; stroke: #3497a9; stroke-width: 1.5; stroke-linecap: round"/>
   </g>
   <g id="line2d_26">
    <path d="M 243.535537 147.978922 
L 244.919008 152.374343 
L 246.302479 155.703406 
L 247.68595 153.024703 
L 249.069421 152.465313 
L 250.452893 152.990642 
L 251.836364 161.552882 
L 253.219835 154.939504 
L 254.603306 157.502407 
L 255.986777 153.302487 
L 257.370248 156.687496 
L 258.753719 159.199259 
L 260.13719 158.84706 
L 261.520661 162.574931 
L 262.904132 161.603455 
L 264.287603 159.80042 
L 265.671074 160.952173 
L 267.054545 165.20765 
L 268.438017 161.351967 
L 269.821488 162.809528 
L 271.204959 164.606444 
L 272.58843 164.377083 
L 273.971901 164.307357 
L 275.355372 168.492692 
L 276.738843 167.242446 
L 278.122314 165.473176 
L 279.505785 165.779465 
L 280.889256 166.347535 
L 282.272727 170.475467 
L 283.656198 171.221847 
L 285.039669 167.98966 
L 286.42314 171.009767 
L 287.806612 172.495115 
L 289.190083 173.602255 
L 290.573554 174.694192 
L 291.957025 172.939154 
L 293.340496 175.232275 
L 294.723967 175.990035 
L 296.107438 176.166043 
L 297.490909 174.379716 
L 298.87438 174.103498 
L 300.257851 184.176055 
L 301.641322 178.65927 
L 303.024793 182.926459 
L 304.408264 183.371138 
L 305.791736 181.381878 
L 307.175207 180.702646 
L 308.558678 180.040658 
L 309.942149 191.788881 
L 311.32562 199.747797 
L 312.709091 97.292814 
L 314.092562 99.317941 
L 315.476033 104.982188 
L 316.859504 103.287485 
L 318.242975 105.986077 
L 319.626446 103.926943 
L 321.009917 99.216516 
L 322.393388 105.708801 
L 323.77686 110.374923 
L 325.160331 107.883935 
L 326.543802 103.988466 
L 327.927273 109.954372 
L 329.310744 105.865654 
L 330.694215 110.35846 
L 332.077686 108.494676 
L 333.461157 107.03868 
L 334.844628 114.465616 
L 336.228099 110.193262 
L 337.61157 109.600777 
L 338.995041 116.22498 
L 340.378512 112.229435 
L 341.761983 112.959827 
L 343.145455 114.327216 
L 344.528926 115.312105 
L 345.912397 113.894832 
L 347.295868 117.204101 
L 348.679339 116.865575 
L 350.06281 112.290632 
L 351.446281 113.008039 
L 352.829752 116.250985 
L 354.213223 117.949042 
L 355.596694 124.123869 
L 356.980165 124.106874 
L 358.363636 122.242699 
L 359.747107 121.533761 
L 361.130579 118.717858 
L 362.51405 122.769837 
L 363.897521 121.370729 
L 365.280992 121.31878 
L 366.664463 120.125425 
L 368.047934 121.727654 
L 369.431405 115.605438 
L 370.814876 120.034814 
L 372.198347 120.180275 
L 373.581818 118.814833 
L 374.965289 121.511025 
L 376.34876 119.564409 
L 377.732231 121.460907 
L 379.115702 119.164548 
L 380.499174 122.934506 
L 381.882645 123.928601 
" clip-path="url(#pf1edfcc3ed)" style="fill: none; stroke: #60ceac; stroke-width: 1.5; stroke-linecap: round"/>
   </g>
   <g id="line2d_27"/>
   <g id="line2d_28"/>
   <g id="line2d_29"/>
   <g id="line2d_30"/>
   <g id="patch_9">
    <path d="M 236.618182 256.32 
L 236.618182 34.56 
" style="fill: none; stroke: #262626; stroke-width: 1.25; stroke-linejoin: miter; stroke-linecap: square"/>
   </g>
   <g id="patch_10">
    <path d="M 388.8 256.32 
L 388.8 34.56 
" style="fill: none; stroke: #262626; stroke-width: 1.25; stroke-linejoin: miter; stroke-linecap: square"/>
   </g>
   <g id="patch_11">
    <path d="M 236.618182 256.32 
L 388.8 256.32 
" style="fill: none; stroke: #262626; stroke-width: 1.25; stroke-linejoin: miter; stroke-linecap: square"/>
   </g>
   <g id="patch_12">
    <path d="M 236.618182 34.56 
L 388.8 34.56 
" style="fill: none; stroke: #262626; stroke-width: 1.25; stroke-linejoin: miter; stroke-linecap: square"/>
   </g>
   <g id="legend_2">
    <g id="patch_13">
     <path d="M 376.7 48.86 
L 381.1 48.86 
Q 383.3 48.86 383.3 46.66 
L 383.3 42.26 
Q 383.3 40.06 381.1 40.06 
L 376.7 40.06 
Q 374.5 40.06 374.5 42.26 
L 374.5 46.66 
Q 374.5 48.86 376.7 48.86 
z
" style="fill: #ffffff; opacity: 0.8; stroke: #cccccc; stroke-linejoin: miter"/>
    </g>
   </g>
  </g>
 </g>
 <defs>
  <clipPath id="p0b2bf69a1b">
   <rect x="54" y="34.56" width="152.181818" height="221.76"/>
  </clipPath>
  <clipPath id="pf1edfcc3ed">
   <rect x="236.618182" y="34.56" width="152.181818" height="221.76"/>
  </clipPath>
 </defs>
</svg>
